<?xml version="1.0" encoding="utf-8"?>
<!-- Generator: Adobe Illustrator 27.0.0, SVG Export Plug-In . SVG Version: 6.00 Build 0)  -->
<svg version="1.1" id="Layer_1" xmlns="http://www.w3.org/2000/svg" xmlns:xlink="http://www.w3.org/1999/xlink" x="0px" y="0px"
	 viewBox="0 0 612.84 539.16" style="enable-background:new 0 0 612.84 539.16;" xml:space="preserve">
<style type="text/css">
	.st0{fill:#FFFFFF;stroke:#00B4EC;stroke-width:3;stroke-miterlimit:10;}
	.st1{fill:#003DA5;}
	.st2{fill:#E01837;}
	.st3{fill:#004B97;}
	.st4{fill:#004C99;}
	.st5{fill:#1B459B;}
	.st6{fill:#60D8F4;}
	.st7{fill:#FFFFFF;}
	.st8{fill:none;}
	.st9{fill:#1A459C;}
	.st10{fill:#00B4EC;}
	.st11{fill:#EBF9FC;}
</style>
<g>
	<path class="st3" d="M512.25,206.91c-5.65-1.54-11.3-3.13-16.97-4.62c-12.99-3.4-26.08-2.02-38.27,3.43
		c-12.12,5.42-24.18,10.97-36.27,16.45c-3.52,1.6-7.04,3.19-10.55,4.79c-18.19-5.89-36.38-11.78-54.56-17.68
		c-11.48-3.72-22.95-7.43-34.43-11.15c-2.66-0.86-5.32-1.89-8.02-2.6c-3.72-0.97-6.93,0.9-10.24,2.38
		c-11.06,4.92-22.11,9.85-33.17,14.77c-4.82,2.15-4.84,10.6,0,12.74c24.29,10.72,48.57,21.45,72.85,32.17
		c-0.89,0.41-1.78,0.82-2.67,1.22c-16.22,7.36-32.44,14.71-48.66,22.07c-7.22-3.33-14.43-6.65-21.65-9.98
		c-5.2-2.39-10.39-4.79-15.59-7.18c-1.17-0.54-2.34-1.09-3.51-1.62c-3.27-1.46-5.84-0.91-8.91,0.45
		c-5.14,2.29-10.29,4.58-15.43,6.87c-2.12,0.95-3.27,3.15-3.52,5.44c-0.33,1.78,0.04,3.67,1.42,5.4c0.17,0.23,0.35,0.46,0.54,0.66
		c0.02,0.02,0.04,0.05,0.06,0.08c9.06,9.05,18.12,18.11,27.17,27.16c1,2.25,2,4.5,3.01,6.75c1.3,2.92,2.31,6.77,5.24,8.48
		c3.63,2.13,8.83,2.67,12.82,3.75c6.89,1.87,13.77,3.75,20.66,5.62c4.27,1.16,8.29,2.96,12.61,1.08
		c12.88-5.61,25.66-11.43,38.49-17.14c25.74-11.46,51.48-22.93,77.23-34.39c23.8-10.6,47.59-21.19,71.39-31.79
		c6.39-2.85,12.79-5.69,19.18-8.54c1.02-0.45,2.05-0.87,3.05-1.36c9.03-4.4,12.39-15.45,8.12-24.35
		C521.41,211.55,517.15,208.44,512.25,206.91z M311.06,210.34c28.41,9.2,56.82,18.4,85.22,27.61c4.11,1.33,8.23,2.66,12.34,4
		c1.8,0.58,3.61,1.17,5.42,1.75c-11.05,4.92-22.1,9.84-33.15,14.77c-3.01-1.33-6.03-2.66-9.05-4c-2.38-1.05-4.88-2.44-7.43-3.28
		c-0.04-0.02-0.07-0.03-0.11-0.05c-24.24-10.71-48.49-21.41-72.73-32.12C298.07,216.13,304.56,213.24,311.06,210.34z M273.54,288.86
		c-4.64,2.06-9.27,4.13-13.91,6.19c-5.65-5.65-11.3-11.29-16.95-16.94c1.28-0.57,2.56-1.14,3.84-1.71
		C255.53,280.56,264.53,284.71,273.54,288.86z M508.91,227.47c-0.72,0.4-1.51,0.71-2.26,1.04c-3.86,1.72-7.72,3.44-11.58,5.16
		c-16.05,7.15-32.1,14.29-48.15,21.44c-39.94,17.79-79.89,35.58-119.83,53.37c-8.41,3.75-16.82,7.49-25.23,11.24
		c-10.92-2.97-21.84-5.94-32.76-8.91c-0.47-1.04-0.93-2.09-1.39-3.13c6.91-3.13,13.83-6.27,20.74-9.4c2.2-0.98,4.39-1.95,6.59-2.93
		c0.09-0.04,0.15-0.12,0.24-0.16c18.83-8.54,37.67-17.08,56.5-25.62c2.95-1.34,5.9-2.68,8.86-4.02c4.2,1.85,8.4,3.71,12.6,5.56
		c3.82,1.69,7.13,3.6,11.39,1.75c0.87-0.38,1.74-0.77,2.61-1.16c12.86-5.73,25.73-11.46,38.59-17.19c4.15-1.85,8.29-3.69,12.44-5.54
		c6.2-2.76,3.71-11.71-1.76-13.48c-1.86-0.6-3.73-1.21-5.59-1.81c5.19-2.35,10.38-4.71,15.57-7.06
		c10.17-4.61,20.36-10.29,31.39-11.34c-3.66,1.63-7.32,3.26-10.99,4.89c-1.55,0.69-3.1,1.38-4.65,2.07c-3.54,1.57-4.64,7-2.65,10.09
		c2.36,3.66,6.31,4.33,10.09,2.65c10.83-4.82,21.67-9.65,32.5-14.47c0.51-0.22,1.01-0.45,1.52-0.67c1.55,0.44,3.1,0.88,4.65,1.3
		c0.68,0.21,0.76,0.18,0.76,0.16c0.01,0.03,0.1,0.13,0.55,0.45c-0.73-0.52,0.31,0.43,0.7,0.77c-0.48-0.38,0.41,1.27,0.11,0.12
		c0.02,0.07,0.25,1.15,0.35,1.37c-0.02,0.36-0.03,0.82-0.02,0.97c-0.12,0.39-0.29,0.93-0.28,1.01
		C510.18,226.59,509.71,227.02,508.91,227.47z"/>
	<path class="st3" d="M141.7,193.47c4-0.18,7.37-3.24,7.37-7.37c0-7.85,0-15.71,0-23.56c0-1.11,0-2.22,0-3.33
		c0-3.86-3.39-7.55-7.37-7.37c-4,0.18-7.37,3.24-7.37,7.37c0,7.85,0,15.71,0,23.56c0,1.11,0,2.22,0,3.33
		C134.32,189.95,137.71,193.65,141.7,193.47z"/>
	<path class="st3" d="M519.58,397.14c-24.26,0-133.57,0-157.83,0c-38.36,0-76.73,0-115.09,0c-6.37,0-12.74,0-19.12,0
		c0-5.46,0-10.91,0-16.37c0-2.7,0-5.39,0-8.09c0-2.16-0.79-3.81-1.97-4.99c-0.07-0.09-0.16-0.17-0.24-0.25
		c-0.05-0.04-0.09-0.09-0.14-0.14c-1.18-1.2-2.84-2-5.02-2c-8.44,0-16.87,0-25.31,0c-2.91-9.72-5.82-19.45-8.73-29.17
		c-0.95-3.19-1.91-6.38-2.86-9.57c-0.4-1.33-0.66-3.12-1.27-4.46c0.03-1.25,0-2.51,0-3.76c0-28.31,0-56.62,0-84.93
		c0-6.74,0-13.47,0-20.21c1.22,0,2.45,0,3.67,0c1.98,0,3.52-0.66,4.67-1.67c1.21-0.92,2.13-2.19,2.44-3.74
		c4.31-21.81,8.62-43.63,12.93-65.44c0.61-3.07,1.21-6.13,1.82-9.2c0.92-4.64-2.04-9.33-7.11-9.33c-6.14,0-12.28,0-18.42,0
		c0-5.96,0-11.91,0-17.87c0-3.99-3.38-7.37-7.37-7.37c-19.23,0-38.46,0-57.7,0c-2.72,0-5.44,0-8.16,0c-3.99,0-7.37,3.38-7.37,7.37
		c0,5.96,0,11.91,0,17.87c-1.22,0-2.44,0-3.65,0c-4.92,0-9.84,0-14.76,0c-5.07,0-8.03,4.69-7.11,9.33
		c4.31,21.81,8.62,43.63,12.93,65.44c0.61,3.07,1.21,6.13,1.82,9.2c0.62,3.14,4.05,5.41,7.11,5.41c1.22,0,2.45,0,3.67,0
		c0,20.55,0,41.1,0,61.65c0,13.48,0,26.96,0,40.43c0,2.1-0.46,4.97-0.11,7.19c-0.08,0.32-0.13,0.64-0.21,0.89
		c-0.75,2.52-1.51,5.04-2.26,7.55c-3.43,11.46-6.86,22.92-10.29,34.38c-1.94,0-3.87,0-5.81,0c-6.5,0-13,0-19.5,0
		c-3.99,0-7.37,3.38-7.37,7.37c0,18.52,0,37.05,0,55.57c0,2.7,0,5.39,0,8.09c0,3.99,3.38,7.37,7.37,7.37c17.71,0,35.43,0,53.14,0
		c28.11,0,56.21,0,84.32,0c6.5,0,13,0,19.5,0c3.99,0,7.37-3.38,7.37-7.37c0-8.15,0-16.3,0-24.46c21.8,0,43.6,0,65.41,0
		c38.36,0,161.77,0,200.14,0c8.83,0,17.66,0,26.49,0C529.07,411.89,529.09,397.14,519.58,397.14z M115.83,325.53
		c0.51-2.22,0.31-4.6,0.31-6.86c0-28.31,0-56.62,0-84.93c0-6.84,0-13.68,0-20.53c16.77,0,33.54,0,50.31,0c0.27,0,0.53,0,0.8,0
		c0,20.79,0,41.58,0,62.37c0,13.37,0,26.73,0,40.1c0,2.53-0.14,5.09,0,7.62c0.21,3.78,1.94,7.67,3.02,11.26
		c3.07,10.25,6.13,20.49,9.2,30.74c-4.14,0-8.29,0-12.43,0c-20.35,0-40.69,0-61.04,0c-0.69,0-1.38,0-2.07,0
		c2.55-8.52,5.1-17.05,7.66-25.57C112.98,335.04,114.73,330.32,115.83,325.53z M166.46,113.34c0.26,0,0.52,0,0.78,0
		c0,3.5,0,7,0,10.5c-16.77,0-33.55,0-50.32,0c-0.26,0-0.52,0-0.78,0c0-3.5,0-7,0-10.5C132.92,113.34,149.69,113.34,166.46,113.34z
		 M91.93,138.59c5.61,0,11.23,0,16.84,0c19.23,0,38.46,0,57.7,0c2.72,0,5.44,0,8.16,0c3.68,0,7.35,0,11.03,0c1.94,0,3.87,0,5.81,0
		c-3.7,18.7-7.39,37.4-11.09,56.1c-0.25,1.26-0.5,2.52-0.75,3.78c-1.67,0-3.34,0-5,0c-19.23,0-38.46,0-57.68,0
		c-2.72,0-5.45,0-8.17,0c-0.03,0-0.06,0-0.08,0c-1.64,0-3.28,0-4.92,0C99.82,178.51,95.87,158.55,91.93,138.59z M167.03,428.97
		c-28.11,0-56.21,0-84.32,0c-4.04,0-8.08,0-12.12,0c0-16.07,0-32.13,0-48.2c0-0.24,0-0.48,0-0.72c7.81,0,15.62,0,23.43,0
		c7.45,0,14.89,0,22.34,0c20.35,0,40.69,0,61.04,0c3.99,0,7.99,0,11.98,0c3.77,0,7.54,0,11.3,0c4.04,0,8.08,0,12.12,0
		c0,16.07,0,32.13,0,48.2c0,0.24,0,0.48,0,0.72C197.54,428.97,182.29,428.97,167.03,428.97z"/>
</g>
</svg>
