<?xml version="1.0" encoding="UTF-8"?><svg id="Layer_1" xmlns="http://www.w3.org/2000/svg" viewBox="0 0 617.18 617.18"><defs><style>.cls-1{fill:#00aeef;}</style></defs><g><path class="cls-1" d="M353.37,446.38c43.44,0,89.54-26.49,108.49-85.03,7.47-23.06,6.19-38.27,4.85-54.37-.72-8.59-1.46-17.46-1-28.22l.27-6.28c2.08-46.58,4.23-94.75-37.86-111.78-41.02-16.6-71.7,16.73-101.37,48.95l-6.56,7.09c-7.25,7.8-14.29,13.72-21.1,19.44-3.67,3.08-7.26,6.1-10.76,9.3-1.26,1.16-1.35,3.13-.19,4.4,1.17,1.26,3.12,1.35,4.4,.19,3.44-3.15,6.96-6.11,10.56-9.13,6.95-5.84,14.14-11.88,21.65-19.96l6.58-7.12c29.54-32.07,57.46-62.36,94.46-47.39,38.01,15.37,35.96,61.31,33.98,105.74l-.28,6.29c-.47,11.15,.29,20.23,1.02,29.01,1.34,16.13,2.51,30.06-4.57,51.94-21.6,66.7-80.12,89.6-126.8,77.72-1.66-.45-3.35,.58-3.78,2.25-.42,1.66,.58,3.35,2.25,3.78,8.31,2.12,16.98,3.2,25.75,3.2Z"/><path class="cls-1" d="M424.19,374.57c1.05,0,2.08-.53,2.66-1.5,5.17-8.56,9.41-17.88,12.59-27.73,5.5-16.98,4.57-28.15,3.58-39.98-.52-6.24-1.06-12.69-.72-20.48l.43-9.64c.57-12.37,1.16-25.16,1.04-36.49-.02-1.71-1.41-3.08-3.11-3.08h-.03c-1.72,.02-3.1,1.43-3.08,3.14,.12,11.16-.47,23.86-1.04,36.14l-.44,9.66c-.35,8.19,.21,14.84,.75,21.26,.97,11.67,1.82,21.76-3.3,37.55-3.04,9.39-7.08,18.29-12,26.43-.89,1.47-.42,3.38,1.05,4.27,.5,.3,1.06,.45,1.61,.45Z"/><path class="cls-1" d="M385.9,411.71c.47,0,.94-.1,1.38-.32,9.35-4.64,18.12-11.4,26.06-20.12,1.16-1.27,1.07-3.24-.2-4.39-1.27-1.17-3.24-1.07-4.39,.2-7.42,8.14-15.58,14.45-24.23,18.73-1.54,.77-2.17,2.63-1.41,4.17,.55,1.1,1.65,1.73,2.79,1.73Z"/><path class="cls-1" d="M426.96,166.69c1.28,0,2.48-.8,2.93-2.07,.16-.46,3.95-11.38,2.8-24.85-.15-1.71-1.82-2.91-3.36-2.84-1.71,.15-2.98,1.65-2.84,3.36,1.03,12.09-2.43,22.16-2.47,22.26-.56,1.62,.29,3.39,1.9,3.97,.34,.12,.69,.18,1.03,.18Z"/><path class="cls-1" d="M247.28,466.46c21.09,0,43.28-4.43,64.55-13.26,1.58-.66,2.34-2.48,1.68-4.06-.66-1.59-2.49-2.34-4.06-1.68-39.38,16.34-81.88,17.08-113.69,1.94-23.62-11.23-40.1-30.6-47.67-56.02-5.93-19.89-3.49-41.59-1.14-62.58,1.4-12.4,2.71-24.11,2.36-35.29-1.38-43.94,.6-69.97,57.35-93.9,1.58-.67,2.33-2.49,1.66-4.07-.67-1.59-2.51-2.31-4.07-1.66-60.39,25.47-62.58,54.53-61.15,99.83,.34,10.73-.95,22.23-2.31,34.4-2.43,21.61-4.94,43.95,1.35,65.05,8.09,27.16,25.71,47.86,50.96,59.87,16.05,7.63,34.65,11.44,54.2,11.44Z"/><path class="cls-1" d="M242.09,451.41c-27.73-12.61-49.3-38.33-60.74-72.42-7.81-23.25-7.38-39.78-6.93-57.28,.18-7.05,.37-14.34,.07-22.5-.21-5.6-.53-11.17-.84-16.66-2.12-36.51-4.12-70.99,30.51-86.63,31.11-14.65,53.59,10.71,75.36,35.23,5.25,5.91,10.68,12.02,16.23,17.62,6.16,6.22,12.22,11.35,18.08,16.31,13.5,11.42,26.25,22.22,37.04,43.56,16.24,32.12,19.37,65.5,8.82,94-8.67,23.41-25.66,41.37-47.85,50.58-10.41,4.32-21.38,6.47-32.46,6.47-12.53,0-25.19-2.76-37.28-8.26Zm-35.31-249.86s-.03,.02-.04,.02c-30.76,13.88-28.96,44.81-26.89,80.62,.32,5.53,.64,11.14,.86,16.78,.3,8.36,.12,15.75-.07,22.89-.46,17.67-.85,32.93,6.61,55.14,10.89,32.44,31.28,56.86,57.43,68.75,21.19,9.64,44.2,10.26,64.79,1.7,20.57-8.54,36.34-25.22,44.4-46.99,9.95-26.86,6.92-58.48-8.53-89.04-10.22-20.21-21.94-30.13-35.5-41.62-5.96-5.05-12.13-10.26-18.49-16.67-5.67-5.72-11.15-11.9-16.46-17.87-17.59-19.81-33.26-37.47-52.49-37.47-4.93,0-10.1,1.17-15.59,3.75Z"/><path class="cls-1" d="M223.84,365.67c-6.96-16.66-7.48-34.67-1.4-49.4,4.51-10.94,12.47-19.24,22.43-23.37h0c24.14-10.02,54.06,6.28,66.64,36.37,6.96,16.66,7.48,34.66,1.4,49.4-4.51,10.94-12.47,19.23-22.43,23.37-4.83,2-9.89,2.96-15,2.96-20.43,0-41.58-15.25-51.64-39.32Zm23.41-67.03h0c-8.54,3.55-15.14,10.46-19.06,20-5.45,13.23-4.94,29.49,1.38,44.63,11.26,26.94,37.52,41.74,58.53,33.03,8.54-3.55,15.14-10.46,19.06-19.99,5.45-13.23,4.94-29.49-1.38-44.64-9.07-21.7-27.87-35.53-45.82-35.53-4.33,0-8.62,.81-12.7,2.5Z"/><path class="cls-1" d="M287.74,372.46c.93,0,1.86-.42,2.47-1.22,6.71-8.77,7.79-22.22,2.74-34.28-4.14-9.9-11.61-17.46-20.5-20.73-1.58-.61-3.39,.22-3.99,1.84-.6,1.61,.23,3.4,1.84,3.99,7.17,2.64,13.49,9.11,16.92,17.3,4.2,10.04,3.43,21.07-1.95,28.1-1.04,1.36-.78,3.32,.58,4.36,.57,.43,1.23,.64,1.89,.64Z"/></g><path class="cls-1" d="M308.59,617.18C138.44,617.18,0,478.75,0,308.59S138.44,0,308.59,0s308.59,138.44,308.59,308.59-138.44,308.59-308.59,308.59Zm0-609.86C142.48,7.33,7.33,142.47,7.33,308.59s135.15,301.26,301.26,301.26,301.26-135.15,301.26-301.26S474.71,7.33,308.59,7.33Z"/></svg>