<?xml version="1.0" encoding="UTF-8"?><svg id="Layer_1" xmlns="http://www.w3.org/2000/svg" viewBox="0 0 617.18 617.18"><defs><style>.cls-1{fill:#00aeef;}</style></defs><g id="oJvbdl"><path class="cls-1" d="M85.29,385.6c2.18-9.74,3.74-19.66,6.65-29.17,8.39-27.4,22.62-51.85,39.76-74.59,31.73-42.1,69.91-76.9,116.87-101.49,19.42-10.16,39.76-17.75,61.72-20.22,11.06-1.24,22.05-.88,32.83,2.25,27.46,7.97,41.28,31.91,34.8,60.29-3.81,16.69-11.78,31.48-21.06,45.63-4.76,7.25-9.85,14.29-15.27,22.12,2.49,0,4.44-.02,6.39,0,39.41,.39,77.83,6.2,114.62,20.89,4.85,1.94,9.6,4.14,14.29,6.42,4.3,2.08,5.71,5.68,3.95,9.23-1.73,3.47-5.45,4.41-9.73,2.47-5.52-2.49-11.03-4.97-16.92-7.63,1.72,8.24,3.63,15.81,4.84,23.49,2.08,13.14,2.15,26.38-.22,39.5-2.28,12.56-13.91,20.84-26.13,19-12.6-1.89-21.49-13.68-19.83-26.46,3.25-25.01-2.85-47.56-17.91-67.67-1.27-1.69-3.83-3.1-5.95-3.35-10.64-1.26-21.32-2.09-32.68-3.13,.77,1.87,1.12,2.93,1.62,3.91,11.53,22.73,16,46.85,14.26,72.19-.89,12.97-8.94,21.94-21.01,23.51-10.47,1.37-21.4-5.58-24.49-16.19-1.11-3.79-1.24-8.03-1-12.02,1.08-17.6-2.59-34.05-11.08-49.46-.27-.5-.69-.92-1.11-1.48-10.08,10.4-20.12,20.68-30.01,31.09-.82,.86-.89,2.64-.91,4-.11,6.82,.09,13.65-.14,20.47-.33,10.06-4.99,17.6-14.31,21.57-9.34,3.99-17.9,2.06-25.38-4.76-.42-.39-.89-.73-1.35-1.08-.11-.08-.26-.1-.22-.09-11.62,9.31-23.16,18.56-35.94,28.8,13.16,3.18,25.26,6.74,37.59,8.96,40.25,7.26,80.96,7.61,121.68,7.09,31.28-.4,62.45-2.24,93.16-8.73,12.67-2.68,25.08-6.22,36.63-12.27,2.44-1.28,4.83-2.68,7.11-4.22,18.27-12.32,22.84-31.13,11.28-49.98-4.1-6.7-10.13-12.24-15.43-18.17-2.32-2.6-3.05-5.3-1.43-8.34,1.49-2.78,4.09-3.59,7.08-2.98,.96,.19,1.98,.65,2.71,1.28,12.7,10.99,22.79,23.66,25.56,40.84,3.09,19.13-4.01,34.2-19.03,45.73-14.38,11.05-31.3,16.37-48.68,20.24-34.23,7.62-69.06,9.74-103.97,9.6-28.32-.12-56.69-.9-84.94-2.81-27.28-1.85-54.23-6.36-79.66-17.37-1.41-.61-3.88,.18-5.42,1.07-12.82,7.52-25.95,14.19-40.57,17.62-36.47,8.54-58.65-15.35-62.77-43.98-.16-1.11-.57-2.19-.86-3.28,0-6.11,0-12.21,0-18.32Zm71.62-114.63c27.92,4.08,50.31,16.01,67.94,36.76,1.54,1.81,4.27,3.11,6.66,3.61,4.19,.87,7.72-.93,9.98-4.66,2.47-4.08,2.18-8.29-.92-11.73-4.94-5.5-10.31-10.62-15.46-15.94-2.65-2.74-2.87-6.43-.67-9.05,2.32-2.76,6.46-3.32,9.3-.57,6.15,5.95,12.49,11.82,17.8,18.48,5.82,7.29,6.24,15.89,1.92,24.22-4.31,8.31-11.45,12.5-20.88,12.52-8.19,.02-14.22-4.03-19.41-10.06-16.39-19.05-37.54-28.72-62.31-30.98-1.47-.13-3.74-.13-4.4,.75-5.91,7.8-11.54,15.8-17.5,24.09,2.5,1.02,4.1,1.67,5.7,2.33,20.77,8.71,38.36,21.71,52.6,39.16,6.64,8.13,7.19,18.75,1.82,27.23-5.28,8.34-14.99,12.31-24.96,10.22-6.48-1.36-10.99-5.52-15.17-10.33-11.04-12.68-24.69-21.33-41.21-26.26-7.15,19.82-12.59,39.65-7.32,60.58,3.65,14.51,12.22,25.06,27.76,27.99,8.46,1.59,16.78-.01,24.86-2.74,18.96-6.41,35.45-17.24,51.37-29.02,27.8-20.57,52.27-44.83,76.28-69.55,20.76-21.36,41.97-42.33,58.76-67.19,9.29-13.75,18.26-27.62,23.61-43.49,2.82-8.38,4.55-16.98,2.75-25.71-3.15-15.29-13.78-23.65-28.15-27.06-25.06-5.94-48.05,2.1-71.47,11.72,1.91,1.09,3.12,1.82,4.36,2.5,17.05,9.4,31.49,21.84,43.13,37.43,10.36,13.88,3.58,33.23-13.05,36.87-10.59,2.32-18.88-1.79-25.5-10.27-15.04-19.27-35.14-29.91-59.08-33.6-1.59-.25-3.79-.23-4.9,.66-8.96,7.14-17.72,14.52-27.12,22.3,2.39,.89,3.87,1.4,5.32,1.99,5.77,2.37,11.58,4.63,17.26,7.2,3.36,1.52,4.53,4.47,3.43,7.99-1,3.2-3.49,4.62-6.75,4.22-1.54-.19-3-.99-4.49-1.53-7.49-2.71-14.96-5.5-22.5-8.08-1.14-.39-3.14-.3-3.86,.43-5.07,5.15-9.91,10.53-15.51,16.58Zm165.77,42.01c12.54,20.23,17.99,41.88,15.84,65.43-.56,6.17,3.91,10.94,9.61,11.37,5.57,.41,10.34-3.79,10.87-10.17,2.17-26.36-3.26-51.06-16.78-73.87-.57-.96-1.83-2.02-2.86-2.12-5.13-.5-10.15-.5-13.11,5.02-.8,1.5-2.18,2.69-3.57,4.35Zm88.88-3.5c.25,1.21,.23,1.52,.37,1.75,12.37,20.98,17.13,43.49,13.9,67.69-.8,6.03,3.35,11.2,8.96,11.88,5.69,.68,10.59-3.15,11.44-9.45,2.93-21.58,.32-42.51-7.9-62.69-.51-1.25-1.91-2.63-3.17-2.99-7.63-2.17-15.34-4.06-23.6-6.19Zm-184.55-101.58c25.35,6.3,44.88,19.03,59.99,38.61,3.77,4.89,10.32,5.46,14.75,1.89,4.45-3.59,5-9.67,1.09-14.8-13.12-17.26-29.68-30.15-49.67-38.55-1.18-.5-3.01-.72-4.02-.15-7.06,3.97-13.98,8.17-22.15,13.01Zm-114.25,130.63c19.9,6.33,35.69,17.4,48.69,32.69,4.02,4.73,10.49,4.88,14.77,.99,4.17-3.78,4.64-9.73,.51-14.42-4.59-5.21-9.41-10.3-14.6-14.89-11.61-10.26-24.89-17.76-39.92-22.79-3.13,6.11-6.16,12-9.45,18.41Zm157.08,30.85c-.32-.13-.65-.26-.97-.39-5.92,5.58-11.84,11.16-17.8,16.78,3.55,3.64,7.26,4.73,11.5,3.23,3.72-1.32,6.02-4.16,6.55-7.99,.53-3.83,.5-7.74,.72-11.62Z"/></g><path class="cls-1" d="M308.59,615.61C138.44,615.61,0,477.18,0,307.02S138.44-1.57,308.59-1.57s308.59,138.44,308.59,308.59-138.44,308.59-308.59,308.59Zm0-609.86C142.48,5.76,7.33,140.9,7.33,307.02s135.15,301.26,301.26,301.26,301.26-135.15,301.26-301.26S474.71,5.76,308.59,5.76Z"/></svg>