<?xml version="1.0" encoding="UTF-8"?><svg id="Layer_1" xmlns="http://www.w3.org/2000/svg" viewBox="0 0 617.18 617.18"><defs><style>.cls-1{fill:#00aeef;}</style></defs><path class="cls-1" d="M307.74,616.34C137.58,616.34-.85,477.9-.85,307.74S137.58-.85,307.74-.85s308.59,138.44,308.59,308.59-138.44,308.59-308.59,308.59Zm0-609.86C141.62,6.48,6.48,141.63,6.48,307.74s135.15,301.26,301.26,301.26,301.26-135.15,301.26-301.26S473.86,6.48,307.74,6.48Z"/><g><path class="cls-1" d="M472.56,272.27l-12.36-20.39-12.36-42.67s0,0-.01,0c-.13-.46-.3-.92-.53-1.35l-32.17-61.54c-1.25-2.39-3.73-3.9-6.43-3.9h-29.27c-2.62,0-5.03,1.41-6.32,3.69-.71,1.25-1,2.66-.91,4.05-.02,.2-.03,.4-.03,.61v49.64l-19.5,21.38c-10.1,11.07-21.92,20.27-35.12,27.35-3.53,1.89-4.86,6.29-2.97,9.82,1.31,2.44,3.81,3.83,6.4,3.83,1.16,0,2.33-.28,3.42-.86,14.66-7.86,27.77-18.07,38.99-30.36l21.48-23.54h5.21v24.96l-17.07,28.26c-13.94,23.08-33.84,42.06-57.56,54.89-28.82,15.58-62.52,21.43-94.91,16.47l-26.37-4.04c-2.43-.37-4.87-.61-7.31-.73-16-9.65-27.74-21.72-36.71-33.76l8.13-10.56c2.45-3.17,1.85-7.73-1.32-10.18-3.17-2.45-7.73-1.86-10.18,1.32l-5.2,6.75c-4.19-6.8-7.64-13.3-10.62-19.01l8.5-7.97,15.17,5.51c1.18,.43,2.46,.54,3.7,.33,8.33-1.42,16.93-.65,24.88,2.24l22.01,7.99c19.81,7.2,40.51,10,61.53,8.34,4-.32,6.98-3.81,6.66-7.81-.32-3.99-3.81-6.98-7.81-6.66-18.93,1.5-37.59-1.03-55.44-7.51l-22.01-7.99c-9.68-3.52-20.13-4.62-30.32-3.21l-17.61-6.4c-2.57-.93-5.45-.34-7.44,1.53l-15.77,14.8c-2.39,2.24-2.98,5.8-1.45,8.69,.62,1.17,1.26,2.39,1.92,3.67,8.55,16.35,21.95,41.94,47.41,62.25-1.71,.46-3.4,.97-5.07,1.56l-21.35-3.27c-2.71-.41-5.41,.73-7,2.95l-14.34,20.04c-1.9,2.66-1.79,6.27,.27,8.8,13.08,16.07,29.26,29.72,47.31,39.99l-9.29,18.33c-1.48,2.92-.82,6.46,1.6,8.66,9.89,8.96,20.9,16.71,32.65,23.08,.37,.25,.77,.47,1.2,.65,10.43,5.55,21.43,10.03,32.77,13.26l6.57,1.87c20.22,5.77,41.04,8.63,61.83,8.63,31.14,0,62.19-6.42,91.01-19.11,34.55-15.21,63.91-39.68,84.91-70.76l1.86-2.75c22.19-32.84,23.26-75.96,2.71-109.86Zm-28.59-24.28l-20.07,.91v-30.41h11.52l8.55,29.5Zm-39.66-91.05l24.58,47.03h-8.16l-28.43-47.03h12Zm5.08,56.31v10.29h-4.79v-18.21l4.79,7.93Zm-19.31-30.95v11.22h-3.39v-17.8l3.45,5.7c-.03,.29-.06,.58-.06,.88Zm-226.07,200.56l4.19-8.37c1.8-3.58,.35-7.94-3.24-9.74-3.58-1.8-7.94-.35-9.74,3.24l-3.14,6.27c-7.17-5.71-13.84-12.05-19.86-18.92l8.46-11.83,18.79,2.88c1.24,.19,2.52,.05,3.69-.4,9.16-3.5,19.12-4.57,28.81-3.08l26.37,4.04c35.49,5.44,72.42-.97,104.01-18.05,25.99-14.06,47.81-34.86,63.08-60.15l18.54-30.7h5.41v17l-14.69,35.61c-10.28,24.92-27.08,46.7-48.59,62.97-26.13,19.77-58.56,30.65-91.32,30.65h-26.68c-11.66,0-23.19,2.88-33.46,8.36h-13.23c-6-2.87-11.82-6.15-17.41-9.79Zm293.81-8.85l-1.86,2.75c-19.47,28.81-46.7,51.5-78.74,65.61-44.97,19.8-95.76,23.29-143.02,9.81l-6.57-1.87c-8.59-2.45-16.97-5.68-25.01-9.6l3.41-9.87c1.31-3.79-.7-7.92-4.49-9.23-3.79-1.31-7.92,.7-9.23,4.49l-2.6,7.54c-6.59-4.03-12.88-8.53-18.79-13.5l6.57-12.97h2.22s.02,0,.03,0c0,0,.02,0,.03,0h16.73c1.26,0,2.49-.33,3.59-.95,8.52-4.85,18.21-7.41,28.01-7.41h26.68c35.9,0,71.44-11.93,100.07-33.59,23.57-17.83,41.98-41.69,53.25-69.01l13.48-32.67,27.94-1.27,10.62,17.53c17.62,29.07,16.7,66.05-2.33,94.21Z"/><path class="cls-1" d="M303.27,263.73c-1.16-3.83-5.28-5.97-9.11-4.82-.01,0-.03,0-.04,.01-3.83,1.18-6.04,5.26-4.87,9.08,.96,3.12,3.87,5.11,6.99,5.11,.71,0,1.43-.1,2.14-.32,3.83-1.17,6.06-5.24,4.89-9.07Z"/><path class="cls-1" d="M441.98,358.55c-3.32-2.24-7.83-1.37-10.08,1.95l-.38,.56c-2.26,3.31-1.4,7.83,1.91,10.08,1.25,.85,2.67,1.26,4.08,1.26,2.32,0,4.6-1.11,6-3.17l.41-.61c2.24-3.32,1.37-7.83-1.95-10.08Z"/><path class="cls-1" d="M423.53,383.11c-2.83-2.83-7.43-2.82-10.26,.01-13.74,13.78-29.8,24.77-47.75,32.67-21.63,9.52-44.62,14.69-68.34,15.35-4.01,.11-7.16,3.45-7.05,7.46,.11,3.94,3.34,7.05,7.25,7.05,.07,0,.14,0,.21,0,25.61-.72,50.43-6.29,73.78-16.58,19.6-8.63,37.16-20.65,52.17-35.71,2.83-2.84,2.82-7.43-.02-10.26Z"/></g></svg>