<?xml version="1.0" encoding="UTF-8"?><svg id="Layer_1" xmlns="http://www.w3.org/2000/svg" viewBox="0 0 617.18 617.18"><defs><style>.cls-1{fill:#00aeef;}</style></defs><g><path class="cls-1" d="M231.1,126.63c-7.4,0-13.42,6.02-13.42,13.42s6.02,13.42,13.42,13.42h28.65v18.05h-14.82c-3.1,0-5.61,2.51-5.61,5.61v56.08c-12.78,0-23.17,9.45-23.17,21.05,0,3.3-2.01,6.36-5.38,8.2l-8.38,4.56c-6.93,3.78-11.24,10.69-11.24,18.05v177.06c0,1.49,.3,2.91,.73,4.27h-19.02c-3.1,0-5.61,2.51-5.61,5.61s2.51,5.61,5.61,5.61H450.77c3.1,0,5.61-2.51,5.61-5.61s-2.51-5.61-5.61-5.61h-32.27c8.57-7.83,13.99-19.05,13.99-31.55,0-17.56-10.99-33.44-27.14-39.8-4.5-23.27-22.45-41.44-44.95-46.83v-63.15c0-7.36-4.31-14.28-11.24-18.05l-8.38-4.56c-3.37-1.84-5.39-4.9-5.39-8.2,0-11.61-10.39-21.05-23.17-21.05v-56.08c0-3.1-2.51-5.61-5.61-5.61h-14.82v-18.05h23.3l23.72,16.82c2.34,1.66,5.05,2.46,7.73,2.46,4.19,0,8.32-1.95,10.94-5.59,2.1-2.93,2.93-6.49,2.33-10.04-.59-3.55-2.54-6.65-5.47-8.73l-29.2-20.73c-.95-.67-2.08-1.03-3.25-1.03m72.88,273.39c.29,2.19,1.84,4,3.96,4.63,13.26,3.96,22.52,16.38,22.52,30.22,0,17.4-14.15,31.55-31.55,31.55h-84.18c-21.57,0-39.12-17.55-39.12-39.12,0-18.88,13.47-35.05,32.04-38.44,1.77-.32,3.29-1.49,4.06-3.12,8.03-16.99,25.31-27.97,44.03-27.97,24.3,0,45.03,18.16,48.24,42.25Zm-192.43-89.07h61.37v88.34c-5.41,8.06-8.53,17.72-8.53,28.02,0,4.15,.56,8.16,1.51,12.01h-54.35v-128.37Zm26.53-170.9c0-1.21,.99-2.2,2.2-2.2h89.03l27.74,19.69c.65,.46,.84,1.1,.9,1.43,.06,.34,.08,1-.38,1.65-.71,.98-2.08,1.21-3.07,.51l-25.18-17.85c-.95-.67-2.08-1.03-3.24-1.03h-85.79c-1.21,0-2.2-.99-2.2-2.2Zm42.07,13.42h9.62v18.05h-9.62v-18.05Zm30.04,29.27v50.47h-50.47v-50.47h50.47Zm-93.26,94.14l8.38-4.56c6.93-3.78,11.24-10.69,11.24-18.05,0-5.42,5.37-9.83,11.96-9.83h72.9c6.59,0,11.96,4.41,11.96,9.83,0,7.36,4.31,14.28,11.24,18.05l8.38,4.57c3.37,1.84,5.39,4.9,5.39,8.2v61.58c-.88-.04-1.75-.12-2.63-.12-22.09,0-42.55,12.42-52.9,31.86-6.94,1.68-13.27,4.77-18.7,8.93v-82c0-3.1-2.51-5.61-5.61-5.61h-66.98v-14.64c0-3.3,2.01-6.36,5.38-8.2Zm.25,189.54c-3.06,0-5.63-1.96-5.63-4.27v-11.61h58.57c3.21,6.15,7.65,11.55,13,15.88h-65.93Z"/><path class="cls-1" d="M299.8,340.88c9.14,0,16.57-7.43,16.57-16.57s-7.43-16.57-16.57-16.57-16.57,7.43-16.57,16.57,7.43,16.57,16.57,16.57Zm0-21.91c2.95,0,5.35,2.4,5.35,5.35s-2.4,5.35-5.35,5.35-5.35-2.4-5.35-5.35,2.4-5.35,5.35-5.35Z"/><path class="cls-1" d="M397.51,323.39c12.12,0,21.99-9.86,21.99-21.98s-9.86-21.98-21.99-21.98-21.98,9.86-21.98,21.98,9.86,21.98,21.98,21.98Zm0-32.75c5.94,0,10.77,4.83,10.77,10.76s-4.83,10.76-10.77,10.76-10.76-4.83-10.76-10.76,4.83-10.76,10.76-10.76Z"/><path class="cls-1" d="M330.98,376.77c-4.85,2.74-8.34,7.2-9.83,12.56-1.49,5.36-.8,10.98,1.93,15.83,1.03,1.83,2.93,2.85,4.89,2.85,.93,0,1.88-.23,2.75-.73,2.7-1.52,3.65-4.95,2.12-7.64-1.26-2.24-1.58-4.83-.89-7.31,.69-2.47,2.3-4.53,4.53-5.8,2.24-1.26,4.84-1.58,7.31-.89,2.48,.69,4.53,2.3,5.8,4.53,1.52,2.7,4.95,3.65,7.64,2.13,2.7-1.52,3.65-4.95,2.13-7.64-2.74-4.85-7.2-8.34-12.56-9.83-5.35-1.49-10.98-.81-15.83,1.93Z"/><path class="cls-1" d="M355.64,432.75c-1.7,2.59-.98,6.07,1.61,7.77,2.6,1.7,6.07,.98,7.77-1.61,.72-1.1,1.83-1.86,3.12-2.12,1.3-.27,2.61-.02,3.71,.7,2.28,1.49,2.91,4.55,1.42,6.83-1.7,2.59-.98,6.07,1.61,7.77,.95,.62,2.02,.92,3.07,.92,1.83,0,3.62-.89,4.7-2.53,2.37-3.61,3.19-7.92,2.31-12.14-.88-4.22-3.35-7.85-6.96-10.22-3.61-2.37-7.93-3.18-12.15-2.31-4.22,.88-7.85,3.35-10.22,6.95Z"/></g><path class="cls-1" d="M308.59,617.19C138.44,617.19,0,478.75,0,308.59S138.44,0,308.59,0s308.59,138.44,308.59,308.59-138.44,308.59-308.59,308.59Zm0-609.86C142.48,7.33,7.33,142.48,7.33,308.59s135.15,301.26,301.26,301.26,301.26-135.15,301.26-301.26S474.71,7.33,308.59,7.33Z"/></svg>