<?xml version="1.0" encoding="UTF-8"?><svg id="Layer_1" xmlns="http://www.w3.org/2000/svg" viewBox="0 0 617.18 617.18"><defs><style>.cls-1{fill:#00aeef;}</style></defs><path class="cls-1" d="M308.59,616.87C138.44,616.87,0,478.44,0,308.28S138.44-.31,308.59-.31s308.59,138.44,308.59,308.59-138.44,308.59-308.59,308.59Zm0-609.86C142.48,7.02,7.33,142.16,7.33,308.28s135.15,301.26,301.26,301.26,301.26-135.15,301.26-301.26S474.71,7.02,308.59,7.02Z"/><g id="_9qepbG"><g><path class="cls-1" d="M241.84,461.58c-3.54,1.73-6.85,3.36-10.16,4.97-4.85,2.36-9.69,2.34-14.53-.05-39.71-19.59-64.75-50.6-73.25-94.39-4.03-20.79-6.51-41.71-4.98-62.96,1.43-19.87,6.56-38.33,18.91-54.45,10.79-14.08,17.73-30.13,22.78-47.04,3.14-10.53,9.58-18.56,18.66-24.49,2.63-1.72,5.62-3.64,8.59-3.92,5.53-.52,6.29-3.74,7.08-8.24,2.03-11.6,5.68-22.67,13.31-31.99,3.29-4.02,7.46-4.18,11.13-.55,1.89,1.87,3.77,3.75,5.64,5.63,3.27,3.29,3.46,7.01,.72,10.89-4.79,6.8-6.69,14.62-8.11,23.05,8.1,1.82,15.09,5.71,20.14,12,4,4.98,8.01,10.52,9.94,16.49,6.13,18.86,14.32,36.5,26.27,52.41,7.72,10.28,11.7,22.23,14.09,34.75,.25,1.3,.52,2.59,.84,4.21,.72-.33,1.31-.48,1.77-.82,12.96-9.57,27.31-15.51,43.36-17.72,16.74-2.3,32.34-8.33,47.12-16.37,11.07-6.02,22.59-7.37,34.64-4.03,2.65,.73,5.34,1.84,7.55,3.42,2.23,1.59,3.58,1.09,5.52-.31,9.66-6.97,19.94-12.71,31.88-14.69,3.18-.53,6.73-1.67,9.03,1.9,.87,1.35,1.67,2.96,1.82,4.52,.29,2.89,.09,5.84,.08,8.76-.02,4.62-2.32,7.37-6.85,8.1-8.23,1.32-15.07,5.49-21.64,10.15,8.75,15.22,8.47,30.21,.34,45.3-8.7,16.16-14.32,33.3-16.98,51.51-2.81,19.22-12.78,34.97-25.41,49.18-16.75,18.83-36.28,34.48-58.18,46.69-34.85,19.43-71.48,21.05-108.73,7.39-3.39-1.24-6.24-5.13-8.35-8.42-2-3.13-2.71-7.09-4.05-10.86Zm240.84-205.75c-2.08,.49-3.86,.83-5.6,1.33-9.86,2.86-18.34,8.25-26.42,14.39-3.34,2.54-6.63,2.21-10.03-.21-2.53-1.81-5.42-3.51-8.4-4.25-8.63-2.14-17.12-1.52-25.14,2.77-16.61,8.88-33.95,15.85-52.72,18.34-15.78,2.1-29.37,8.74-41.69,18.45-19.56,15.42-34.9,34.56-48.1,55.42-21.08,33.31-23.82,68.83-11.16,105.76,.77,2.26,3.31,4.73,5.58,5.52,33.07,11.6,65.76,10.51,96.8-5.99,23.59-12.54,44.21-29.4,61.6-49.89,11.12-13.11,18.88-27.78,21.29-45.1,.97-6.94,2.24-14,4.66-20.53,4.18-11.29,9.49-22.15,14.08-33.3,4.86-11.81,5.87-23.38-3.32-33.91-2.01-2.3-1.24-7.18,1.36-9.14,8.21-6.19,16.97-11.32,27.18-13.58v-6.1ZM218.67,453.24c.42-.21,.85-.43,1.27-.64V201.26c-.31-.26-.61-.52-.92-.78-1.14,1.04-2.66,1.88-3.35,3.16-17.63,32.6-28.75,67.21-32.2,104.21-3.71,39.86,2.29,78.12,19,114.52,4.84,10.54,10.76,20.59,16.19,30.86Zm10.49,.63c2.26-3.64,3.78-6.37,5.58-8.9,2.5-3.52,3-7.18,2.83-11.54-.32-8.06-.03-16.21,.83-24.23,2.45-22.88,11.66-43.09,25.13-61.55,1.53-2.09,2.55-5.01,2.67-7.6,1.15-23.09-1.28-45.85-6.7-68.32-5.78-23.99-14.55-46.82-26.43-68.44-.65-1.19-2.05-1.97-3.91-3.69v254.28Zm-22.42-3.07c-.06-.95-.03-1.1-.08-1.2-.57-1.05-1.14-2.09-1.73-3.13-29.16-50.84-37.56-105.15-27.06-162.57,5.83-31.88,16.9-61.85,33.08-89.95,1.09-1.89,1.4-4.23,2.07-6.37-.35-.25-.7-.5-1.05-.76-2.15,.89-4.46,1.51-6.43,2.71-7.74,4.69-13.55,11.05-16.22,19.89-5.56,18.43-13.16,35.89-24.94,51.26-10.85,14.15-15.12,30.49-16.5,47.84-1.44,18.26,.47,36.32,3.19,54.36,3.67,24.32,12.35,46.32,28.84,64.89,7.78,8.76,16.39,16.52,26.85,23.02Zm69.04-120.5c7.86-8.01,15.77-16.03,23.59-24.14,.7-.73,1.24-2.09,1.12-3.07-1.69-13.98-5.03-27.52-13.62-38.99-12.64-16.89-21.51-35.51-27.6-55.64-2.74-9.08-9.18-15.37-17.44-19.78-1.53-.82-3.33-1.14-6.31-2.12,.98,3.1,1.27,5.18,2.24,6.87,19.65,34.29,31.91,71,36.11,110.33,.95,8.92,1.29,17.9,1.9,26.53Zm-48.46-138.46c1.17-14.81,2.89-29.24,10.68-41.44-1.48-1.69-2.65-3.03-4.04-4.61-9.5,14.04-11.49,29.78-12.6,46.05h5.95Z"/><path class="cls-1" d="M353.08,361.28c-.3,8.02-2.95,12.37-8.17,14.93-5.24,2.58-10.72,2.36-14.9-1.6-10.02-9.48-19.84-19.21-29.27-29.28-5.04-5.38-3.95-13.98,1.43-19.08,5.35-5.07,13.6-5.44,19.18-.4,5.31,4.8,10.23,10.03,15.31,15.09,3.95,3.93,8.2,7.62,11.72,11.91,2.39,2.92,3.76,6.69,4.69,8.42Zm-41.5-30.95c-1.69,1.52-4.06,2.65-4.42,4.24-.45,1.96,.06,4.98,1.39,6.37,8.32,8.76,16.95,17.23,25.54,25.73,2.9,2.87,6.01,3.02,8.45,.68,2.42-2.33,2.22-5.85-.68-8.78-8.32-8.39-16.66-16.77-25.1-25.05-1.24-1.22-3.03-1.89-5.17-3.19Z"/><path class="cls-1" d="M365.36,373.59c1.8,.96,5.65,2.1,8.28,4.56,9,8.44,17.65,17.26,26.26,26.1,6.11,6.26,6.13,14.91,.38,20.67-5.7,5.71-14.57,5.66-20.68-.34-8.81-8.65-17.52-17.4-26.18-26.2-4.44-4.51-5.52-9.95-3.12-15.78,2.35-5.69,6.93-8.48,15.06-9.02Zm-2.29,8.14c-1.74,1.56-4.21,2.72-4.46,4.25-.35,2.13,.25,5.21,1.67,6.71,8.11,8.58,16.58,16.84,24.96,25.16,2.98,2.95,6.41,3.24,8.78,.9,2.48-2.43,2.27-5.7-.75-8.75-8.32-8.39-16.66-16.76-25.09-25.04-1.24-1.22-2.99-1.93-5.11-3.25Z"/><path class="cls-1" d="M343.93,304.08c1.67,.87,5.49,2.02,8.15,4.44,7.14,6.51,13.87,13.49,20.6,20.44,5.92,6.11,5.81,15.02,0,20.65-5.77,5.58-14.31,5.51-20.34-.38-7.02-6.85-13.98-13.76-20.78-20.83-4.25-4.42-5.19-9.79-2.81-15.46,2.38-5.68,6.9-8.5,15.19-8.87Zm-2.19,8.12c-1.75,1.42-4.2,2.43-4.61,3.98-.52,1.96-.12,5.04,1.18,6.44,6.39,6.93,13.16,13.51,19.89,20.12,2.89,2.84,6.07,2.89,8.46,.45,2.31-2.35,2.14-5.64-.65-8.48-6.44-6.53-12.92-13.02-19.47-19.43-1.16-1.14-2.77-1.81-4.8-3.09Z"/><path class="cls-1" d="M389.45,349.66c1.69,.86,5.43,1.91,8,4.25,7.24,6.62,14.09,13.68,20.9,20.74,5.76,5.98,5.6,14.77-.08,20.38-5.73,5.66-14.32,5.67-20.35-.21-7.03-6.85-13.99-13.79-20.81-20.85-4.29-4.45-5.11-9.89-2.75-15.49,2.38-5.65,6.95-8.48,15.09-8.82Zm-2.3,8.1c-1.72,1.49-4.12,2.57-4.49,4.13-.47,1.97,0,4.99,1.3,6.41,6.37,6.9,13.11,13.46,19.82,20.04,2.85,2.8,6.06,2.85,8.43,.45,2.39-2.42,2.28-5.53-.56-8.42-6.5-6.6-13.05-13.16-19.67-19.63-1.15-1.12-2.79-1.75-4.82-2.98Z"/><path class="cls-1" d="M279.35,367.09c.82-6.12,3.55-10.5,8.76-12.98,5.19-2.48,10.69-2.28,14.94,1.66,7.89,7.3,15.53,14.91,22.82,22.8,4.75,5.14,4.06,13.44-.72,18.57-4.94,5.31-13.35,6.63-18.73,1.8-8.29-7.43-16.05-15.48-23.65-23.63-1.9-2.03-2.32-5.44-3.42-8.22Zm14.65-6.41c-1.72,1.46-4.15,2.53-4.53,4.09-.48,1.96,.01,4.98,1.32,6.41,6.11,6.64,12.63,12.92,19.05,19.27,3.07,3.03,6.28,3.28,8.73,.84,2.38-2.38,2.14-5.81-.8-8.78-6.16-6.24-12.34-12.46-18.63-18.58-1.26-1.22-3.01-1.94-5.14-3.25Z"/><path class="cls-1" d="M357.84,447.09c-1.95-1.07-5.72-2.32-8.41-4.76-6.85-6.24-13.28-12.95-19.76-19.59-6.03-6.18-6.13-14.87-.42-20.65,5.75-5.82,14.42-5.82,20.62,.21,6.84,6.66,13.61,13.38,20.22,20.27,4.35,4.53,5.35,9.98,2.77,15.79-2.51,5.66-7.19,8.24-15.03,8.74Zm8.29-14.42c-1.24-1.95-2-3.65-3.21-4.93-3.54-3.76-7.26-7.35-10.92-11-2.91-2.9-5.74-5.88-8.78-8.64-2.39-2.16-5.13-2.19-7.52,.02-2.23,2.06-2.81,4.98-.76,7.14,7.11,7.48,14.44,14.78,21.96,21.84,1.04,.97,3.95,.86,5.49,.14,1.52-.71,2.39-2.82,3.74-4.57Z"/><path class="cls-1" d="M305.73,411.02c-.94,6.17-3.51,10.58-8.71,13.17-5.35,2.66-10.78,2.28-15.27-1.62-4.99-4.34-9.69-9.08-14.09-14.02-4.95-5.56-4.4-13.89,.76-19.16,5.26-5.37,13.78-5.98,19.45-.91,4.84,4.32,9.5,8.91,13.71,13.84,2.02,2.36,2.81,5.77,4.15,8.71Zm-9.1,1.06c-.65-1.74-.77-3.11-1.51-3.88-4.31-4.5-8.63-9-13.23-13.19-2.25-2.06-5.02-1.59-7.15,.59-2.13,2.18-2.49,4.92-.42,7.17,4.13,4.48,8.39,8.88,12.98,12.87,1.23,1.07,4.1,1.13,5.8,.5,1.51-.56,2.44-2.71,3.53-4.05Z"/><path class="cls-1" d="M325.58,462.56c-1.55-.72-5.05-1.59-7.53-3.68-4.75-4-9.08-8.54-13.29-13.13-5.3-5.79-4.91-14.32,.58-19.75,5.49-5.43,13.97-5.71,19.76-.36,4.48,4.13,8.82,8.45,12.93,12.95,4.16,4.55,4.85,10.01,2.35,15.56-2.45,5.42-6.95,8.16-14.81,8.42Zm-10.58-32.73c-1.67,1.51-3.95,2.61-4.43,4.23-.53,1.8-.1,4.65,1.09,6.06,3.49,4.14,7.49,7.86,11.41,11.62,2.62,2.51,5.94,2.57,8.17,.41,2.33-2.25,2.25-5.69-.42-8.46-3.58-3.73-7.22-7.4-10.98-10.95-1.18-1.12-2.84-1.73-4.85-2.92Z"/><path class="cls-1" d="M409.79,325.8c10.45-.03,23.36,12.57,23.33,21.33-.02,5.95-2.78,10.48-8.18,13.1-5.42,2.63-10.71,1.96-15.27-1.86-3.35-2.8-6.48-5.94-9.27-9.3-3.83-4.6-4.33-9.95-1.7-15.3,2.55-5.2,6.92-7.88,11.1-7.97Zm1.31,8.16c-1.53,1.2-3.78,2.09-4.26,3.56-.6,1.82-.43,4.6,.63,6.12,2.01,2.88,4.78,5.26,7.42,7.66,2.52,2.29,5.35,2.34,7.77-.1,2.43-2.45,2.32-5.27,.04-7.79-2.3-2.54-4.75-4.97-7.3-7.26-1.01-.9-2.48-1.29-4.3-2.19Z"/><path class="cls-1" d="M364.69,308.04c.68-6,3.32-10.42,8.57-12.89,5.36-2.52,10.73-2.03,15.3,1.84,3.33,2.82,6.44,5.97,9.28,9.29,4.53,5.3,4.29,13.06-.21,18.3-4.65,5.42-12.63,7.07-18.3,2.83-4.51-3.37-8.4-7.69-12.04-12.04-1.56-1.86-1.78-4.86-2.6-7.33Zm27.91,8.15c-.34-1.4-.29-2.24-.69-2.65-3.44-3.6-6.73-7.43-10.61-10.48-1.02-.8-4.81,.21-5.8,1.54-1.12,1.5-1.46,4.93-.46,6.37,2.3,3.33,5.39,6.23,8.61,8.74,1.24,.97,3.93,1.02,5.49,.36,1.55-.66,2.5-2.73,3.47-3.88Z"/><path class="cls-1" d="M396.42,290.85c-.03-7.97,5.8-13.97,13.63-14.04,8.25-.07,15,6.3,15.11,14.26,.11,7.88-6.4,14.5-14.31,14.56-8.12,.06-14.4-6.37-14.44-14.78Zm14.24,5.92c3.04,.03,5.62-2.42,5.69-5.42,.07-3.05-2.55-5.59-5.9-5.71-3.11-.11-5.16,1.9-5.24,5.13-.09,3.43,2.22,5.97,5.45,6Z"/><path class="cls-1" d="M305.74,460.87c-.06,7.96-5.98,13.8-13.9,13.72-8.41-.09-14.88-6.39-14.84-14.45,.04-7.88,6.71-14.46,14.55-14.35,8.06,.11,14.25,6.7,14.19,15.09Zm-8.79-.18c.09-3.35-2.31-6.02-5.45-6.07-2.98-.05-5.61,2.47-5.69,5.47-.09,3.11,2.45,5.57,5.87,5.67,3.21,.1,5.18-1.81,5.27-5.07Z"/><path class="cls-1" d="M266.38,449.71c-8.12-.09-14.25-6.6-14.14-15.02,.1-7.83,6.24-13.86,13.99-13.73,8.34,.14,14.79,6.54,14.72,14.58-.07,7.99-6.51,14.25-14.57,14.16Zm5.79-14.38c-.04-3.09-2.73-5.57-6.05-5.57-3.01,0-5.1,2.2-5.1,5.38,0,3.39,2.41,5.85,5.69,5.79,3.11-.06,5.5-2.5,5.46-5.59Z"/><path class="cls-1" d="M449.95,316.35c.09,7.88-5.79,14.01-13.58,14.17-8.27,.17-15-6.12-15.13-14.14-.13-8.07,6.09-14.52,14.09-14.63,8.15-.11,14.52,6.26,14.61,14.6Zm-14.23-5.78c-3.14-.09-5.6,2.2-5.7,5.32-.1,3.17,2.35,5.64,5.75,5.82,3.01,.15,5.26-1.97,5.39-5.08,.14-3.31-2.24-5.96-5.45-6.05Z"/></g></g></svg>