<?xml version="1.0" encoding="UTF-8"?><svg id="Layer_1" xmlns="http://www.w3.org/2000/svg" viewBox="0 0 617.18 617.18"><defs><style>.cls-1{fill:#00aeef;}</style></defs><path class="cls-1" d="M308.59,616.87C138.44,616.87,0,478.44,0,308.28S138.44-.31,308.59-.31s308.59,138.44,308.59,308.59-138.44,308.59-308.59,308.59Zm0-609.86C142.48,7.02,7.33,142.16,7.33,308.28s135.15,301.26,301.26,301.26,301.26-135.15,301.26-301.26S474.71,7.02,308.59,7.02Z"/><g id="PHtOM7"><g><path class="cls-1" d="M375.27,121.3c2.49,.91,5.07,1.64,7.45,2.77,11.95,5.69,18.04,19.07,14.61,31.84-3.43,12.78-15.25,21.19-28.57,20.33-12.68-.82-23.57-11.08-25.11-23.63-1.67-13.59,5.96-25.77,18.72-29.93,1.37-.45,2.73-.91,4.09-1.37,2.93,0,5.86,0,8.8,0Zm-4.3,14.67c-7.05-.07-12.9,5.64-12.99,12.68-.1,7.02,5.66,12.9,12.69,12.97,7.12,.07,12.85-5.55,12.93-12.67,.08-7.12-5.55-12.91-12.63-12.98Z"/><path class="cls-1" d="M199.79,274.46c-16.07-7.65-24.74-19.59-23.83-37.05,.78-14.98,8.59-25.92,22.35-31.72,15.63-6.59,29.59-2.77,42.04,9.09,.79-1.06,1.58-2.05,2.29-3.1,13.56-19.86,27.11-39.74,40.67-59.6,5.01-7.34,10.1-7.36,15.08-.07,11.08,16.23,22.19,32.45,33.18,48.75,1.18,1.75,2.19,3.94,2.3,5.99,.16,3-1.55,5.81-4.54,6.32-2.37,.41-5.08-.45-7.47-1.26-1.06-.36-1.74-1.96-2.5-3.06-8.69-12.69-17.36-25.4-26.04-38.1-.73-1.07-1.53-2.11-2.5-3.45-1.26,1.8-2.31,3.26-3.32,4.74-12.46,18.25-24.96,36.47-37.29,54.81-1,1.48-1.44,3.85-1.12,5.62,3.68,20.4-9.99,40-30.62,43.73-1.09,.2-2.46,.77-3.03,1.62-8.59,12.9-18.23,25.26-25.37,38.92-33.63,64.39,4.14,143.85,75.6,160.17,63.52,14.51,127.59-29.18,137.25-93.87,4.11-27.55-1.66-53.21-17.03-76.51-9.14-13.86-18.76-27.4-27.91-41.26-1.39-2.1-2.31-5.34-1.81-7.7,1.14-5.42,7.96-6.88,11.93-2.97,.17,.17,.36,.34,.49,.54,12.8,19.61,27.83,37.79,38.26,58.9,7.39,14.96,11.29,30.9,11.72,47.61,.06,2.48,.92,3.92,3.01,5.25,24.66,15.68,37.13,45.24,31.16,73.57-6.03,28.6-28.86,50.64-57.69,55.33-17.71,2.88-34.26-.65-49.36-10.36-2.4-1.54-4.2-1.48-6.63-.47-71.74,29.96-155.87-13.7-172.79-89.59-8-35.9-1.61-69.04,18.97-99.48,4.77-7.05,9.58-14.08,14.53-21.35Zm158.18,201.06c26.29,14.4,60.11,3.94,74.71-22.71,14.85-27.1,3.44-58.18-14.76-70.24-6.06,39.8-26.09,70.63-59.96,92.95ZM190.46,239.73c.06,12.31,10.24,22.37,22.49,22.2,12.09-.17,22.09-10.26,22.11-22.32,.02-12.25-10.1-22.32-22.42-22.29-12.38,.03-22.24,9.99-22.18,22.42Z"/><path class="cls-1" d="M264.23,417c-28.07-.25-51.16-22.01-53.06-50.01-1.86-27.46,18.16-52.45,45.4-56.41,12.76-1.86,24.78,.51,35.88,7.2,5.11,3.09,6.66,7.17,4.28,11.16-2.4,4.03-6.53,4.47-11.8,1.44-13.28-7.64-26.82-7.98-40-.19-13.2,7.8-19.58,19.89-19.06,35.17,.82,23.98,24.39,41.75,47.27,35.93,5.84-1.49,10.67-4.61,14.79-9.02,3.26-3.5,7.63-3.78,10.73-.98,3.19,2.88,3.23,7.08,.1,10.78-7.98,9.45-20.92,15.04-34.52,14.92Z"/><path class="cls-1" d="M356.03,358.72c2.59-2.22,4.34-4.65,6.68-5.53,4.7-1.78,9.14,1.86,9.19,7.36,.13,16.23,.1,32.45,.02,48.68-.02,4.11-2.25,6.85-5.61,7.56-4.11,.87-6.82-.87-9.31-6.19-8.1,3.97-16.5,4.79-25.03,1.47-5.84-2.28-10.48-6.16-13.88-11.45-6.79-10.57-5.99-24.33,1.98-34.16,8.7-10.74,20.93-13.22,35.97-7.73Zm-27.82,26.14c-.02,8.18,6.48,14.64,14.65,14.56,8.01-.08,14.37-6.48,14.39-14.49,.02-8.02-6.31-14.44-14.32-14.53-8.25-.09-14.71,6.25-14.72,14.46Z"/><path class="cls-1" d="M352.73,234.44c-.17,4.01-3.51,7.16-7.42,6.99-3.95-.17-7.1-3.51-7.01-7.45,.1-4.15,3.55-7.36,7.65-7.12,4.01,.24,6.96,3.53,6.78,7.57Z"/></g></g></svg>