<?xml version="1.0" encoding="UTF-8"?><svg id="Layer_1" xmlns="http://www.w3.org/2000/svg" viewBox="0 0 617.18 617.18"><defs><style>.cls-1{fill:#00aeef;}</style></defs><g><path class="cls-1" d="M139.64,181.34c-.07-20.43,14.2-32.49,35.1-29.81,16.56,2.12,31.51,8.73,46.02,16.46,31.62,16.85,60.08,38.26,87.22,61.49,44.58,38.16,85.14,80.19,120.05,127.43,11.03,14.93,20.49,31.02,30.69,46.57,4.61,7.02,5.4,14.69,2.71,22.37-8.3,23.74-24.34,39.88-48.45,47.53-7.12,2.26-13.97,1.11-20.62-2.64-31.47-17.77-60.01-39.57-87.19-63.2-41.96-36.48-80.32-76.38-113.74-120.89-16.44-21.89-31.49-44.67-42.61-69.82-5.83-13.17-9.13-25.94-9.16-35.47Zm191.44,94.94c-.33-.45-.49-.73-.7-.94-30.97-29.66-63.61-57.26-100.09-80.02-14.28-8.91-28.98-17.07-45.15-22.11-6.32-1.97-12.75-3.73-19.49-2.5-4.25,.78-5.76,2.3-6.57,6.51-1.25,6.53,.4,12.78,2.28,18.9,5,16.3,13.18,31.11,22.14,45.49,22.79,36.59,50.44,69.32,80.18,100.36,.27,.28,.63,.46,1.01,.72,3.45-4.7,6.73-9.31,10.19-13.78,1.17-1.51,1.43-2.64,.6-4.47-2.14-4.66-2.94-9.61-2.23-14.76,2.69-19.33,21.8-30.14,39.86-22.58,.9,.38,2.38,.57,3.06,.09,4.98-3.48,9.83-7.16,14.92-10.91Zm53.53,56.51c-27.35,15.04-48.4,36.05-63.45,63.46,20.39,17.36,41.29,33.61,63.76,47.91,9.4-24.07,20.6-35.28,47.56-47.72-14.28-22.37-30.48-43.26-47.87-63.66Zm-78.14,50.8c16.2-27.8,37.84-49.37,65.48-65.49-9-9.55-17.78-18.86-26.75-28.36-6.02,4.26-11.74,8.31-16.48,11.67,.26,6.06,1.32,11.27,.54,16.19-2.75,17.33-19.43,27.43-36.32,22.57-.92-.26-2.56-.29-2.97,.25-4.04,5.32-7.89,10.79-11.91,16.38,9.63,9.08,18.87,17.8,28.4,26.79Zm137.62,34.24c-.02-2.48-.95-3.82-3.48-3.38-1.95,.34-3.97,.67-5.76,1.46-13.93,6.14-24.14,16.12-30.35,30.05-.84,1.88-1.34,3.99-1.6,6.04-.38,2.96,.61,3.89,3.58,3.36,2.35-.43,4.75-1.05,6.9-2.06,12.72-5.99,22.12-15.4,28.19-28.07,1.12-2.34,1.7-4.93,2.52-7.4Zm-133.32-104.93c-.06-5.1-4.72-9.51-9.87-9.34-4.72,.16-9.04,4.62-8.97,9.26,.08,5.3,4.45,9.65,9.63,9.58,5.23-.07,9.27-4.24,9.21-9.51Z"/><path class="cls-1" d="M376.28,217.84c.3-11.04,4.63-19.84,13.4-26.37,9.04-6.73,9.31-16.04,.66-23.07-4.26-3.46-5.11-8.97-2.04-13.18,3.15-4.32,8.72-5.13,13.45-1.95,17.03,11.46,18.49,36.98,2.89,50.57-1.11,.96-2.31,1.82-3.48,2.71-7.73,5.83-7.95,15.75-.36,21.73,3.24,2.55,5.14,5.6,4.45,9.76-1.15,6.95-8.92,10.18-14.84,6.1-9.22-6.36-13.71-15.33-14.13-26.3Z"/><path class="cls-1" d="M423.7,271.94c.33-8.79,4.87-17.57,13.83-24.06,5.58-4.04,7.84-9.53,5.64-15.29-.99-2.6-2.97-5.07-5.08-6.94-4.57-4.05-5.69-9.57-2.27-13.91,3.36-4.27,8.94-4.79,13.79-1.29,17.73,12.84,17.68,38.98-.11,52.17-6.06,4.49-8.39,9.79-6.13,15.67,.99,2.6,2.97,5.06,5.08,6.94,4.59,4.11,5.69,9.55,2.26,13.9-3.37,4.28-8.89,4.79-13.77,1.28-8.38-6.03-13.28-15.75-13.23-28.48Z"/></g><path class="cls-1" d="M307.74,616.87C137.58,616.87-.85,478.44-.85,308.28S137.58-.31,307.74-.31s308.59,138.44,308.59,308.59-138.44,308.59-308.59,308.59Zm0-609.86C141.62,7.02,6.48,142.16,6.48,308.28s135.15,301.26,301.26,301.26,301.26-135.15,301.26-301.26S473.86,7.02,307.74,7.02Z"/></svg>