<?xml version="1.0" encoding="UTF-8"?><svg id="Layer_1" xmlns="http://www.w3.org/2000/svg" viewBox="0 0 617.18 617.18"><defs><style>.cls-1{fill:#00aeef;}</style></defs><path class="cls-1" d="M308.59,616.87C138.44,616.87,0,478.44,0,308.28S138.44-.31,308.59-.31s308.59,138.44,308.59,308.59-138.44,308.59-308.59,308.59Zm0-609.86C142.48,7.02,7.33,142.16,7.33,308.28s135.15,301.26,301.26,301.26,301.26-135.15,301.26-301.26S474.71,7.02,308.59,7.02Z"/><g><path class="cls-1" d="M438.71,128.57c2.64,2.01,3.37,4.7,3.34,7.94-.12,12.05-.04,24.1-.05,36.16,0,.85,.02,1.71-.07,2.55-.37,3.32-2.4,5.26-5.42,5.26-3.02,0-5.26-1.95-5.36-5.28-.19-6.81-.1-13.63-.11-20.45,0-4.95,0-9.91,0-15.04H167.58V491.62h4.53c64.64,0,129.29,0,193.93,0,1.22,0,2.45-.11,3.65,.07,3.04,.45,4.88,2.22,4.9,5.36,.03,3.15-1.79,4.94-4.81,5.45-1.07,.18-2.19,.07-3.28,.07-67.32,0-134.64,0-201.96,0-6.65,0-8.15-1.48-8.15-8.15,0-119.18,0-238.36-.05-357.55,0-3.34,.53-6.21,3.33-8.3H438.71Z"/><path class="cls-1" d="M369.43,321.04c0,2.77,.05,5.3-.01,7.82-.1,4.1-1.96,6.24-5.96,6.26-17.65,.08-35.31,.08-52.96,0-3.94-.02-6-2.21-6.04-6.26-.09-8.76-.1-17.53,0-26.3,.05-4.07,2.08-6.07,6.13-6.08,17.65-.05,35.31-.06,52.96,0,3.86,.01,5.73,2.02,5.86,5.9,.08,2.29,.01,4.59,.01,7.18h39.4v-35.29h-39.39c0,2.67,.05,5.3-.01,7.92-.11,4.09-1.97,6.17-6.03,6.19-17.65,.08-35.31,.08-52.96,0-3.78-.02-5.9-2.17-5.95-5.97-.12-8.89-.12-17.78,0-26.66,.05-4.05,2.11-6,6.21-6.01,17.53-.05,35.06-.05,52.59,0,4.26,.01,6.07,1.98,6.16,6.35,.05,2.17,0,4.34,0,6.77h39.69c0-3.66,0-7.26,0-10.86,0-7.18,.08-14.37-.09-21.55-.02-1.05-1.21-2.96-1.87-2.97-12.39-.18-24.79-.13-37.73-.13,0,2.92,.06,5.55-.01,8.18-.11,4.04-2.03,6.1-6.11,6.11-17.53,.07-35.06,.07-52.59,0-4.19-.02-6.22-2.14-6.26-6.42-.08-8.64-.09-17.29,0-25.93,.04-4.31,2.03-6.29,6.29-6.3,17.53-.05,35.06-.05,52.59,0,4.11,.01,5.96,1.97,6.08,6.06,.06,2.28,.01,4.57,.01,7.09h39.45v-54.5H189.49v54.52h39.46c0-2.73-.07-5.26,.02-7.78,.13-3.67,1.98-5.8,5.63-5.82,17.9-.1,35.79-.1,53.69,0,3.5,.02,5.57,2.28,5.62,5.92,.11,8.89,.12,17.78,0,26.66-.05,4.06-2.1,6.03-6.19,6.04-17.53,.05-35.06,.05-52.59,0-4.28-.01-6.09-1.98-6.18-6.33-.05-2.3,0-4.6,0-7.21h-39.37v35.18h39.38c0-2.41-.06-4.91,.01-7.4,.11-4.05,2.01-6.12,6.08-6.13,17.53-.07,35.06-.07,52.59,0,4.2,.02,6.25,2.13,6.29,6.39,.09,8.64,.09,17.29,0,25.93-.04,4.32-2.03,6.32-6.28,6.33-17.53,.05-35.06,.05-52.59,0-4.12-.01-5.98-1.96-6.1-6.04-.07-2.41-.01-4.83-.01-7.52h-39.41v35.24h39.41c0-2.37-.04-4.76,0-7.15,.09-4.33,1.94-6.41,6.16-6.42,17.53-.07,35.06-.07,52.59,0,4.01,.02,6.15,2.12,6.2,6.1,.11,8.89,.12,17.78,0,26.66-.05,3.86-2.12,5.86-5.97,5.88-17.65,.06-35.31,.06-52.96,0-4.08-.01-5.9-1.99-6.02-6.12-.06-2.19-.05-4.38-.1-6.57,0-.22-.17-.44-.36-.91h-38.99v35.29h39.44c0-2.58-.06-5.1,.02-7.61,.12-3.86,2.01-5.95,5.86-5.97,17.65-.08,35.31-.08,52.96,0,3.99,.02,6.08,2.15,6.13,6.18,.1,8.76,.1,17.53,0,26.3-.05,4.23-2.11,6.17-6.42,6.18-17.41,.04-34.82,.04-52.23,0-4.35-.01-6.21-1.92-6.31-6.2-.06-2.4-.01-4.81-.01-7.42h-39.47v36.07h39.47c0-2.79-.05-5.44,.01-8.08,.09-4.12,1.94-6.24,5.95-6.26,17.65-.08,35.31-.08,52.96,0,3.94,.02,6.01,2.2,6.05,6.25,.09,8.76,.1,17.53,0,26.3-.05,4.07-2.09,6.08-6.13,6.09-17.53,.06-35.06,.05-52.59,0-4.31-.01-6.14-1.95-6.23-6.28-.05-2.06,0-4.13,0-6.52h-39.69c0,3.66,.02,7.37,0,11.08-.02,2.31,.09,4.65-.25,6.92-.45,2.93-2.47,4.4-5.43,4.31-2.8-.08-4.54-1.6-5.06-4.35-.22-1.18-.21-2.42-.21-3.64,0-90.33,0-180.67,0-271,0-6.73,1.48-8.22,8.08-8.22,75.24,0,150.48,0,225.71,0,6.41,0,7.99,1.54,7.99,7.95,0,104.7,0,209.4,0,314.1,0,6.63-1.53,8.13-8.18,8.13-75.12,0-150.23,0-225.35,0-6.82,0-8.25-1.45-8.26-8.41,0-5.11-.07-10.23,.03-15.34,.08-4.15,2.06-6.33,5.47-6.31,3.42,.01,5.34,2.18,5.43,6.36,.09,4.11,.02,8.23,.02,12.54h219.61v-54.18h-39.42c0,2.12,.02,4.15,0,6.18-.05,5.38-1.82,7.15-7.3,7.16-10.1,.03-20.21,0-30.31,0-6.82,0-13.64,.04-20.45-.01-4.91-.04-6.89-2-6.93-6.88-.06-8.4-.06-16.8,0-25.2,.04-4.71,1.97-6.59,6.74-6.6,17.17-.03,34.33-.03,51.5,0,4.97,0,6.69,1.83,6.74,6.89,.02,2.28,0,4.56,0,7.03h39.48v-36.07h-39.49c0,2.82,.07,5.47-.02,8.11-.12,3.84-2.02,5.93-5.89,5.95-17.65,.08-35.31,.08-52.96,0-3.98-.02-6.05-2.17-6.1-6.2-.1-8.76-.1-17.53,0-26.3,.05-4.22,2.11-6.14,6.44-6.15,17.41-.04,34.82-.04,52.23,0,4.34,.01,6.19,1.93,6.29,6.22,.05,2.18,0,4.35,0,6.85h39.37v-35.25h-39.37Zm-11.18-90.52v-16.31h-16.33v16.31h16.33Zm-91.62,29.78v16.45h16.03v-16.45h-16.03Zm91.59,16.94v-16.39h-16.26v16.39h16.26Zm.13,30.44h-16.46v16.25h16.46v-16.25Zm-42.82,62.94h16.45v-16.18h-16.45v16.18Zm42.72,46.9v-16.31h-16.33v16.31h16.33Zm-118.13-203.92v16.44h15.8v-16.44h-15.8Zm27.34,.05v16.38h15.24v-16.38h-15.24Zm-11.43,93.58h-15.9v16.3h15.9v-16.3Zm11.3,16.18h15.39v-16.14h-15.39v16.14Zm-27.21,30.44v16.44h15.8v-16.44h-15.8Zm27.25,16.4h15.3v-16.32h-15.3v16.32Zm-11.4,46.84v-16.42h-15.77v16.42h15.77Zm11.39-16.53v16.45h15.3v-16.45h-15.3Zm63.14-170.05v-16.31h-14.89v16.31h14.89Zm-75.25,46.34v-16.43h-15.06v16.43h15.06Zm60.27,.32h14.99v-16.22h-14.99v16.22Zm15.03,30.47h-14.86v16.34h14.86v-16.34Zm27.71,63.13v-16.31h-14.88v16.31h14.88Zm-42.69,46.69h14.85v-16.31h-14.85v16.31Z"/><path class="cls-1" d="M431.04,491.62v-5.36c0-94.56,0-189.13,0-283.69,0-1.58-.06-3.18,.15-4.74,.41-3.11,2.38-4.86,5.43-4.82,2.86,.04,4.76,1.72,5.21,4.66,.19,1.19,.17,2.43,.17,3.64,0,97.61,0,195.21,0,292.82,0,7.1-1.38,8.44-8.6,8.44-13.14,0-26.29-.03-39.43,.02-2.96,.01-5.34-.83-6.35-3.81-1.28-3.8,1.39-7.11,5.83-7.14,10.95-.07,21.91-.02,32.86-.03,1.43,0,2.86,0,4.72,0Z"/></g></svg>