<?xml version="1.0" encoding="UTF-8"?><svg id="Layer_1" xmlns="http://www.w3.org/2000/svg" viewBox="0 0 617.18 617.18"><defs><style>.cls-1{fill:#00aeef;}</style></defs><path class="cls-1" d="M308.59,617.62C138.44,617.62,0,479.18,0,309.02S138.44,.43,308.59,.43s308.59,138.44,308.59,308.59-138.44,308.59-308.59,308.59Zm0-609.86C142.48,7.76,7.33,142.91,7.33,309.02s135.15,301.26,301.26,301.26,301.26-135.15,301.26-301.26S474.71,7.76,308.59,7.76Z"/><g id="lspIBN"><g><path class="cls-1" d="M396.44,163.31c3.29,0,6.19-.02,9.1,0,5.19,.05,7.2,2.09,7.22,7.39,.03,8.77,.03,17.54,0,26.31-.02,5.19-2.09,7.17-7.39,7.23-1.31,.01-2.62,0-4.11,0v11.7c3.44,0,6.91-.01,10.39,0,11.22,.05,18.64,7.33,18.64,18.47,.02,79.3,.02,158.59,0,237.89,0,11.12-7.44,18.46-18.64,18.47-28.5,.03-56.99,.03-85.49,0-11.34-.01-18.6-7.39-18.63-18.85-.02-10.46,0-20.91,0-31.7-.53,.39-.87,.51-1.01,.76-14.52,24.39-36.31,38.94-63.33,45.83-41.22,10.51-76.52-.6-106.75-29.97-10.22-9.93-12.64-21.78-10.52-35.12,2.18-13.68,7.72-26.12,15.1-37.69,20.26-31.77,46.49-57.1,80.78-73.43,9.95-4.74,20.45-7.7,31.63-7.87,8.12-.12,15.22,2.3,21.69,7.22,12.57,9.55,23.07,20.9,30.99,34.59,.23,.39,.54,.73,1.44,1.9v-4.64c0-35.45,0-70.89,0-106.34,0-12.43,7.06-19.5,19.43-19.52,3.14,0,6.28,0,9.6,0v-11.7c-1.71,0-3.48,.06-5.24-.01-3.9-.17-6.18-2.29-6.22-6.15-.09-9.5-.09-19,0-28.5,.04-4.04,2.33-6.15,6.49-6.24,3.15-.07,6.3-.01,9.91-.01-1.26-7.66-2.46-14.94-3.66-22.22-.32-1.92-.74-3.83-.97-5.76-.49-4.09,1.84-7.04,5.93-7.06,17.41-.09,34.83-.1,52.24,0,4.34,.03,6.55,3.24,5.79,7.81-1.28,7.68-2.61,15.35-3.89,23.03-.2,1.19-.3,2.4-.51,4.19Zm-77.22,116.95v3.3c0,62.6,0,125.2,0,187.8,0,5.87,1.93,7.72,7.99,7.72,27.64,0,55.28,0,82.92,0,6.76,0,8.48-1.69,8.48-8.34,0-69.91,0-139.82,0-209.72v-4.15c-3.94,0-7.45,.06-10.96-.01-10.27-.22-18.96,3.3-26.35,10.47-8.98,8.69-19.85,12.94-32.36,12.94-9.73,0-19.46,0-29.71,0Zm-33.73,111.07c-3.15-1.9-6.32-3.82-9.58-5.79,2.72-5.55,3.49-10.82,.17-16.48-.54,.77-.94,1.2-1.19,1.7-7.76,15.3-17.53,29.19-29.39,41.59-1.48,1.54-1.3,2.75-.67,4.5,3.02,8.39,2.12,16.4-2.44,24.29-3.47-2.1-6.65-4.03-9.23-5.6,.67-4.12,1.24-7.62,1.8-11.12-21.92,18.09-44.18,33.77-72.78,38.94,6.5,3.31,13,6.62,19.61,9.98,4.05-11.82,11.2-17.79,20.32-17.3v11.12c-6.46,2.04-8.13,3.92-8.1,9.53,23.79,5.33,46.22,1.24,67.73-9.75-16.92,1.66-33.35-.03-49.64-5.81,1.34-3.81,2.54-7.2,3.8-10.78,1.35,.37,2.39,.63,3.41,.95,21.48,6.57,42.69,5.71,63.71-2.12,3.45-1.29,6.02-3.3,8.21-6.24,23.38-31.43,21.39-77.09-4.74-106.38-.33-.37-.84-.59-.99-.69-1.14,5.72-2.04,11.37-3.46,16.87-.71,2.73-.61,4.47,1.5,6.69,7.87,8.26,8.68,22.89,1.97,31.88Zm-127.84,59.92c4.64-.88,9.38-1.42,13.92-2.69,17.69-4.97,32.75-14.78,46.65-26.42,20.96-17.56,38.45-37.94,49.47-63.29,3.81-8.77,6.29-17.9,5.52-27.64-.79-9.9-7.43-16.63-17.34-16.63-5.41,0-10.99,.6-16.21,2-16.88,4.51-31.36,13.71-44.8,24.55-21.09,17.01-38.78,36.9-50.51,61.59-4.31,9.07-7.46,18.51-7.24,28.76,.28,12.83,7.61,19.74,20.55,19.77ZM418.28,245.71c.21-1.37,.31-1.72,.31-2.07,.02-2.92,.04-5.84,.01-8.77-.05-5.19-2.09-7.22-7.38-7.22-28.24-.02-56.48-.02-84.72,0-5.24,0-7.26,2.05-7.28,7.31-.03,10.23-.01,20.45,0,30.68,0,.92,.16,1.85,.27,2.93,9.36,0,18.48-.15,27.6,.04,10.68,.23,19.67-3.31,27.33-10.8,6.88-6.73,15.21-11.07,24.83-11.99,6.24-.6,12.59-.11,19.03-.11Zm-81.37-53.42h63.98v-17.08h-63.98v17.08Zm51.34-52.2h-38.69c1.3,7.84,2.57,15.46,3.84,23.11h31.02c1.27-7.66,2.53-15.27,3.83-23.11Zm.95,64.41h-40.46v11.26h40.46v-11.26Z"/><path class="cls-1" d="M225.68,258.68c0-6.45-.08-12.9,.02-19.34,.17-11.29,7.6-20.42,18.43-22.79,10.45-2.3,21.21,2.88,25.91,12.46,4.85,9.9,2.41,21.69-6.5,28.57-10.06,7.77-19.4,16.2-27.35,26.15-1.65,2.07-3.89,2.96-6.5,2.02-2.71-.97-3.99-3.03-3.99-5.9,0-7.06,0-14.11,0-21.17Zm11.8,5.42c6.72-5.58,13.06-10.69,19.23-16.02,4.23-3.65,5.17-9.1,2.77-13.93-2.23-4.51-7.19-7.14-12.08-6.41-5.07,.76-9.59,4.77-9.82,9.88-.38,8.7-.11,17.43-.11,26.48Z"/><path class="cls-1" d="M213.98,282.54c0,6.81-.02,13.62,0,20.44,0,2.83-1.07,4.98-3.76,6.07-2.75,1.11-5.07,.2-6.81-2-8.06-10.18-17.73-18.63-27.89-26.64-7.89-6.22-10.3-16.76-6.73-26.1,3.5-9.17,12.58-15.2,22.51-14.95,9.84,.25,18.57,6.77,21.46,16.32,.76,2.52,1.09,5.24,1.16,7.88,.16,6.32,.05,12.65,.05,18.98Zm-11.71,5.05c0-8.84,.12-17.12-.04-25.39-.1-5.33-4-9.72-9.17-10.91-4.89-1.12-10.24,1.35-12.68,5.85-2.5,4.62-1.95,10.23,2.01,13.75,6.33,5.63,12.95,10.91,19.89,16.7Z"/><path class="cls-1" d="M325.07,365.08c0-19.74,0-39.47,0-59.21,0-6.24,1.81-8.06,8.01-8.06,23.87,0,47.74,0,71.62,0,6.23,0,8.06,1.82,8.06,8.02,0,39.47,0,78.94,0,118.41,0,6.23-1.83,8.06-8.02,8.06-23.87,0-47.74,0-71.62,0-6.23,0-8.05-1.82-8.05-8.02,0-19.74,0-39.47,0-59.21Zm75.74,55.38v-110.65h-63.85v110.65h63.85Z"/><path class="cls-1" d="M290.46,407.56c3.7,.95,7.21,1.85,10.68,2.74-1.52,9.03-10.14,16.23-19.15,16.29-9.71,.06-19.04-7.14-20.56-16.09,3.43-1.04,6.9-2.08,10.34-3.12,4.41,9.01,14.08,10.77,18.69,.18Z"/><path class="cls-1" d="M260.69,348.96c-1.07,3.33-2.32,10.18-5.34,16.12-14.92,29.38-37.12,51.86-66.38,67.05-5.29,2.74-11.35,4.44-17.25,5.47-14.13,2.45-23.7-7.36-21.68-21.51,1.47-10.24,5.91-19.28,11.49-27.74,15.27-23.13,34.43-42.24,59.38-54.79,6.06-3.05,12.96-5.02,19.69-6.05,11.6-1.77,20.07,6.32,20.08,21.46Zm-99.11,67.82c-.3,7.59,2.26,10.32,7.54,9.31,5.07-.97,10.3-2.29,14.85-4.64,26.52-13.68,46.5-34.11,60.35-60.45,2.22-4.22,3.51-9.08,4.42-13.8,1.18-6.06-2.09-9.27-8.13-8.04-4.71,.96-9.57,2.22-13.79,4.43-26.52,13.86-46.78,34.17-60.7,60.64-2.39,4.55-3.55,9.74-4.54,12.54Z"/></g></g></svg>