<?xml version="1.0" encoding="UTF-8"?><svg id="Layer_1" xmlns="http://www.w3.org/2000/svg" viewBox="0 0 617.18 617.18"><defs><style>.cls-1{fill:#00aeef;}</style></defs><path class="cls-1" d="M308.59,617.62C138.44,617.62,0,479.18,0,309.02S138.44,.43,308.59,.43s308.59,138.44,308.59,308.59-138.44,308.59-308.59,308.59Zm0-609.86C142.48,7.76,7.33,142.91,7.33,309.02s135.15,301.26,301.26,301.26,301.26-135.15,301.26-301.26S474.71,7.76,308.59,7.76Z"/><g id="UCbrWB"><g><path class="cls-1" d="M280.27,466.49l-15.04-7.07c-13.73-6.45-25.67-15.14-36.52-26.55-26.22-27.6-42.74-61.97-49.09-102.15-6.65-42.05-.83-82.49,17.3-120.2,11.71-24.36,26.01-43.45,43.73-58.38,10.51-8.85,21.92-13.89,33.91-14.99,21.4-1.93,36.93,8.67,43.75,29.91,5.8,18.04,4.4,36.11,2.53,49.84-4.39,32.3-17.25,61.92-29.68,90.56-9.35,21.56-18.14,42.78-22.86,65.32-6.19,29.6-4.42,54.5,5.56,78.37l6.41,15.34Zm-.75-316.76c-1.23,0-2.49,.06-3.8,.18-9.46,.86-18.24,4.8-26.82,12.03-16.3,13.73-29.53,31.44-40.44,54.12-16.97,35.32-22.42,73.22-16.19,112.65,5.94,37.58,21.33,69.65,45.73,95.33,5.77,6.08,11.88,11.29,18.45,15.72-5.76-21.4-5.97-44.33-.68-69.6,4.96-23.73,14.01-45.61,23.64-67.8,12.08-27.85,24.58-56.64,28.73-87.19,1.69-12.39,2.98-28.6-2.03-44.2-4.59-14.27-13.31-21.26-26.59-21.26Z"/><path class="cls-1" d="M323.01,467.34c-.54,0-1.08,0-1.62-.03-14.62-.38-25.47-7.16-32.26-20.13-7.89-15.08-10.6-32.33-8.51-54.28,2.5-26.32,11.9-49.85,23.01-75.69l1.35-3.13c12.63-29.36,25.69-59.71,30.48-91.82,2.8-18.77,4.65-43.53-5.96-68.54l-6.51-15.34,15.11,7.04c12.89,6.01,24.11,14.16,35.3,25.67,19.03,19.55,32.77,42.77,42,70.97,7.83,23.91,11.19,48.27,9.98,72.42-2.74,54.83-23.52,100.69-61.76,136.3-11.81,11-25.47,16.57-40.6,16.57Zm23.76-302.25c5.54,21.98,3.79,42.65,1.34,59.06-5.04,33.76-18.43,64.89-31.38,94.99l-1.35,3.13c-10.67,24.82-19.7,47.37-22.02,71.84-1.84,19.37,.42,34.35,7.11,47.13,4.61,8.8,11.36,13.01,21.26,13.28,12.3,.31,23.46-4.09,33.16-13.11,35.72-33.26,55.13-76.18,57.7-127.58,1.13-22.57-2.03-45.38-9.37-67.79-8.62-26.3-21.38-47.9-39.01-66.02-5.74-5.9-11.46-10.81-17.44-14.93Z"/></g></g></svg>