<?xml version="1.0" encoding="UTF-8"?><svg id="Layer_1" xmlns="http://www.w3.org/2000/svg" viewBox="0 0 617.18 617.18"><defs><style>.cls-1{fill:#00aeef;}</style></defs><path class="cls-1" d="M308.59,617.19C138.44,617.19,0,478.75,0,308.59S138.44,0,308.59,0s308.59,138.44,308.59,308.59-138.44,308.59-308.59,308.59Zm0-609.86C142.48,7.33,7.33,142.48,7.33,308.59s135.15,301.26,301.26,301.26,301.26-135.15,301.26-301.26S474.71,7.33,308.59,7.33Z"/><g id="yBzZMm"><g><path class="cls-1" d="M133.26,439.28c1.59-5.23,3.48-10.28,7.63-14.14,5.36-5,11.8-7.07,19-6.89,2.21,.06,3.04-.58,3.53-2.88,2.67-12.5,9.72-21.85,21.15-27.63,2.33-1.18,2.75-2.48,2.4-4.75-1.23-8.05-.9-16.06,.79-24.03,.82-3.86,3.16-5.86,6.22-5.22,3.09,.64,4.64,3.35,3.82,7.21-1.78,8.35-1.68,16.65,.02,24.99,1.21,5.95,.31,7.27-5.33,9.47-12.09,4.71-18.53,13.68-19.67,26.53-.43,4.9-1.95,6.44-6.8,6.49-2.72,.03-5.46-.09-8.17,.05-8.4,.42-14.14,6.33-14.34,14.71-.08,3.16-.01,6.32-.01,9.73h245.64c0-4.24,.44-8.35-.1-12.33-.97-7.18-6.72-11.84-14.27-12.12-3.74-.14-7.49-.02-11.24-.04-5.16-.03-6.61-1.43-6.91-6.61-1.21-20.88-13.79-38.2-33.23-44.12-10.78-3.28-9.1-3.53-10.26-12.62-3.43-26.87-27.27-48.81-54.37-49.99-21.75-.94-39,7.54-51.81,25.1-.6,.82-1.16,1.69-1.83,2.45-2.02,2.31-4.75,2.79-6.96,1.29-2.38-1.62-2.96-4.46-1.19-7.21,4.33-6.74,9.56-12.68,15.95-17.56,1.34-1.02,2.7-2.03,4.17-3.13-5.02-13.77-9.98-27.38-14.94-41.01-8.25-22.69-16.52-45.38-24.7-68.1-.82-2.29-1.95-3.25-4.47-3.7-13.28-2.38-23.71-9.3-31.13-20.62-4.66-7.11-2.28-15.07,5.73-18.05,20.92-7.79,41.9-15.45,62.93-22.95,7.88-2.81,15.07,1.97,15.96,10.3,1.44,13.4-1.93,25.46-10.73,35.78-1.63,1.91-1.78,3.38-.93,5.69,13.14,35.87,26.18,71.78,39.15,107.71,.93,2.58,2.12,3.68,5,3.83,32.92,1.69,60.01,26.7,64.31,59.28,.23,1.77,.68,2.8,2.51,3.44,23.48,8.26,36.98,24.8,40.67,49.39,.03,.22,.15,.42,.49,1.3,2.97,0,6.24-.28,9.45,.05,13.7,1.42,22.55,10.78,23.19,24.44,.19,4.08,.13,8.18,.02,12.26-.14,5.21-2.85,7.95-7.97,8.27-.79,.05-1.59,.02-2.38,.02-81.87,0-163.73-.02-245.6,.05-4.72,0-8.5-.99-10.39-5.77v-18.4Zm111.31-134.3c-13.06-35.89-26.13-71.82-39.07-107.38-6.28,2.27-12.19,4.41-18.24,6.6,12.88,35.38,25.83,70.99,38.71,106.37,6.31-1.9,12.15-3.65,18.6-5.59Zm-28.01-146.74c-.06-1.36-.19-2.72-.18-4.08,.01-2.95-1.27-3.43-3.89-2.47-19.99,7.34-40,14.61-60.02,21.85-2.44,.88-3.3,1.74-1.58,4.32,8.87,13.3,25.26,18.91,41.39,13.97,13.86-4.25,24.33-18.72,24.3-33.6Z"/><path class="cls-1" d="M460.37,199.27c4.06,11.41,7.98,22.37,11.87,33.34,.34,.96,.59,1.98,.67,2.98,.2,2.56-.9,4.51-3.38,5.25-2.55,.77-4.82,.07-6.01-2.48-.81-1.73-1.31-3.62-1.83-5.47-3.08-10.84-7.06-21.29-12.96-30.96-2.82-4.62-1.94-6.89,2.64-9.7,4.13-2.54,8.07-5.42,11.92-8.37,1.39-1.07,2.43-2.69,3.37-4.23,1.9-3.12,2.3-6.41,.22-9.64-2-3.11-5.18-4.28-8.56-3.78-3.65,.54-7.55,1.24-10.68,3.03-5.85,3.36-11.33,7.42-16.75,11.47-2.36,1.76-4.41,2.79-7.43,1.79-23.6-7.83-48.01-9.32-72.61-8.72-16.59,.4-33.22,1.47-49.09,6.6-8.02,2.59-13.89,2.52-20.22-4.01-5.3-5.46-12.55-8.93-20.46-10.08-4.2-.61-7.97,.13-10.48,3.95-2.04,3.1-1.88,7.62,1.52,10.97,4.06,4.01,8.72,7.54,13.53,10.63,5.29,3.39,6.12,5.32,2.92,10.64-8.23,13.7-12.61,28.8-16.06,44.23-.25,1.11-.45,2.23-.77,3.31-.94,3.29-3.52,5.06-6.25,4.34-2.86-.75-4.42-3.41-3.71-6.68,1.06-4.87,1.84-9.87,3.5-14.54,3.74-10.55,7.94-20.94,11.97-31.39,.24-.63,.53-1.23,.65-1.51-4.47-3.96-9.13-7.43-12.99-11.64-8.2-8.96-7.47-21.8,1.37-28.62,6.19-4.78,13.28-4.83,20.44-2.88,9.02,2.45,16.79,7.26,23.97,13.17,1.07,.88,3.12,1.43,4.41,1.07,23.61-6.68,47.74-8.5,72.13-7.83,18.88,.52,37.54,2.69,55.78,7.94,1.15,.33,3.01-.42,4.05-1.26,7.74-6.32,16.07-11.47,25.97-13.58,11.32-2.42,20.75,2.16,24.33,11.64,2.82,7.47,.05,16.66-7.28,23.25-3.27,2.94-6.87,5.52-9.71,7.78Z"/><path class="cls-1" d="M358.79,236.06c13.74,0,27.48-.03,41.22,0,15.7,.04,25.44,9.83,25.49,25.55,.02,8.75,.05,17.49,0,26.24-.09,14.91-9.75,25.04-24.58,25.14-28.05,.2-56.1,.17-84.14,0-13.83-.08-23.45-8.6-24.35-22.39-.73-11.29-.52-22.72,.25-34.02,.78-11.44,10.34-20.11,21.84-20.36,14.75-.32,29.52-.08,44.28-.08,0-.03,0-.06,0-.09Zm.23,10.23c-14.07,0-28.15-.05-42.22,.02-9.02,.04-14.37,5.39-14.45,14.44-.08,9.2-.08,18.39,0,27.59,.09,8.94,5.54,14.44,14.54,14.46,27.92,.07,55.84,.07,83.77,0,9.17-.02,14.55-5.55,14.61-14.73,.05-8.86,.03-17.71,0-26.57-.02-9.94-5.19-15.19-15.05-15.21-13.73-.03-27.47,0-41.2,0Z"/><path class="cls-1" d="M461.27,419.99c4.2,4,8.6,7.47,12.1,11.69,6.07,7.32,6.68,16.02,2.38,22.75-4.61,7.2-13.16,10.43-22.4,8.42-9.77-2.13-18.16-6.98-25.69-13.37-1.77-1.5-3.36-1.91-5.5-1.15-1.92,.68-3.9,1.23-5.9,1.63-2.84,.58-5.42-.97-6.05-3.64-.68-2.85,.49-5.04,3.18-5.96,4.07-1.39,8.2-2.79,12.42-3.48,1.63-.27,3.92,.98,5.32,2.22,6.18,5.46,12.78,10.21,20.71,12.73,2.55,.81,5.34,1.25,8.01,1.18,6.69-.16,10.63-6.45,7.19-12.2-2.31-3.85-6.08-6.87-9.41-10.03-1.45-1.37-3.44-2.17-5.2-3.21-3.99-2.36-4.85-4.87-2.43-8.7,7.07-11.17,11.34-23.44,14.4-36.18,6.58-27.36,8.54-55.17,7.09-83.18-.71-13.69-2.66-27.31-4.1-40.96-.38-3.6,1.18-6.23,4.19-6.67,3.06-.44,5.24,1.36,5.88,5.15,3.98,23.48,5.32,47.14,4.37,70.92-.75,18.85-2.8,37.57-7.15,55.97-3.01,12.74-7.14,25.07-13.42,36.08Z"/><path class="cls-1" d="M325.83,414.91c-.04,2.48-1.95,4.69-4.65,4.94-2.84,.26-4.86-1.54-5.44-4.83-1.42-8.04-4.9-12.22-11.44-12.66-2.67-.18-5.54,.74-8.12,1.69-3.78,1.39-6.54,.94-7.88-1.88-1.32-2.77-.28-5.36,3.14-7.24,7.81-4.31,15.7-4.17,23.29,.37,7.14,4.27,10.66,10.9,11.1,19.62Z"/><path class="cls-1" d="M268.11,353.27c.06,4.23-3.92,6.8-7.21,5.21-.8-.39-1.49-1.03-2.2-1.58-5.82-4.57-12.19-3.45-16.35,2.61-.99,1.45-2.65,3.02-4.25,3.37-3.96,.88-6.77-3.12-5.24-7.04,5.04-12.94,25.09-16.12,33.84-5.33,.75,.92,1.12,2.16,1.42,2.76Z"/><path class="cls-1" d="M237.11,414.82c.14,4.46-3.63,7-7.02,5.45-.92-.42-1.72-1.07-2.58-1.61-4.77-3.01-10.23-2.52-14.36,1.29-.66,.61-1.28,1.28-1.98,1.86-2.24,1.85-4.6,1.92-6.72-.04-2.13-1.97-2.2-4.35-.55-6.73,6.71-9.71,22.76-11.43,31.31-3.27,.99,.95,1.51,2.4,1.91,3.06Z"/></g></g></svg>