<?xml version="1.0" encoding="UTF-8"?><svg id="Layer_1" xmlns="http://www.w3.org/2000/svg" viewBox="0 0 617.18 617.18"><defs><style>.cls-1{fill:#00aeef;}</style></defs><path class="cls-1" d="M308.59,617.19C138.44,617.19,0,478.75,0,308.59S138.44,0,308.59,0s308.59,138.44,308.59,308.59-138.44,308.59-308.59,308.59Zm0-609.86C142.48,7.33,7.33,142.48,7.33,308.59s135.15,301.26,301.26,301.26,301.26-135.15,301.26-301.26S474.71,7.33,308.59,7.33Z"/><g id="jMXVZD"><path class="cls-1" d="M318.04,305.07c1.84,0,2.82,0,3.81,0,67.39,0,134.78,0,202.17,0,4.41,0,6.97,1.55,8.05,4.82,1.17,3.54,0,6.98-3.22,9.48-.58,.45-1.18,.87-1.79,1.29-12.64,8.83-25.29,17.65-37.93,26.48-34.39,24.02-68.97,47.77-103.03,72.24-8.7,6.25-17.31,9.12-27.83,8.23-7.93-.67-15.96-.24-23.95-.24-58.39,0-116.79-.14-175.18,.08-34.83,.13-63.02-23.84-71.15-54.48-8.01-30.19-1.65-57.27,20.08-80.21,5.22-5.51,11.56-9.55,18.23-13.14,31.74-17.11,63.4-34.39,95.15-51.48,9.45-5.09,18.98-10.06,28.72-14.55,21.22-9.78,41.35-6.6,60.19,6.33,11.29,7.74,19.62,18.05,23.63,31.27,6.01,19.77,1.08,36.9-13.42,51.43-.63,.63-1.29,1.24-2.54,2.44Zm181.62,15.99c-.08-.19-.16-.38-.25-.57-.63-.03-1.26-.1-1.9-.1-67.21,0-134.43,0-201.64,.07-1.73,0-3.64,.56-5.16,1.41-30.43,17.04-60.82,34.15-91.2,51.29-11.06,6.24-22.77,9.62-35.57,8.59-18.51-1.5-30.78-15.21-30.16-33.72,.55-16.2,12.56-29.09,27.84-29.87,14.19-.73,25.23,9.56,24.8,23.1-.12,3.86-2.22,6.36-5.98,7.15-4.99,1.04-8.74-1.95-9.31-7.45-.59-5.61-3.94-8.48-9.51-7.62-2.18,.34-4.54,1.23-6.23,2.59-5.76,4.65-7.54,10.91-5.97,18.03,1.43,6.5,6.03,9.93,12.22,11.23,20.61,4.35,45.32-8.98,46.55-36.5,.88-19.74-9.99-34.36-29.05-39.52-7.63-2.06-15.38-2.56-23.21-1.63-15.01,1.79-28.77,6.73-39.07,18.2-16.61,18.49-20.79,40.29-13.69,63.7,7.45,24.55,24.01,39.6,50.15,42.2,9.55,.95,19.26,.38,28.89,.38,60.51,.02,121.02,0,181.53,.03,3.41,0,6.26-.45,9.19-2.92,4.45-3.76,9.83-6.39,14.64-9.75,36.45-25.4,72.87-50.85,109.29-76.29,.95-.66,1.87-1.36,2.8-2.03Zm-278.49,22.23c1.19-.63,1.75-.92,2.3-1.23,21.11-11.88,42.24-23.72,63.31-35.67,6.77-3.85,13.74-7.51,19.97-12.13,14.04-10.39,18.65-28.08,11.2-42.89-7.8-15.52-20.92-24.26-37.85-27.18-10.52-1.81-20.13,1.52-29.3,6.43-24.75,13.25-49.5,26.5-74.24,39.76-.78,.42-1.52,.9-3,1.79,18.01,1.45,31.43,9.46,40.88,23.82,9.5,14.43,11,30.2,6.73,47.29Z"/></g></svg>