<?xml version="1.0" encoding="utf-8"?>
<!-- Generator: Adobe Illustrator 27.0.0, SVG Export Plug-In . SVG Version: 6.00 Build 0)  -->
<svg version="1.1" id="Layer_1" xmlns="http://www.w3.org/2000/svg" xmlns:xlink="http://www.w3.org/1999/xlink" x="0px" y="0px"
	 viewBox="0 0 612.84 539.16" style="enable-background:new 0 0 612.84 539.16;" xml:space="preserve">
<style type="text/css">
	.st0{fill:#FFFFFF;stroke:#00B4EC;stroke-width:3;stroke-miterlimit:10;}
	.st1{fill:#003DA5;}
	.st2{fill:#E01837;}
	.st3{fill:#004B97;}
	.st4{fill:#004C99;}
	.st5{fill:#1B459B;}
	.st6{fill:#60D8F4;}
	.st7{fill:#FFFFFF;}
	.st8{fill:none;}
	.st9{fill:#1A459C;}
	.st10{fill:#00B4EC;}
	.st11{fill:#EBF9FC;}
</style>
<g>
	<g>
		<path class="st3" d="M279.45,444.11c4.52-14.57,9.05-29.13,13.57-43.7c7.21-23.22,14.42-46.44,21.63-69.65
			c1.65-5.33,3.31-10.66,4.96-15.99c1.27-4.08-1.51-8.25-5.38-9.47c-9.09-2.88-18.18-5.76-27.27-8.65
			c-9.47-3-13.53,11.86-4.09,14.85c9.09,2.88,18.18,5.76,27.27,8.65c-1.79-3.16-3.59-6.32-5.38-9.47
			c-4.52,14.57-9.05,29.13-13.57,43.7c-7.21,23.22-14.42,46.44-21.63,69.65c-1.65,5.33-3.31,10.66-4.96,15.99
			C261.65,449.5,276.51,453.56,279.45,444.11L279.45,444.11z"/>
	</g>
	<g>
		<path class="st3" d="M84.13,296.65c-9.09,2.88-18.18,5.76-27.27,8.65c-3.87,1.23-6.65,5.37-5.38,9.47
			c4.52,14.57,9.05,29.13,13.57,43.7c7.21,23.22,14.42,46.44,21.63,69.65c1.65,5.33,3.31,10.66,4.96,15.99
			c2.93,9.44,17.8,5.41,14.85-4.09c-4.52-14.57-9.05-29.13-13.57-43.7c-7.21-23.22-14.42-46.44-21.63-69.65
			c-1.65-5.33-3.31-10.66-4.96-15.99c-1.79,3.16-3.59,6.32-5.38,9.47c9.09-2.88,18.18-5.76,27.27-8.65
			C97.64,308.51,93.62,293.64,84.13,296.65L84.13,296.65z"/>
	</g>
	<g>
		<path class="st3" d="M105.97,225.17c-13.79,0-27.58,0-41.36,0c-4.16,0-7.7,3.53-7.7,7.7c0,22.54,0,45.09,0,67.63
			c0,3.25,0,6.49,0,9.74c0,4.87,4.94,8.92,9.75,7.43c33.82-10.54,67.65-21.07,101.47-31.61c4.03-1.25,8.04-2.6,12.09-3.77
			c6.42-1.85,11.97,0.41,17.99,2.29c19.4,6.04,38.81,12.09,58.21,18.13c16,4.98,32,9.97,48,14.95c4.81,1.5,9.75-2.56,9.75-7.43
			c0-22.54,0-45.09,0-67.63c0-3.25,0-6.49,0-9.74c0-4.16-3.53-7.7-7.7-7.7c-13.79,0-27.58,0-41.36,0c-9.91,0-9.93,15.4,0,15.4
			c13.79,0,27.58,0,41.36,0c-2.57-2.57-5.13-5.13-7.7-7.7c0,22.54,0,45.09,0,67.63c0,3.25,0,6.49,0,9.74
			c3.25-2.48,6.5-4.95,9.75-7.43c-33.98-10.59-67.96-21.17-101.94-31.76c-4.29-1.34-8.58-2.89-12.94-3.99
			c-8.53-2.14-16.13-0.06-24.11,2.43c-19.41,6.05-38.82,12.09-58.23,18.14c-16.24,5.06-32.49,10.12-48.73,15.18
			c3.25,2.48,6.5,4.95,9.75,7.43c0-22.54,0-45.09,0-67.63c0-3.25,0-6.49,0-9.74c-2.57,2.57-5.13,5.13-7.7,7.7
			c13.79,0,27.58,0,41.36,0C115.89,240.57,115.9,225.17,105.97,225.17L105.97,225.17z"/>
	</g>
	<g>
		<path class="st3" d="M277.43,172.12c-20.78,0-41.56,0-62.33,0c-32.85,0-65.7,0-98.55,0c-7.63,0-15.27,0-22.9,0
			c-4.16,0-7.7,3.53-7.7,7.7c0,17.68,0,35.36,0,53.04c0,4.16,3.53,7.7,7.7,7.7c20.78,0,41.56,0,62.33,0c32.85,0,65.7,0,98.55,0
			c7.63,0,15.27,0,22.9,0c4.16,0,7.7-3.53,7.7-7.7c0-17.68,0-35.36,0-53.04c0-9.91-15.4-9.93-15.4,0c0,17.68,0,35.36,0,53.04
			c2.57-2.57,5.13-5.13,7.7-7.7c-20.78,0-41.56,0-62.33,0c-32.85,0-65.7,0-98.55,0c-7.63,0-15.27,0-22.9,0
			c2.57,2.57,5.13,5.13,7.7,7.7c0-17.68,0-35.36,0-53.04c-2.57,2.57-5.13,5.13-7.7,7.7c20.78,0,41.56,0,62.33,0
			c32.85,0,65.7,0,98.55,0c7.63,0,15.27,0,22.9,0C287.34,187.53,287.36,172.12,277.43,172.12z"/>
	</g>
	<g>
		<path class="st3" d="M115.09,200.53c0,3.09,0,6.18,0,9.28c0,0.44,0,0.87,0,1.31c0,1.97,0.86,4.05,2.26,5.45
			c0.7,0.75,1.52,1.28,2.48,1.59c0.92,0.48,1.91,0.7,2.97,0.66c1.99-0.09,4.06-0.74,5.45-2.26c1.38-1.51,2.26-3.36,2.26-5.45
			c0-3.09,0-6.18,0-9.28c0-0.44,0-0.87,0-1.31c0-1.97-0.86-4.05-2.26-5.45c-0.7-0.75-1.52-1.28-2.48-1.59
			c-0.92-0.48-1.91-0.7-2.97-0.66c-1.99,0.09-4.06,0.74-5.45,2.26C115.96,196.59,115.09,198.44,115.09,200.53L115.09,200.53z"/>
	</g>
	<g>
		<path class="st3" d="M153.54,200.53c0,3.09,0,6.18,0,9.28c0,0.44,0,0.87,0,1.31c0,1.97,0.86,4.05,2.26,5.45
			c0.7,0.75,1.52,1.28,2.48,1.59c0.92,0.48,1.91,0.7,2.97,0.66c1.99-0.09,4.06-0.74,5.45-2.26c1.38-1.51,2.26-3.36,2.26-5.45
			c0-3.09,0-6.18,0-9.28c0-0.44,0-0.87,0-1.31c0-1.97-0.86-4.05-2.26-5.45c-0.7-0.75-1.52-1.28-2.48-1.59
			c-0.92-0.48-1.91-0.7-2.97-0.66c-1.99,0.09-4.06,0.74-5.45,2.26C154.41,196.59,153.54,198.44,153.54,200.53L153.54,200.53z"/>
	</g>
	<g>
		<path class="st3" d="M195.07,200.53c0,3.09,0,6.18,0,9.28c0,0.44,0,0.87,0,1.31c0,1.97,0.86,4.05,2.26,5.45
			c0.7,0.75,1.52,1.28,2.48,1.59c0.92,0.48,1.91,0.7,2.97,0.66c1.99-0.09,4.06-0.74,5.45-2.26c1.38-1.51,2.26-3.36,2.26-5.45
			c0-3.09,0-6.18,0-9.28c0-0.44,0-0.87,0-1.31c0-1.97-0.86-4.05-2.26-5.45c-0.7-0.75-1.52-1.28-2.48-1.59
			c-0.92-0.48-1.91-0.7-2.97-0.66c-1.99,0.09-4.06,0.74-5.45,2.26C195.94,196.59,195.07,198.44,195.07,200.53L195.07,200.53z"/>
	</g>
	<g>
		<path class="st3" d="M233.52,200.53c0,3.09,0,6.18,0,9.28c0,0.44,0,0.87,0,1.31c0,1.97,0.86,4.05,2.26,5.45
			c0.7,0.75,1.52,1.28,2.48,1.59c0.92,0.48,1.91,0.7,2.97,0.66c1.99-0.09,4.06-0.74,5.45-2.26c1.38-1.51,2.26-3.36,2.26-5.45
			c0-3.09,0-6.18,0-9.28c0-0.44,0-0.87,0-1.31c0-1.97-0.86-4.05-2.26-5.45c-0.7-0.75-1.52-1.28-2.48-1.59
			c-0.92-0.48-1.91-0.7-2.97-0.66c-1.99,0.09-4.06,0.74-5.45,2.26C234.39,196.59,233.52,198.44,233.52,200.53L233.52,200.53z"/>
	</g>
	<g>
		<path class="st3" d="M69.31,347.05c32.51-9.77,65.01-19.54,97.52-29.31c3.87-1.16,7.74-2.4,11.63-3.5
			c7.34-2.07,13.5-0.15,20.35,1.94c18.37,5.62,36.74,11.25,55.11,16.87c15.31,4.69,30.62,9.37,45.93,14.06
			c9.5,2.91,13.56-11.96,4.09-14.85c-32.46-9.93-64.91-19.87-97.37-29.8c-5.08-1.55-10.18-3.42-15.44-4.19
			c-8.26-1.2-15.57,0.76-23.28,3.08c-18.71,5.63-37.43,11.25-56.14,16.88c-15.5,4.66-30.99,9.32-46.49,13.97
			C55.74,335.05,59.78,349.92,69.31,347.05L69.31,347.05z"/>
	</g>
	<g>
		<path class="st3" d="M261.93,121.4c-17.29,0-34.58,0-51.87,0c-27.57,0-55.14,0-82.71,0c-6.34,0-12.69,0-19.03,0
			c-4.16,0-7.7,3.53-7.7,7.7c0,16.91,0,33.82,0,50.73c0,4.16,3.53,7.7,7.7,7.7c17.29,0,34.58,0,51.87,0c27.57,0,55.14,0,82.71,0
			c6.34,0,12.69,0,19.03,0c4.16,0,7.7-3.53,7.7-7.7c0-16.91,0-33.82,0-50.73c0-9.91-15.4-9.93-15.4,0c0,16.91,0,33.82,0,50.73
			c2.57-2.57,5.13-5.13,7.7-7.7c-17.29,0-34.58,0-51.87,0c-27.57,0-55.14,0-82.71,0c-6.34,0-12.69,0-19.03,0
			c2.57,2.57,5.13,5.13,7.7,7.7c0-16.91,0-33.82,0-50.73c-2.57,2.57-5.13,5.13-7.7,7.7c17.29,0,34.58,0,51.87,0
			c27.57,0,55.14,0,82.71,0c6.34,0,12.69,0,19.03,0C271.84,136.8,271.86,121.4,261.93,121.4z"/>
	</g>
	<g>
		<path class="st3" d="M86.18,270.15c21.66,0,43.31,0,64.97,0c34.21,0,68.41,0,102.62,0c7.89,0,15.78,0,23.67,0
			c9.91,0,9.93-15.4,0-15.4c-21.66,0-43.31,0-64.97,0c-34.21,0-68.41,0-102.62,0c-7.89,0-15.78,0-23.67,0
			C76.26,254.75,76.25,270.15,86.18,270.15L86.18,270.15z"/>
	</g>
	<g>
		<path class="st3" d="M150.41,127.6c0-7.03,0-14.06,0-21.09c0-0.99,0-1.99,0-2.98c0-4.03-3.54-7.89-7.7-7.7
			c-4.17,0.19-7.7,3.38-7.7,7.7c0,7.03,0,14.06,0,21.09c0,0.99,0,1.99,0,2.98c0,4.03,3.54,7.89,7.7,7.7
			C146.88,135.11,150.41,131.91,150.41,127.6L150.41,127.6z"/>
	</g>
	<g>
		<path class="st3" d="M229.51,127.6c0-7.03,0-14.06,0-21.09c0-0.99,0-1.99,0-2.98c0-4.03-3.54-7.89-7.7-7.7
			c-4.17,0.19-7.7,3.38-7.7,7.7c0,7.03,0,14.06,0,21.09c0,0.99,0,1.99,0,2.98c0,4.03,3.54,7.89,7.7,7.7
			C225.98,135.11,229.51,131.91,229.51,127.6L229.51,127.6z"/>
	</g>
	<g>
		<path class="st3" d="M108.32,162.17c17.41,0,34.82,0,52.22,0c2.46,0,4.92,0,7.39,0c9.91,0,9.93-15.4,0-15.4
			c-17.41,0-34.82,0-52.22,0c-2.46,0-4.92,0-7.39,0C98.41,146.76,98.39,162.17,108.32,162.17L108.32,162.17z"/>
	</g>
	<g>
		<path class="st3" d="M201.24,162.17c17.41,0,34.82,0,52.22,0c2.46,0,4.92,0,7.39,0c9.91,0,9.93-15.4,0-15.4
			c-17.41,0-34.82,0-52.22,0c-2.46,0-4.92,0-7.39,0C191.33,146.76,191.32,162.17,201.24,162.17L201.24,162.17z"/>
	</g>
	<g>
		<path class="st3" d="M72.46,449.49c5.75,2.11,11.5,4.21,17.26,6.32c8.86,3.24,16.91,6.13,26.64,4.27
			c6.7-1.29,13.29-4.19,19.74-6.33c2.81-0.94,5.73-2.14,8.69-2.39c3.98-0.34,7.51,0.86,11.17,2.17c6.85,2.46,13.97,5.88,21.2,7
			c8.89,1.38,16.76-1.37,25.1-3.83c5.97-1.76,11.93-3.84,17.99-5.27c7.08-1.67,14.83,2.08,21.49,4.21
			c7.54,2.42,15.46,5.81,23.52,5.41c7.64-0.38,15.12-3.49,22.34-5.77c7.07-2.23,14.35-5.59,21.83-3.59
			c5.86,1.56,11.66,3.38,17.49,5.06c7.86,2.28,15.65,5.16,23.98,4.19c7.14-0.83,14.15-3.74,20.97-5.89
			c7.06-2.23,13.89-5.28,21.36-3.09c6.09,1.79,12.12,3.82,18.17,5.73c8.79,2.77,17.31,4.56,26.45,1.51
			c6.39-2.13,12.72-4.45,19.1-6.61c6.72-2.28,12.12-0.86,18.51,1.12c7.4,2.29,14.8,4.57,22.21,6.86c1.66,0.51,3.32,1.02,4.98,1.54
			c9.49,2.93,13.55-11.93,4.09-14.85c-10.89-3.36-21.74-6.96-32.7-10.1c-10.23-2.93-19.07-0.14-28.59,3.15
			c-7.4,2.56-15.55,6.75-23.48,4.55c-14.38-3.99-29.3-12.21-44.48-7.72c-6.31,1.86-12.55,3.96-18.82,5.94
			c-2.14,0.67-4.27,1.41-6.43,2.01c-4.04,1.12-7.82,0.68-11.76-0.45c-7.03-2.01-14.04-4.07-21.07-6.1
			c-8.47-2.45-16.58-4.09-25.37-1.43c-6.5,1.97-12.97,4.09-19.45,6.13c-2.41,0.76-4.92,1.76-7.42,2.19
			c-3.84,0.67-7.36-0.16-10.97-1.31c-6.86-2.2-13.72-4.43-20.59-6.61c-8.14-2.59-15.93-2-23.98,0.37c-7.1,2.09-14.2,4.19-21.3,6.28
			c-3.32,0.98-6.56,1.81-10.09,1.34c-3.1-0.41-6.18-1.79-9.1-2.84c-7.61-2.74-15.49-6.46-23.69-6.75c-8.4-0.29-16.6,3.37-24.43,5.98
			c-2.49,0.83-4.97,1.72-7.49,2.49c-4.67,1.44-8.91,1.21-13.49-0.41c-6.58-2.34-13.12-4.8-19.68-7.2c-1.93-0.71-3.87-1.42-5.8-2.12
			c-3.91-1.43-8.44,1.6-9.47,5.38C65.9,444.31,68.54,448.05,72.46,449.49L72.46,449.49z"/>
	</g>
	<g>
		<path class="st3" d="M298.47,396.45c7.25-2.07,13.89,0.68,20.82,2.69c6.06,1.75,12.1,3.57,18.18,5.26
			c14.7,4.09,29.79-3.42,43.68-7.68c6.68-2.05,12.2-0.13,18.5,1.86c5.83,1.84,11.63,3.8,17.5,5.52c9.55,2.8,18.06,0.62,27.03-2.48
			c6.48-2.24,14.11-6.15,21.09-5.87c6.33,0.26,13.23,3.49,19.2,5.34c6.06,1.87,12.12,3.74,18.19,5.62
			c9.49,2.93,13.55-11.93,4.09-14.85c-10.84-3.35-21.64-6.83-32.52-10.04c-9.24-2.72-17.62-0.76-26.33,2.25
			c-6.26,2.17-13.74,6.04-20.47,6.12c-6.45,0.07-13.49-3.24-19.55-5.15c-7.51-2.37-15.02-5.37-23.06-4.66
			c-7.05,0.62-13.95,3.46-20.65,5.57c-6.47,2.04-14,5.59-20.87,4.07c-15.83-3.51-32.44-13.11-48.91-8.41
			C284.85,384.31,288.9,399.18,298.47,396.45L298.47,396.45z"/>
	</g>
	<g>
		<path class="st3" d="M371.95,392.89c0.19-22.4,14.16-43.46,35.48-51.16c21.23-7.67,46.3-2.08,61.41,14.85
			c8.12,9.1,12.14,21.05,12.25,33.23c0.08,9.91,15.49,9.93,15.4,0c-0.25-29.1-18.82-53.92-46.3-63.15
			c-27.23-9.14-58.77-1.08-77.2,21.22c-10.54,12.74-16.3,28.46-16.44,45.01C356.46,402.8,371.86,402.81,371.95,392.89L371.95,392.89
			z"/>
	</g>
	<g>
		<path class="st3" d="M434.22,303.26c0-10.88,0-21.76,0-32.64c0-1.54,0-3.08,0-4.62c0-4.03-3.54-7.89-7.7-7.7
			c-4.17,0.19-7.7,3.38-7.7,7.7c0,10.88,0,21.76,0,32.64c0,1.54,0,3.08,0,4.62c0,4.03,3.54,7.89,7.7,7.7
			C430.69,310.77,434.22,307.58,434.22,303.26L434.22,303.26z"/>
	</g>
	<g>
		<path class="st3" d="M494.23,333.44c7.69-7.69,15.37-15.37,23.06-23.06c1.09-1.09,2.19-2.19,3.28-3.28
			c2.85-2.85,3.07-8.08,0-10.89c-3.07-2.82-7.85-3.04-10.89,0c-7.69,7.69-15.37,15.37-23.06,23.06c-1.09,1.09-2.19,2.19-3.28,3.28
			c-2.85,2.85-3.07,8.08,0,10.89C486.41,336.27,491.19,336.49,494.23,333.44L494.23,333.44z"/>
	</g>
	<g>
		<path class="st3" d="M372.59,319.54c-7.69-7.69-15.37-15.37-23.06-23.06c-1.09-1.09-2.19-2.19-3.28-3.28
			c-2.85-2.85-8.08-3.07-10.89,0c-2.82,3.07-3.04,7.85,0,10.89c7.69,7.69,15.37,15.37,23.06,23.06c1.09,1.09,2.19,2.19,3.28,3.28
			c2.85,2.85,8.08,3.07,10.89,0C375.41,327.35,375.64,322.58,372.59,319.54L372.59,319.54z"/>
	</g>
</g>
</svg>
