<?xml version="1.0" encoding="UTF-8"?><svg id="Layer_1" xmlns="http://www.w3.org/2000/svg" viewBox="0 0 617.18 617.18"><defs><style>.cls-1{fill:#00aeef;}</style></defs><path class="cls-1" d="M308.54,617.19C138.38,617.19-.05,478.75-.05,308.59S138.38,0,308.54,0s308.59,138.44,308.59,308.59-138.44,308.59-308.59,308.59Zm0-609.86C142.42,7.33,7.28,142.48,7.28,308.59s135.15,301.26,301.26,301.26,301.26-135.15,301.26-301.26S474.65,7.33,308.54,7.33Z"/><g><g id="atDGuO"><path class="cls-1" d="M447.06,481.58v12.38H160.21v-12.13h24.57V132.29h237.39V481.58h24.89Zm-68.8-.02V176.06H228.88V481.57h149.38Zm12.89-318.14V481.42h18.41V144.75H197.7V481.43h18.6V163.43h174.85Z"/></g><path class="cls-1" d="M256.79,331.88c-8.55-.03-15.61,7.01-15.62,15.57,0,8.57,6.99,15.58,15.57,15.62,8.54,.04,15.63-7.02,15.61-15.57-.01-8.59-6.99-15.6-15.57-15.62Zm-.02,21.47c-3.24,0-5.87-2.63-5.87-5.87s2.63-5.87,5.87-5.87,5.87,2.63,5.87,5.87-2.63,5.87-5.87,5.87Z"/></g></svg>