<?xml version="1.0" encoding="UTF-8"?><svg id="Layer_1" xmlns="http://www.w3.org/2000/svg" viewBox="0 0 617.18 617.18"><defs><style>.cls-1{fill:#00aeef;}</style></defs><path class="cls-1" d="M308.88,617.19C138.73,617.19,.29,478.75,.29,308.59S138.73,0,308.88,0s308.59,138.44,308.59,308.59-138.44,308.59-308.59,308.59Zm0-609.86C142.77,7.33,7.62,142.48,7.62,308.59s135.15,301.26,301.26,301.26,301.26-135.15,301.26-301.26S475,7.33,308.88,7.33Z"/><g><g id="UVYn9u"><g><path class="cls-1" d="M172.12,161.07c3.69-6.97,10.38-10.5,16.8-14.11,12.28-6.9,25.67-9.93,39.7-10.43,25.31-.91,49.18,5.2,72.34,14.78,2.03,.84,3.72,1.2,5.92,.32,1.74-.69,4.03-.87,5.81-.36,2.27,.65,2.87-.28,3.72-1.96,5.5-10.95,13.94-13.69,24.94-8.19,2.25,1.12,4.5,2.24,6.73,3.4,9.1,4.75,11.96,13.55,7.46,22.81-.59,1.21-1.17,2.42-.87,3.37,1.57,2.93,3.07,5.91,4.77,8.77,.54,.9,1.52,1.65,2.45,2.2,19.86,11.69,37.78,25.69,51.99,44.03,9.49,12.25,16.6,25.72,18.95,41.2,.94,6.17,1.06,12.52,.92,18.78-.1,4.29-2.84,7.35-7,8.78-4.17,1.44-7.93,.53-10.94-2.62-3.91-4.09-7.54-8.45-11.45-12.54-19.47-20.3-41.72-36.88-66.73-49.76-1.5-.77-2.66-.73-4.33-.31-2.71,.69-5.63,.51-9.07,.75-5.99,11.96-12.35,24.67-18.71,37.38-21.01,42.01-42.04,84.01-63.01,126.05-3.27,6.55-7.99,11.32-15.25,12.94-8.66,1.93-16.09-.64-21.62-7.49-5.73-7.1-6.39-15.18-2.38-23.3,10.61-21.5,21.42-42.91,32.15-64.35,16.4-32.77,32.8-65.54,49.2-98.31,.47-.93,.91-1.88,.65-2.5-1.62-2.91-3.2-5.84-4.88-8.71-.38-.65-1.02-1.27-1.69-1.6-21.55-10.57-44.14-18.06-67.82-21.97-9.38-1.55-18.9-2.33-28.38-3.28-5.01-.5-8.14-3.29-10.37-7.48v-6.29Zm123.82,53.56c-.67,1.26-1.22,2.26-1.73,3.28-21.44,42.86-42.88,85.72-64.32,128.58-5.57,11.14-11.21,22.24-16.71,33.41-3.35,6.8,.08,14.07,7.23,15.69,4.95,1.12,9.5-1.45,12.29-7.02,22-43.93,43.99-87.87,65.97-131.81,5.41-10.82,10.82-21.64,16.32-32.61-6.44-3.22-12.68-6.34-19.04-9.52Zm127.22,69.24c.6-17.68-4.78-32.49-14.07-46.02-13.57-19.75-31.88-34.21-52.19-46.41-.32-.19-.77-.17-1.29-.28-4.7,9.41-9.35,18.72-14.08,28.21,31.36,16.1,58.29,37.37,81.63,64.51Zm-238.91-120.3c17.3,1.55,34.27,4.3,50.97,8.75,16.7,4.45,32.79,10.54,48.58,18.14,4.81-9.62,9.5-19.01,14.56-29.14-10.5-3.25-20.45-6.79-30.64-9.4-18.33-4.69-36.9-6.46-55.62-2.19-10.33,2.35-19.74,6.64-27.85,13.84Zm126.05-1.79c-6.42,12.84-12.72,25.43-19.17,38.3,12.87,6.43,25.52,12.75,38.33,19.15,6.49-12.98,12.78-25.56,19.15-38.31-12.9-6.45-25.5-12.74-38.31-19.15Zm14.49-4.9c6.5,3.24,12.69,6.34,19.02,9.5,.71-1.32,1.28-2.3,1.79-3.32,2.2-4.44,1.39-6.88-3.04-9.16-2.69-1.38-5.37-2.8-8.12-4.06-3.14-1.44-5.68-.55-7.39,2.49-.76,1.35-1.38,2.78-2.25,4.55Z"/><path class="cls-1" d="M229.39,458.68c-3.84-2.91-4.27-4.14-2.88-8.84,6.56-22.16,22.16-33.99,44.18-38.23,4.5-.87,9.16-.84,13.72-1.46,1.21-.17,2.77-.95,3.37-1.93,7.64-12.58,20.06-18.26,34.81-15.66,1.61,.28,2.42-.1,3.16-1.6,12.15-24.37,32.56-36.56,59.02-39.56,2.08-.24,4.56,.58,6.47,1.62,6.27,3.43,12.53,6.8,19.78,7.59,10.63,1.16,19.34-3.92,23.48-13.89,1.22-2.93,2.87-5.1,5.5-6.91,11.02-7.57,13.91-19.17,7.78-31.79-1.65-3.4-1.76-6.28-.51-9.81,7.95-22.41,6.21-44.21-4.66-65.31-2.73-5.29-2.53-7.29,1.45-11.8,4.6-5.23,10.77-7.34,17.27-8.94,1.29-.32,2.78-1.34,3.44-2.47,4.98-8.54,11.9-14.81,21.01-18.63,5.05-2.11,8.55,.18,8.55,5.61,0,83.55,0,167.11,.03,250.66,0,5.9-3.16,9.23-8.2,11.35H229.39Zm223.18-230.6c.46,1,.85,1.84,1.24,2.69,10.39,22.35,11.92,45.29,4.49,68.78-.68,2.15-.64,3.9,.2,5.96,6.82,16.86,2.58,32.1-11.74,42.96-1.17,.88-2.07,2.31-2.7,3.67-6.49,13.94-19.9,21.27-35.08,19.14-7.38-1.03-13.99-4.08-20.57-7.38-2.01-1.01-4.64-1.67-6.8-1.33-22.66,3.58-38.84,15.77-47.78,37.03-2.07,4.93-5.05,6.26-9.73,4.5-10.98-4.14-23.06,1.13-27.96,11.64-2.41,5.17-2.75,5.33-8.3,5.2-13.18-.3-25.68,1.99-36.49,10.15-5.69,4.3-9.88,9.81-12.52,16.65h244.56V204.78c-4.74,3.4-8.15,7.31-9.98,12.32-1.43,3.92-3.9,5.5-8,5.65-4.81,.17-9.1,2.06-12.84,5.34Z"/><path class="cls-1" d="M368.68,341.12c-10.06-.65-16.76-6.53-18.87-17.06-3.08-15.32,13.82-30.54,28.77-25.66,2.59,.84,5.41,2.84,6.78,5.11,2.62,4.33,4.82,9.09,6.2,13.96,2.49,8.76-1.28,16.38-9.72,19.95-4.16,1.76-8.76,2.5-13.16,3.7Zm-9.23-22.06c.91,4.27,1.96,7.79,5.38,9.87,3.23,1.96,11.59,.14,15.01-3.12,3.41-3.25,.81-6.59-.14-9.86-.15-.5-.41-.96-.63-1.43-3.29-7.09-5.58-7.81-12.54-3.87-1.27,.72-2.67,1.46-3.53,2.57-1.39,1.79-2.39,3.89-3.55,5.86Z"/><path class="cls-1" d="M345.21,418.03c.05-6.45,2.8-10.41,7.23-11.97,3.54-1.25,7.14-2.35,10.76-3.35,5.75-1.58,11.12,1.11,13.15,6.66,1.32,3.62,2.45,7.33,3.45,11.05,1.49,5.58-1.22,10.9-6.63,12.9-3.82,1.41-7.73,2.59-11.66,3.64-4.15,1.11-9.25-.6-11.11-4.56-2.41-5.14-3.91-10.71-5.19-14.37Zm10.88-1.76c1.11,3.48,2.12,6.69,3.21,10.1,3.52-1.11,6.66-2.1,10.06-3.17-1.09-3.44-2.11-6.65-3.19-10.07-3.4,1.06-6.45,2.01-10.08,3.14Z"/><path class="cls-1" d="M436.71,427.82c-3.62-1.29-9.18-2.82-14.3-5.27-3.91-1.87-5.43-6.87-4.27-11.16,1.03-3.83,2.16-7.64,3.49-11.37,1.94-5.42,7.24-8.22,12.82-6.76,3.83,1,7.63,2.18,11.34,3.56,5.41,2.02,8.04,7.38,6.49,12.94-1.01,3.62-2.1,7.22-3.35,10.76-1.63,4.63-5.57,7.34-12.22,7.3Zm-8.06-14.03c3.41,1.08,6.65,2.11,10.14,3.21,1.06-3.49,2.04-6.72,3.07-10.14-3.56-1.11-6.7-2.08-10.03-3.12-1.1,3.46-2.1,6.61-3.18,10.04Z"/><path class="cls-1" d="M472.91,372.6c-.12,4.41-4.89,7.14-8.16,4.69-2.64-1.98-4.98-4.48-7.08-7.04-1.64-2-1.2-4.39,.5-6.32,1.6-1.81,4.05-2.8,5.89-1.35,3.14,2.47,5.76,5.6,8.52,8.53,.36,.38,.27,1.19,.33,1.49Z"/><path class="cls-1" d="M317.65,426.1c-.9,1.82-1.24,3.09-2.02,3.98-1.72,1.97-3.56,3.85-5.51,5.58-2.46,2.19-5.47,2.03-7.58-.2-1.94-2.05-2.02-5.14,0-7.39,1.75-1.94,3.45-4.1,5.61-5.44,1.54-.95,4.08-1.4,5.7-.8,1.58,.59,2.57,2.8,3.79,4.26Z"/><path class="cls-1" d="M392.38,391.59c0-1.05-.08-2.1,.01-3.14,.24-2.8,2.42-4.88,5.12-4.98,2.79-.1,5.29,2.03,5.51,4.93,.16,2.08,.15,4.19,0,6.27-.21,2.97-2.52,4.95-5.47,4.89-2.84-.05-4.89-1.93-5.16-4.84-.1-1.04-.02-2.09-.02-3.14Z"/></g></g><g id="sMHhrE"><g><path class="cls-1" d="M118.41,324.23c-2.58-.44-4.68-1.85-5.21-4.98-.34-2.03-.44-4.13-1.01-6.1-2.11-7.3-8.53-12.34-16.17-12.89-4.41-.32-6.82-2.28-6.97-5.7-.16-3.51,1.95-5.54,6.43-6.18,10.8-1.53,15.96-6.68,17.46-17.4,.63-4.54,2.58-6.62,6.12-6.53,3.47,.08,5.49,2.46,5.82,6.84,.68,9.01,6.86,15.6,15.79,16.86,.51,.07,1.02,.14,1.53,.21,4.39,.62,6.76,2.79,6.65,6.08-.11,3.33-2.71,5.5-6.96,5.81-9.4,.68-16.33,7.57-17.02,16.93-.33,4.46-2.64,7.13-6.47,7.05Zm-4.51-30.47c1.77,2.21,3.45,4.31,4.74,5.92,1.92-1.99,3.77-3.9,5.4-5.59-1.51-1.55-3.37-3.46-5.06-5.19-1.84,1.76-3.77,3.6-5.09,4.86Z"/><path class="cls-1" d="M225.67,219.17c2.96,.52,5.05,2.02,5.5,5.38,1.65,12.3,6.06,16.79,18.22,18.63,3.8,.58,5.85,2.69,5.82,6-.03,3.3-2.06,5.32-5.93,5.9-11.9,1.78-16.73,6.68-18.11,18.34-.39,3.36-2.71,5.65-5.75,5.67-3,.02-5.44-2.32-5.84-5.59-1.42-11.81-6.2-16.7-18.01-18.41-3.88-.56-5.96-2.58-6.03-5.83-.07-3.43,2.1-5.59,6.15-6.12,11.32-1.47,16.75-6.97,17.88-18.12,.36-3.54,2.82-5.96,6.1-5.85Zm-.49,34.99c1.73-1.66,3.65-3.52,5.32-5.13-1.57-1.67-3.45-3.67-4.92-5.22-1.81,1.82-3.7,3.71-5.33,5.33,1.6,1.63,3.47,3.54,4.92,5.02Z"/></g></g></g></svg>