<?xml version="1.0" encoding="UTF-8"?><svg id="Layer_1" xmlns="http://www.w3.org/2000/svg" viewBox="0 0 617.18 617.18"><defs><style>.cls-1{fill:#00aeef;}</style></defs><path class="cls-1" d="M308.65,617.19C138.5,617.19,.06,478.75,.06,308.59S138.5,0,308.65,0s308.59,138.44,308.59,308.59-138.44,308.59-308.59,308.59Zm0-609.86C142.54,7.33,7.39,142.48,7.39,308.59s135.15,301.26,301.26,301.26,301.26-135.15,301.26-301.26S474.77,7.33,308.65,7.33Z"/><g><path class="cls-1" d="M196.68,491.43c-.52-.22-1.02-.51-1.55-.65-12.97-3.21-21.23-13.56-21.34-26.97-.08-10.56-.02-21.12-.02-31.69,0-40.86,0-81.71,0-122.57,0-1.28-.11-2.58,.1-3.82,.49-2.95,2.38-4.51,5.33-4.4,2.92,.11,4.76,1.67,4.97,4.74,.08,1.16,.04,2.32,.04,3.48,0,35.05,0,70.11,0,105.16,0,1.36,0,2.72,0,4.26h38.71v-157.89h-38.71c0,5.44,.02,10.74,0,16.04-.02,4.26-1.72,6.41-5.05,6.5-3.46,.09-5.38-2.19-5.38-6.59-.02-18.22-.03-36.45,0-54.67,.02-13.15,6.46-22.31,18.93-27.07,.31-.12,.59-.34,.63-.37v-10.62c-1.49-.58-3.05-1.02-4.46-1.76-5.95-3.09-9.24-8.04-9.51-14.73-.22-5.45-.17-10.91-.02-16.36,.26-9.29,7.48-16.55,16.74-16.6,21.59-.11,43.18-.12,64.77,0,9.27,.05,16.43,7.39,16.64,16.67,.09,4.18,.03,8.36,.03,12.53,0,10.97-2.63,15.19-12.17,19.78v9.72c7.39,1.62,14.67-1.75,18.36-8.87,3.1-5.96,5.97-12.05,8.91-18.09,5.11-10.51,13.59-16.08,25.17-16.16,28.09-.19,56.18-.19,84.26,0,12.07,.08,20.66,6.03,25.6,17.09,2.6,5.82,5.11,11.68,7.67,17.51,3.93,8.94,5.77,18.3,5.77,28.06-.01,83.1,0,166.21-.01,249.31,0,14.97-7.57,24.71-22.04,28.48-.31,.08-.58,.34-.87,.52H196.68Zm37.02-72.53h147.58c0-13.37-.01-26.47,0-39.57,0-4.16,1.84-6.48,5.07-6.57,3.4-.1,5.35,2.25,5.36,6.59,.02,11.96,0,23.91,0,35.87,0,1.23,0,2.47,0,3.71h38.65v-157.79h-38.65c0,1.59,0,2.96,0,4.32,0,27.28,0,54.56,0,81.83,0,1.04,.07,2.1-.05,3.13-.36,2.95-2.09,4.67-5.04,4.75-2.98,.08-4.73-1.67-5.26-4.54-.21-1.13-.09-2.31-.09-3.47,0-27.28,0-54.56,0-81.83,0-1.36,0-2.72,0-4.19H233.7v157.77Zm-49.45-168.69h246.38c0-12.08,.1-23.9-.05-35.72-.05-4.39,.13-9.03-1.21-13.09-3.3-9.97-7.34-19.7-11.25-29.46-2.95-7.36-8.64-11.05-16.5-11.07-27.84-.06-55.69-.07-83.53,0-7.56,.02-12.96,3.66-16.22,10.53-2.58,5.44-5.28,10.83-7.9,16.26-5.43,11.27-14.34,16.85-26.88,16.81-21.93-.06-43.86-.06-65.78,0-9.4,.03-16.7,6.67-16.99,15.82-.31,9.85-.07,19.71-.07,29.91Zm.18,179.62c-.08,1.08-.2,1.98-.2,2.88-.01,10.33-.06,20.66,0,30.98,.07,10.21,7.15,17.28,17.37,17.29,70.56,.03,141.11,.03,211.67,0,10.2,0,17.26-7.08,17.34-17.32,.07-10.44,.02-20.89,0-31.33,0-.78-.13-1.56-.21-2.5H184.43Zm43.93-284.55c-10.32,0-20.65-.03-30.97,.01-5.05,.02-7.55,2.45-7.62,7.4-.07,4.64-.08,9.28,0,13.92,.08,4.75,2.59,7.23,7.42,7.24,20.88,.03,41.76,.04,62.63,0,4.79,0,7.17-2.51,7.23-7.38,.05-4.41,.03-8.81,0-13.22-.03-5.69-2.31-7.94-8.08-7.95-10.21-.02-20.41,0-30.62,0Zm.7,48.73c6.84,0,13.69,.03,20.53-.01,3.49-.03,5.53-1.91,5.5-4.88-.03-2.96-2.06-4.78-5.6-4.79-13.46-.04-26.92-.04-40.37,0-3.59,0-5.61,1.77-5.68,4.71-.08,3.11,1.98,4.94,5.78,4.96,6.61,.04,13.23,.01,19.84,.01Z"/><path class="cls-1" d="M312.93,358.05c10.3-9.71,22.21-13,35.3-12.78,5.34,.09,7.44,2.02,6.99,7.24-.52,5.97-1.17,12.05-2.82,17.78-3.92,13.64-13.48,21.82-26.97,25.54-11.41,3.14-22.92,3.31-34.39,.38-18.59-4.74-29.24-17.35-30.98-36.49-.22-2.42-.48-4.86-.51-7.29-.06-5.13,1.7-7.05,6.79-7.16,13.2-.28,25.23,2.98,35.61,12.78,.15-4.24,1.04-7.62-2.1-10.99-6.57-7.07-11.34-15.25-12.65-25.05-1.38-10.37,2-19.48,7.92-27.73,2.56-3.56,5.65-6.75,8.66-9.95,2.11-2.25,4.9-2.71,7.16-.54,11.05,10.62,18.79,22.85,16.54,39.03-1.23,8.87-5.6,16.53-11.72,22.88-3.54,3.67-3.28,7.46-2.83,12.35Zm-42.42-1.82c-.3,18.15,15.47,33.32,31.24,30.3-.91-18.88-11.35-29.87-31.24-30.3Zm73.72-.14c-19.39,.52-34.15,15.4-30.76,30.78,17.47-.66,30.28-9.56,30.76-30.78Zm-37.06-16.7c12.97-13.11,14.34-29.42,.32-43.63-13.19,12.5-13.32,30.65-.32,43.63Z"/></g></svg>