<?xml version="1.0" encoding="UTF-8"?><svg id="Layer_1" xmlns="http://www.w3.org/2000/svg" viewBox="0 0 617.18 617.18"><defs><style>.cls-1{fill:#00aeef;}</style></defs><path class="cls-1" d="M308.68,617.19C138.53,617.19,.09,478.75,.09,308.59S138.53,0,308.68,0s308.59,138.44,308.59,308.59-138.44,308.59-308.59,308.59Zm0-609.86C142.57,7.33,7.42,142.48,7.42,308.59s135.15,301.26,301.26,301.26,301.26-135.15,301.26-301.26S474.8,7.33,308.68,7.33Z"/><g id="_8RNr27"><g><path class="cls-1" d="M276.62,130.23c6.58,1.68,13.46,2.63,19.67,5.21,12.69,5.28,25.03,11.41,37.49,17.24,11.97,5.6,23.88,11.7,37.12,13.39,9.95,1.27,20.11,.88,30.16,1.39,4.57,.23,9.26,.29,13.65,1.41,11.61,2.98,18.94,10.64,21.98,22.22,.55,2.09,1.33,2.87,3.53,3.01,14.72,.9,26.53,12.56,27.45,26.92,.96,15.06-8.93,28.08-23.7,30.94-2.13,.41-2.73,1.14-2.63,3.25,1.32,29.23,2.56,58.46,3.83,87.69,.72,16.58,1.45,33.15,2.3,49.72,.1,1.92,.7,3.96,1.6,5.67,6.21,11.72,11.6,23.7,13.59,37,3.06,20.38-8.38,35.69-28.78,38.09-3.33,.39-6.7,.63-10.05,.64-76.8,.04-153.6,.06-230.41-.04-5,0-10.13-.42-14.99-1.56-17.39-4.09-26.48-18.3-23.97-36.45,1.85-13.33,7.21-25.32,13.35-37.08,1.05-2,1.84-4.36,1.95-6.59,1.63-34.83,3.13-69.66,4.66-104.49,.47-10.75,.9-21.51,1.44-32.25,.1-2.07-.16-3.13-2.61-3.6-14.75-2.84-24.78-16.05-23.72-30.93,1.04-14.6,12.93-26.32,27.79-26.87,3.71-.14,3.55-2.13,4.03-4.62,4.67-24.69,19.58-41.33,41.85-51.56,7.14-3.28,15.09-4.76,22.67-7.07,.62-.19,1.21-.44,1.82-.66,9.64,0,19.29,0,28.93,0Zm-87.03,122.57c-.12,1.09-.27,2.07-.32,3.05-2.03,46.14-4.01,92.27-6.17,138.4-.15,3.2-1.18,6.59-2.66,9.46-5.46,10.58-10.69,21.19-12.54,33.12-1.95,12.55,3.09,20.39,14.97,22.86,2.62,.54,5.33,.84,8,.84,78.47,.04,156.95,.07,235.42-.05,4.07,0,8.26-.87,12.18-2.05,6.51-1.97,10.21-6.74,10.91-13.51,.29-2.87,.18-5.85-.24-8.7-1.79-11.94-7.09-22.55-12.75-33.03-1.04-1.92-1.99-4.08-2.23-6.21-.5-4.33-.51-8.72-.7-13.09-1.66-38.41-3.3-76.82-4.97-115.23-.23-5.24-.52-10.47-.79-15.85H189.59Zm4.12-58.88c2.51,0,3.84,0,5.17,0,26.69,0,53.37,0,80.06,0,6.28,0,9.38,2.14,9.5,6.52,.12,4.53-3.15,6.93-9.48,6.93-32.29,0-64.59,0-96.88,0-1.68,0-3.37-.01-5.04,.14-9.24,.82-15.86,10.02-13.76,19.06,1.86,7.98,8.1,12.59,17.13,12.59,85.44,0,170.88,0,256.32,0,.9,0,1.8,.02,2.69-.05,6.65-.52,12.21-4.93,14.14-11.19,1.91-6.19-.09-12.85-5.1-16.99-3.48-2.88-7.55-3.6-11.95-3.59-32.74,.05-65.48,.03-98.22,.02-6.38,0-9.58-2.33-9.5-6.89,.08-4.41,3.15-6.56,9.43-6.56,27.02,0,54.05,0,81.07,0,1.28,0,2.56,0,3.95,0-1.7-6.99-6.7-11.61-13.84-12.49-4.42-.55-8.95-.65-13.41-.41-19.52,1.04-38.16-2.41-55.84-10.75-12.55-5.92-24.96-12.16-37.56-17.98-21.33-9.86-43.37-12.58-66.02-5.22-17.11,5.56-30.65,15.72-38.21,32.54-1.94,4.31-2.97,9.03-4.66,14.31Z"/><path class="cls-1" d="M265.53,343.48c-1.63-5.05-4.18-10.32-4.96-15.84-1.97-13.89,7.49-22.29,21.28-19.56,1.07,.21,2.13,.45,2.68,.57,.99-6.47,1.32-12.92,3.09-18.95,1.38-4.7,3.91-9.37,7.02-13.18,7.74-9.48,19.46-9.41,27.61-.23,6.74,7.58,8.88,16.89,9.43,26.71,.09,1.67,.06,3.35,.1,5.03,0,.1,.11,.19,.32,.52,1.82-.25,3.76-.63,5.72-.77,13.08-.95,21.24,8.09,18.47,20.93-1.12,5.18-3.41,10.1-5.27,15.45,6.4,5.63,7.05,13.25,4.37,21.16-6.29,18.61-19.14,31.24-37.03,38.85-2.44,1.04-3.48,2.05-3.32,4.78,.26,4.47,.11,8.96,.05,13.45-.06,4.54-2.55,7.32-6.49,7.4-4.08,.08-6.81-2.75-6.91-7.4-.1-4.59-.15-9.2,.02-13.78,.09-2.37-.67-3.45-2.95-4.37-16.79-6.79-28.73-18.69-36.07-35.18-2.27-5.1-3.38-10.62-1.9-16.07,.89-3.31,3.08-6.28,4.73-9.49Zm42.92-20.11c2.42-1.99,4.7-3.8,6.89-5.71,.64-.56,1.27-1.35,1.48-2.14,2.37-9.31,2.22-18.51-2.46-27.08-1.21-2.23-3.88-5.05-5.89-5.06-2.01,0-4.72,2.8-5.92,5.03-4.64,8.59-4.79,17.78-2.4,27.09,.2,.79,.81,1.58,1.44,2.14,2.18,1.92,4.45,3.74,6.86,5.75Zm6.67,67.57c1.43-.62,2.36-.93,3.19-1.4,9.37-5.32,16.76-12.63,21.86-22.14,1.25-2.34,2.18-4.92,2.81-7.5,1.19-4.89-.43-6.43-5.41-5.52-.77,.14-1.53,.35-2.27,.61-7.59,2.62-13.76,7.35-19.15,13.16-.6,.65-.97,1.77-.98,2.68-.08,6.48-.04,12.97-.04,20.11Zm-13.47,.36c0-7.71,.01-14.53-.02-21.34,0-.51-.2-1.16-.55-1.52-6.26-6.58-13.15-12.26-22.34-14.09-4.42-.88-5.49,.39-4.91,4.87,.07,.55,.1,1.13,.27,1.66,4.59,13.88,14.35,23.05,27.55,30.42Zm13.47-41.84c6.8-2.81,13.35-5.49,19.88-8.24,.67-.28,1.42-.81,1.76-1.42,2.01-3.72,4.22-7.37,5.71-11.3,.75-1.97,.97-5.4-.17-6.48-1.19-1.13-4.45-.73-6.55-.13-7.85,2.26-14.01,7.27-19.56,13.07-.56,.59-1,1.55-1.02,2.35-.1,4.22-.05,8.44-.05,12.15Zm-13.47-.07c0-3.75,.06-8.09-.05-12.43-.02-.78-.59-1.67-1.15-2.28-4.81-5.1-10.24-9.41-16.83-11.97-2.25-.87-4.74-1.26-7.15-1.5-.82-.08-2.2,.77-2.54,1.54-1.58,3.55,4.16,16.83,7.8,18.42,.1,.04,.21,.07,.32,.11,6.45,2.66,12.89,5.32,19.61,8.1Z"/><path class="cls-1" d="M308.71,193.99c3.7,.02,6.67,2.87,6.76,6.49,.09,3.66-3.09,6.86-6.81,6.85-3.8-.01-6.76-3.08-6.67-6.9,.09-3.7,2.97-6.45,6.73-6.44Z"/></g></g></svg>