<?xml version="1.0" encoding="UTF-8"?><svg id="Layer_1" xmlns="http://www.w3.org/2000/svg" viewBox="0 0 617.18 617.18"><defs><style>.cls-1{fill:#00aeef;}</style></defs><path class="cls-1" d="M308.59,617.19C138.44,617.19,0,478.75,0,308.59S138.44,0,308.59,0s308.59,138.44,308.59,308.59-138.44,308.59-308.59,308.59Zm0-609.86C142.48,7.33,7.33,142.48,7.33,308.59s135.15,301.26,301.26,301.26,301.26-135.15,301.26-301.26S474.71,7.33,308.59,7.33Z"/><g><g><path class="cls-1" d="M313.68,467.23c15.24,15.24,36.54,22.65,64.27,22.71,26.25,.05,47.4-7.75,62.85-23.21,20.28-20.28,30.52-53.71,30.43-99.35-.18-92.95-61.38-110.84-62-111.01-1.58-.44-3.21,.49-3.65,2.07-.44,1.58,.5,3.22,2.06,3.65,2.35,.66,57.46,17.04,57.64,105.3,.09,43.99-9.56,76-28.69,95.13-14.3,14.3-34.03,21.52-58.64,21.47-37.61-.07-87.62-12.29-87.83-116.99-.18-89.73,54.8-104.43,57.14-105.01,1.59-.39,2.56-2,2.17-3.59-.4-1.6-1.99-2.56-3.59-2.18-.62,.15-61.86,16.18-61.67,110.8,.1,47.32,9.66,80.38,29.48,100.2Z"/><path class="cls-1" d="M280.98,185.73c.5,.5,1.19,.83,1.95,.87,34.26,1.8,43.07,30.21,43.44,31.42,.46,1.55,2.11,2.47,3.68,2.01,1.57-.46,2.47-2.1,2.01-3.68-.08-.29-7.6-24.92-34.13-33.13,17.38-2.61,46.6-1.97,61.56,26.59,.76,1.47,2.55,2.01,4.01,1.26,1.45-.76,2.01-2.55,1.25-4.01-24.05-45.97-82.06-26.42-82.65-26.23-1.34,.47-2.16,1.82-1.97,3.22,.1,.66,.4,1.24,.84,1.68Z"/><path class="cls-1" d="M362.01,261.28c.99,.99,2.57,1.17,3.77,.35,1.36-.92,1.7-2.77,.78-4.12-5.29-7.75-19.98-35.42,12.82-65.88,1.2-1.12,1.27-3,.15-4.2-1.17-1.4-2.99-1.27-4.2-.16-37.2,34.56-17.93,67.35-13.68,73.58,.11,.16,.23,.3,.36,.43Z"/><path class="cls-1" d="M263.75,244.22c.66,.66,1.59,.98,2.54,.83,53.3-8.11,77.8,15.78,78.16,16.14h0s0,.01,.01,.02c1.15,1.15,3.02,1.16,4.18,.02,1.17-1.15,1.19-3.02,.05-4.19-1.17-1.14-23.5-23.43-73.12-19.08,15.15-11.31,49.69-31.39,78.31-6.16,1.23,1.08,3.11,.97,4.19-.26,1.08-1.23,1.08-2.97-.26-4.19-41.11-36.26-93.47,12.11-94,12.61-.95,.89-1.2,2.29-.63,3.46,.15,.3,.34,.57,.57,.8Z"/><path class="cls-1" d="M352.84,199.84c.57,.57,1.37,.91,2.23,.86,1.63-.08,2.9-1.46,2.83-3.1-.01-.33-1.17-32.29,19.22-53.24,20.87,23.87,18.9,53.94,18.88,54.25-.14,1.64,1.1,3.06,2.73,3.18,1.64,.13,3.06-1.09,3.19-2.73,.11-1.41,2.37-34.87-22.52-61.02l-.05-.05c-1.12-1.12-2.94-1.16-4.11-.09-24.67,22.75-23.33,58.45-23.26,59.96,.03,.77,.36,1.46,.87,1.96Z"/><path class="cls-1" d="M390.56,210.59c.21,.21,.45,.39,.73,.54,1.46,.76,3.25,.19,4-1.26,14.58-28.02,43.73-28.74,61.18-26.23-26.28,8.22-33.64,32.64-33.72,32.92-.46,1.57,.44,3.2,2.03,3.67,1.57,.46,3.21-.45,3.68-2.02,.35-1.21,9.04-29.56,43.29-31.22,1.42-.07,2.59-1.13,2.79-2.54,.21-1.4-.62-2.76-1.95-3.23-.58-.2-58.68-19.97-82.55,25.91-.61,1.18-.36,2.57,.53,3.47Z"/><path class="cls-1" d="M388.73,261.4c.13,.13,.27,.25,.43,.36,1.35,.93,3.2,.57,4.12-.78,4.24-6.21,23.53-38.84-13.91-73.71-1.2-1.12-3.08-1.05-4.19,.15-1.12,1.2-1.19,3.01,.16,4.2,33.03,30.66,18.33,58.28,13.05,66.01-.82,1.2-.64,2.78,.35,3.77Z"/><path class="cls-1" d="M406.32,261.33l.02,.02c1.16,1.15,3.04,1.13,4.2-.03,.24-.24,24.62-24.16,78.08-15.81,1.28,.2,2.55-.46,3.12-1.63,.57-1.17,.46-2.4-.63-3.47-.52-.49-53.08-49.07-94.05-12.98-1.23,1.08-1.35,2.96-.26,4.19,1.17,1.34,2.96,1.34,4.19,.26,28-24.67,62.76-4.77,78.13,6.46-49.42-4.46-71.83,17.79-72.82,18.81-1.14,1.16-1.12,3.02,.03,4.17Z"/><path class="cls-1" d="M324.9,312.81c1.16,1.16,3.04,1.16,4.2,0l10.34-10.34c5.31-5.31,13.97-5.29,19.31,.05l15.05,15.05c1.16,1.16,3.04,1.16,4.2,0,1.16-1.16,1.16-3.04,0-4.2l-15.05-15.05c-7.65-7.65-20.08-7.68-27.71-.05l-10.34,10.34c-1.16,1.16-1.16,3.04,0,4.2Z"/><path class="cls-1" d="M298.89,338.82c1.16,1.16,3.04,1.16,4.2,0l9.2-9.2c5.55-5.55,14.6-5.53,20.17,.05l14.62,14.62c1.16,1.16,3.04,1.16,4.2,0s1.16-3.04,0-4.2l-14.62-14.62c-7.89-7.89-20.71-7.91-28.57-.05l-9.2,9.2c-1.16,1.16-1.16,3.04,0,4.2Z"/><path class="cls-1" d="M297.38,393.98c1.16,1.16,3.04,1.16,4.2,0l9.96-9.96c6.02-6.02,15.85-6,21.91,.05l10.39,10.39c1.16,1.16,3.04,1.16,4.2,0s1.16-3.04,0-4.2l-10.39-10.39c-8.37-8.37-21.96-8.39-30.3-.05l-9.96,9.96c-1.16,1.16-1.16,3.04,0,4.2Z"/><path class="cls-1" d="M327.88,363.48c1.16,1.16,3.04,1.16,4.2,0l4.69-4.69c6.84-6.84,18-6.82,24.88,.06l9.95,9.95c1.16,1.16,3.04,1.16,4.2,0,1.16-1.16,1.16-3.04,0-4.2l-9.95-9.95c-9.19-9.19-24.12-9.22-33.27-.06l-4.69,4.69c-1.16,1.16-1.16,3.04,0,4.2Z"/><path class="cls-1" d="M296.27,352.87c.45,.45,1.03,.75,1.7,.84,3.86,.52,7.37,2.26,10.13,5.02l12.26,12.26c1.16,1.16,3.04,1.16,4.2,0,1.16-1.16,1.16-3.04,0-4.2l-12.26-12.26c-3.69-3.69-8.37-6.01-13.53-6.71-1.63-.22-3.12,.92-3.34,2.54-.13,.96,.21,1.86,.84,2.49Z"/><path class="cls-1" d="M351.33,286.38c1.16,1.16,3.04,1.16,4.2,0l10.1-10.1c5.6-5.6,14.74-5.58,20.37,.05l11.12,11.12c1.16,1.16,3.04,1.16,4.2,0,1.16-1.16,1.16-3.04,0-4.2l-11.12-11.12c-7.95-7.95-20.85-7.97-28.77-.05l-10.1,10.1c-1.16,1.16-1.16,3.04,0,4.2Z"/><path class="cls-1" d="M380.88,310.48c1.16,1.16,3.04,1.16,4.2,0l5.6-5.6c6.58-6.58,17.31-6.55,23.92,.06l10.36,10.36c1.16,1.16,3.04,1.16,4.2,0,1.16-1.16,1.16-3.04,0-4.2l-10.36-10.36c-8.93-8.93-23.42-8.95-32.32-.06l-5.6,5.6c-1.16,1.16-1.16,3.04,0,4.2Z"/><path class="cls-1" d="M381.57,363.45c1.16,1.16,3.04,1.16,4.2,0l3.21-3.21c7.58-7.58,19.94-7.55,27.56,.06l10.91,10.91c1.16,1.16,3.04,1.16,4.2,0s1.16-3.04,0-4.2l-10.91-10.91c-9.93-9.93-26.06-9.96-35.96-.06l-3.21,3.21c-1.16,1.16-1.16,3.04,0,4.2Z"/><path class="cls-1" d="M434.92,363.75c1.16,1.16,3.04,1.16,4.2,0l3.4-3.4c3.91-3.91,9.32-5.96,14.87-5.64,1.64,.09,3.04-1.16,3.13-2.8,.1-1.63-1.15-3.04-2.79-3.14-7.23-.42-14.3,2.27-19.41,7.38l-3.4,3.4c-1.16,1.16-1.16,3.04,0,4.2Z"/><path class="cls-1" d="M355.17,336.19c1.16,1.16,3.04,1.16,4.2,0l5.32-5.32c6.18-6.18,16.27-6.16,22.48,.06l13.46,13.46c1.16,1.16,3.04,1.16,4.2,0,1.16-1.16,1.16-3.04,0-4.2l-13.46-13.46c-8.53-8.53-22.38-8.55-30.87-.06l-5.32,5.32c-1.16,1.16-1.16,3.04,0,4.2Z"/><path class="cls-1" d="M408.58,336.44c1.16,1.16,3.04,1.16,4.2,0l3.74-3.74c7.13-7.13,18.77-7.1,25.93,.06l7.87,7.87c1.16,1.16,3.04,1.16,4.2,0,1.16-1.16,1.16-3.04,0-4.2l-7.87-7.87c-9.48-9.48-24.88-9.51-34.33-.06l-3.74,3.74c-1.16,1.16-1.16,3.04,0,4.2Z"/><path class="cls-1" d="M354.07,390.95c1.16,1.16,3.04,1.16,4.2,0l4.9-4.9c7.08-7.08,18.62-7.05,25.74,.06l9.62,9.62c1.16,1.16,3.04,1.16,4.2,0s1.16-3.04,0-4.2l-9.62-9.62c-9.43-9.43-24.74-9.45-34.13-.06l-4.9,4.9c-1.16,1.16-1.16,3.04,0,4.2Z"/><path class="cls-1" d="M327.99,417.03c1.16,1.16,3.04,1.16,4.2,0l8.24-8.24c4.89-4.89,12.86-4.87,17.78,.04l13.51,13.51c1.16,1.16,3.04,1.16,4.2,0,1.16-1.16,1.16-3.04,0-4.2l-13.51-13.51c-7.23-7.23-18.97-7.25-26.17-.04l-8.24,8.24c-1.16,1.16-1.16,3.04,0,4.2Z"/><path class="cls-1" d="M299.03,405.12c.3,.3,.66,.53,1.07,.69,1.71,.63,3.24,1.61,4.55,2.92l13.51,13.51c1.16,1.16,3.04,1.16,4.2,0,1.16-1.16,1.16-3.04,0-4.2l-13.51-13.51c-1.92-1.92-4.18-3.37-6.7-4.3-1.54-.56-3.24,.23-3.81,1.76-.41,1.13-.1,2.34,.69,3.13Z"/><path class="cls-1" d="M355.39,443.28c1.16,1.16,3.04,1.16,4.2,0l4.74-4.74c6.5-6.5,17.1-6.47,23.63,.06l10.67,10.67c1.16,1.16,3.04,1.16,4.2,0s1.16-3.04,0-4.2l-10.67-10.67c-8.85-8.85-23.21-8.87-32.03-.06l-4.74,4.74c-1.16,1.16-1.16,3.04,0,4.2Z"/><path class="cls-1" d="M408.11,390.56c1.16,1.16,3.04,1.16,4.2,0l5.36-5.36c6.55-6.55,17.24-6.53,23.82,.06l12.79,12.79c1.16,1.16,3.04,1.16,4.2,0s1.16-3.04,0-4.2l-12.79-12.79c-8.9-8.9-23.35-8.92-32.22-.06l-5.36,5.36c-1.16,1.16-1.16,3.04,0,4.2Z"/><path class="cls-1" d="M381.68,416.99c1.16,1.16,3.04,1.16,4.2,0l5.22-5.22c6.47-6.47,17.03-6.45,23.53,.06l11.68,11.68c1.16,1.16,3.04,1.16,4.2,0,1.16-1.16,1.16-3.04,0-4.2l-11.68-11.68c-8.82-8.82-23.14-8.85-31.93-.06l-5.22,5.22c-1.16,1.16-1.16,3.04,0,4.2Z"/><path class="cls-1" d="M435.03,417.29c1.16,1.16,3.04,1.16,4.2,0l5.41-5.41c2.5-2.5,5.68-4.11,9.18-4.65,1.62-.25,2.73-1.76,2.48-3.39-.24-1.61-1.75-2.72-3.39-2.48-4.76,.73-9.07,2.92-12.47,6.32l-5.41,5.41c-1.16,1.16-1.16,3.04,0,4.2Z"/><path class="cls-1" d="M407.55,444.78c1.16,1.16,3.04,1.16,4.2,0l6.51-6.51c6.29-6.29,16.55-6.26,22.86,.06l2.09,2.09c1.16,1.16,3.04,1.16,4.2,0,1.16-1.16,1.16-3.04,0-4.2l-2.09-2.09c-8.63-8.63-22.66-8.66-31.26-.06l-6.51,6.51c-1.16,1.16-1.16,3.04,0,4.2Z"/><path class="cls-1" d="M330.53,468.14c1.16,1.16,3.04,1.16,4.2,0l5.13-5.13c5.26-5.26,13.84-5.24,19.12,.05l13.41,13.41c1.16,1.16,3.04,1.16,4.2,0s1.16-3.04,0-4.2l-13.41-13.41c-7.6-7.6-19.95-7.62-27.52-.05l-5.13,5.13c-1.16,1.16-1.16,3.04,0,4.2Z"/><path class="cls-1" d="M307.16,437.86c1.16,1.16,3.04,1.16,4.2,0l.96-.96c5.65-5.65,14.87-5.63,20.56,.05l11.83,11.83c1.16,1.16,3.04,1.16,4.2,0,1.16-1.16,1.16-3.04,0-4.2l-11.83-11.83c-7.99-7.99-20.99-8.02-28.95-.05l-.96,.96c-1.16,1.16-1.16,3.04,0,4.2Z"/><path class="cls-1" d="M381.21,471.11c1.16,1.16,3.04,1.16,4.2,0l6.27-6.27c6.21-6.21,16.34-6.18,22.58,.06l3.58,3.58c1.16,1.16,3.04,1.16,4.2,0,1.16-1.16,1.16-3.04,0-4.2l-3.58-3.58c-8.56-8.56-22.45-8.58-30.97-.06l-6.27,6.27c-1.16,1.16-1.16,3.04,0,4.2Z"/></g><g><path class="cls-1" d="M193.8,272.91c-.61-1.76-14.7-43.41,12.78-79.73l4.57,3.46c-25.59,33.82-12.08,73.98-11.94,74.39l-5.41,1.89Z"/><path class="cls-1" d="M201.75,445.42c-.68-.3-67.43-30.55-48.32-96.55l5.51,1.6c-7.41,25.6-2.17,48.42,15.6,67.82,13.43,14.67,29.36,21.82,29.52,21.89l-2.31,5.25Z"/><path class="cls-1" d="M144.06,269.14c-15.84,0-29.72-6.63-38.04-18.48l-1.1-1.57,1.03-1.62c.55-.86,13.62-21.04,37.68-26,16.12-3.32,33.13,1.02,50.58,12.9l1.87,1.27-.8,2.11c-6.01,15.94-23.61,28.36-43.8,30.92-2.51,.32-4.99,.47-7.42,.47Zm-32.16-20.17c8.62,10.97,22.65,16.06,38.86,14.01,17.22-2.18,32.28-12.17,38.28-25.16-15.42-9.99-30.29-13.6-44.25-10.73-17.98,3.71-29.41,17.23-32.88,21.88Z"/><path class="cls-1" d="M175.2,334.83c-4.13,0-7.48-3.36-7.48-7.48s3.36-7.48,7.48-7.48,7.48,3.36,7.48,7.48-3.36,7.48-7.48,7.48Zm0-9.24c-.97,0-1.75,.79-1.75,1.75s.79,1.75,1.75,1.75,1.75-.79,1.75-1.75-.79-1.75-1.75-1.75Z"/></g><path class="cls-1" d="M324.49,471.92c-15.29,7.66-34.73,12.32-53.21,13.49-74.09,4.68-130.4-47.01-142.57-85.95l.26-.1-1.08-2.71c-11.99-30.29-.72-69.91,28.03-98.59,36.1-36.01,90.42-37.34,126.34-3.1,5.94,5.66,10.55,11.46,14.2,17.36l2.44-6.7c-3.46-5.03-7.62-9.98-12.68-14.81-38.23-36.45-95.99-35.08-134.35,3.19-30.26,30.19-42.06,72.12-29.43,104.47,10.55,39.34,65.6,92.97,139.5,92.97,3.2,0,6.43-.1,9.7-.31,24.61-1.55,44.07-7.53,58.28-15.51l-5.43-3.7Z"/></g></svg>