<?xml version="1.0" encoding="UTF-8"?><svg id="Layer_1" xmlns="http://www.w3.org/2000/svg" viewBox="0 0 617.18 617.18"><defs><style>.cls-1{fill:#00aeef;}</style></defs><path class="cls-1" d="M308.59,617.19C138.44,617.19,0,478.75,0,308.59S138.44,0,308.59,0s308.59,138.44,308.59,308.59-138.44,308.59-308.59,308.59Zm0-609.86C142.48,7.33,7.33,142.48,7.33,308.59s135.15,301.26,301.26,301.26,301.26-135.15,301.26-301.26S474.71,7.33,308.59,7.33Z"/><g id="dBcQv9"><g><path class="cls-1" d="M341.42,361.34c-7.59,0-12.4-1.37-16.58-4.79-9.89-8.08-19.84-16.09-29.78-24.11-12.7-10.26-25.44-20.47-38.11-30.76-10.15-8.24-20.21-16.59-30.36-24.85-10.98-8.94-22.01-17.82-33.02-26.72-6.72-5.44-8.28-10.88-5.4-19.16,3.86-11.12,7.71-22.25,11.69-33.33,1.96-5.44,3.88-10.94,6.4-16.13,2.7-5.54,7.38-8.62,13.72-9.39,7.25-.88,14.44-2.27,21.66-3.43,9.67-1.54,19.36-3.02,29.01-4.64,3.29-.55,5.74,.97,8.12,2.76,8.78,6.61,17.51,13.28,26.27,19.9,10.86,8.2,21.75,16.35,32.6,24.56,11.1,8.41,22.15,16.89,33.25,25.31,15.15,11.49,30.28,23.01,45.54,34.36,2.74,2.04,3.63,4.95,4.84,7.69,5.37,12.17,10.58,24.41,15.77,36.65,1.9,4.47,4.03,8.92,5.28,13.58,2.01,7.49-4.35,15.61-12.07,16.64-6.15,.82-12.23,2.21-18.34,3.33-7.72,1.41-15.44,2.79-23.15,4.19-7.79,1.41-15.58,2.86-23.38,4.24-8.72,1.54-17.45,3-23.94,4.12Zm-125.27-166.59c-.45,1.06-.79,1.74-1.04,2.45-1.15,3.28-2.28,6.58-3.42,9.86-3.37,9.65-6.78,19.29-10.02,28.98-.26,.78,.37,2.28,1.08,2.9,3.06,2.72,6.29,5.25,9.47,7.83,15.87,12.87,31.76,25.72,47.62,38.59,19.42,15.76,38.82,31.53,58.23,47.3,4.25,3.45,8.49,6.91,13.08,10.65,.48-1.78,.84-3.18,1.24-4.57,2.24-7.83,4.5-15.66,6.73-23.49,1.84-6.48,3.55-13,5.54-19.43,.43-1.37,.2-1.89-.82-2.65-4.44-3.34-8.81-6.77-13.22-10.17-19.61-15.11-39.23-30.23-58.84-45.34-15.18-11.7-30.36-23.4-45.54-35.1-3.29-2.53-6.57-5.08-10.09-7.81Zm10.23-11.73c.6,.68,.84,1.06,1.17,1.31,2.39,1.83,4.82,3.6,7.2,5.45,11.65,9.07,23.26,18.19,34.94,27.22,13.82,10.69,27.7,21.3,41.54,31.97,14.03,10.82,28.01,21.69,42.08,32.45,1.04,.8,2.67,1.34,3.95,1.22,3.24-.3,6.44-1.03,9.65-1.62,7.94-1.46,15.87-2.94,23.81-4.4,3.16-.58,6.32-1.13,9.97-1.78-.73-.85-1.09-1.44-1.6-1.82-6.18-4.65-12.39-9.26-18.59-13.89-18.55-13.84-37.11-27.66-55.64-41.51-17.78-13.3-35.57-26.58-53.26-40-2.61-1.98-5.17-2-8.06-1.41-3.5,.72-7.01,1.38-10.52,2.02-8.7,1.58-17.41,3.13-26.62,4.77Zm119.24,162.94c2.49-.33,4.42-.5,6.31-.85,7.56-1.39,15.09-2.89,22.66-4.25,7.87-1.42,15.77-2.68,23.65-4.08,9.01-1.61,18-3.33,27.01-4.96,2.69-.49,2.97-.97,1.85-3.54-1.88-4.32-3.73-8.66-5.6-12.99-3.68-8.51-7.37-17.02-11.03-25.54-.6-1.39-1.54-1.76-2.97-1.47-6.44,1.31-12.89,2.56-19.34,3.85-8.65,1.72-17.29,3.46-25.94,5.16-1.63,.32-2.86,1.06-3.33,2.73-1.6,5.66-3.16,11.33-4.8,16.98-1.95,6.69-3.98,13.36-5.94,20.04-.84,2.85-1.62,5.72-2.52,8.95Z"/><path class="cls-1" d="M188.58,267.41c-10.85,2.13-21.06,4.14-31.85,6.26,3.31,2.82,6.09,5.23,8.91,7.59,13.18,11.01,26.37,22.01,39.57,32.99,10.15,8.45,20.36,16.83,30.5,25.29,11.68,9.75,23.31,19.56,34.97,29.33,5.58,4.67,11.15,9.36,16.82,13.92,.79,.64,2.2,.99,3.2,.8,9.54-1.77,19.04-3.77,28.58-5.54,10.16-1.89,20.35-3.62,30.55-5.31,.58-.1,1.66,.64,1.94,1.25,2.38,5.02,4.65,10.1,6.92,15.17,6.22,13.91,12.53,27.78,18.58,41.77,4,9.25-1.75,20.61-12.4,22.17-6.05,.89-12.03,2.3-18.04,3.46-7.17,1.38-14.35,2.71-21.52,4.11-4.65,.91-9.27,1.9-13.91,2.85-2.74,.56-5.48,1.1-8.22,1.62-6.32,1.2-12.62,2.57-18.98,3.53-4.82,.73-9.7,1.17-14.57,1.31-4.89,.14-8.9-2.26-12.5-5.41-18.92-16.55-37.84-33.08-56.75-49.63-14.49-12.67-28.95-25.37-43.45-38.03-10.95-9.56-21.84-19.2-32.94-28.59-7.64-6.47-9.06-13.13-5.94-22.61,3.27-9.93,6.24-19.96,9.55-29.89,2.61-7.85,5.19-15.74,8.42-23.34,2.69-6.33,7.55-10.18,14.89-11.06,7.6-.91,15.07-2.89,22.63-4.23,1.18-.21,2.81,.18,3.77,.91,3.68,2.81,7.16,5.87,11.28,9.31Zm75.39,182.67c.42-.82,.79-1.32,.94-1.88,1.77-6.59,3.53-13.18,5.26-19.78,2.67-10.2,5.26-20.41,8.01-30.58,.36-1.32,.09-2.02-.84-2.77-2.76-2.24-5.51-4.5-8.24-6.77-14.47-12.02-28.92-24.06-43.41-36.06-11.27-9.33-22.61-18.58-33.86-27.92-14.6-12.11-29.14-24.29-43.72-36.42-.53-.44-1.25-.64-1.94-.97-1.76,5.39-3.43,10.46-5.07,15.53-3.19,9.87-6.41,19.74-9.48,29.65-.27,.86,.11,2.41,.77,2.99,13.16,11.61,26.41,23.13,39.64,34.67,11.95,10.43,23.9,20.86,35.85,31.3,15.79,13.79,31.58,27.58,47.37,41.37,2.84,2.48,5.67,4.97,8.73,7.65Zm15.02,3.5c28.59-5.57,56.53-11.01,84.58-16.47-.2-.73-.24-1.05-.37-1.31-4.31-8.29-8.63-16.58-12.95-24.87-3.18-6.09-6.32-12.2-9.58-18.25-.32-.6-1.4-1.25-2.03-1.15-2.68,.4-5.32,1.1-7.99,1.63-7.07,1.41-14.14,2.79-21.21,4.17-4.88,.95-9.78,1.83-14.65,2.86-.63,.13-1.44,.91-1.61,1.54-3.27,11.7-6.45,23.43-9.65,35.15-1.44,5.3-2.88,10.59-4.54,16.71Z"/><path class="cls-1" d="M500.12,411.61c-.15,7.5-4.71,13.82-13.12,15.4-8.32,1.56-16.65,3.05-24.96,4.64-7.47,1.43-14.91,3-22.38,4.43-7.17,1.37-14.35,2.64-21.52,3.98-4.88,.91-9.73,1.98-14.63,2.78-4.91,.81-11.64-2.18-14.67-8.59-2.42-5.12-1.29-10.1,.17-15.17,3.21-11.17,6.26-22.39,9.42-33.57,1.51-5.35,2.9-10.75,4.75-15.98,1.77-5,5.84-7.68,10.89-8.68,8.53-1.69,17.11-3.16,25.66-4.75,6.79-1.26,13.56-2.65,20.36-3.81,6.66-1.13,11.56,1.78,14.7,7.45,4.51,8.11,8.71,16.39,13.06,24.59,3.26,6.14,6.67,12.2,9.76,18.43,1.35,2.72,2.06,5.76,3.07,8.65-.19,.07-.38,.13-.57,.2Zm-14.87,.08c-.47-1.26-.72-2.23-1.17-3.09-7.01-13.24-14.09-26.45-21.02-39.74-.79-1.51-1.66-1.57-2.94-1.3-4.85,1-9.69,2.06-14.55,2.99-9.29,1.78-18.61,3.46-27.89,5.29-.76,.15-1.74,1.05-1.96,1.79-2.03,6.9-3.92,13.84-5.85,20.76-2,7.16-4.01,14.32-5.98,21.49-.66,2.39-1.2,4.81-1.9,7.65,28.04-5.34,55.43-10.55,83.27-15.85Z"/><path class="cls-1" d="M432.4,242.3c-1.69-7.28-3.31-14.22-4.92-21.16-.64-2.78-1.62-3.28-5.32-4.07-6.43-1.36-12.8-3.01-19.2-5.04,6.49-1.58,12.95-3.26,19.47-4.68,3.86-.84,4.36-1.32,5.22-5.2,1.44-6.5,3.13-12.94,5.14-19.51,.75,2.85,1.53,5.7,2.23,8.56,1.11,4.59,2,9.24,3.37,13.75,.3,.99,2.11,1.85,3.37,2.17,6.81,1.71,13.67,3.22,20.55,5.39-5.11,1.22-10.21,2.44-15.32,3.67-2.41,.58-4.86,1.03-7.2,1.81-2.28,.76-1.87,3.13-2.33,4.88-1.57,6.08-3.02,12.19-4.53,18.28-.07,.28-.24,.54-.52,1.13Z"/><path class="cls-1" d="M356.91,163.46c2.49-.67,4.97-1.37,7.46-2,2.33-.58,4.74-.92,6.99-1.71,.79-.28,1.51-1.51,1.76-2.44,1.23-4.62,2.29-9.29,3.86-14,.75,2.66,1.54,5.31,2.24,7.98,.47,1.79,.87,3.6,1.21,5.42,.38,2.05,1.33,3.1,3.6,3.48,3.95,.67,7.82,1.86,11.72,2.86,.41,.11,.76,.42,1.64,.92-3.67,.96-6.83,1.8-10,2.6-1.5,.38-3.1,.49-4.51,1.06-.84,.34-1.81,1.24-2.05,2.07-1.13,4.03-2.01,8.13-3.02,12.19-.2,.81-.59,1.57-1.1,2.89-1.25-5.09-2.39-9.66-3.49-14.24-.41-1.73-1.18-2.73-3.17-3.13-4.39-.88-8.7-2.14-13.05-3.25-.04-.24-.08-.47-.12-.71Z"/></g></g></svg>