<?xml version="1.0" encoding="UTF-8"?><svg id="Layer_1" xmlns="http://www.w3.org/2000/svg" viewBox="0 0 617.18 617.18"><defs><style>.cls-1{fill:#00aeef;}</style></defs><g><path class="cls-1" d="M346.83,374.87c45.19,0,85.54-18.68,111.1-51.57,.48-.62,.71-1.4,.65-2.18-.05-.58-1.28-14.06-13.83-19.21-1.6-.65-3.44,.11-4.09,1.72-.66,1.6,.11,3.43,1.71,4.09,7.25,2.97,9.27,9.99,9.79,12.77-24.97,31.41-64.34,48.91-108.38,48.07-9.18-.18-18.5-1.16-27.71-2.94-1.69-.33-3.34,.78-3.67,2.49-.32,1.7,.79,3.35,2.49,3.68,9.55,1.84,19.23,2.86,28.77,3.05,1.06,.02,2.12,.03,3.18,.03Z"/><path class="cls-1" d="M354.16,344.03c35.76,0,76.16-10.12,98.76-31.58,1.26-1.19,1.31-3.18,.11-4.44-1.19-1.26-3.18-1.31-4.43-.11-27.42,26.04-85.22,34.49-123.06,27.37-29.82-5.61-57.6-19.98-78.21-40.47-1.23-1.22-3.21-1.23-4.44,.01-1.22,1.23-1.22,3.22,.01,4.44,21.49,21.36,50.42,36.34,81.47,42.19,9.14,1.72,19.26,2.6,29.78,2.6Z"/><path class="cls-1" d="M387.33,313.51c32.31,0,56.36-5.5,56.95-5.64,1.69-.4,2.73-2.09,2.33-3.77-.4-1.69-2.13-2.74-3.78-2.33-1.43,.34-142.97,32.61-198.59-62.99-.87-1.5-2.79-2.01-4.29-1.14-1.5,.88-2,2.79-1.13,4.29,34.62,59.5,100.63,71.58,148.51,71.58Z"/><path class="cls-1" d="M298.35,459.57c-61.15-18.75-114.64-63.86-139.61-117.74-18.67-40.28-20.19-81.02-4.41-117.81,6.56-15.29,19.57-25.14,26.74-29.66,2.63-1.66,5.43-3.09,8.39-4.6,13.54-6.91,28.89-14.74,33.54-49.1,.17-1.23,1.04-2.24,2.23-2.59,9.17-2.7,28.34-2.18,35.45,18.87,.39,1.16,.07,2.45-.82,3.29-23.91,22.47-25.37,50.94-25.39,51.22,0,.05,0,.12-.01,.18-4.38,44.69,6.85,83.14,33.39,114.26,63.78,74.82,195.96,83.76,197.29,83.84,.64,.04,1.25,.28,1.76,.67,13.59,10.79,8.35,27.33,8.12,28.03-.24,.72-.72,1.32-1.37,1.71-32.49,19.51-70.06,29.49-108.54,29.49-22.22,0-44.74-3.33-66.76-10.07Zm165.37-43.64c-12.75-1.01-138.16-12.68-200.63-85.93-27.67-32.45-39.41-72.45-34.88-118.88,.1-2.22,1.9-30.43,25.85-53.99-6.18-15.17-20.03-14.34-25.15-13.44-5.47,35.79-22.7,44.58-36.6,51.67-2.83,1.45-5.51,2.81-7.9,4.31-6.55,4.13-18.43,13.1-24.32,26.83-15.07,35.11-13.57,74.07,4.33,112.7,24.24,52.31,76.26,96.14,135.75,114.37,58.02,17.8,119.61,11.17,169.16-18.15,.74-3.2,2.11-12.73-5.63-19.49Z"/><path class="cls-1" d="M408.2,438.41c23.57,0,46.13-3.47,64.69-11.48,1.59-.69,2.33-2.53,1.64-4.12-.68-1.59-2.53-2.33-4.12-1.64-48.96,21.1-130.09,8.65-177.18-15-43.81-21.99-76.19-58.83-88.83-101.08-10.87-36.31-6.38-74.42,12.63-107.31,.87-1.5,.35-3.42-1.15-4.28-1.49-.88-3.42-.36-4.29,1.15-19.88,34.41-24.57,74.27-13.2,112.25,13.14,43.89,46.68,82.13,92.03,104.89,31.53,15.83,76.23,26.63,117.79,26.63Z"/></g><path class="cls-1" d="M308.59,617.62C138.44,617.62,0,479.18,0,309.02S138.44,.43,308.59,.43s308.59,138.44,308.59,308.59-138.44,308.59-308.59,308.59Zm0-609.86C142.48,7.76,7.33,142.91,7.33,309.02s135.15,301.26,301.26,301.26,301.26-135.15,301.26-301.26S474.71,7.76,308.59,7.76Z"/></svg>