<?xml version="1.0" encoding="UTF-8"?><svg id="Layer_1" xmlns="http://www.w3.org/2000/svg" viewBox="0 0 617.18 617.18"><defs><style>.cls-1{fill:#00aeef;}</style></defs><path class="cls-1" d="M308.59,617.32C138.44,617.32,0,478.88,0,308.73S138.44,.13,308.59,.13s308.59,138.44,308.59,308.59-138.44,308.59-308.59,308.59Zm0-609.86C142.48,7.46,7.33,142.61,7.33,308.73s135.15,301.26,301.26,301.26,301.26-135.15,301.26-301.26S474.71,7.46,308.59,7.46Z"/><g id="jfn0ZI"><g><path class="cls-1" d="M103.35,345.04c1.5-2.87,2.66-5.98,4.56-8.55,3.76-5.11,9.01-7.84,15.44-8.09,1.48-.06,2.95-.16,4.67-.26-9.14-31.08-.14-54.93,27.58-71.55-10.99-35.16,9.47-61.79,30.68-70.81,23.23-9.88,54.22-4.02,71.34,23.91,8.07-13.26,19.26-22.38,34.14-26.4,14.79-3.99,29.03-2.31,42.47,5.17,23.3,12.97,31.86,35.93,25.45,68.06,27.43,16.7,36.89,40.37,27.22,72.58,6.75-1.17,13.24-1.47,19.12-3.51,8.48-2.95,16.74-6.74,24.71-10.92,23.63-12.38,48.66-19.5,75.25-21.2,12.4-.8,18.11,4.56,18.11,16.95,0,8.08,.04,16.16-.01,24.24-.06,8.5-4.91,14.1-13.38,14.67-18.06,1.23-35.44,5.06-51.93,12.6-20.45,9.34-37.42,22.85-50.64,41.24-13.31,18.51-31.49,30.2-53.78,35-6.64,1.43-13.55,2.14-20.35,2.17-46.29,.18-92.57,.2-138.86,.07-46.94-.14-84.67-33.38-91.05-79.93-.14-1.05-.49-2.07-.74-3.1,0-4.11,0-8.22,0-12.33Zm406.58-37.58c-1.32,0-2.14-.04-2.95,0-24.8,1.55-48.26,7.92-70.04,19.94-18.57,10.25-37.92,15.41-59.53,15.23-82.83-.67-165.66-.27-248.5-.27-1.51,0-3.02-.05-4.52,.04-4.02,.25-6.61,2.71-6.96,6.68-.14,1.63-.05,3.29,.06,4.92,2.79,40.73,35.96,72.18,76.77,72.35,46.96,.2,93.92,.26,140.88-.04,25.57-.17,46.52-10.73,61.62-31.4,23.47-32.14,55.4-50,93.87-57.28,6.38-1.21,12.89-1.73,19.3-2.56v-27.63Zm-294.32-21.38c-.08,23.23,18.55,41.99,41.89,42.19,22.85,.19,42.03-18.69,42.2-41.53,.17-23.38-18.58-42.44-41.97-42.65-23.06-.21-42.05,18.72-42.13,41.99Zm119.14,42.25c11.09,0,22.18,.1,33.26-.12,1.49-.03,3.62-1.29,4.32-2.59,8.39-15.5,4.74-36.11-8.39-48.66-13.39-12.8-33.94-15.48-49.39-6.54-2.16,1.25-2.47,2.49-2.01,4.92,3.42,18.09-1.05,34.13-13,48.12-.81,.95-1.29,2.19-1.92,3.3,1.42,.52,2.84,1.48,4.26,1.5,10.95,.13,21.9,.07,32.86,.07Zm-69.65-97.77c18.46,3.11,32.15,12.62,41.59,28.29,12.46-6.98,25.46-8.91,39.34-6.59,5.21-15.62,3.21-29.82-7.27-42.16-11.3-13.3-26.08-17.96-42.86-13.5-16.99,4.51-26.91,16.31-30.79,33.95Zm-84.51,97.77c10.95,0,21.89,.04,32.84-.06,1.34-.01,2.67-.79,4.01-1.22-.61-1.25-.99-2.69-1.86-3.72-11.83-13.9-16.23-29.8-12.87-47.74,.52-2.75-.07-4.12-2.55-5.47-15.64-8.48-35.67-5.83-48.68,6.62-13.15,12.59-16.75,32.19-9.02,48.3,1.18,2.45,2.57,3.37,5.31,3.33,10.94-.15,21.89-.06,32.84-.06Zm28.05-69.51c9.5-15.92,23.3-25.09,41.04-28.25-1.03-14.65-13.43-28.91-29.03-33.68-16.49-5.05-34.69,.74-45.25,14.39-9.28,11.99-11.86,30.7-5.53,40.94,13.48-2.37,26.31-.17,38.78,6.61Z"/><path class="cls-1" d="M229.72,284.77c.43-14.3,12.86-26.53,27.07-26.64,4.27-.03,7.37,2.51,7.7,6.32,.37,4.17-2.11,6.98-6.71,7.62-9.16,1.27-12.8,4.9-14.13,14.08-.66,4.52-3.66,7.32-7.54,7.03-4.12-.31-6.54-3.49-6.39-8.41Z"/><path class="cls-1" d="M179.27,279.28c4.79-.07,7.73,2.2,8.07,6.25,.37,4.3-2.31,7.21-7.12,7.72-8.28,.88-12.76,5.32-13.68,13.55-.55,4.89-3.38,7.63-7.58,7.34-4.15-.29-6.51-3.38-6.39-8.36,.35-14.06,12.66-26.28,26.69-26.5Z"/><path class="cls-1" d="M207.43,209.18c4.67-.1,7.7,2.31,8,6.35,.3,4.04-2.28,6.88-6.89,7.59-9.36,1.44-12.9,5-14.02,14.1-.55,4.45-3.56,7.12-7.65,6.79-3.88-.32-6.28-3.23-6.3-7.65-.09-14.3,12.32-26.86,26.86-27.18Z"/></g></g></svg>