<?xml version="1.0" encoding="UTF-8"?><svg id="Layer_1" xmlns="http://www.w3.org/2000/svg" viewBox="0 0 617.18 617.18"><defs><style>.cls-1{fill:#00aeef;}</style></defs><path class="cls-1" d="M308.59,617.19C138.44,617.19,0,478.75,0,308.59S138.44,0,308.59,0s308.59,138.44,308.59,308.59-138.44,308.59-308.59,308.59Zm0-609.86C142.48,7.33,7.33,142.48,7.33,308.59s135.15,301.26,301.26,301.26,301.26-135.15,301.26-301.26S474.71,7.33,308.59,7.33Z"/><g id="wlf0ml"><g><path class="cls-1" d="M292.23,509.73c-7.4-1.25-14.86-2.2-22.18-3.8-52.54-11.45-96.02-56.95-105.31-110.04-11.8-67.4,22.96-130.44,86.02-155.94,3.83-1.55,7.78-2.81,11.63-4.18,.43-4.7,1-9.41,1.2-14.13,.04-1-1.1-2.16-1.88-3.08-11.06-13.02-22.15-26.01-33.24-39-7.32-8.58-7.08-16.83,.74-25.05,7.62-8.01,15.28-15.98,22.85-24.03,4.3-4.56,9.46-6.75,15.75-6.73,22.86,.07,45.73,.06,68.59,0,6.14-.01,11.24,2.12,15.44,6.56,8.03,8.48,16.14,16.89,24.14,25.41,6.18,6.57,6.54,15.12,.94,22.23-2.64,3.35-5.48,6.55-8.3,9.76-2.62,2.99-6.1,3.44-8.6,1.25-2.47-2.17-2.55-5.32-.12-8.38,1.94-2.43,3.99-4.78,6.33-7.57-1.24-.15-2.04-.32-2.83-.32-9.55-.02-19.09,0-28.64-.02-1.68,0-3-.08-3.58,2.2-3.3,13-6.81,25.94-10.24,38.89,5.73,2.03,9.7,1.06,13.23-3.09,2.6-3.06,5.16-6.17,7.86-9.14,2.57-2.83,5.81-3.1,8.29-.87,2.36,2.12,2.57,5.27,.29,8.11-2.83,3.52-5.96,6.81-8.69,10.41-.83,1.09-1.09,2.84-1.08,4.28,.04,4,.36,7.99,.57,11.84,7.43,3.08,15.07,5.62,22.14,9.28,43.62,22.55,69.89,58.06,76.91,106.72,10.63,73.74-41.1,144.02-114.21,156.25-4.8,.8-9.63,1.47-14.44,2.2h-19.6Zm-119.04-139.88c.71,6.98,1.07,14.02,2.17,20.94,11.04,69.56,78.31,117.82,147.54,105.97,67.96-11.63,114.84-73.1,106.44-141.7-6.34-51.8-35.4-86.97-83.9-106.04-4.94-1.94-9.95-2.81-15.6-2.6-18.56,.67-37.17,.23-55.75,.27-3.17,0-6.55-.44-9.49,.45-54.42,16.51-90.97,65.9-91.41,122.7Zm110.79-197.06c2.8,10.64,5.54,20.92,8.23,31.22,2.87,10.99,2.86,10.94,14.12,10.6,2.18-.07,2.99-.84,3.51-2.9,2.6-10.33,5.38-20.61,8.1-30.91,.68-2.59,1.36-5.18,2.09-8h-36.05Zm-46.31-.12c1.32,1.67,2.12,2.75,2.99,3.77,9.54,11.18,19.42,22.09,28.49,33.64,4.09,5.21,8.58,4.78,14.05,4.08-3.53-13.35-6.97-26.44-10.55-39.49-.23-.83-1.62-1.9-2.48-1.91-10.55-.13-21.1-.09-32.5-.09Zm36.63,62.44h55.44v-9.01h-55.44v9.01Zm27.73-95.62c-5.08,7.52-9.73,14.39-14.64,21.65h29.31c-4.97-7.33-9.62-14.2-14.66-21.65Zm-25.11,16.89c4.91-7.25,9.5-14.02,14.25-21.03h-26.58c4.2,7.15,8.1,13.81,12.34,21.03Zm50.23-.01c4.26-7.28,8.16-13.92,12.28-20.96h-26.52c4.85,7.14,9.41,13.85,14.23,20.96Zm-71.28-13.46c-5.84,6.14-11.36,11.94-17.27,18.16h27.95c-3.66-6.23-7.06-12-10.68-18.16Zm92.3-.04c-3.69,6.33-7.1,12.17-10.66,18.28h27.38c-.24-.57-.3-.96-.52-1.19-5.24-5.55-10.49-11.08-16.2-17.09Z"/><path class="cls-1" d="M409.39,161.99c2.38,0,4.77-.11,7.14,.02,3.45,.19,5.51,2.24,5.6,5.35,.09,3.11-1.84,5.56-5.23,5.72-5.25,.25-10.53,.26-15.77-.04-3.36-.19-5.26-2.73-5.01-5.88,.27-3.25,2.18-4.99,5.38-5.15,2.63-.13,5.26-.03,7.9-.03Z"/><path class="cls-1" d="M217.79,144.03c-1.07,1.35-2.03,3.63-3.65,4.3-1.63,.68-4.53,.48-5.82-.59-4.12-3.45-7.9-7.35-11.51-11.35-1.97-2.18-1.81-4.96,.24-7.2,2.05-2.24,4.91-2.77,7.11-.84,4.33,3.79,8.27,8.03,12.27,12.18,.63,.66,.74,1.82,1.37,3.5Z"/><path class="cls-1" d="M194.35,162c2.51,0,5.02-.08,7.52,.02,3.23,.14,5.19,1.91,5.41,5.12,.22,3.18-1.41,5.63-4.6,5.81-5.61,.33-11.27,.33-16.88-.03-3.19-.21-4.73-2.68-4.47-5.89,.24-3.06,2.09-4.79,5.12-4.98,2.62-.16,5.26-.03,7.89-.03,0,0,0-.02,0-.02Z"/><path class="cls-1" d="M408.3,202.86c-1.1,1.35-2.03,3.52-3.55,4.08-1.71,.63-4.58,.54-5.86-.53-4.12-3.44-7.88-7.35-11.49-11.34-2.12-2.34-1.88-5.18,.38-7.45,2.14-2.14,4.95-2.46,7.15-.5,4.11,3.66,7.92,7.66,11.72,11.66,.78,.82,.94,2.24,1.65,4.08Z"/><path class="cls-1" d="M392.24,149.15c-4.65,.1-7.99-4.93-5.38-8.19,3.74-4.66,8.17-8.82,12.67-12.77,2.05-1.79,5.24-1.33,6.67,1.01,1.05,1.72,1.69,5.18,.7,6.41-3.68,4.55-8.07,8.54-12.3,12.64-.65,.63-1.83,.71-2.36,.9Z"/><path class="cls-1" d="M218.06,191.29c-1.13,1.92-1.71,3.49-2.77,4.62-3.08,3.3-6.31,6.47-9.55,9.6-2.87,2.78-6.34,2.93-8.65,.5-2.2-2.31-2.02-5.67,.61-8.38,3.32-3.42,6.52-7.01,10.22-9.97,1.45-1.16,4.35-1.55,6.14-.95,1.62,.54,2.62,2.9,4,4.58Z"/><path class="cls-1" d="M190.39,369.96c.56-55.8,41.07-102,97.1-110.26,57.42-8.47,114.53,33.11,123.87,90.19,.84,5.12-.58,7.94-4.26,8.48-3.75,.55-5.96-1.54-6.92-6.63-4.68-24.85-16.78-45.35-36.84-60.71-60.34-46.21-147.47-12.29-159.85,63.17-9.06,55.25,28.55,105.85,84.01,114.62,53.61,8.47,106.45-31.14,113.38-84.99,.18-1.37,.4-2.73,.57-4.1,.53-4.1,2.84-6.33,6.23-6,3.5,.35,5.8,3.32,4.92,7.45-2.07,9.66-3.52,19.62-7.01,28.78-17.43,45.72-62.49,74.7-111.45,70.82-50.96-4.04-91.47-40.13-101.14-89.17-1.4-7.11-1.77-14.42-2.61-21.64Z"/></g></g></svg>