<?xml version="1.0" encoding="UTF-8"?><svg id="Layer_1" xmlns="http://www.w3.org/2000/svg" viewBox="0 0 617.18 617.18"><defs><style>.cls-1{fill:#00aeef;}</style></defs><path class="cls-1" d="M308.51,617.02C138.35,617.02-.08,478.59-.08,308.43S138.35-.16,308.51-.16s308.59,138.44,308.59,308.59-138.44,308.59-308.59,308.59Zm0-609.86C142.4,7.17,7.25,142.31,7.25,308.43s135.15,301.26,301.26,301.26,301.26-135.15,301.26-301.26S474.63,7.17,308.51,7.17Z"/><g id="_0sJ2n2"><g><path class="cls-1" d="M361.55,127.56c7.96,2.52,13.5,7.32,14.92,15.93,.25,1.54,.25,3.13,.25,4.7,.02,17.65,.06,35.3-.04,52.95-.01,2.44,.74,3.84,2.8,5.24,31.42,21.27,46.67,51.01,45.76,88.86-.3,12.43-3.16,24.52-8.85,35.61-7.49,14.59-6.16,27.94,1.77,42.23,21.01,37.86,19.11,75.36-4.48,111.64-6.25,9.62-15.51,14.24-27,14.25-52.11,0-104.23,.02-156.34,0-11.35,0-20.52-4.61-26.71-14.09-24.1-36.91-25.54-74.86-3.84-113.2,7.44-13.14,8.39-25.56,1.76-39.19-21.64-44.46-6.09-99.1,35.54-125.7,2.58-1.65,3.46-3.35,3.44-6.36-.15-16.68-.07-33.36-.07-50.05,0-13.23,3.09-17.87,15.18-22.81h105.93Zm-52.83,359.05c25.63,0,51.25-.07,76.88,.04,8.07,.03,14.25-3.03,18.56-9.86,20.15-31.95,21.3-64.55,3.36-97.8-1.55-2.87-3.33-5.63-4.63-8.6-6.67-15.23-4.78-29.87,2.2-44.68,18.58-39.43,3.73-87.43-33.59-109.76-1.66-.99-3.8-1.66-5.72-1.66-38.08-.1-76.16-.09-114.23,0-1.82,0-3.86,.53-5.41,1.46-37.61,22.48-52.66,70.72-33.84,110.33,8.77,18.44,7.71,35.22-2.39,52.97-18.62,32.69-17.08,65.47,2.85,97.38,4.43,7.1,10.71,10.29,19.09,10.25,25.63-.14,51.25-.05,76.88-.05Zm55.41-285.06v-24.53c-7.81,0-15.4,.08-22.98-.05-2.27-.04-3.52,.91-5.16,2.39-2.98,2.7-6.35,5.27-10.01,6.88-8.29,3.65-17.11,3.83-25.97,2.49-6.44-.97-12.93-2.66-17.15-7.71-3.15-3.76-6.5-4.13-10.67-4.03-6.35,.16-12.72,.04-19.19,.04v24.53h111.13Zm-111.27-36.9c7.43,0,14.32-.14,21.19,.06,3.31,.09,5.96-.24,8.03-3.34,1.14-1.7,3.21-2.94,5.08-3.98,8.08-4.51,16.88-5.73,25.94-4.86,9.31,.89,18.13,3.16,24.16,11.26,.31,.42,.98,.8,1.49,.8,8.42,.05,16.84,.04,25.62,.04,0-5.56,0-10.72,0-15.88-.01-6.92-1.91-8.82-8.82-8.82-31.29,0-62.58,0-93.87,0-.85,0-1.69-.04-2.54,.02-3.55,.26-6.09,2.38-6.21,5.86-.22,6.12-.06,12.26-.06,18.84Zm55.52,13.36c5.48-1.51,10.79-2.57,15.77-4.49,3.86-1.49,3.82-3.51,.12-5.26-10.42-4.95-20.98-4.92-31.4,.03-3.57,1.7-3.67,3.65-.08,5.08,4.95,1.97,10.24,3.1,15.6,4.65Z"/><path class="cls-1" d="M318.73,294.79c6.28,1.61,12.31,2.84,18.13,4.72,10.73,3.46,20.22,9.16,28.29,17.07,23.97,23.49,23.64,58.19-1.03,80.97-17.95,16.57-39.62,22.42-63.58,20.54-14.22-1.12-27.39-5.66-39.2-13.77-36.03-24.77-36.03-70.66,0-95.39,12.23-8.39,25.88-12.89,40.65-13.79,2.77-.17,3.85-1.14,4.71-3.71,3.12-9.28,8.17-17.47,14.88-24.61,3.24-3.45,7.05-3.95,9.81-1.32,2.69,2.56,2.53,6.2-.6,9.6-5.31,5.75-9.43,12.2-12.07,19.7Zm-48.75,41.88c-4.91-1.02-9.37-2.1-13.89-2.79-1.04-.16-3,.73-3.32,1.59-2.14,5.71-5,11.43-5.66,17.36-1.82,16.35,5.46,29.18,18.08,38.9,17.89,13.77,38.29,17.18,60.05,12.46,16.7-3.62,30.71-11.82,39.52-26.96,7.94-13.63,7.64-27.61-.03-41.37-.53-.96-1.97-2.2-2.8-2.08-4.86,.75-9.67,1.86-14.67,2.89,.55,2.39,.98,4.5,1.52,6.59,1.29,4.97,.42,9.41-3.42,12.94-3.82,3.51-8.29,4.1-13.16,2.43-6.85-2.35-13.69-4.73-20.62-6.82-1.81-.55-4.06-.55-5.87,0-7.15,2.17-14.16,4.82-21.32,7-10.02,3.05-18.4-4.92-16.07-15.11,.51-2.23,1.06-4.45,1.67-7.01Zm44.78,2.99c7.07,2.67,14.34,4.84,22.17,7.44-1.46-6.43-3.9-12.09,.15-17.75,3.88-5.43,10.3-4.86,16.24-6.85-11.49-9.03-23.81-13.98-37.91-15.06-.95,5.17,.57,12.18-7.27,11.72-7.29-.43-5.44-6.8-5.44-11.44-11.31-.88-33.07,8.02-38.14,15.09,5.52,1.5,11.7,1.27,15.56,6.63,4.02,5.6,1.49,11.29,.22,17.41,1.41-.37,2.43-.57,3.4-.89"/><path class="cls-1" d="M308.31,461.88c-20.31,0-40.63,.1-60.94-.03-21.08-.14-36.99-15.31-37.74-36.1-.38-10.38,1.78-20.42,5.66-30.05,.99-2.46,2.12-4.87,3.34-7.22,1.93-3.71,5.1-4.93,8.37-3.4,3.39,1.59,4.56,5.07,2.63,8.91-4.61,9.2-7.32,18.85-7.63,29.18-.45,14.82,9.97,26.22,24.83,26.27,41.23,.15,82.46,.17,123.69-.01,14.67-.06,25.03-11.45,24.64-26.09-.27-9.82-2.62-19.09-6.94-27.89-.27-.54-.56-1.07-.79-1.63-1.61-3.76-.62-7.09,2.57-8.68,3.23-1.62,6.54-.47,8.46,3.18,5.01,9.51,7.98,19.64,8.86,30.38,.59,7.2,.31,14.29-2.84,20.94-6.96,14.66-18.76,22.04-34.87,22.19-20.43,.19-40.87,.05-61.3,.05Z"/><path class="cls-1" d="M308.69,239.03c16.32,0,32.65,.39,48.95-.09,23.75-.71,35.28,13.95,39.82,29.18,5.03,16.9,4.26,33.61-2.47,49.98-1.24,3.02-3.39,4.8-6.69,4.42-3.1-.36-5.12-2.37-5.36-5.49-.12-1.58,.53-3.31,1.13-4.85,4.84-12.58,5.51-25.4,2.09-38.4-.73-2.78-1.77-5.54-3.06-8.1-4.71-9.33-12.16-14.34-22.87-14.28-16.44,.1-32.88,.02-49.31,.02-16.56,0-33.12,0-49.68,0-18.58,0-27.59,7.62-31.05,25.95-2.3,12.19-1.35,24.01,3.23,35.56,1.78,4.5,.51,7.89-3.25,9.27-3.52,1.29-6.56-.4-8.27-4.87-7.53-19.67-7.7-39.25,1.82-58.27,6.41-12.81,17.17-19.76,31.68-19.92,17.76-.2,35.53-.05,53.3-.05,0-.02,0-.04,0-.06Z"/></g></g></svg>