<?xml version="1.0" encoding="UTF-8"?><svg id="Layer_1" xmlns="http://www.w3.org/2000/svg" viewBox="0 0 617.18 617.18"><defs><style>.cls-1{fill:#00aeef;}</style></defs><path class="cls-1" d="M308.59,617.19C138.44,617.19,0,478.75,0,308.59S138.44,0,308.59,0s308.59,138.44,308.59,308.59-138.44,308.59-308.59,308.59Zm0-609.86C142.48,7.33,7.33,142.48,7.33,308.59s135.15,301.26,301.26,301.26,301.26-135.15,301.26-301.26S474.71,7.33,308.59,7.33Z"/><g><path class="cls-1" d="M245.18,417.84c-.4,0-.8-.07-1.19-.21-18.62-7-55.85-9.31-73.26-6.28-4.9,.85-8.59,1.83-11.56,2.62-8.71,2.32-12.89,3.02-20.72-4.81-7.97-7.97-6.17-14.09-3.68-22.55,1.05-3.59,2.25-7.66,3.17-12.96,1.95-11.23-2.02-28.03-5.52-42.86-1.64-6.97-3.19-13.55-4.08-19.23-7.26-46.71,9.53-95.74,44.93-131.16,35.39-35.41,84.4-52.2,131.08-44.95,4.87,.76,10.46,1.91,16.36,3.12,15.61,3.21,33.3,6.85,45.28,4.78,4.33-.75,7.91-1.6,10.99-2.33,10.27-2.43,16.48-3.9,24.92,4.55,8.63,8.64,6.99,16.05,4.51,27.26-.66,3.01-1.42,6.41-2.1,10.33-2.69,15.54,2.83,39.16,6.86,56.41l.78,3.35c4.27,18.36,3.83,35.54-1.28,51.07-.59,1.77-2.49,2.74-4.28,2.16-1.78-.59-2.74-2.5-2.16-4.28,4.72-14.33,5.1-30.28,1.12-47.41l-.78-3.35c-4.17-17.81-9.87-42.21-6.94-59.1,.7-4.04,1.48-7.54,2.16-10.64,2.35-10.61,3.32-15-2.69-21.01-5.76-5.77-8.99-5-18.58-2.74-3.19,.76-6.91,1.63-11.39,2.41-13.23,2.3-31.6-1.48-47.8-4.81-5.79-1.19-11.27-2.32-16.04-3.06-44.58-6.95-91.39,9.16-125.26,43.05-33.87,33.89-49.96,80.75-43.03,125.33,.84,5.42,2.36,11.88,3.98,18.71,3.64,15.45,7.77,32.97,5.6,45.57-.99,5.69-2.29,10.14-3.34,13.71-2.36,8.02-3.15,10.72,1.97,15.86,5.39,5.4,6.55,5.09,14.19,3.06,3.1-.82,6.95-1.85,12.15-2.75,18.35-3.18,56.7-.94,76.8,6.61,1.75,.66,2.64,2.61,1.98,4.36-.51,1.36-1.8,2.2-3.17,2.2Z"/><path class="cls-1" d="M365.77,492.75c-7.22,0-14.44-.55-21.61-1.66-4.16-.65-9.09-1.57-14.43-2.57-17.39-3.25-39.04-7.3-51.73-5.11-4.89,.85-8.49,1.81-11.38,2.58-8.8,2.34-12.25,2.75-20.01-5.01-8.59-8.59-7.57-13.1-5.36-22.97,.61-2.7,1.33-5.94,2.03-9.97,2.29-13.17-1.57-34.87-4.67-52.3-.8-4.51-1.55-8.7-2.12-12.36-7.26-46.71,9.54-95.74,44.93-131.15,1.32-1.32,3.47-1.32,4.79,0,1.32,1.32,1.32,3.47,0,4.79-33.87,33.89-49.96,80.74-43.03,125.33,.56,3.62,1.3,7.76,2.09,12.22,3.19,17.95,7.16,40.3,4.68,54.64-.72,4.15-1.47,7.5-2.1,10.29-2.09,9.32-2.41,10.75,3.54,16.7,5.41,5.4,6.17,5.19,13.48,3.25,3.02-.8,6.78-1.81,11.97-2.7,13.87-2.41,36.19,1.77,54.13,5.13,5.26,.99,10.12,1.89,14.22,2.53,44.57,6.93,91.38-9.17,125.26-43.05,1.32-1.32,3.47-1.32,4.79,0,1.32,1.32,1.32,3.47,0,4.79-29.96,29.97-69.67,46.61-109.47,46.62Z"/><path class="cls-1" d="M446.51,456.54c-9.69,0-20.81-2.27-33.01-6.83-26.44-9.88-55.09-29.42-80.67-55.01-54.34-54.37-76.92-116.96-51.4-142.49,12.51-12.52,34.44-13.78,61.75-3.58,26.44,9.88,55.09,29.42,80.67,55.01,54.34,54.37,76.92,116.96,51.4,142.49l-2.39-2.39,2.39,2.39c-6.92,6.92-16.73,10.41-28.73,10.41Zm-136.35-207.99c-10.15,0-18.31,2.82-23.94,8.45-22.45,22.46,.61,82.09,51.4,132.91,24.91,24.92,52.7,43.91,78.25,53.45,24.68,9.23,44.06,8.5,54.58-2.02,22.45-22.46-.61-82.09-51.4-132.91-24.91-24.92-52.7-43.91-78.25-53.45-11.48-4.29-21.82-6.43-30.65-6.43Z"/><path class="cls-1" d="M363.07,350.51c-.29,0-.6-.04-.89-.12l-38.3-10.41c-.76-.21-1.42-.67-1.88-1.31-15.84-22.37-23.66-55.55-17.01-61.16,.59-.5,3.75-2.78,7.74,1.21l51.62,51.65-4.79,4.79-50.32-50.35c-.21,7.89,4.81,30.36,17.6,48.96l37.12,10.09c1.81,.49,2.87,2.35,2.38,4.15-.41,1.51-1.78,2.5-3.26,2.5Zm-55.69-67.46h0Z"/><path class="cls-1" d="M365.89,298.95c-.68,0-1.36-.2-1.95-.63-17.04-12.08-32.41-19.4-43.28-20.63-1.86-.21-3.19-1.89-2.99-3.75,.21-1.86,1.84-3.21,3.75-2.99,11.98,1.35,28.47,9.11,46.43,21.84,1.53,1.08,1.88,3.19,.8,4.72-.66,.93-1.7,1.43-2.76,1.43Z"/><path class="cls-1" d="M431.92,365.01c-1.06,0-2.11-.5-2.77-1.43-8.44-11.92-18.53-23.78-29.99-35.24-8.96-8.96-18.15-17.08-27.41-24.23l7.82,28.54c.49,1.81-.57,3.67-2.37,4.16-1.82,.47-3.67-.57-4.16-2.37l-10.41-37.98c-.38-1.38,.15-2.85,1.33-3.67,1.17-.81,2.74-.81,3.9,.01,12.21,8.65,24.35,19,36.1,30.74,11.73,11.73,22.07,23.89,30.73,36.12,1.08,1.53,.72,3.64-.81,4.72-.6,.42-1.28,.62-1.95,.62Z"/><path class="cls-1" d="M390.78,406.16c-.68,0-1.36-.2-1.95-.63-12.22-8.66-24.37-19.01-36.09-30.74-11.73-11.73-22.06-23.88-30.73-36.11-1.08-1.53-.72-3.64,.81-4.72,1.53-1.07,3.64-.72,4.72,.81,8.44,11.93,18.54,23.78,29.99,35.24,11.46,11.47,23.31,21.56,35.22,30.01,1.53,1.08,1.88,3.19,.8,4.72-.66,.93-1.7,1.43-2.76,1.43Z"/><path class="cls-1" d="M448.69,422.39c-1.29,0-2.89-.53-4.67-2.3-15.91-15.91-52.83-53.21-52.83-53.21l4.81-4.76s34.96,35.32,51.49,51.87c.25-7.96-4.77-30.69-17.67-49.44l-35.36-10.12c-1.8-.51-2.84-2.39-2.32-4.19,.51-1.8,2.38-2.86,4.19-2.32l36.51,10.45c.74,.21,1.39,.67,1.83,1.3,15.63,22.06,23.63,56.08,17.06,61.63-.33,.28-1.44,1.1-3.05,1.1Z"/><path class="cls-1" d="M435.29,427.36c-.14,0-.28,0-.42-.03-11.94-1.47-28.29-9.21-46.04-21.8-.64-.45-1.1-1.12-1.31-1.87l-10.24-37.73c-.49-1.81,.57-3.66,2.38-4.15,1.8-.51,3.67,.58,4.15,2.38l9.92,36.55c16.45,11.53,31.32,18.59,41.96,19.9,1.86,.23,3.17,1.92,2.95,3.77-.21,1.72-1.67,2.97-3.36,2.97Z"/><path class="cls-1" d="M388.06,342.84c-.87,0-1.73-.33-2.39-.99-1.32-1.32-1.32-3.47,0-4.79l13.5-13.51c1.32-1.32,3.47-1.32,4.79,0,1.32,1.32,1.32,3.47,0,4.79l-13.5,13.51c-.66,.66-1.53,.99-2.39,.99Z"/><path class="cls-1" d="M355.13,375.78c-.87,0-1.73-.33-2.39-.99-1.32-1.32-1.32-3.47,0-4.79l13.65-13.66c1.32-1.32,3.47-1.32,4.79,0,1.32,1.32,1.32,3.47,0,4.79l-13.65,13.66c-.66,.66-1.53,.99-2.39,.99Z"/><path class="cls-1" d="M169.31,245.28c-.44,0-.89-.09-1.32-.27-1.72-.73-2.53-2.71-1.8-4.43,14-33.15,45.77-73.8,117.65-79.25,1.83-.17,3.49,1.25,3.63,3.12,.14,1.86-1.26,3.49-3.12,3.63-68.47,5.19-98.65,43.72-111.92,75.13-.55,1.29-1.8,2.07-3.12,2.07Z"/><path class="cls-1" d="M158.64,288.34s-.09,0-.14,0c-1.87-.08-3.32-1.65-3.25-3.52,.02-.46,.5-11.42,4.84-26.83,.51-1.81,2.39-2.86,4.18-2.34,1.8,.51,2.85,2.38,2.34,4.18-4.11,14.58-4.59,25.16-4.59,25.26-.07,1.82-1.57,3.25-3.38,3.25Z"/></g></svg>