<?xml version="1.0" encoding="UTF-8"?><svg id="Layer_1" xmlns="http://www.w3.org/2000/svg" viewBox="0 0 617.18 617.18"><defs><style>.cls-1{fill:#00aeef;}</style></defs><path class="cls-1" d="M308.59,616.66C138.44,616.66,0,478.23,0,308.07S138.44-.52,308.59-.52s308.59,138.44,308.59,308.59-138.44,308.59-308.59,308.59Zm0-609.86C142.48,6.81,7.33,141.95,7.33,308.07s135.15,301.26,301.26,301.26,301.26-135.15,301.26-301.26S474.71,6.81,308.59,6.81Z"/><g id="K26rB6"><path class="cls-1" d="M228.89,500.68c-5.95-1.57-11.58-3.7-15.87-8.41-5.01-5.5-7.14-12.06-7.14-19.41,0-2.07,0-4.13,0-5.39-5.59-2.83-11.05-4.82-15.63-8.06-10.18-7.2-14.62-17.67-14.69-29.95-.12-19.39-.03-38.78-.03-58.17,0-40.73-.09-81.46,.05-122.19,.05-15.45,6.76-27.43,20.87-34.12,5.21-2.47,11.42-3.3,17.26-3.8,7.26-.63,14.61-.15,22.47-.15,0-1.49,0-2.78,0-4.07,0-19.14,0-38.29,0-57.43,0-8.93,3.19-16.35,11.21-20.74,3.07-1.68,6.93-2.64,10.43-2.67,26.59-.22,53.18-.19,79.76-.09,12.48,.05,21.41,9.26,21.55,22.42,.2,19.39,.07,38.78,.07,58.17,0,1.45,0,2.89,0,4.87,4.59,0,8.95-.21,13.28,.05,7.26,.43,14.76,.15,21.69,1.96,14.74,3.87,24.8,17.56,25.6,32.96,.09,1.7,.07,3.41,.07,5.12,0,58.17-.28,116.34,.16,174.5,.15,19.57-10.49,35.44-28.99,39.92-.46,.11-.88,.39-1.19,.53-.36,4.62-.16,9.23-1.18,13.56-2.51,10.66-9.36,17.34-20.09,19.92-.7,.17-1.38,.44-2.07,.66h-8.05c-.56-.2-1.12-.46-1.7-.6-12.43-2.89-19.96-11.49-21.13-24.24-.26-2.85-.34-5.73-.51-8.58h-75.06c0,1.92,0,3.61,0,5.31-.03,7.45-2.08,14.16-7.22,19.74-4.3,4.68-9.92,6.84-15.88,8.37h-8.05Zm-40.47-161.36c0,29.51-.02,59.02,.03,88.53,0,2.78,.05,5.67,.76,8.33,3.05,11.45,12.13,18.08,24.76,18.09,55.74,.04,111.48-.1,167.22,.1,14.95,.05,25.98-11.2,25.9-25.94-.32-59.39-.13-118.78-.16-178.17,0-2.54-.09-5.17-.74-7.6-3.09-11.59-12.27-18.04-25.54-18.05-55.5-.02-110.99-.02-166.49,.02-2.54,0-5.17,.1-7.6,.74-11.49,2.98-18.11,12.03-18.13,24.67-.04,29.76-.01,59.51-.01,89.27Zm60.88-128.12h15.44c0-1.65,0-2.98,0-4.32,0-12.31-.09-24.62,.05-36.92,.13-11.7,6.04-17.43,17.6-17.43,10.97,0,21.94-.04,32.91,.01,7.19,.03,11.74,3.19,13.94,10.05,.88,2.73,1.3,5.71,1.33,8.59,.14,11.94,.06,23.88,.06,35.83,0,1.29,0,2.57,0,3.86h15.18c.1-.62,.24-1.08,.24-1.54,.01-19.99,.09-39.97-.03-59.96-.04-6.86-3.41-9.94-10.28-9.94-24.86-.02-49.73,0-74.59,0-9.18,0-11.84,2.69-11.85,12.04-.01,14.38,0,28.76,0,43.14,0,5.47,0,10.94,0,16.61Zm67.75-.39c.08-1.17,.2-2.12,.2-3.07,.01-11.95,.02-23.89,0-35.84,0-1.21-.19-2.42-.29-3.64-.15-1.92-1.09-2.68-3.09-2.67-10.73,.08-21.46,.09-32.18,0-2.21-.02-3.13,.85-3.27,2.9-.08,1.21-.28,2.43-.28,3.64-.02,11.95-.02,23.89,0,35.84,0,.94,.17,1.88,.26,2.84h38.65Zm32.07,257.07c-.89,7.76-.34,14.75,7.04,18.77,4.97,2.7,10.13,2.26,14.83-1.04,6.38-4.47,6.14-10.97,5.48-17.74h-27.36Zm-130.23,.03c-.86,7.46-.37,14.3,6.64,18.49,4.89,2.93,10.05,2.55,14.86-.53,6.76-4.33,6.55-10.99,5.89-17.97h-27.39Z"/></g></svg>