<?xml version="1.0" encoding="UTF-8"?><svg id="Layer_1" xmlns="http://www.w3.org/2000/svg" viewBox="0 0 617.18 617.18"><defs><style>.cls-1{fill:#00aeef;}</style></defs><path class="cls-1" d="M308.59,617.62C138.44,617.62,0,479.18,0,309.02S138.44,.43,308.59,.43s308.59,138.44,308.59,308.59-138.44,308.59-308.59,308.59Zm0-609.86C142.48,7.76,7.33,142.91,7.33,309.02s135.15,301.26,301.26,301.26,301.26-135.15,301.26-301.26S474.71,7.76,308.59,7.76Z"/><g><path class="cls-1" d="M348.57,504.92c-97.74,0-170.55-70.94-184.5-122.97-16.71-42.78-1.11-98.25,38.92-138.17,50.74-50.61,127.13-52.42,177.7-4.21,31.72,30.24,36.87,64.24,41.41,94.24,4.75,31.35,8.85,58.43,40.14,77.21,11.56,6.93,16.33,18.55,13.08,31.88-6.48,26.62-44.89,57.25-113.92,61.62-4.32,.27-8.6,.41-12.83,.41Zm-176.23-121.66c16.11,51.51,90.58,119.88,188.57,113.68,47.16-2.98,99.07-23.12,107.03-55.84,2.44-10.03-.98-18.4-9.61-23.59-34.36-20.62-38.92-50.71-43.74-82.58-4.57-30.2-9.3-61.43-39.14-89.88-47.52-45.3-119.36-43.53-167.11,4.1-38.03,37.93-52.93,90.33-37.08,130.39l1.42,3.59-.35,.13Z"/><path class="cls-1" d="M258.44,215.88c-.81-2.32-19.45-57.42,16.9-105.46l6.05,4.58c-33.85,44.72-15.97,97.85-15.79,98.38l-7.16,2.5Z"/><path class="cls-1" d="M268.95,444.05c-.89-.39-89.19-40.4-63.91-127.71l7.28,2.11c-9.8,33.86-2.86,64.04,20.63,89.71,17.77,19.41,38.84,28.86,39.05,28.95l-3.06,6.94Z"/><path class="cls-1" d="M192.65,210.9c-20.95,0-39.3-8.77-50.32-24.44l-1.46-2.07,1.36-2.14c.72-1.13,18.01-27.83,49.84-34.39,21.32-4.39,43.82,1.34,66.9,17.06l2.47,1.68-1.05,2.79c-7.95,21.08-31.23,37.51-57.93,40.89-3.32,.42-6.6,.63-9.81,.63Zm-42.53-26.68c11.4,14.51,29.96,21.23,51.39,18.53,22.78-2.89,42.7-16.09,50.63-33.28-20.4-13.22-40.07-17.99-58.53-14.19-23.78,4.9-38.9,22.79-43.49,28.94Z"/><path class="cls-1" d="M233.83,297.79c-5.46,0-9.9-4.44-9.9-9.9s4.44-9.9,9.9-9.9,9.9,4.44,9.9,9.9-4.44,9.9-9.9,9.9Zm0-12.22c-1.28,0-2.32,1.04-2.32,2.32s1.04,2.32,2.32,2.32,2.32-1.04,2.32-2.32-1.04-2.32-2.32-2.32Z"/></g></svg>