<?xml version="1.0" encoding="UTF-8"?><svg id="Layer_1" xmlns="http://www.w3.org/2000/svg" viewBox="0 0 617.18 617.18"><defs><style>.cls-1{fill:#00aeef;}</style></defs><path class="cls-1" d="M308.59,617.62C138.44,617.62,0,479.18,0,309.02S138.44,.43,308.59,.43s308.59,138.44,308.59,308.59-138.44,308.59-308.59,308.59Zm0-609.86C142.48,7.76,7.33,142.91,7.33,309.02s135.15,301.26,301.26,301.26,301.26-135.15,301.26-301.26S474.71,7.76,308.59,7.76Z"/><g id="_5FR3F6"><g><path class="cls-1" d="M140.48,158.84c2.12-6.8,6.06-11.83,13.39-13.38,1.59-.33,3.25-.4,4.88-.4,51.32-.02,102.64-.02,153.95-.01,11.3,0,18.2,6.89,18.21,18.18,.01,57.77,0,115.55,0,173.32,0,1.4,0,2.8,0,4.64,1.46,0,2.63,0,3.79,0,22.21,0,44.42,0,66.64,0,6.31,0,8.08-1.73,8.08-7.94,.01-20.46,0-40.92,0-61.38,0-1.06,0-2.13,0-3.51h-3.95c-16.63,0-33.26,0-49.9,0-9.19,0-12.79-4.34-13.64-13.42-1.09-11.65,1.71-21.5,10.1-29.67,5.97-5.82,7.44-12.82,7.14-21.05-.57-15.52-.18-31.07-.16-46.61,.01-8.21,4.36-12.55,12.56-12.55,25.17-.01,50.33-.01,75.5,0,8.37,0,12.67,4.3,12.68,12.77,.03,18.38-.04,36.77,.09,55.15,.01,1.8,.75,3.85,1.8,5.33,4.17,5.89,8.71,11.52,12.85,17.43,1.17,1.67,1.91,3.93,2.03,5.98,.29,4.91,.13,9.84,.08,14.77-.07,7.19-4.7,11.82-12.03,11.86-13.35,.07-26.7,.02-40.05,.02-1.17,0-2.35,0-3.89,0v4.19c0,20.24,0,40.49,0,60.73,0,12.33-6.77,19.11-19.06,19.12-22.1,0-44.21,0-66.31,0-1.3,0-2.6,0-4.36,0,0,1.5,0,2.77,0,4.04,0,34.36-.24,68.72,.14,103.07,.12,10.55-3.04,18.04-13.33,21.69H154.27c-7.15-2.05-11.77-6.62-13.79-13.79V158.84Zm11.36,19.96V447.41h167.66V178.8H151.84Zm296.53-22.33h-77.95v55.58h77.95v-55.58Zm-128.97,10.79c1.16-7.65,.02-11.15-9.23-11.11-49.86,.21-99.72,.1-149.58,.1-1.09,0-2.19-.05-3.28,.03-3.35,.25-5.41,2.31-5.61,5.68-.1,1.71-.02,3.44-.02,5.31h167.72ZM151.85,458.97c-.71,9.66,.55,11.05,9.65,11.05,49.86,0,99.72,0,149.58,0,1.2,0,2.42,.09,3.6-.08,2.66-.37,4.51-1.91,4.9-4.56,.31-2.09,.06-4.26,.06-6.41H151.85ZM465.35,246.16h-111.74v10.74h111.74v-10.74Zm-106.15-11.75h100.39c-2.6-3.48-4.8-6.61-7.23-9.54-.64-.77-2.01-1.34-3.04-1.34-26.58-.07-53.16-.06-79.74-.02-.9,0-2.16,.2-2.65,.8-2.6,3.17-5,6.5-7.73,10.11Z"/><path class="cls-1" d="M235.7,290.76c-19.9,0-39.81,0-59.71,0-8.75,0-13.13-4.36-13.14-13.07,0-24.93,0-49.87,0-74.8,0-8.68,4.4-13.05,13.16-13.05,39.81,0,79.61,0,119.42,0,8.78,0,13.11,4.33,13.11,13.08,0,24.93,0,49.87,0,74.8,0,8.73-4.35,13.04-13.14,13.04-19.9,0-39.81,0-59.71,0Zm61.5-89.53h-122.92v78.15h122.92v-78.15Z"/><path class="cls-1" d="M274.98,386.11c-.17,21.66-18.03,39.34-39.48,39.08-21.73-.26-39.26-18.02-39.02-39.54,.24-21.64,18.02-39.11,39.63-38.95,21.31,.16,39.04,18.13,38.87,39.4Zm-67.29-.33c-.14,15.31,12.41,28.06,27.77,28.22,15.43,.16,28.21-12.49,28.31-28.03,.11-15.19-12.67-28.02-27.95-28.06-15.34-.05-27.99,12.49-28.13,27.87Z"/><path class="cls-1" d="M235.77,335.5c-1.86,0-3.72,.04-5.58,0-6.26-.15-10.8-4.3-11.18-10.57-.25-4.14-.26-8.32,.01-12.46,.4-6.25,4.97-10.39,11.24-10.5,3.5-.06,7-.05,10.5,0,6.93,.08,11.51,4.47,11.79,11.4,.13,3.38,.09,6.78,.02,10.17-.15,7.5-4.68,11.92-12.21,11.98-1.53,.01-3.06,0-4.59,0Zm5.42-11.32v-10.86h-10.81v10.86h10.81Z"/><path class="cls-1" d="M185.35,335.48c-2.08,0-4.16,.08-6.23-.02-5.67-.27-10.21-4.58-10.47-10.21-.2-4.36-.21-8.75,0-13.12,.27-5.48,4.7-9.87,10.2-10.12,4.26-.2,8.53-.19,12.79,0,5.68,.24,10.16,4.83,10.43,10.69,.19,4.04,.2,8.1,0,12.13-.31,6.12-5,10.49-11.15,10.66-1.86,.05-3.72,0-5.58,0,0,0,0,0,0-.01Zm5.45-22.18h-10.84v10.77h10.84v-10.77Z"/><path class="cls-1" d="M286.08,335.5c-1.75,0-3.5,.03-5.25,0-6.68-.13-11.29-4.61-11.51-11.33-.12-3.6-.12-7.22,0-10.82,.23-6.86,4.88-11.31,11.8-11.38,3.5-.04,7-.06,10.5,0,6.41,.12,10.94,4.41,11.24,10.84,.19,3.93,.19,7.88,0,11.81-.3,6.44-4.8,10.72-11.21,10.88-1.86,.05-3.72,0-5.58,0Zm5.47-22.18h-10.83v10.76h10.83v-10.76Z"/><path class="cls-1" d="M174.03,425.28c1.97,0,3.94-.1,5.9,.02,3.02,.18,4.85,1.84,5.23,4.86,.37,2.93-1.36,5.72-4.32,5.97-4.44,.37-8.95,.35-13.39,.03-2.8-.2-4.65-2.9-4.55-5.55,.1-2.83,2.23-5.08,5.24-5.29,1.96-.14,3.93-.03,5.9-.03Z"/><path class="cls-1" d="M297.41,436.39c-1.97,0-3.95,.15-5.9-.03-3.35-.32-5.48-2.81-5.3-5.92,.17-3.01,2.31-5.06,5.66-5.16,3.71-.11,7.43-.12,11.14,.01,3.25,.11,5.42,2.35,5.5,5.35,.08,2.93-2.04,5.37-5.22,5.7-1.95,.2-3.93,.04-5.9,.04,0,0,0,0,0,.01Z"/><path class="cls-1" d="M409.12,178.62c-7,0-13.99,.02-20.99,0-4.24-.02-6.67-2.05-6.7-5.49-.03-3.42,2.48-5.67,6.59-5.68,14.21-.03,28.42-.03,42.63,0,4.21,0,6.64,2.1,6.67,5.56,.03,3.53-2.31,5.58-6.56,5.61-7.21,.04-14.43,.01-21.64,0Z"/><path class="cls-1" d="M395.15,201c-2.73,0-5.47,.09-8.2-.03-3.28-.15-5.42-2.31-5.52-5.32-.09-2.96,1.99-5.57,5.17-5.7,5.79-.22,11.59-.22,17.38-.03,3.37,.11,5.54,2.78,5.36,5.86-.17,2.97-2.38,5.08-5.67,5.2-2.84,.11-5.69,.02-8.53,.02Z"/><path class="cls-1" d="M428.93,201.02c-.76,0-1.53,.03-2.29,0-3.72-.16-5.93-2.24-5.94-5.54,0-3.27,2.24-5.44,5.93-5.63,1.74-.09,3.5-.12,5.23,.03,3.41,.29,5.53,2.61,5.45,5.75-.08,3.18-2.22,5.19-5.77,5.38-.87,.05-1.74,0-2.62,.01Z"/><path class="cls-1" d="M207.67,257.01h11.23c0-2.93,0-5.71,0-8.5,0-2.62-.08-5.25,.05-7.87,.19-3.71,2.41-5.91,5.69-5.85,3.14,.06,5.31,2.21,5.44,5.76,.15,4.15,.05,8.31,.06,12.46,0,1.19,0,2.38,0,3.85h11.23c0-3.34-.04-6.59,0-9.83,.06-4.22,2.12-6.7,5.51-6.73,3.37-.02,5.59,2.53,5.68,6.64,.07,3.06,.05,6.12,.09,9.18,0,.2,.15,.4,.43,1.07,5.34,0,10.88-.09,16.42,.04,3.05,.07,5.21,2.28,5.42,5.12,.2,2.72-1.8,5.29-4.7,5.84-1.17,.22-2.39,.17-3.59,.17-17.82,0-35.64,0-53.45,0-3.28,0-6.56,.04-9.84-.01-4.73-.07-6.86-2.11-6.87-6.81-.05-14.21-.05-28.42,0-42.63,.01-4.11,2.31-6.64,5.7-6.59,3.38,.05,5.46,2.53,5.47,6.75,.04,11.37,.01,22.74,.01,34.11,0,1.18,0,2.35,0,3.83Z"/><path class="cls-1" d="M235.62,402.69c-9.24-.06-16.64-7.48-16.63-16.69,0-9.35,7.53-16.88,16.87-16.87,9.05,.01,16.74,7.74,16.7,16.76-.05,9.36-7.6,16.86-16.93,16.8Zm5.68-16.88c-.08-3.06-2.74-5.56-5.79-5.44-3.07,.13-5.45,2.76-5.3,5.88,.14,3,2.56,5.26,5.57,5.22,3.13-.04,5.6-2.57,5.52-5.66Z"/></g></g></svg>