<?xml version="1.0" encoding="UTF-8"?><svg id="Layer_1" xmlns="http://www.w3.org/2000/svg" viewBox="0 0 617.18 617.18"><defs><style>.cls-1{fill:#00aeef;}</style></defs><path class="cls-1" d="M308.59,617.19C138.44,617.19,0,478.75,0,308.59S138.44,0,308.59,0s308.59,138.44,308.59,308.59-138.44,308.59-308.59,308.59Zm0-609.86C142.48,7.33,7.33,142.48,7.33,308.59s135.15,301.26,301.26,301.26,301.26-135.15,301.26-301.26S474.71,7.33,308.59,7.33Z"/><g><path class="cls-1" d="M172.52,389.55c-15.21,0-29.01-12.62-38.86-35.54-9.06-21.09-14.06-48.98-14.06-78.53s4.99-57.44,14.06-78.53c9.85-22.92,23.65-35.54,38.86-35.54s29.01,12.62,38.86,35.54c9.06,21.09,14.06,48.98,14.06,78.53s-4.99,57.44-14.06,78.53c-9.85,22.92-23.65,35.54-38.86,35.54Zm0-214.5c-18.58,0-39.29,41.25-39.29,100.44,0,27.74,4.6,53.72,12.95,73.15,7.46,17.34,17.06,27.29,26.34,27.29,18.58,0,39.29-41.25,39.29-100.44,0-27.74-4.6-53.72-12.95-73.15-7.46-17.34-17.06-27.29-26.34-27.29Z"/><path class="cls-1" d="M379.56,389.55v-13.63c18.58,0,39.29-41.25,39.29-100.44,0-27.74-4.6-53.72-12.95-73.15-7.46-17.34-17.06-27.29-26.34-27.29v-13.63c15.21,0,29.01,12.62,38.86,35.54,9.06,21.09,14.06,48.98,14.06,78.53s-4.99,57.44-14.06,78.53c-9.85,22.92-23.65,35.54-38.86,35.54Z"/><path class="cls-1" d="M172.52,316.93c-14.25,0-21.7-20.85-21.7-41.45s7.45-41.45,21.7-41.45,21.7,20.85,21.7,41.45-7.45,41.45-21.7,41.45Zm-.04-69.28c-1.87,.43-8.03,9.63-8.03,27.83s6.16,27.4,8.12,27.83c1.87-.43,8.03-9.63,8.03-27.83s-6.16-27.4-8.12-27.83Z"/><rect class="cls-1" x="172.52" y="161.42" width="207.05" height="13.63"/><path class="cls-1" d="M499.7,479.11h-226.19l-119.27-103.19h227.9l117.57,103.19Zm-221.12-13.63h184.94l-86.52-75.94H190.81l87.77,75.94Z"/></g></svg>