<?xml version="1.0" encoding="UTF-8"?><svg id="Layer_1" xmlns="http://www.w3.org/2000/svg" viewBox="0 0 617.18 617.18"><defs><style>.cls-1{fill:#00aeef;}</style></defs><path class="cls-1" d="M308.59,617.62C138.44,617.62,0,479.18,0,309.02S138.44,.43,308.59,.43s308.59,138.44,308.59,308.59-138.44,308.59-308.59,308.59Zm0-609.86C142.48,7.76,7.33,142.91,7.33,309.02s135.15,301.26,301.26,301.26,301.26-135.15,301.26-301.26S474.71,7.76,308.59,7.76Z"/><g id="hDMqJi"><g><path class="cls-1" d="M310.58,400.97c-10.28-4.23-20.06-7.75-29.33-12.29-4.34-2.13-8.29-5.76-11.42-9.54-6.28-7.59-5.44-16.51,1.76-23.21,9.5-8.83,21.18-13.85,33.37-17.45,9.06-2.68,18.46-4.21,28.15-6.35,1.5-11.69,4.26-23.9,9.35-35.42,2.11-4.78,4.72-9.45,7.8-13.66,5.75-7.85,12.41-8.92,20.61-3.71,9.4,5.97,16.11,14.62,22.61,23.42,2.07,2.8,3.97,5.72,6.65,9.59,7.94-8.24,15.64-16.09,23.15-24.12,2.73-2.91,5.2-6.11,7.39-9.45,1.11-1.69,1.71-3.95,1.85-6,.23-3.3-1.91-4.98-5.12-4.56-3.77,.5-6.54-1.07-7.4-4.19-.84-3.08,.77-6.02,4.13-7.53,5.5-2.47,13.01,.1,17.12,5.97,4.02,5.75,4.4,12.11,1.63,18.26-2.03,4.5-4.69,8.98-8.02,12.58-8.26,8.92-16.9,17.51-25.75,25.85-2.91,2.75-3.97,5-1.91,8.47,.5,.84,.75,1.83,1.2,2.96,13.15-4.91,26.7-7.13,40.57-6.71,5.83,.18,11.79,.93,17.38,2.53,8.67,2.47,11.91,7.96,10.48,16.91-3.79,23.72-15.4,42.64-35.24,56.37-1.02,.7-2.05,1.39-2.52,1.71,4.4,7.97,9.21,15.48,12.81,23.52,4.45,9.94,6.54,20.52,4.95,31.55-1.22,8.45-4.54,11.85-13.04,12.98-14.42,1.91-27.83-1.91-40.91-7.43-10.37-4.38-19.57-10.59-27.08-17.35-7.07,6.54-13.68,13.24-20.92,19.17-6.56,5.37-13.76,9.98-20.81,14.74-1.83,1.23-4.08,1.93-6.23,2.57-7.04,2.09-11.51,.37-15.31-5.94-4.32-7.17-5.75-15.19-6.29-23.37-.74-11.21,.55-22.24,3.95-33.6-6.93,5.82-13.26,11.28-19.75,16.55-6.31,5.13-13.28,9.03-21.49,10.16-6.87,.94-12.92-.99-18.04-5.65-2.95-2.68-3.32-5.98-1.13-8.67,2.11-2.59,5.78-3.01,8.71-.54,4.71,3.97,9.86,3.93,14.72,1.2,5.21-2.92,10.2-6.38,14.79-10.21,7.85-6.55,15.3-13.57,22.61-20.12Zm36.74-47.5c6.37-2.54,12.51-2.25,18.44-.38,4.96,1.56,8.79,.22,13.03-2.3,4-2.38,8.56-4,13.08-5.25,2.25-.62,4.23-1.08,4.69-3.4,.46-2.29,.95-4.94,.26-7.05-5.67-17.38-16.31-31.49-29.69-43.62-4.89-4.43-6.25-4.08-9.6,1.84-6.61,11.71-10.4,24.36-12.27,37.64-1.06,7.55-.9,14.96,2.07,22.51Zm38.51,62.08c-1.54,6.05-2.93,11.23-4.12,16.45-.17,.76,.29,1.99,.88,2.54,15.66,14.4,33.63,23.48,55.37,23.49,6.54,0,7.63-1.1,7.49-7.66-.3-14.34-5.91-26.82-14.42-38-3.64-4.79-8.18-8.9-12.75-13.78-6.6,15.73-17.85,20.35-32.45,16.96Zm-20.33-50.3c-1.98-.37-4.65-1.09-7.36-1.33-6.45-.57-9.28,1.58-10.64,7.87-.66,3.06-.81,6.26-1.75,9.21-2.46,7.74,0,14.33,4.45,20.43,4.32,5.94,7.13,6.9,14.23,4.8,9.04-2.68,18.16-3.43,27.49-2.07,6.94,1.01,10.78-1.2,13.78-7.64,4.68-10.05,1.57-28.51-6.1-36.47-2.76-2.87-5.85-3.54-9.55-1.98-11.57,4.89-13.24,8.34-9.65,20.38,.25,.84,.56,1.66,.82,2.49,1.33,4.25,.02,7.54-3.44,8.64-3.56,1.14-6.72-.49-7.91-4.82-1.67-6.12-2.81-12.39-4.37-19.51Zm40.98-15.71c8.61,10.38,12.3,17.51,13.07,28.96,.38,5.67,2.09,9.41,6.93,12.4,2.46,1.52,3.95,1.64,6.25,.17,17.44-11.16,27.52-27.28,31.93-47.21,1.13-5.11,.43-6.25-4.81-7.06-15.41-2.37-30.47-.53-45.12,4.53-3.93,1.36-6.5,4.5-8.24,8.19Zm-33.98,67.17c-2.83,.7-5.27,1.26-7.68,1.9-7.39,1.97-13.98,.5-19.44-4.86-2.66-2.61-4.92-5.65-7.21-8.61-2.11-2.73-8.09-3.02-9.54-.21-9.07,17.55-13.42,35.99-8.84,55.58,2.67,11.4,2.78,10.61,12.23,5.33,14.48-8.08,25.71-19.92,35.48-33.14,3.32-4.49,5.02-9.74,4.99-15.99Zm-40.07-71.14c-1.11,0-2.6-.08-4.08,.01-9.5,.58-18.56,3.1-27.14,7.01-6.92,3.15-13.64,6.81-20.11,10.82-4.25,2.63-4.57,5.46-1.04,8.97,3.22,3.21,6.98,6.43,11.13,8.03,8.71,3.37,17.77,5.89,26.81,8.34,4.75,1.29,9.73,1.69,14.77,2.53,0-2.53-.3-4.45,.05-6.25,1.37-6.99,2.98-13.94,4.4-20.92,.23-1.13,.2-2.42-.12-3.52-1.4-4.79-2.95-9.53-4.67-15.01Z"/><path class="cls-1" d="M157.96,295.43c5.03-28.11,32.81-42.27,57.61-41.68,9.42,.23,18.33,2.34,26.24,5.78,.49-6.4,.16-13.04,1.63-19.25,4.53-19.11,22.9-30.68,42.86-27.38,22.04,3.64,37.25,16.19,46.4,36.39,.51,1.14,.97,2.3,1.7,4.03,.73-1.57,1.3-2.7,1.8-3.86,10.52-24.52,21.03-49.05,31.54-73.57,.3-.69,.57-1.39,.88-2.08,1.87-4.16,4.84-5.78,8.18-4.47,3.54,1.39,4.73,4.86,2.95,9.11-5.42,12.94-10.83,25.89-16.36,38.78-12.01,27.97-24.17,55.88-36.08,83.89-2.02,4.75-4.92,6.45-10.05,6.44-57.58-.14-115.17-.09-172.76-.09h-4.69c.31,11.25,2.26,21.8,6.07,31.92,9.91,26.36,26.77,46.08,54.37,54.72,6.96,2.18,14.48,3.3,21.78,3.54,15.79,.53,31.61,.18,47.42,.19,1.13,0,2.28-.1,3.38,.07,3.27,.5,5.18,2.45,5.41,5.77,.22,3.1-2.17,6.15-5.41,6.09-22.3-.45-44.78,2.37-66.85-1.74-28.98-5.4-49.73-22.67-63.92-48.07-9.87-17.66-14.46-36.75-14.34-56.97,.03-5.43,2.1-7.54,7.48-7.56,7.52-.03,15.04,0,22.76,0Zm101.1-.14c-2.22-4.41-3.62-8.63-6.16-11.99-9.43-12.46-22.73-17.22-37.83-17.4-15.39-.18-28.88,4.54-38.89,16.88-2.9,3.58-5,7.65-5.49,12.51h88.37Zm-1.68-58.02c-7.84,14.28-1.39,35.12,14.63,48.16,14.09,11.47,32.67,12.37,39.85,6.26-18.12-18.11-36.27-36.23-54.48-54.42Zm10.08-9.6c18.06,18.05,36.23,36.21,54.3,54.26,7.07-12.01,2.42-31.08-11.23-44.29-13.2-12.77-32.19-16.92-43.07-9.97Z"/><path class="cls-1" d="M158.46,189.91c-.08-31.55,30.24-59.27,61.65-56.35,19.46,1.81,33.95,18.93,33.01,39.01-1.38,29.4-26.27,54.22-55.72,55.57-21.83,1-38.88-15.75-38.94-38.23Zm79.31-31.59c-18.19,18.17-36.32,36.27-54.39,54.32,11.23,7.3,30.39,2.98,43.7-10.1,13.49-13.26,18.06-32.66,10.69-44.22Zm-63.97,44.92c18.19-18.28,36.28-36.46,54.3-54.56-12.11-7.19-30.43-2.86-44.32,10.77-12.7,12.46-17.04,31.59-9.98,43.8Z"/></g></g></svg>