<?xml version="1.0" encoding="UTF-8"?><svg id="Layer_1" xmlns="http://www.w3.org/2000/svg" viewBox="0 0 617.18 617.18"><defs><style>.cls-1{fill:#00aeef;}</style></defs><path class="cls-1" d="M308.59,617.19C138.44,617.19,0,478.75,0,308.59S138.44,0,308.59,0s308.59,138.44,308.59,308.59-138.44,308.59-308.59,308.59Zm0-609.86C142.48,7.33,7.33,142.48,7.33,308.59s135.15,301.26,301.26,301.26,301.26-135.15,301.26-301.26S474.71,7.33,308.59,7.33Z"/><g><path class="cls-1" d="M327.97,433.98c-10.21,7.26-20.93,13.07-32.55,17.08-32.26,11.12-64.16,10.17-95.29-3.86-34.03-15.34-56.93-41.17-69.26-76.32-4.11-11.71-6-23.93-6.51-36.33-.2-4.85,2.73-8.29,6.94-8.42,4.05-.13,7.16,2.89,7.4,7.66,.8,15.62,3.99,30.68,10.96,44.73,16.45,33.13,42.54,54.62,78.7,62.77,31.77,7.16,61.4,1.1,88.45-17.16,.19-.13,.32-.35,.68-.75-19.83-24.72-27.69-52.81-21.34-84.08,6.35-31.31,24.66-54,52.77-69.26-6.47-10.58-14.41-19.64-23.84-27.35-23.54-19.23-50.69-28.52-80.87-25.71-45.49,4.24-77.84,27.88-96.74,69.63-.69,1.53-1.22,3.13-1.92,4.65-2,4.3-5.82,6-9.65,4.36-3.62-1.55-5.51-5.64-3.61-9.66,4.3-9.07,8.18-18.52,13.75-26.79,19.95-29.64,47.71-47.96,82.87-54.87,.58-.11,1.13-.36,2.01-.65-.22-1.5-.43-2.97-.56-3.88-8.7,.57-17.06,1.96-25.32,1.49-17.12-.98-32.66-6.58-44.64-19.52-2.7-2.92-4.66-6.66-6.41-10.28-1.64-3.42-.38-6.52,2.56-8.92,21.05-17.18,52.25-16.12,72.2,2.46,.95,.88,1.94,1.72,2.82,2.5,2.18-3.65,3.94-7.35,6.37-10.54,4.54-5.98,10.55-9.55,18.33-8.46,9.45,1.33,14.88,10.11,13.07,20.53-.88,5.06-2.34,10.12-2.38,15.19-.04,5.56,1.11,11.16,2.09,16.68,.19,1.05,1.85,2.45,3,2.64,27.77,4.48,51.76,16.48,71.38,36.61,6.48,6.65,11.81,14.45,17.45,21.89,1.39,1.83,2.37,2.32,4.66,1.7,33.15-9.02,63.71-3.35,90.39,18.24,26.13,21.14,38.02,49.29,36.81,82.9-.16,4.59-2.35,7.42-5.77,8.05-3.5,.65-6.8-.85-7.91-4.09-.63-1.85-.66-3.99-.6-5.99,.39-14.65-2.24-28.67-9.05-41.72-13.52-25.87-34.66-41.77-63.55-45.98-44.96-6.55-85.23,21.69-95.56,66.14-8.38,36.06,10.56,76.57,43.78,93.05,30.18,14.97,59.66,13.02,87.63-5.48,6.97-4.61,12.45-11.48,18.54-17.38,1.19-1.15,2.04-2.66,3.07-3.98,3.52-4.5,7.5-5.5,11.08-2.8,3.52,2.65,3.82,6.96,.45,11.46-24.07,32.16-56,46.19-95.97,41.15-17.79-2.24-33.53-9.52-47.52-20.68-1.03-.82-2.07-1.62-3.41-2.66Zm-101.63-249.26c-13.15-22.66-42.31-24.32-56.06-13.62,10.33,13.4,36.84,19.89,56.06,13.62Zm27.34,17.27c.14-.47,.31-.72,.27-.93-2.17-11.69-2.48-23.3,1.22-34.8,.3-.92-.47-2.18-.74-3.28-1.19,.38-2.99,.41-3.46,1.21-2.35,4.07-5.11,8.14-6.32,12.59-2.26,8.35-.29,16.82,.76,25.21h8.27Z"/><path class="cls-1" d="M393.09,435.47c-42.4-.56-76.35-35.04-75.86-77.03,.49-42.29,35.19-76.26,77.19-75.59,42.01,.68,75.95,35.2,75.42,76.73-.53,42.13-35.22,76.43-76.75,75.88Zm49.77-113.25c-9.85,9.85-19.73,19.73-29.38,29.38h41.14c-.77-10.43-6.13-23.23-11.76-29.38Zm-57.07,98.17v-42.11c-10.09,10.06-19.95,19.9-29.89,29.8,8.62,6.69,18.69,10.93,29.89,12.31Zm-53.53-68.78h41.07c-9.59-9.62-19.48-19.53-29.35-29.43-6.11,7.9-10.45,17.94-11.72,29.43Zm53.81-53.79c-11.64,1.4-21.68,5.68-29.18,11.55,9.88,9.9,19.75,19.8,29.18,29.26v-40.81Zm44.57,11.93c-8.21-6.24-18.19-10.67-29.53-11.85v41.41c9.72-9.73,19.57-19.59,29.53-29.56Zm-57.23,56.93h-40.92c.02,8.71,5.42,21.88,11.57,29.35,9.81-9.81,19.72-19.72,29.35-29.35Zm81.35,.06h-41.65c9.84,9.84,19.75,19.75,29.62,29.62,6.43-8.3,10.63-18.31,12.02-29.62Zm-24.11,41.68c-9.89-9.9-19.79-19.8-29.56-29.57v41.57c11.29-1.47,21.39-5.63,29.56-12.01Zm-31.08-49.42c-.05-3.39-2.96-6.22-6.28-6.09-3.14,.12-5.95,2.98-6,6.1-.06,3.34,2.78,6.16,6.2,6.16,3.49,0,6.14-2.68,6.09-6.17Z"/><path class="cls-1" d="M278.09,229.39c3.01,.95,7.3,2.06,11.42,3.63,10.36,3.96,19.87,9.47,28.53,16.41,3.87,3.09,4.59,7.16,1.97,10.68-2.27,3.04-6.75,3.72-10.27,.97-10.42-8.15-21.95-13.97-34.62-17.73-4.36-1.29-6.16-4.62-5.38-8.49,.65-3.23,3.6-5.53,8.34-5.47Z"/><path class="cls-1" d="M133.77,314.7c-3.92,.08-7.11-2.92-7.25-6.82-.15-4.02,3.03-7.45,6.98-7.52,3.82-.07,7.11,3.04,7.27,6.88,.17,4.05-2.95,7.38-6.99,7.46Z"/><path class="cls-1" d="M235.1,320.59c-.06,4.08-3.31,7.23-7.37,7.14-3.87-.09-6.94-3.3-6.91-7.21,.04-3.99,3.45-7.32,7.36-7.18,3.83,.14,6.97,3.43,6.92,7.25Z"/><path class="cls-1" d="M178.21,347.89c-3.92,.03-7.04-3.02-7.12-6.95-.08-4.03,3.17-7.45,7.08-7.44,3.8,0,7.1,3.23,7.17,7.02,.08,4.08-3.07,7.34-7.13,7.37Z"/><path class="cls-1" d="M320.68,269.05c0-3.94,3.16-7.07,7.1-7.03,3.9,.04,7.02,3.17,7.12,7.12,.09,3.81-3.23,7.27-6.96,7.25-4.13-.03-7.25-3.19-7.26-7.34Z"/><path class="cls-1" d="M220.91,372.01c.03,4.19-3.01,7.38-7.05,7.39-3.83,.01-7.03-3.2-7.05-7.06-.02-4.16,3.06-7.35,7.09-7.35,3.94,0,6.98,3.04,7.01,7.01Z"/><path class="cls-1" d="M472.6,392.23c-.06-4,2.91-7.2,6.79-7.31,3.94-.12,7.24,2.88,7.38,6.73,.16,4.1-2.99,7.49-7,7.52-3.93,.03-7.11-3.04-7.18-6.94Z"/><path class="cls-1" d="M214.92,419.19c.07-4.02,3.15-7.17,7-7.17,3.93,0,7.11,3.17,7.11,7.08,0,4.21-3.12,7.37-7.23,7.32-3.93-.05-6.95-3.22-6.88-7.22Z"/></g></svg>