<?xml version="1.0" encoding="UTF-8"?><svg id="Layer_1" xmlns="http://www.w3.org/2000/svg" viewBox="0 0 617.18 617.18"><defs><style>.cls-1{fill:#00aeef;}</style></defs><path class="cls-1" d="M308.59,617.62C138.44,617.62,0,479.18,0,309.02S138.44,.43,308.59,.43s308.59,138.44,308.59,308.59-138.44,308.59-308.59,308.59Zm0-609.86C142.48,7.76,7.33,142.91,7.33,309.02s135.15,301.26,301.26,301.26,301.26-135.15,301.26-301.26S474.71,7.76,308.59,7.76Z"/><g id="fcJFbf"><g><path class="cls-1" d="M452.84,193.72c2.89,4.43,6.02,8.37,8.22,12.78,5.9,11.81,6.28,23.54-1.55,34.88-.6,.86-.69,2.54-.29,3.56,10.09,25.72,7.67,50.24-6.86,73.63-11.48,18.48-21.95,37.71-34.76,55.22-37.13,50.7-87.13,81.66-148.93,93.24-21.87,4.1-43.98,5.64-66.06,2.12-28.66-4.57-52.58-18.13-71.93-39.77-1.67-1.87-2.98-4.17-1.35-6.18,1.23-1.52,3.78-2.91,5.66-2.8,13.72,.74,27.4,2.26,41.13,2.82,61.13,2.49,114.72-40.33,125.43-100.49,3.21-18.06,5.39-36.32,7.51-54.55,3.88-33.33,25.45-59.16,57.66-68.51,1.18-.34,2.61-1.41,3.04-2.49,5.64-14.19,16.94-20.44,31.26-22.2,4.31-.53,8.77-.36,13.1,.1,2.62,.28,4.11-.16,5.74-2.31,8.65-11.38,18.58-21.54,29.6-30.65,9.13-7.55,21.19-6.78,28.32,1.86,7.15,8.66,5.77,20.76-3.45,28.12-8.12,6.47-15.6,13.51-21.48,21.64ZM147.53,431.78c.36,.43,.6,.83,.94,1.13,18.8,16.27,40.56,25.71,65.38,27.44,18.26,1.27,36.46,.02,54.46-3.48,55.85-10.87,101.54-38.57,136.88-83.14,16.07-20.27,28.45-42.99,41.19-65.36,12.78-22.43,12.2-45.62-.96-68.01-20.06-34.12-65.95-43.62-98.03-20.44-18.05,13.05-26.41,31.27-28.86,53.04-2.1,18.71-4.41,37.47-8.05,55.93-11.55,58.55-65.05,103.18-124.77,104.41-12.61,.26-25.24-.97-38.18-1.53Zm233.6-234.96c30.58-.71,54.33,10.94,72.23,36.31,.73-3.4,1.63-5.92,1.76-8.48,.52-9.99-4.35-17.69-10.99-24.51-4.07-4.18-4.22-5.41-.86-10.3,6.67-9.7,14.85-17.94,24.07-25.24,2.03-1.61,3.77-4.19,4.51-6.67,1.15-3.87-.94-7.58-4.35-9.57-3.61-2.11-7.62-1.78-11.17,1.17-11.63,9.69-22.08,20.54-31.05,32.74-2.34,3.18-4.89,3.99-8.74,3.5-5.25-.66-10.67-1.09-15.91-.56-7.83,.79-14.59,4.12-19.51,11.59Z"/><path class="cls-1" d="M395.96,226.59v9.49c-24.26,2.14-39.56,14.82-45.56,39.04-3.03-.45-6.18-.92-9.31-1.39,2.42-24.97,27.2-48.08,54.88-47.14Z"/></g></g></svg>