<?xml version="1.0" encoding="UTF-8"?><svg id="Layer_1" xmlns="http://www.w3.org/2000/svg" viewBox="0 0 617.18 617.18"><defs><style>.cls-1{fill:#00aeef;}</style></defs><path class="cls-1" d="M308.59,617.19C138.44,617.19,0,478.75,0,308.59S138.44,0,308.59,0s308.59,138.44,308.59,308.59-138.44,308.59-308.59,308.59Zm0-609.86C142.48,7.33,7.33,142.48,7.33,308.59s135.15,301.26,301.26,301.26,301.26-135.15,301.26-301.26S474.71,7.33,308.59,7.33Z"/><g><path class="cls-1" d="M230.42,478.32c17.5,17.5,41.95,26,73.8,26.07,30.14,.06,54.42-8.9,72.17-26.65,23.29-23.29,35.04-61.67,34.94-114.07-.21-106.73-70.48-127.27-71.18-127.46-1.81-.5-3.68,.57-4.19,2.38-.5,1.81,.57,3.69,2.37,4.19,2.69,.76,65.98,19.57,66.18,120.91,.1,50.51-10.98,87.27-32.94,109.23-16.42,16.42-39.07,24.71-67.33,24.65-43.18-.08-100.61-14.11-100.85-134.33-.21-103.03,62.93-119.91,65.61-120.58,1.83-.45,2.94-2.3,2.49-4.12-.45-1.84-2.29-2.94-4.12-2.5-.71,.17-71.03,18.58-70.8,127.22,.11,54.34,11.09,92.29,33.85,115.05Z"/><path class="cls-1" d="M192.87,155.1c.58,.58,1.37,.95,2.23,1,39.33,2.06,49.46,34.69,49.87,36.08,.52,1.78,2.42,2.83,4.23,2.3,1.8-.53,2.84-2.41,2.31-4.22-.1-.33-8.72-28.61-39.19-38.04,19.95-3,53.5-2.27,70.69,30.53,.87,1.69,2.93,2.31,4.6,1.44,1.67-.88,2.31-2.93,1.44-4.6-27.61-52.78-94.22-30.34-94.89-30.11-1.54,.53-2.48,2.09-2.26,3.7,.11,.76,.46,1.42,.97,1.93Z"/><path class="cls-1" d="M285.91,241.84c1.13,1.13,2.95,1.34,4.33,.4,1.56-1.06,1.96-3.18,.89-4.74-6.07-8.9-22.94-40.67,14.72-75.64,1.38-1.28,1.45-3.44,.18-4.82-1.34-1.61-3.44-1.46-4.82-.18-42.71,39.68-20.58,77.34-15.71,84.49,.12,.18,.26,.34,.41,.49Z"/><path class="cls-1" d="M173.09,222.26c.75,.75,1.83,1.13,2.92,.96,61.2-9.32,89.33,18.12,89.74,18.53h0s0,.01,.01,.02c1.32,1.32,3.47,1.33,4.8,.02,1.34-1.32,1.37-3.47,.05-4.81-1.34-1.31-26.99-26.91-83.96-21.91,17.4-12.98,57.05-36.05,89.91-7.07,1.41,1.25,3.57,1.11,4.81-.3,1.24-1.41,1.25-3.41-.3-4.81-47.2-41.63-107.33,13.91-107.93,14.48-1.09,1.02-1.38,2.63-.73,3.98,.17,.35,.39,.65,.65,.92Z"/><path class="cls-1" d="M275.39,171.3c.65,.65,1.57,1.04,2.57,.99,1.88-.09,3.33-1.68,3.25-3.56-.02-.38-1.34-37.08,22.07-61.13,23.96,27.41,21.7,61.94,21.67,62.29-.16,1.88,1.26,3.51,3.14,3.65,1.88,.15,3.51-1.25,3.66-3.13,.12-1.62,2.72-40.03-25.85-70.06l-.06-.06c-1.29-1.29-3.37-1.34-4.72-.1-28.33,26.12-26.79,67.11-26.71,68.85,.04,.88,.42,1.67,1,2.25Z"/><path class="cls-1" d="M318.7,183.64c.24,.24,.52,.45,.84,.61,1.67,.87,3.73,.22,4.6-1.45,16.74-32.17,50.21-33,70.25-30.12-30.18,9.44-38.62,37.47-38.72,37.8-.53,1.8,.5,3.68,2.33,4.22,1.8,.52,3.69-.52,4.22-2.32,.41-1.38,10.38-33.94,49.7-35.85,1.63-.08,2.97-1.3,3.21-2.91,.24-1.61-.71-3.17-2.24-3.71-.67-.23-67.37-22.93-94.79,29.75-.7,1.35-.41,2.96,.61,3.98Z"/><path class="cls-1" d="M316.59,241.99c.15,.15,.32,.29,.49,.41,1.55,1.06,3.67,.66,4.73-.89,4.87-7.13,27.02-44.59-15.97-84.64-1.37-1.28-3.53-1.2-4.82,.17-1.28,1.38-1.37,3.45,.18,4.82,37.93,35.2,21.05,66.92,14.98,75.8-.94,1.37-.74,3.19,.4,4.33Z"/><path class="cls-1" d="M336.79,241.91l.02,.02c1.34,1.32,3.49,1.3,4.82-.04,.28-.28,28.27-27.74,89.66-18.15,1.47,.23,2.93-.53,3.59-1.87,.66-1.34,.53-2.75-.73-3.98-.6-.57-60.95-56.34-107.99-14.9-1.41,1.25-1.55,3.4-.3,4.81,1.35,1.54,3.4,1.54,4.81,.3,32.15-28.33,72.07-5.48,89.71,7.42-56.74-5.12-82.48,20.43-83.61,21.59-1.31,1.34-1.29,3.47,.03,4.79Z"/><path class="cls-1" d="M243.3,301.01c1.33,1.33,3.49,1.33,4.82,0l11.88-11.88c6.1-6.1,16.04-6.07,22.17,.06l17.28,17.28c1.33,1.33,3.49,1.33,4.82,0,1.33-1.33,1.33-3.49,0-4.82l-17.28-17.28c-8.78-8.78-23.06-8.81-31.81-.06l-11.88,11.88c-1.33,1.33-1.33,3.49,0,4.82Z"/><path class="cls-1" d="M213.44,330.88c1.33,1.33,3.49,1.33,4.82,0l10.57-10.57c6.37-6.37,16.76-6.35,23.16,.05l16.78,16.78c1.33,1.33,3.49,1.33,4.82,0,1.33-1.33,1.33-3.49,0-4.82l-16.78-16.78c-9.06-9.06-23.78-9.08-32.81-.05l-10.57,10.57c-1.33,1.33-1.33,3.49,0,4.82Z"/><path class="cls-1" d="M211.7,394.22c1.33,1.33,3.49,1.33,4.82,0l11.43-11.43c6.92-6.92,18.2-6.89,25.15,.06l11.92,11.92c1.33,1.33,3.49,1.33,4.82,0,1.33-1.33,1.33-3.49,0-4.82l-11.92-11.92c-9.61-9.61-25.22-9.64-34.79-.06l-11.43,11.43c-1.33,1.33-1.33,3.49,0,4.82Z"/><path class="cls-1" d="M246.73,359.19c1.33,1.33,3.49,1.33,4.82,0l5.39-5.39c7.86-7.86,20.67-7.83,28.56,.07l11.43,11.43c1.33,1.33,3.49,1.33,4.82,0s1.33-3.49,0-4.82l-11.43-11.43c-10.55-10.55-27.69-10.58-38.2-.07l-5.39,5.39c-1.33,1.33-1.33,3.49,0,4.82Z"/><path class="cls-1" d="M210.43,347.01c.51,.51,1.19,.87,1.95,.97,4.43,.6,8.46,2.6,11.63,5.77l14.08,14.08c1.33,1.33,3.49,1.33,4.82,0,1.33-1.33,1.33-3.49,0-4.82l-14.08-14.08c-4.24-4.24-9.61-6.9-15.54-7.7-1.87-.25-3.58,1.05-3.83,2.92-.15,1.1,.24,2.14,.97,2.86Z"/><path class="cls-1" d="M273.65,270.66c1.33,1.33,3.49,1.33,4.82,0l11.6-11.6c6.43-6.43,16.92-6.41,23.39,.06l12.77,12.77c1.33,1.33,3.49,1.33,4.82,0,1.33-1.33,1.33-3.49,0-4.82l-12.77-12.77c-9.12-9.12-23.94-9.15-33.03-.06l-11.6,11.6c-1.33,1.33-1.33,3.49,0,4.82Z"/><path class="cls-1" d="M307.59,298.33c1.33,1.33,3.49,1.33,4.82,0l6.43-6.43c7.55-7.55,19.88-7.52,27.46,.07l11.9,11.9c1.33,1.33,3.49,1.33,4.82,0,1.33-1.33,1.33-3.49,0-4.82l-11.9-11.9c-10.25-10.25-26.89-10.28-37.11-.07l-6.43,6.43c-1.33,1.33-1.33,3.49,0,4.82Z"/><path class="cls-1" d="M308.37,359.16c1.33,1.33,3.49,1.33,4.82,0l3.68-3.68c8.7-8.7,22.9-8.67,31.65,.07l12.53,12.53c1.33,1.33,3.49,1.33,4.82,0,1.33-1.33,1.33-3.49,0-4.82l-12.53-12.53c-11.4-11.4-29.92-11.44-41.29-.07l-3.68,3.68c-1.33,1.33-1.33,3.49,0,4.82Z"/><path class="cls-1" d="M369.63,359.5c1.33,1.33,3.49,1.33,4.82,0l3.9-3.9c4.49-4.49,10.71-6.85,17.07-6.48,1.88,.11,3.49-1.33,3.6-3.21,.11-1.87-1.32-3.49-3.21-3.6-8.3-.48-16.42,2.61-22.28,8.47l-3.9,3.9c-1.33,1.33-1.33,3.49,0,4.82Z"/><path class="cls-1" d="M278.06,327.86c1.33,1.33,3.49,1.33,4.82,0l6.1-6.1c7.1-7.1,18.68-7.07,25.81,.06l15.46,15.46c1.33,1.33,3.49,1.33,4.82,0s1.33-3.49,0-4.82l-15.46-15.46c-9.79-9.79-25.69-9.82-35.45-.06l-6.1,6.1c-1.33,1.33-1.33,3.49,0,4.82Z"/><path class="cls-1" d="M339.38,328.15c1.33,1.33,3.49,1.33,4.82,0l4.29-4.29c8.19-8.19,21.55-8.16,29.78,.07l9.03,9.03c1.33,1.33,3.49,1.33,4.82,0s1.33-3.49,0-4.82l-9.03-9.03c-10.89-10.89-28.57-10.92-39.42-.07l-4.29,4.29c-1.33,1.33-1.33,3.49,0,4.82Z"/><path class="cls-1" d="M276.8,390.73c1.33,1.33,3.49,1.33,4.82,0l5.62-5.62c8.13-8.13,21.38-8.1,29.55,.07l11.04,11.04c1.33,1.33,3.49,1.33,4.82,0s1.33-3.49,0-4.82l-11.04-11.04c-10.82-10.82-28.41-10.86-39.19-.07l-5.62,5.62c-1.33,1.33-1.33,3.49,0,4.82Z"/><path class="cls-1" d="M246.85,420.68c1.33,1.33,3.49,1.33,4.82,0l9.46-9.46c5.61-5.61,14.77-5.59,20.41,.05l15.51,15.51c1.33,1.33,3.49,1.33,4.82,0,1.33-1.33,1.33-3.49,0-4.82l-15.51-15.51c-8.3-8.3-21.78-8.32-30.05-.05l-9.46,9.46c-1.33,1.33-1.33,3.49,0,4.82Z"/><path class="cls-1" d="M213.6,407c.34,.34,.75,.61,1.23,.79,1.96,.72,3.72,1.85,5.23,3.35l15.52,15.52c1.33,1.33,3.49,1.33,4.82,0,1.33-1.33,1.33-3.49,0-4.82l-15.52-15.52c-2.21-2.21-4.79-3.87-7.69-4.93-1.77-.64-3.72,.26-4.38,2.02-.47,1.29-.12,2.68,.79,3.59Z"/><path class="cls-1" d="M278.32,450.82c1.33,1.33,3.49,1.33,4.82,0l5.44-5.44c7.46-7.46,19.64-7.43,27.13,.07l12.25,12.25c1.33,1.33,3.49,1.33,4.82,0,1.33-1.33,1.33-3.49,0-4.82l-12.25-12.25c-10.16-10.16-26.65-10.19-36.78-.07l-5.44,5.44c-1.33,1.33-1.33,3.49,0,4.82Z"/><path class="cls-1" d="M338.85,390.29c1.33,1.33,3.49,1.33,4.82,0l6.16-6.16c7.52-7.52,19.79-7.5,27.35,.07l14.68,14.68c1.33,1.33,3.49,1.33,4.82,0,1.33-1.33,1.33-3.49,0-4.82l-14.68-14.68c-10.22-10.22-26.81-10.25-36.99-.07l-6.16,6.16c-1.33,1.33-1.33,3.49,0,4.82Z"/><path class="cls-1" d="M308.5,420.64c1.33,1.33,3.49,1.33,4.82,0l5.99-5.99c7.43-7.43,19.56-7.4,27.02,.07l13.42,13.42c1.33,1.33,3.49,1.33,4.82,0,1.33-1.33,1.33-3.49,0-4.82l-13.42-13.42c-10.13-10.13-26.57-10.16-36.66-.07l-5.99,5.99c-1.33,1.33-1.33,3.49,0,4.82Z"/><path class="cls-1" d="M369.76,420.98c1.33,1.33,3.49,1.33,4.82,0l6.21-6.21c2.88-2.88,6.52-4.72,10.54-5.34,1.86-.29,3.14-2.03,2.85-3.89-.28-1.85-2.02-3.13-3.89-2.85-5.46,.84-10.41,3.35-14.32,7.26l-6.21,6.21c-1.33,1.33-1.33,3.49,0,4.82Z"/><path class="cls-1" d="M338.2,452.54c1.33,1.33,3.49,1.33,4.82,0l7.48-7.48c7.22-7.22,19-7.19,26.25,.06l2.4,2.4c1.33,1.33,3.49,1.33,4.82,0,1.33-1.33,1.33-3.49,0-4.82l-2.4-2.4c-9.91-9.91-26.01-9.94-35.89-.06l-7.48,7.48c-1.33,1.33-1.33,3.49,0,4.82Z"/><path class="cls-1" d="M249.77,479.36c1.33,1.33,3.49,1.33,4.82,0l5.89-5.89c6.04-6.04,15.89-6.01,21.96,.06l15.4,15.4c1.33,1.33,3.49,1.33,4.82,0,1.33-1.33,1.33-3.49,0-4.82l-15.4-15.4c-8.73-8.73-22.9-8.75-31.6-.06l-5.89,5.89c-1.33,1.33-1.33,3.49,0,4.82Z"/><path class="cls-1" d="M222.94,444.59c1.33,1.33,3.49,1.33,4.82,0l1.1-1.1c6.49-6.49,17.08-6.47,23.6,.06l13.58,13.58c1.33,1.33,3.49,1.33,4.82,0,1.33-1.33,1.33-3.49,0-4.82l-13.58-13.58c-9.18-9.18-24.1-9.21-33.25-.06l-1.1,1.1c-1.33,1.33-1.33,3.49,0,4.82Z"/><path class="cls-1" d="M307.96,482.78c1.33,1.33,3.49,1.33,4.82,0l7.2-7.2c7.13-7.13,18.76-7.1,25.92,.06l4.11,4.11c1.33,1.33,3.49,1.33,4.82,0,1.33-1.33,1.33-3.49,0-4.82l-4.11-4.11c-9.82-9.82-25.78-9.85-35.56-.06l-7.2,7.2c-1.33,1.33-1.33,3.49,0,4.82Z"/></g></svg>