<?xml version="1.0" encoding="UTF-8"?><svg id="Layer_1" xmlns="http://www.w3.org/2000/svg" viewBox="0 0 617.18 617.18"><defs><style>.cls-1{fill:#00aeef;}</style></defs><path class="cls-1" d="M308.58,617.62C138.42,617.62-.01,479.18-.01,309.02S138.42,.43,308.58,.43s308.59,138.44,308.59,308.59-138.44,308.59-308.59,308.59Zm0-609.86C142.46,7.76,7.32,142.91,7.32,309.02s135.15,301.26,301.26,301.26,301.26-135.15,301.26-301.26S474.7,7.76,308.58,7.76Z"/><g id="XT69Pq"><g><path class="cls-1" d="M404.51,141.25c3.12,1.4,6.53,2.39,9.31,4.28,5.63,3.83,8.14,9.6,8.76,16.3,2.13,23.14,4.02,46.3,6.55,69.39,2.67,24.33,5.46,48.68,9.14,72.87,3.4,22.31,7.71,44.5,12.32,66.6,2.31,11.05,5.92,21.81,5.37,33.3-.7,14.4-4.29,27.71-14.73,38.34-9.08,9.24-20.53,13.61-33.1,14.92-38.87,4.07-77.88,6.59-116.96,5.52-28.14-.77-56.23-3.05-84.34-4.67-8.71-.5-17.28-1.77-25.4-5.16-16.94-7.07-26.21-20.17-29.53-37.82-2.24-11.93-1.46-23.73,1.83-35.42,6.81-24.11,10.96-48.77,14.4-73.53,3.38-24.35,6.45-48.75,9.21-73.18,2.32-20.59,4-41.25,5.96-61.88,.34-3.54,.53-7.1,.99-10.63,1.27-9.76,6.76-15.92,16.18-18.65,.37-.11,.69-.39,1.03-.59,6.7,0,13.41,0,20.11,0,4.9,1.95,6.98,5.66,6.8,10.82-.04,1.15,.04,2.3,.13,3.45,1.09,14.5,5.26,27.92,14.08,39.66,23.64,31.47,72.6,38.53,105.61,15.18,19.97-14.12,29.01-34.03,29.92-57.98,.2-5.24,1.81-9.12,6.87-11.13,6.49,0,12.99,0,19.48,0Zm-187.32,10.7c-3.1,0-6.23,0-9.36,0-8.74,0-12.51,3.66-13.21,12.36-1.22,15.02-2.31,30.07-4.01,45.04-3.73,32.85-7.55,65.7-11.83,98.48-3.05,23.33-7.12,46.54-13.24,69.29-2.88,10.71-4.87,21.32-3.7,32.5,1.88,17.97,12.11,30.68,29.55,35.26,5.42,1.42,11.11,2.13,16.72,2.48,28,1.75,56,4.19,84.03,4.6,26.77,.38,53.58-1.19,80.36-2.4,12.84-.58,25.72-1.76,38.43-3.68,18.7-2.83,30.01-14.57,33.33-33.09,1.84-10.29,.71-20.33-1.67-30.46-3.97-16.88-8.01-33.8-10.9-50.89-3.82-22.58-6.93-45.3-9.67-68.04-3.09-25.55-5.46-51.19-8.07-76.8-.81-7.91-1.31-15.86-2.06-23.77-.57-5.96-3.7-10-8.92-10.6-4.51-.51-9.12-.11-13.88-.11-.09,1.46-.18,2.69-.23,3.93-.62,16.29-3.05,32.27-8.21,47.77-6.5,19.54-16.54,36.83-32.9,49.84-14.47,11.5-30.87,17.54-49.54,15.98-21.6-1.8-38.59-12.33-52.17-28.68-15.31-18.43-22.74-40.25-26.2-63.59-1.22-8.26-1.74-16.62-2.62-25.42Zm149.78,57.55c-18.21,16.63-39.22,25.35-63.72,25.34-24.49-.02-45.48-8.82-63.6-26.29,.35,1.3,.44,1.89,.67,2.42,5.11,11.74,11.99,22.28,21.45,31,19.27,17.76,43.96,22.13,66.17,11.52,16.79-8.02,28.01-21.52,36.22-37.82,1.02-2.02,1.88-4.11,2.81-6.17Z"/><path class="cls-1" d="M171.78,401.04c.65-4.22,1.17-8.8,2.1-13.29,.67-3.25,3.43-4.85,6.29-4.19,3.09,.72,4.43,3.32,4.07,6.71-.55,5.17-1.3,10.42-.98,15.57,.76,12.49,6.29,17.94,18.75,19.44,1.04,.13,2.09,.23,3.09,.5,2.83,.76,4.35,3.07,3.99,5.9-.34,2.59-2.41,4.39-5.2,4.52-14.7,.72-27.46-8.93-30.51-23.28-.8-3.77-1.04-7.66-1.59-11.9Z"/><path class="cls-1" d="M434.87,401.32c-.58,4.28-.82,8.17-1.66,11.93-3.2,14.23-15.69,23.58-30.44,23-2.74-.11-4.86-1.96-5.2-4.53-.37-2.84,1.14-5.2,3.98-5.88,2.23-.54,4.55-.72,6.79-1.21,9.37-2.07,14.28-7.24,14.9-16.86,.37-5.68-.21-11.45-.76-17.15-.35-3.69,.8-6.29,3.99-7.01,3.01-.68,5.66,.96,6.36,4.47,.9,4.49,1.41,9.07,2.04,13.25Z"/></g></g></svg>