<?xml version="1.0" encoding="UTF-8"?><svg id="Layer_1" xmlns="http://www.w3.org/2000/svg" viewBox="0 0 617.18 617.18"><defs><style>.cls-1{fill:#00aeef;}</style></defs><path class="cls-1" d="M308.42,617.19C138.26,617.19-.18,478.75-.18,308.59S138.26,0,308.42,0s308.59,138.44,308.59,308.59-138.44,308.59-308.59,308.59Zm0-609.86C142.3,7.33,7.15,142.48,7.15,308.59s135.15,301.26,301.26,301.26,301.26-135.15,301.26-301.26S474.53,7.33,308.42,7.33Z"/><g id="EYfQtL"><g><path class="cls-1" d="M294.73,127.34c6.76,0,13.52,0,20.29,0,2.32,.28,4.65,.58,6.97,.85,31,3.55,59.15,14.5,84.06,33.23,37.07,27.87,60.67,64.39,69.25,110.22,1.16,6.17,1.8,12.44,2.68,18.66v19.61c-.2,.75-.51,1.5-.57,2.26-1.42,18.14-6.32,35.38-13.57,51.99-1.51,3.47-3.15,6.89-4.88,10.66,3.56,0,6.71,.2,9.82-.05,4.16-.33,7.17,1.18,9.19,4.78v4.06c-9.05,14.03-21.18,24.79-35.33,33.81h3.19c7.65,0,15.31,.17,22.96-.07,4.15-.13,7.16,1.2,9.18,4.8v4.06c-.82,1.19-1.6,2.41-2.47,3.56-21.42,28.11-49.81,43.3-85.13,43.63-56.43,.53-112.88,.1-169.32,.17-13.1,.02-25.77-2.09-37.99-6.79-20.16-7.75-36.88-20.03-49.42-37.78-1.74-2.47-2.6-5.03-1.07-7.88,1.49-2.79,3.97-3.77,7.04-3.72,3.72,.06,7.43,.01,11.15,.01,5.45,0,10.89,0,16.34,0-2.09-2.11-4.36-3.5-6.59-4.95-10.69-6.98-19.66-15.73-26.97-26.2-1.65-2.37-2.45-4.84-1.05-7.59,1.43-2.81,3.86-3.91,6.94-3.87,3.65,.05,7.31,.01,11.38,.01-1.41-3.01-2.61-5.53-3.78-8.06-13.6-29.64-18.57-60.53-13.14-92.83,5.23-31.11,18.07-58.85,38.39-82.93,27.47-32.56,61.98-53.4,104.11-61.06,6.06-1.1,12.2-1.75,18.31-2.61Zm9.95,247.49c28.28,0,56.56-.02,84.84,.05,2.12,0,3.54-.5,4.78-2.3,2.86-4.18,6.16-8.06,8.88-12.32,21.38-33.39,24.99-68.79,8.98-104.96-17.04-38.51-46.92-62.17-88.62-70.07-18.41-3.48-36.6-1.84-54.29,4.16-28.32,9.61-50.19,27.42-65.3,53.2-13.81,23.55-19.05,48.93-14.25,75.99,3.57,20.18,12.7,37.82,25.51,53.69,1.49,1.85,2.92,2.62,5.31,2.61,28.05-.09,56.11-.06,84.16-.06Zm105.27,0c10.96,0,21.42,.05,31.89-.09,.92-.01,2.2-1.02,2.66-1.91,2.58-4.99,5.15-10.01,7.39-15.17,11.14-25.59,15.27-52.18,10.83-79.87-6.93-43.21-28.09-78.15-62.84-104.38-37.56-28.35-79.86-38.56-126.26-29.2-33.86,6.84-62.35,23.63-85.63,49-26.58,28.96-41.1,63.15-42.57,102.57-1.03,27.65,6.87,53.13,19.93,77.19,.49,.91,2.01,1.71,3.09,1.77,4.16,.2,8.34,.08,12.51,.08,6.14,0,12.29,0,19.13,0-13.3-18.58-21.96-38.36-24.75-60.49-2.81-22.24,.84-43.6,9.56-64.04,8.73-20.46,21.99-37.68,39.45-51.51,51.03-40.42,116.74-36.87,163.38,1.76,45.83,37.95,68.36,111.56,22.24,174.29Zm46.91,13.66H153.09c.54,.63,.77,.97,1.06,1.25,18.58,17.84,40.57,27.64,66.51,27.68,55.54,.08,111.07,0,166.61,.05,9.98,0,19.77-1.08,29.29-4.13,15.25-4.89,28.6-12.91,40.3-24.84Zm-303.3,42.61c-.03,.28-.09,.42-.04,.48,.2,.27,.41,.54,.65,.77,18.59,17.84,40.58,27.62,66.52,27.66,55.31,.08,110.62-.11,165.93,.09,20.49,.08,39.12-5.33,55.91-16.93,4.98-3.44,9.48-7.59,14.2-11.42-.19-.22-.38-.43-.57-.65H153.56Z"/><path class="cls-1" d="M406.27,295.5c0,2.27,.08,3.62-.02,4.97-.29,3.89-3.16,6.7-6.73,6.69-3.44-.01-6.27-2.62-6.66-6.39-.36-3.47-.27-6.99-.79-10.43-5.23-35.04-24.32-59.2-57.19-72.45-1.67-.67-3.42-1.13-5.07-1.82-3.94-1.65-5.68-5.06-4.49-8.61,1.22-3.63,4.94-5.4,9.13-3.92,5.18,1.83,10.45,3.6,15.31,6.11,29.99,15.5,48.33,39.9,54.93,73.02,.9,4.51,1.13,9.15,1.57,12.83Z"/><path class="cls-1" d="M311.58,205.79c0,3.54-3.19,6.7-6.72,6.69-3.54,0-6.7-3.19-6.69-6.72,0-3.54,3.19-6.7,6.72-6.69,3.53,0,6.7,3.19,6.69,6.72Z"/></g></g></svg>