<?xml version="1.0" encoding="utf-8"?>
<!-- Generator: Adobe Illustrator 27.0.0, SVG Export Plug-In . SVG Version: 6.00 Build 0)  -->
<svg version="1.1" id="Layer_1" xmlns="http://www.w3.org/2000/svg" xmlns:xlink="http://www.w3.org/1999/xlink" x="0px" y="0px"
	 viewBox="0 0 612.84 539.16" style="enable-background:new 0 0 612.84 539.16;" xml:space="preserve">
<style type="text/css">
	.st0{fill:#FFFFFF;stroke:#00B4EC;stroke-width:3;stroke-miterlimit:10;}
	.st1{fill:#003DA5;}
	.st2{fill:#E01837;}
	.st3{fill:#004B97;}
	.st4{fill:#004C99;}
	.st5{fill:#1B459B;}
	.st6{fill:#60D8F4;}
	.st7{fill:#FFFFFF;}
	.st8{fill:none;}
	.st9{fill:#1A459C;}
	.st10{fill:#00B4EC;}
	.st11{fill:#EBF9FC;}
</style>
<g>
	<g>
		<g>
			<g>
				<path class="st3" d="M421.17,338.88c-0.15-0.05-0.3-0.1-0.45-0.14c0-15.77,0-31.54,0-47.32c0-3.54-3-6.55-6.55-6.55
					c-7.17,0-14.34,0-21.5,0c0-9.35,0-18.7,0-28.04c0-1.92-0.7-3.38-1.75-4.43c-0.07-0.08-0.14-0.15-0.21-0.22
					c-0.04-0.04-0.08-0.08-0.13-0.12c-1.05-1.07-2.52-1.78-4.46-1.78c-30.36,0-60.71,0-91.07,0c-4.23,0-8.46,0-12.7,0
					c-3.54,0-6.55,3-6.55,6.55c0,9.35,0,18.71,0,28.06c-1.53,0-3.06,0-4.59,0c-4.23,0-8.46,0-12.7,0c-3.54,0-6.55,3-6.55,6.55
					c0,15.89,0,31.79,0,47.68c-2.98,1.25-5.03,4.53-4.01,7.81c7.63,24.58,15.26,49.16,22.9,73.74c1.1,3.53,2.19,7.06,3.29,10.6
					c0.86,2.76,3.37,4.81,6.31,4.81c12.69,0,36.68-9.42,49.38-9.42c20.24,0,29.18,9.42,49.42,9.42c4.66,0,9.49-4.05,14.15-4.05
					c2.95,0,6.37-1.46,7.22-4.22c7.63-24.58,14.19-45.69,21.82-70.27c1.1-3.53,2.19-7.06,3.29-10.6
					C426.82,343.46,424.46,339.92,421.17,338.88z M407.62,297.96c0,12.21,0,24.41,0,36.62c-1.41-0.45-2.82-0.9-4.23-1.34
					c-11.52-3.65-23.04-7.31-34.55-10.96c0-8.06,0-16.11,0-24.17c0-0.05,0-0.1,0-0.15c1.53,0,3.06,0,4.59,0c4.23,0,8.46,0,12.7,0
					c5.12,0,10.24,0,15.35,0C403.52,297.96,405.57,297.96,407.62,297.96z M330.31,314.21c-4.45,1.41-8.91,2.83-13.37,4.24
					c0-6.78,0-13.55,0-20.33c0-0.05,0-0.1,0-0.15c10.88,0,21.76,0,32.64,0c2.05,0,4.1,0,6.15,0c0,6.72,0,13.43,0,20.15
					c-3.16-1-6.31-2-9.46-3c-2.51-0.8-5.04-1.81-7.61-2.41C335.8,312.04,333,313.36,330.31,314.21z M379.57,263.37
					c0,7.17,0,14.33,0,21.5c-12.93,0-25.86,0-38.79,0c0-7.17,0-14.33,0-21.5c10.88,0,21.76,0,32.64,0
					C375.47,263.37,377.52,263.37,379.57,263.37z M327.69,263.37c0,7.17,0,14.33,0,21.5c-1.53,0-3.06,0-4.59,0
					c-4.23,0-8.46,0-12.7,0c-5.12,0-10.24,0-15.35,0c-2.05,0-4.1,0-6.15,0c0-7.17,0-14.33,0-21.5
					C301.83,263.37,314.76,263.37,327.69,263.37z M303.85,297.98c0,8.21,0,16.42,0,24.62c-2.24,0.71-4.48,1.42-6.72,2.13
					c-8.94,2.83-17.88,5.67-26.81,8.5c-1.75,0.56-3.5,1.11-5.25,1.67c0-12.31,0-24.62,0-36.92
					C278,297.98,290.93,297.98,303.85,297.98z M390.22,417.19c-0.6,1.93-3.27,10.08-3.87,12.01c-11.09,0-20.09-6.22-31.18-6.22
					c-20.24,0-40.69,4.82-60.93,4.82c-3.05,0-4.57,0-7.63,0c-7.13-22.98-15.6-50.78-22.73-73.76c-0.47-1.53-0.95-3.06-1.42-4.58
					c3.78-1.2,7.56-2.4,11.34-3.6c18.9-5.99,37.79-11.98,56.69-17.98c2.12-0.67,4.24-1.35,6.37-2.02
					c18.32,5.81,36.63,11.62,54.95,17.42c2.7,0.86,5.4,1.71,8.11,2.57c3.78,1.2,7.56,2.4,11.34,3.6
					C404.24,372.04,397.23,394.61,390.22,417.19z"/>
				<path class="st3" d="M165.64,203.73c0-4.56,0-9.12,0-13.67c2.2,0,4.4,0,6.61,0c1.92,0,3.38-0.7,4.43-1.75
					c0.08-0.07,0.15-0.14,0.22-0.21c0.04-0.04,0.08-0.08,0.12-0.13c1.07-1.05,1.77-2.52,1.77-4.46c0-1.88,0-3.76,0-5.63
					c21.73,0,43.47,0,65.2,0c27.78,0,55.55,0,83.33,0c0,3.19,0,6.37,0,9.56c-2.54,0-5.08,0-7.63,0c-1.61,0-3.22,0-4.83,0
					c-3.54,0-6.55,3-6.55,6.55c0,11.28,0,22.57,0,33.85c0,1.6,0,3.19,0,4.79c0,3.54,3,6.55,6.55,6.55c11.06,0,22.12,0,33.17,0
					c1.61,0,3.22,0,4.83,0c3.54,0,6.55-3,6.55-6.55c0-11.28,0-22.57,0-33.85c0-1.6,0-3.19,0-4.79c0-3.42-3.01-6.7-6.55-6.55
					c-4.15,0-8.3,0-12.46,0c0-3.19,0-6.37,0-9.56c5.98,0,11.95,0,17.93,0c8.75,0,17.5,0,26.25,0c1.92,0,3.38-0.7,4.43-1.75
					c0.08-0.07,0.15-0.14,0.22-0.21c0.04-0.04,0.08-0.08,0.12-0.13c1.07-1.05,1.78-2.52,1.78-4.46c0-11.69,0-23.38,0-35.08
					c0-3.54-3-6.55-6.55-6.55c-23.92,0-47.83,0-71.74,0c-38.12,0-76.24,0-114.35,0c-6.57,0-13.13,0-19.7,0c0-2.53,0-5.05,0-7.58
					c0-3.54-3-6.55-6.55-6.55c-17.93,0-35.85,0-53.78,0c-2.54,0-5.07,0-7.6,0c-3.54,0-6.55,3-6.55,6.55c0,17.93,0,35.85,0,53.78
					c0,2.54,0,5.07,0,7.61c0,3.54,3,6.55,6.55,6.55c2.2,0,4.4,0,6.61,0c0,16.35,0,32.7,0,49.05c0,29.39,0,58.78,0,88.16
					c0,4.56,0,9.12,0,13.67c-2.2,0-4.4,0-6.61,0c-8.42,0-8.44,13.09,0,13.09c4.38,0,8.77,0,13.15,0c8.43,0,16.87,0,25.31,0
					c3.26,0,6.51,0,9.77,0c9.09,0,18.19,0,27.28,0c7.97,0,15.93,0,23.9,0c2.52,0,5.04,0,7.56,0c0,21.76,0,43.51,0,65.27
					c0,1.23,0,2.46,0,3.68c-10.64,0-21.28,0-31.91,0c-20.32,0-40.63,0-60.95,0c-4.7,0-9.4,0-14.1,0c-8.42,0-8.44,13.09,0,13.09
					c12.82,0,25.64,0,38.46,0c20.32,0,40.63,0,60.95,0c4.7,0,9.4,0,14.1,0c3.54,0,6.55-3,6.55-6.55c0-23.94,0-47.88,0-71.81
					c0-3.41,0-6.82,0-10.23c0-16.37,0-32.75,0-49.12c0-2.32,0-4.63,0-6.95c0-1.92-0.7-3.38-1.75-4.43
					c-0.07-0.08-0.14-0.15-0.21-0.22c-0.04-0.04-0.08-0.08-0.13-0.12c-1.05-1.07-2.52-1.78-4.46-1.78c-12.67,0-25.33,0-38,0
					c-3.54,0-6.55,3-6.55,6.55c0,16.37,0,32.75,0,49.12c0,0.13,0,0.27,0,0.4c-4.73,0-9.46,0-14.19,0c0-16.35,0-32.7,0-49.05
					C165.64,262.5,165.64,233.12,165.64,203.73z M346.32,226.07c-8.3,0-16.6,0-24.91,0c0-8.51,0-17.03,0-25.54c8.3,0,16.6,0,24.91,0
					C346.32,209.04,346.32,217.56,346.32,226.07z M244,142.8c38.12,0,76.24,0,114.35,0c6.57,0,13.13,0,19.7,0
					c0,7.33,0,14.66,0,21.98c-21.73,0-43.47,0-65.2,0c-38.12,0-76.24,0-114.35,0c-6.57,0-13.13,0-19.7,0c0-7.33,0-14.66,0-21.98
					C200.53,142.8,222.26,142.8,244,142.8z M164.65,128.67c0.35,0,0.71,0,1.06,0c0,2.53,0,5.05,0,7.58c0,11.69,0,23.38,0,35.08
					c0,1.52,0,3.05,0,4.57c0,0.35,0,0.71,0,1.06c-2.2,0-4.4,0-6.61,0c-11.69,0-23.38,0-35.08,0c-1.85,0-3.7,0-5.55,0
					c-0.35,0-0.71,0-1.06,0c0-15.74,0-31.49,0-47.23c0-0.35,0-0.71,0-1.06C133.16,128.67,148.9,128.67,164.65,128.67z
					 M130.57,340.94c0-16.35,0-32.7,0-49.05c0-29.39,0-58.78,0-88.16c0-4.56,0-9.12,0-13.67c7.33,0,14.66,0,21.98,0
					c0,16.35,0,32.7,0,49.05c0,29.39,0,58.78,0,88.16c0,4.56,0,9.12,0,13.67C145.22,340.94,137.89,340.94,130.57,340.94z
					 M192.92,340.94c0-14.19,0-28.38,0-42.58c0-0.13,0-0.27,0-0.4c8.3,0,16.6,0,24.91,0c0,14.19,0,28.38,0,42.58
					c0,0.13,0,0.27,0,0.4C209.53,340.94,201.23,340.94,192.92,340.94z"/>
			</g>
		</g>
	</g>
	<path class="st3" d="M531.24,425.94c-10.89-3.36-21.74-6.96-32.7-10.1c-10.23-2.93-19.07-0.14-28.59,3.15
		c-7.4,2.56-15.55,6.75-23.49,4.55c-14.37-3.99-29.29-12.21-44.47-7.72c-6.31,1.86-12.55,3.96-18.82,5.94
		c-2.14,0.67-4.27,1.41-6.43,2.01c-4.04,1.12-7.82,0.68-11.76-0.44c-7.03-2.01-14.05-4.07-21.07-6.1
		c-8.47-2.45-16.58-4.09-25.37-1.43c-6.51,1.97-12.97,4.09-19.45,6.13c-2.41,0.76-4.92,1.76-7.42,2.19
		c-3.84,0.67-7.36-0.16-10.97-1.31c-6.87-2.2-13.73-4.43-20.6-6.61c-8.14-2.59-15.93-2-23.98,0.37c-3.76,1.11-7.52,2.22-11.28,3.33
		v16.06c0.64-0.19,1.27-0.38,1.92-0.57c5.97-1.76,11.93-3.84,17.99-5.27c7.07-1.67,14.83,2.08,21.49,4.21
		c7.54,2.42,15.46,5.81,23.52,5.41c7.63-0.38,15.12-3.49,22.34-5.77c7.07-2.23,14.35-5.59,21.83-3.59
		c5.86,1.57,11.66,3.38,17.49,5.06c7.87,2.28,15.66,5.16,23.98,4.19c7.14-0.83,14.15-3.74,20.97-5.88
		c7.06-2.23,13.89-5.28,21.36-3.09c6.09,1.79,12.12,3.82,18.18,5.73c8.79,2.77,17.3,4.56,26.45,1.51c6.39-2.13,12.72-4.45,19.1-6.61
		c6.72-2.28,12.13-0.86,18.51,1.12c7.4,2.29,14.8,4.57,22.2,6.86c1.66,0.51,3.32,1.02,4.98,1.54
		C536.63,443.72,540.7,428.86,531.24,425.94z"/>
</g>
</svg>
