<?xml version="1.0" encoding="UTF-8"?><svg id="Layer_1" xmlns="http://www.w3.org/2000/svg" viewBox="0 0 617.18 617.18"><defs><style>.cls-1{fill:#00aeef;}</style></defs><path class="cls-1" d="M308.59,617.19C138.44,617.19,0,478.75,0,308.59S138.44,0,308.59,0s308.59,138.44,308.59,308.59-138.44,308.59-308.59,308.59Zm0-609.86C142.48,7.33,7.33,142.48,7.33,308.59s135.15,301.26,301.26,301.26,301.26-135.15,301.26-301.26S474.71,7.33,308.59,7.33Z"/><g><path class="cls-1" d="M502.35,420.81c-1.51,7.38-4.26,14.17-9.81,19.5-6.73,6.46-14.93,9.3-24.14,9.3-80.9,.02-161.81,.02-242.71,0-1.28,0-2.63-.12-3.84-.51-2.84-.9-4.27-3.01-3.98-5.95,.29-2.91,2.03-4.76,4.99-5.15,1.54-.2,3.12-.14,4.68-.14,79.86,0,159.72-.02,239.59,.01,6.92,0,13.2-1.49,18.01-6.84,10.73-11.93,4.61-30.62-11.11-33.89-2.15-.45-4.4-.52-6.6-.52-25.67-.03-51.33-.02-77-.03-1.3,0-2.62,.08-3.9-.11-3.3-.5-5.21-2.58-5.19-5.83,.02-3.08,1.91-5.07,4.99-5.63,1.27-.23,2.59-.16,3.9-.16,26.19,0,52.37,.03,78.56-.02,11.31-.02,19.52-6.69,21.45-17.2,2.02-11.01-5.96-22.06-17.06-23.54-2.06-.27-4.15-.43-6.23-.44-35.05-.03-70.09-.05-105.14,.05-2.38,0-4.93,.57-7.11,1.54-26.39,11.71-52.76,23.49-79.05,35.42-4.03,1.83-7.42,1.79-11.44-.15-24.61-11.86-49.31-23.52-74.05-35.11-2.26-1.06-4.94-1.63-7.44-1.68-7.94-.16-15.92-.39-23.83,.16-26.64,1.85-45.79,22.64-45,48.45,.78,25.57,21.57,45.24,48.19,45.48,11.59,.11,23.19,.01,34.78,.02,1.3,0,2.62-.03,3.9,.13,3.2,.41,4.94,2.49,5.06,5.51,.11,2.85-1.42,4.98-4.36,5.69-1.12,.27-2.31,.39-3.47,.39-12.12,.03-24.23,.15-36.35-.01-34.74-.45-60.77-27.6-59.46-61.86,.94-24.49,18.69-46.76,42.67-53.53,.97-.27,1.94-.59,2.95-.9-12.02-21.1-10.67-33.62,5.36-48.38-8.37-6.77-13.43-15.41-13.44-26.35,0-10.87,4.75-19.54,13.95-26.84-1.04-.66-1.98-1.09-2.7-1.75-10.25-9.48-13.86-21.05-9.49-34.35,4.24-12.89,13.52-20.3,27.11-22.02,2.06-.26,4.15-.46,6.22-.46,85.07-.02,170.15-.02,255.22-.02,13.21,0,23.96,4.74,30.68,16.51,7.94,13.91,4.91,30.12-7.25,40.64-.58,.51-1.15,1.03-1.93,1.72,8.59,6.84,13.51,15.46,13.47,26.51-.03,10.92-4.79,19.5-13.54,26.39,7.36,5.72,12.06,12.86,13.26,21.88,1.18,8.86-.88,17.05-7.01,25.1,3.67,0,6.55-.04,9.42,0,6.03,.09,11.92,.78,17.38,3.66,9.34,4.94,15.06,12.54,17.18,22.87,.15,.75,.43,1.47,.65,2.2v8.6c-2.27,8.52-6.14,16.06-13.81,21.6,7.84,5.43,11.45,13.02,13.81,21.39v8.6Zm-199.83-88.94c36.47,0,72.95,0,109.42,0,7.42,0,14.86,.2,22.27-.17,14.7-.74,23.67-16.77,16.74-29.74-4.41-8.25-11.65-11.15-20.75-11.14-63.7,.1-127.39,.06-191.09,.03-1.81,0-3.67-.06-5.4-.51-2.89-.76-4.32-2.95-4.08-5.86,.24-2.88,1.93-4.82,4.92-5.2,1.67-.21,3.38-.18,5.07-.18,63.18,0,126.35,.03,189.53-.09,4.07,0,8.44-.54,12.15-2.07,8.95-3.68,13.62-13.54,11.59-22.82-2.04-9.3-10.11-16.11-19.95-16.17-24.62-.15-49.24-.09-73.86,.02-1.51,0-3.24,.83-4.48,1.78-7.53,5.8-14.94,11.76-22.4,17.64-4.95,3.91-6.81,3.89-11.61-.05-6.94-5.7-13.79-11.54-20.89-17.03-1.76-1.36-4.36-2.31-6.58-2.32-39.47-.14-78.94-.1-118.41-.1-1.17,0-2.35-.01-3.52,.05-10.88,.6-19.31,9.15-19.73,19.98-.4,10.41,7.56,19.96,18.29,20.7,10.37,.71,20.82,.36,31.23,.48,3.78,.04,7.56-.04,11.33,.15,3.21,.17,5.04,2.27,5.26,5.29,.23,3.06-1.41,5.25-4.52,5.93-1.51,.33-3.09,.38-4.64,.39-12.76,.08-25.54-.2-38.29,.26-11.5,.42-20.2,11.77-18.39,23.13,1.75,10.96,10.04,17.6,22.21,17.61,42.86,.03,85.71,.01,128.57,.01Zm101.65-146.63H251.86c.6,.69,.82,1.02,1.11,1.26,23.73,19.52,47.49,39.01,71.15,58.62,2.06,1.7,3.23,1.14,4.94-.21,24.08-19.09,48.2-38.13,72.3-57.19,.86-.68,1.65-1.45,2.81-2.47Zm-122.85,40.89c.1-.28,.2-.56,.3-.84-15.98-13.13-31.95-26.27-47.97-39.34-.81-.66-2.12-1.01-3.2-1.02-19.26-.06-38.53-.26-57.79,.04-13.8,.21-23.24,11.63-20.76,24.35,1.99,10.18,10.24,16.78,21.38,16.79,35.14,.05,70.28,.02,105.43,.02,.87,0,1.74,0,2.61,0Zm91.45-.82l.4,.82c12.08,0,24.16,0,36.24,0,7.94,0,15.88,.18,23.81-.09,9.85-.33,17.91-7.23,19.74-16.43,1.83-9.23-2.71-18.91-11.52-22.47-4.18-1.69-9.08-1.9-13.68-2.11-2.2-.1-4.86,.84-6.63,2.2-12.26,9.44-24.35,19.12-36.49,28.72-3.95,3.12-7.9,6.24-11.85,9.36Zm-157.08,118.44c.48,.65,.59,.94,.78,1.03,17.26,8.19,34.52,16.41,51.84,24.47,1.16,.54,3.05,.3,4.31-.25,17.48-7.71,34.92-15.54,52.35-23.36,.81-.36,1.51-.94,3.03-1.89h-112.32Z"/><path class="cls-1" d="M265.9,396.6c-31.51,0-63.01,0-94.52,0-6,0-8.88-1.88-8.93-5.8-.05-3.94,2.91-5.94,8.82-5.94,63.14,0,126.29,0,189.43,0,1.04,0,2.09-.06,3.12,.07,3.38,.42,5.66,2.9,5.58,5.95-.08,3.08-2.4,5.37-5.85,5.67-1.16,.1-2.34,.04-3.51,.04-31.38,0-62.75,0-94.13,0Z"/></g></svg>