<?xml version="1.0" encoding="UTF-8"?><svg id="Layer_1" xmlns="http://www.w3.org/2000/svg" viewBox="0 0 617.18 617.18"><defs><style>.cls-1{fill:#00aeef;}</style></defs><path class="cls-1" d="M308.45,617.33C138.3,617.33-.14,478.89-.14,308.74S138.3,.14,308.45,.14s308.59,138.44,308.59,308.59-138.44,308.59-308.59,308.59Zm0-609.86C142.34,7.47,7.19,142.62,7.19,308.74s135.15,301.26,301.26,301.26,301.26-135.15,301.26-301.26S474.57,7.47,308.45,7.47Z"/><g id="barXIO"><path class="cls-1" d="M436,406.42c-.94,17.69-5.16,33.97-10.74,49.96-1.36,3.9-3.59,6.69-7.86,6.58-4.48-.11-6.6-3.06-7.67-7.29-6.44-25.47-18.87-48.15-33.18-69.87-19.38-29.42-41.9-56.33-66.37-81.62-.4-.42-.87-.77-1.44-1.27-.51,.33-1.06,.56-1.45,.96-30.35,31.45-57.95,65.04-79.66,103.15-8.82,15.49-16.08,31.67-20.35,49.06-1.01,4.1-3.29,6.76-7.53,6.89-4.06,.13-6.42-2.4-7.74-6.14-5.76-16.24-10.02-32.81-10.94-50.41-10.7,1.44-20.56,4.73-29.96,9.53-1.19,.61-2.32,1.71-3.53,1.79-2.92,.2-6.23,.74-8.72-.36-3.35-1.48-3.75-5.25-2.72-8.57,2.01-6.49,4.08-12.99,6.62-19.29,5.34-13.27,12.95-25.23,22.63-36.49-2.77-.51-5.06-.82-7.29-1.36-12.56-3.06-20.98-11.12-26.63-22.39-5.78-11.53-8.49-23.97-10.17-36.63-4.14-31.26-3.73-62.36,3.96-93.12,.89-3.58,2.09-7.1,3.43-10.54,9.69-24.97,28.66-34.58,54.62-27.71,17.47,4.62,32.83,13.56,47.16,24.15,11.54,8.52,22.39,17.99,33.5,27.09,2.16,1.76,4.13,3.75,6.4,5.84,5.41-5.34,11.91-5.89,18.74-5.81,13.19,.16,26.38,.16,39.57,0,6.56-.08,12.71,.73,17.66,5.57,8.86-7.58,17.31-15.21,26.19-22.32,16.12-12.91,33.07-24.55,52.6-31.83,10.39-3.87,21.04-6.26,32.2-4.03,14.87,2.97,24,12.72,29.88,26.01,5.58,12.6,8.04,26.03,9.47,39.59,3,28.31,2.68,56.58-4.29,84.34-2.1,8.36-5.51,16.61-9.68,24.16-5.81,10.52-15.32,16.64-27.45,18.27-1,.13-1.98,.43-3.34,.74,2.03,2.56,3.89,4.83,5.67,7.17,10.81,14.2,18.35,30,23.1,47.17,1.04,3.76,1.24,7.46-2.29,10.11-3.3,2.48-6.62,1.6-9.96-.25-10.06-5.54-20.76-9.18-32.43-10.83Zm-84.15-129.34c1.09,1.22,1.61,1.87,2.21,2.45,15.5,15.18,32,29.13,50.29,40.86,10.88,6.98,22.15,13.18,34.9,16.11,16.79,3.86,27.94-1.84,34.45-17.76,1.51-3.69,2.79-7.51,3.71-11.38,6.91-28.93,7.11-58.13,3.07-87.44-1.5-10.87-3.74-21.63-9.01-31.43-6.08-11.32-15.54-16.41-28.04-13.65-8.57,1.89-17.2,4.69-25,8.67-24.79,12.65-45.75,30.54-65.46,49.95-.21,.2-.28,.54-.25,.49,9.43-4.05,18.72-8.63,28.42-12.07,14.04-4.98,28.5-6.86,43.2-2.61,5.14,1.49,7.71,5.12,6.65,9.33-1.15,4.56-5.11,6.23-10.51,5.36-5.65-.91-11.48-1.8-17.14-1.4-17.31,1.22-32.23,9.09-46.91,17.68-6.16,3.6-6.09,8.43-.11,11.32,8.11,3.92,16.04,8.24,24.1,12.26,5.64,2.81,7.18,8.62,3.12,12.62-2.64,2.6-5.75,2.87-9.02,1.34-7.31-3.42-14.6-6.89-22.67-10.71Zm-87.15,.77c-.14-.19-.28-.38-.42-.57-.5,.2-1.02,.36-1.5,.6-6.92,3.35-13.8,6.78-20.75,10.05-3.51,1.65-6.72,.85-9.17-2.15-3.32-4.08-1.5-9.33,3.73-11.95,8.58-4.31,17.15-8.66,25.54-13.33,4.39-2.44,4.43-6.42,.15-8.82-8.12-4.55-16.2-9.33-24.74-12.95-13.56-5.75-27.64-8.72-42.42-4.42-4.13,1.2-8.16-1.62-9.14-5.71-.91-3.8,1.24-8.09,5.47-8.85,7.09-1.26,14.36-2.6,21.49-2.33,16.92,.64,32.26,6.98,46.93,15.05,1.44,.79,2.9,1.55,4.35,2.33-16.91-17.83-35.19-33.86-56.38-46.01-9.53-5.47-19.84-10.13-30.37-13.16-16.33-4.7-27.55,1.62-34.09,17.32-1.59,3.81-2.88,7.79-3.84,11.8-6.89,28.78-7.05,57.83-3.08,86.99,1.5,11.02,3.78,21.91,9.16,31.84,5.96,10.98,15.15,16.08,27.27,13.51,8.72-1.85,17.47-4.71,25.46-8.64,20.23-9.94,37.58-24.14,54.24-39.16,4.13-3.72,8.08-7.63,12.12-11.45Zm62.19,21.62c36.39,39.54,69.04,80.3,90.95,129.05,1.42-9.49,2.35-18.85,2.52-28.24,.13-7.25,2.93-10.73,10.21-9.67,8.76,1.28,17.39,3.38,26.08,5.14,1.21,.25,2.4,.61,4.07,1.04-.54-1.49-.78-2.34-1.16-3.13-1.19-2.55-2.36-5.11-3.67-7.6-8.88-16.84-20.24-31.91-37.4-40.56-21.24-10.72-40.33-24.2-58.24-39.59-4.58-3.93-9.01-8.03-13.68-12.2-5.35,5.35-11.92,6-19.67,5.76Zm-127.09,129.85c21.43-49.86,54.21-90.55,90.53-130.07-8.13,.71-14.55-.42-19.87-5.51-1.45,1.28-2.62,2.37-3.85,3.4-10.34,8.63-20.22,17.93-31.18,25.69-11.42,8.1-23.75,14.96-35.93,21.92-17.33,9.91-29.47,24.45-38.58,41.84-1.65,3.15-3.04,6.45-4.43,9.44,10.13-1.89,19.78-4.01,29.54-5.41,7.86-1.13,11.04,2.25,10.53,10.07-.61,9.33,.61,18.43,3.25,28.63Zm80.4-173.35c0,7.41,.11,14.81-.04,22.22-.08,4.06,1.37,6.02,5.66,5.99,15.1-.1,30.21-.09,45.31,0,4,.02,5.56-1.73,5.54-5.64-.08-15.11-.08-30.21,0-45.32,.02-3.99-1.71-5.55-5.65-5.53-15.1,.1-30.21,.09-45.31,0-3.99-.02-5.6,1.7-5.54,5.63,.12,7.55,.04,15.11,.03,22.66Z"/></g></svg>