<?xml version="1.0" encoding="UTF-8"?><svg id="Layer_1" xmlns="http://www.w3.org/2000/svg" viewBox="0 0 617.18 617.18"><defs><style>.cls-1{fill:#00aeef;}</style></defs><path class="cls-1" d="M308.59,617.33C138.44,617.33,0,478.89,0,308.74S138.44,.14,308.59,.14s308.59,138.44,308.59,308.59-138.44,308.59-308.59,308.59Zm0-609.86C142.48,7.47,7.33,142.62,7.33,308.74s135.15,301.26,301.26,301.26,301.26-135.15,301.26-301.26S474.71,7.47,308.59,7.47Z"/><g id="_518yT1"><g><path class="cls-1" d="M333.78,115.38c2.88,1.6,3.94,3.99,3.86,7.32-.18,7.74-.06,15.48-.06,23.75,1.93,0,3.6-.06,5.27,.01,3.73,.16,5.88,1.99,5.96,5.64,.16,7.14,.08,14.28,.03,21.43-.02,3.21-1.9,4.75-4.88,5.59-.98,.28-2.29,1.8-2.31,2.77-.14,11.2-.18,22.41,0,33.62,.14,9.26,4.4,16.46,11.8,21.9,6.15,4.52,12.34,8.99,18.37,13.67,14.94,11.6,22.66,26.99,23.13,45.82,.33,13.42,.1,26.85,.06,40.27-.01,4.64-2.5,7.31-6.26,6.78-3.36-.48-4.8-2.66-4.8-5.94,0-6.13,0-12.27,0-18.74-1.64-.09-2.94-.21-4.25-.22-9.48-.02-18.97,0-28.45-.02-5.75-.01-6.89-.87-8.49-6.15-5.35-17.7-21.19-29.54-39.39-29.44-18.35,.1-33.81,11.78-39.23,29.65-1.5,4.93-2.74,5.91-7.91,5.93-9.61,.04-19.21,.01-28.82,.01-1.32,0-2.64,0-4.16,0v112.84c4.43,0,8.8,0,13.18,0,1.6,0,3.22-.09,4.8,.1,3.39,.4,5.67,2.91,5.28,5.93-.42,3.27-2.41,5.02-5.76,5.04-4.8,.03-9.61,0-14.41,.03-.96,0-1.91,.13-2.99,.2,0,9.26-.54,18.37,.17,27.37,.57,7.18,6.86,12.09,14.1,12.1,43.84,.07,87.69,.06,131.53,0,7.68-.01,14.01-5.36,14.51-13.01,.56-8.68,.13-17.43,.13-26.67h-4.47c-36.33,0-72.66,0-108.99,0-1.35,0-2.72,.07-4.06-.09-3-.36-4.67-2.22-4.83-5.14-.16-2.77,1.29-4.76,4.02-5.44,1.52-.38,3.17-.39,4.75-.39,36.33-.02,72.66-.02,108.99-.02h4.73v-4.39c0-20.32-.05-40.64,.08-60.96,.01-1.91,.66-4.28,1.9-5.64,2.63-2.89,7.32-1.56,8.6,2.23,.46,1.35,.48,2.9,.48,4.36,.03,32.76,.03,65.52,.01,98.28,0,17.34-10.76,28.01-28.19,28.01-42.24,0-84.49,0-126.73,0-17.41,0-28.15-10.69-28.16-28.04-.01-55.54-.03-111.09,0-166.63,.01-20.62,8.31-37.12,24.96-49.38,5.55-4.09,11.05-8.25,16.61-12.31,7.81-5.7,11.81-13.36,11.86-23.02,.06-10.71,0-21.43,.04-32.14,0-1.77-.16-3.03-2.41-3.28-3.54-.4-4.98-2.73-4.96-6.17,.03-6.4-.04-12.81,.02-19.21,.05-5.26,1.91-7.05,7.15-7.12,1.22-.01,2.44,0,4.16,0,0-8.07,.12-15.91-.06-23.75-.08-3.33,.97-5.72,3.86-7.32h60.6Zm-57.38,105.19c-.26,.64-.58,1.19-.7,1.77-2.17,10.7-8.14,18.76-16.94,25-5.92,4.2-11.78,8.49-17.47,12.99-15.35,12.16-19.72,28.53-17.95,47.6,9.2,0,18.16-.08,27.12,.05,2.55,.04,3.81-.68,4.89-3.16,8.71-20.01,24.08-31.22,45.85-32.23,20.99-.98,37.68,7.99,47.38,26.59,4,7.68,8.31,9.53,15.9,8.87,6.32-.55,12.73-.11,19.45-.11,0-3.52,.04-6.56,0-9.61-.22-16.17-6.61-29.27-19.58-39.05-5.3-4-10.57-8.06-16.01-11.87-8.96-6.27-14.96-14.45-17.15-25.27-.11-.56-.46-1.07-.68-1.57h-54.11Zm61.26-62.6h-68.21v10.15c4.35,0,8.4-.12,12.44,.04,3.65,.14,6.07,2.63,5.95,5.73-.12,3.01-2.45,5.11-5.97,5.27-1.67,.08-3.34,.01-5.1,.01v29.99h53.46v-29.98c-6.98,0-13.72,.03-20.46,0-4.72-.03-7.13-1.98-7.05-5.61,.07-3.49,2.42-5.41,6.92-5.45,8-.06,16.01-.01,24.01-.03,1.3,0,2.61-.11,4.02-.17v-9.95Zm-11.43-11.64v-19.64h-45.49v19.64h45.49Z"/><path class="cls-1" d="M303.64,362.86c15.75,0,31.49,0,47.24,0,5.98,0,7.63,1.65,7.65,7.68,.03,7.26,.05,14.52,0,21.77-.04,5.35-1.8,7.23-7.05,7.24-31.98,.04-63.97,.04-95.95,0-5.29,0-7.05-1.86-7.09-7.2-.06-7.26-.04-14.52,0-21.77,.02-6.05,1.66-7.71,7.61-7.72,15.87-.02,31.74,0,47.61,0Zm43.54,11.37h-87.45v14.05h87.45v-14.05Z"/><path class="cls-1" d="M303.31,353.52c-16.14-.08-28.85-13.06-28.71-29.31,.14-15.83,13.27-28.63,29.23-28.49,15.87,.14,28.62,13.19,28.53,29.19-.09,15.94-13.03,28.69-29.05,28.61Zm17.96-28.94c-.03-9.85-8.02-17.81-17.86-17.77-9.82,.03-17.75,8.04-17.72,17.92,.03,9.91,7.92,17.74,17.86,17.71,9.93-.03,17.75-7.9,17.72-17.85Z"/><path class="cls-1" d="M303.51,420.66c-6.51,0-13.02,.03-19.53-.01-4.19-.02-6.44-1.92-6.51-5.35-.07-3.53,2.32-5.69,6.62-5.71,12.89-.05,25.79-.05,38.68,0,4.3,.01,6.72,2.14,6.7,5.63-.03,3.53-2.35,5.41-6.81,5.43-6.39,.03-12.77,0-19.16,0Z"/></g></g></svg>