<?xml version="1.0" encoding="UTF-8"?><svg id="Layer_1" xmlns="http://www.w3.org/2000/svg" viewBox="0 0 617.18 617.18"><defs><style>.cls-1{fill:#00aeef;}</style></defs><path class="cls-1" d="M308.23,617.33C138.07,617.33-.36,478.89-.36,308.74S138.07,.14,308.23,.14s308.59,138.44,308.59,308.59-138.44,308.59-308.59,308.59Zm0-609.86C142.11,7.47,6.97,142.62,6.97,308.74s135.15,301.26,301.26,301.26,301.26-135.15,301.26-301.26S474.34,7.47,308.23,7.47Z"/><g><path class="cls-1" d="M234.04,143.23c5.43,.14,8.84,4.06,9.17,10.73,.7,14.01,6.29,25.65,17.02,34.65,8.02,6.73,17.41,10.21,27.87,10.78,7.2,.39,11.16,3.64,11.29,9.22,.13,5.77-3.97,9.23-11.47,9.64-24.51,1.36-43.32,20.31-44.69,45.01-.39,7.1-3.76,11.11-9.37,11.15-5.63,.04-9.08-3.97-9.48-11.03-1.41-25.05-20.09-43.72-45.16-45.14-7.05-.4-11.05-3.86-10.99-9.51,.06-5.62,4.02-8.93,11.16-9.34,24.94-1.41,43.55-20.14,45-45.32,.4-6.94,4.01-11,9.65-10.85Zm-17.63,65.45c5.39,5.33,12.52,12.37,17.23,17.03,5.05-5.01,12.27-12.18,17.02-16.91-5.01-4.99-12.21-12.16-17.08-17.01-4.97,4.89-12.02,11.82-17.17,16.89Z"/><path class="cls-1" d="M382.15,252.05c1.83-.05,3.01,1.27,3.14,3.51,.39,6.77,4.49,12.13,10.87,14.03,1.32,.39,2.72,.53,4.1,.67,1.98,.2,3.23,1.31,3.25,3.02,.02,1.72-1.22,2.92-3.18,3.08-8.95,.72-14.35,6.11-15.04,15.03-.15,1.97-1.34,3.21-3.06,3.2-1.71,0-2.88-1.25-3.03-3.23-.67-8.88-6.06-14.25-15.07-15-1.95-.16-3.19-1.38-3.15-3.1,.03-1.65,1.24-2.93,3.08-2.95,8.23-.09,15.03-6.74,15.16-15.15,.03-1.85,1.29-3.06,2.94-3.11Zm-5.49,21.23c1.71,1.69,4.05,4,5.62,5.55,1.63-1.64,3.91-3.96,5.43-5.49-1.62-1.63-3.94-3.97-5.52-5.56-1.59,1.58-3.87,3.84-5.53,5.49Z"/><g id="_51M9gS"><path class="cls-1" d="M117.08,432.54c-3.49-2.04-5.8-4.83-4.43-9.05,1.37-4.24,4.96-4.93,8.94-4.81,4.42,.13,8.86,.03,13.55,.03,1.08-6.04,2.11-11.74,3.11-17.44,1.62-9.17,6.62-15.56,15.78-16.04,12.12-.63,19.27-6.71,24.65-16.6,1.25-2.29,1.57-3.8,.21-6.12-8.55-14.56-16.94-29.2-25.37-43.83-5.62-9.75-4.15-15.29,5.45-20.87,3.72-2.16,7.43-4.32,11.16-6.46,9.32-5.35,15.09-3.78,20.54,5.64,8.3,14.35,16.68,28.65,24.79,43.1,1.67,2.98,3.53,4.26,6.86,3.82,1.81-.24,3.76,.29,5.5-.14,1.69-.41,3.78-1.2,4.68-2.51,3.51-5.13,8.11-7.76,14.33-7.68,4.15,.06,8.3-.16,12.44,.06,2.97,.16,3.97-1.06,4.42-3.85,1.04-6.51,2.39-12.97,3.64-19.45,2.45-12.67,11.91-20.82,24.82-21.05,10.75-.19,21.51-.03,32.26-.05,6.76-.01,12.62,2.26,17.58,6.85,2.26,2.09,4.6,4.09,6.71,6.31,2.21,2.31,4.32,3.7,7.91,3,4.91-.97,8.6,2.05,11.4,5.64,3.8,4.87,7.85,6.02,13.82,3.72,6.84-2.64,14.11-4.16,21.23-6.03,11.57-3.04,22.71,2.41,27.06,16.56,1.08,3.51-.65,6.35-4.05,7.81-3.49,1.5-6.36,.3-8.41-2.67q-6.66-9.65-17.87-6.54c-4.28,1.2-8.56,2.42-12.83,3.64-.29,.08-.55,.25-1.39,.65,1.1,1.2,2.04,2.31,3.06,3.34,8.57,8.59,17.19,17.14,25.73,25.76,6.46,6.53,6.47,12.72,.09,19.21-4.96,5.04-9.92,10.07-15,14.98-5.79,5.6-12.12,5.58-17.87,0-2.53-2.46-4.89-5.09-7.78-8.12-5.52,5.55-10.97,10.66-15.97,16.17-4.18,4.6-8.99,7.09-15.23,7.37-4.58,.2-9.12,1.35-13.7,1.66-8.8,.6-14.14-5.32-13-14.1,.59-4.57,1.48-9.12,1.69-13.7,.27-6,3.08-10.35,7.35-14.26,5.31-4.87,10.35-10.05,15.91-15.5-2.79-2.88-5.32-5.45-7.81-8.05-5.74-5.98-5.76-12.29,.06-18.23,2.99-3.05,6.16-5.91,9.56-9.16-4.17-3.79-7.54-7.4-11.49-10.21-2.07-1.47-5.12-2.09-7.75-2.15-9.98-.24-19.97-.16-29.95-.08-7.4,.06-10.96,3.01-12.54,10.2-.82,3.75-1.39,7.55-2.29,11.27-1.31,5.42-.82,9.05,3.66,14.09,7.18,8.07,12.01,18.44,16.72,28.37,1.46,3.08,.23,8.32-1.42,11.79-3.6,7.6-8.19,14.74-12.49,22.01-3.05,5.16-7.6,7.85-13.68,7.84-8.45-.02-16.9,0-25.35,0-5.88,0-10.37-2.62-13.34-7.61-4.39-7.38-8.67-14.84-12.89-22.33-2.86-5.09-2.73-10.26,.07-15.37,.87-1.59,1.75-3.18,2.9-5.27-6.03,0-11.67-.59-17.08,.26-2.56,.4-5.19,3.18-6.93,5.52-5.75,7.77-11.17,15.79-16.61,23.79-3.49,5.13-8.19,8.14-14.35,8.97-2.89,.39-5.73,1.34-8.61,1.46-5.11,.2-7.37,2.75-7.86,7.66-.41,4.11-1.3,8.17-2.03,12.61H465.63c0-11.41,.19-22.73-.1-34.03-.11-4.1-3.18-6-7.25-6.22-3.36-.18-6.8-.12-10.05-.85-8.53-1.9-17.29-11.81-17.57-20.42-.07-2.31,1.96-5.52,3.99-6.86,2.7-1.78,6.07-.8,8.07,2.14,1.28,1.89,2.31,4,3.13,6.13,1.75,4.51,4.97,6.31,9.7,6.08,2.44-.11,4.96-.09,7.33,.41,9.67,2.02,16.37,9.96,16.62,19.95,.24,9.52,.08,19.05,.09,28.57,0,1.65,0,3.3,0,5.45,5.36,0,10.23,.09,15.1-.03,3.94-.1,7.49,.44,9.05,4.67,1.58,4.31-1.02,6.9-4.13,9.19H117.08Zm141.66-38.32c11.21,3.91,16-2.57,21.2-11.29,5.08-8.52,5.22-14.6,.21-23.41-5.31-9.35-10.91-12.67-21.7-12.56-10.24,.1-15.5,3.22-20.6,12.02-5.19,8.94-5.58,15.28-.05,24.2,5.28,8.51,9.92,14.9,20.93,11.04Zm85.47-60.41c15.48,15.48,30.98,30.97,46.01,45.98,4.33-4.19,8.92-8.63,13.28-12.85-15.39-15.38-30.89-30.86-46.4-46.36-4.13,4.24-8.5,8.73-12.89,13.23Zm-179.48-23.34c8.23,14.25,16.31,28.25,24.23,41.95,4.38-2.88,8.44-5.54,12.85-8.44-7.78-13.45-15.77-27.25-23.84-41.19-4.75,2.75-8.84,5.12-13.25,7.67Zm185.3,50.08c-4.14,4.3-7.92,9.29-12.71,12.96-7.22,5.54-6.35,13.19-7.44,21.3,5.64-1.01,11.73-.44,15.47-3.13,6.81-4.89,12.23-11.72,18.22-17.74-4.6-4.55-8.82-8.72-13.55-13.39Z"/></g></g></svg>