<?xml version="1.0" encoding="UTF-8"?><svg id="Layer_1" xmlns="http://www.w3.org/2000/svg" viewBox="0 0 617.18 617.18"><defs><style>.cls-1{fill:#00aeef;}</style></defs><path class="cls-1" d="M308.59,617.33C138.44,617.33,0,478.89,0,308.74S138.44,.14,308.59,.14s308.59,138.44,308.59,308.59-138.44,308.59-308.59,308.59Zm0-609.86C142.48,7.47,7.33,142.62,7.33,308.74s135.15,301.26,301.26,301.26,301.26-135.15,301.26-301.26S474.71,7.47,308.59,7.47Z"/><g id="pJ4aSt"><path class="cls-1" d="M475.98,427.97c-2.09,5.34-6.08,7.2-11.68,7.11-11.89-.21-23.79,.11-35.69-.11-17.39-.32-34.06,2.79-50.4,8.73-53.81,19.54-107.72,38.81-161.6,58.18-7.82,2.81-11.83,.89-14.67-7.01-13.16-36.62-26.33-73.24-39.5-109.86-1.98-5.5-1.35-8.26,2.2-9.61,3.39-1.3,5.82,.56,7.77,5.99,12.82,35.62,25.63,71.24,38.45,106.86,.43,1.19,.86,2.38,1.42,3.92,38.85-13.97,77.41-27.83,115.97-41.69l-.14-.55c-8.73,1.47-17.47,2.92-26.2,4.42-23.65,4.06-47.3,8.14-70.95,12.19-5.58,.96-9.87-2.1-10.88-7.91-4.73-27.24-9.4-54.49-14.07-81.73-6.49-37.8-12.96-75.6-19.44-113.39-1.83-10.66-3.66-21.31-5.6-32.63-18.61,6.38-36.99,12.68-55.68,19.08,.47,1.47,.82,2.66,1.24,3.82,11.97,33.3,23.94,66.6,35.91,99.91,.32,.89,.73,1.75,.92,2.66,.65,2.96-.49,5.19-3.25,6.26-2.8,1.08-5.07,.05-6.54-2.58-.34-.61-.55-1.3-.79-1.96-12.55-34.84-25.14-69.67-37.53-104.57-.87-2.44-1.14-5.94,0-8.03,1.28-2.37,4.21-4.42,6.87-5.38,17.7-6.35,35.52-12.37,53.3-18.5,1.2-.41,2.38-.85,3.73-1.34-.91-5.23-1.77-10.2-2.65-15.17-1.46-8.3,1-11.85,9.33-13.29,19.11-3.31,38.23-6.59,57.76-9.96,0-1.35,0-2.62,0-3.88,0-7.54-.05-15.08,.02-22.61,.06-6.76,3.45-10.18,10.19-10.44,.82-.03,1.65-.01,2.47-.01,54.65,0,109.3,.04,163.95-.07,4.7,0,8.25,1.37,11.62,4.66,12.99,12.66,26.21,25.07,39.3,37.63,1.76,1.69,3.23,3.68,4.83,5.54v235.34Zm-127.16,7.61c-.03-.19-.05-.38-.08-.56-1.41,0-2.81,0-4.22,0-29.91,0-59.83,0-89.74,0-7.75,0-11.17-3.43-11.17-11.24-.01-33.45,0-66.9,0-100.34,0-5,1.86-7.64,5.33-7.65,3.48-.01,5.25,2.54,5.26,7.62,0,.94,0,1.88,0,2.83,0,31.33,0,62.66,0,93.98v3.94h211V200.64c-1.54,0-2.93,0-4.31,0-10.95-.05-21.91,.11-32.85-.22-7.61-.23-12.04-5.18-12.18-12.77-.05-2.94-.03-5.89-.03-8.83,0-7.63,0-15.25,0-23.09H254.21c0,1.63,0,3.02,0,4.4,0,44.4,0,88.8,0,133.2,0,1.29,.08,2.61-.11,3.88-.39,2.67-2.03,4.21-4.71,4.42-2.68,.21-4.63-1.02-5.35-3.62-.4-1.44-.41-3.02-.41-4.53-.02-32.15-.02-64.31-.02-96.46v-4.45c-19.15,3.29-37.85,6.51-56.76,9.76,14.53,84.71,28.97,168.95,43.48,253.55,39.74-6.81,79.12-13.56,118.5-20.31Zm77.63-276.49c0,9.68,.11,18.38-.06,27.07-.06,3,1.1,3.89,3.89,3.86,8.35-.07,16.7,.01,25.05,.01,.86,0,1.73-.16,3.25-.32-10.82-10.31-21.14-20.15-32.13-30.62Z"/></g></svg>