<?xml version="1.0" encoding="UTF-8"?><svg id="Layer_1" xmlns="http://www.w3.org/2000/svg" viewBox="0 0 617.18 617.18"><defs><style>.cls-1{fill:#00aeef;}</style></defs><path class="cls-1" d="M308.59,617.33C138.44,617.33,0,478.89,0,308.74S138.44,.14,308.59,.14s308.59,138.44,308.59,308.59-138.44,308.59-308.59,308.59Zm0-609.86C142.48,7.47,7.33,142.62,7.33,308.74s135.15,301.26,301.26,301.26,301.26-135.15,301.26-301.26S474.71,7.47,308.59,7.47Z"/><g id="_8aAkMx"><path class="cls-1" d="M507.37,414.38c-1.62,3-3.02,6.15-4.89,8.98-5.03,7.58-10.1,15.16-15.53,22.45-1.48,1.99-4.14,3.78-6.56,4.3-16.87,3.61-34,3.47-51.07,2.14-27.76-2.15-54.93-7.56-80.8-17.98-13.36-5.38-26.76-11.32-38.9-18.98-73.81-46.55-147.27-93.67-220.84-140.61-6.47-4.13-6.94-6.96-2.28-13.03,30.33-39.49,60.67-78.97,90.98-118.47,2.01-2.62,4.09-5.01,7.84-4.07,3.68,.93,4.53,3.78,5.1,7.16,4.47,26.16,17.53,47.65,36.75,65.46,8.69,8.05,19.84,11.08,31.36,12.59,23.28,3.05,45.83-.97,68.11-6.85,0-5.76-.35-11.25,.08-16.68,.63-7.95,4.15-14.78,9.52-20.64,2.84-3.1,6.37-3.7,9.15-1.59,2.92,2.23,3.31,6.05,.5,9.5-9.32,11.39-9.15,23.43-2.52,35.82,5.51,10.3,11.33,20.43,16.99,30.6,8.96-4.24,11.85-4.29,13.97-.52,2.06,3.65,.62,6.34-6.32,11.29,3.07,4.29,6.15,8.59,9.27,12.94,4.92-1.99,9.29-8.29,14.61-1.72,2.8,3.45,1.24,6.11-6.59,12.17,2.8,3.49,5.6,6.97,8.53,10.62,4.58-2.15,9.08-7.18,13.78-.88,2.42,3.24,1.01,6.05-5.16,11.01,5.2,5.51,10.24,11.12,15.56,16.45,17.11,17.17,35.39,32.83,57.49,43.4,15.7,7.51,28.02,18,31.86,36.01v9.11ZM98.94,266.09c1.3,.93,2.26,1.67,3.28,2.33,37.93,24.38,75.8,48.85,113.81,73.1,33.01,21.06,66.12,41.96,99.3,62.76,28,17.54,58.84,27.32,91.26,32.54,21.05,3.39,42.17,5.08,63.45,2.41,2.43-.3,5.71-.17,7.04-1.65,3.58-3.96,6.31-8.68,9.8-13.71-26.06,1.81-50.84-.34-75.41-5.38-32.17-6.61-62.28-18.22-89.99-36.07-28.05-18.07-56.38-35.7-84.58-53.53-5.7-3.6-7.19-6.83-4.91-10.48,2.27-3.63,6.02-3.68,11.57-.17,28.79,18.2,57.59,36.37,86.37,54.58,45.65,28.89,95.91,40.12,149.37,38.96,5.15-.11,10.27-1.09,15.52-1.68-.59-10.25-5.66-17.35-13.22-22.45-6.48-4.37-13.63-7.75-20.46-11.6-23.11-13.02-42.34-30.72-60.34-49.91-3.19-3.4-6.29-6.89-9.45-10.37-5.62,3.45-10.85,6.77-16.21,9.88-1.48,.86-3.68,1.97-4.9,1.45-2.14-.92-4.49-2.67-5.46-4.7-1.36-2.81,.52-5.32,3.04-6.92,4.95-3.15,9.96-6.2,15.26-9.49-3.06-3.81-5.77-7.18-8.54-10.63-5.86,3.79-11.28,7.35-16.75,10.8-3.76,2.37-7.58,1.91-9.53-1.02-2.14-3.21-1.11-6.79,2.76-9.51,.9-.63,1.84-1.22,2.76-1.82,4.34-2.83,8.67-5.65,13.12-8.55-3.46-4.82-6.56-9.14-9.7-13.51-7.24,4.47-14.01,8.71-20.85,12.85-3.75,2.27-7.55,1.6-9.43-1.46-1.97-3.21-.96-6.59,2.79-9.15,1.25-.85,2.58-1.6,3.86-2.41,5.47-3.41,10.93-6.83,16.36-10.22-5.5-9.63-10.97-18.86-16.05-28.3-1.6-2.97-2.97-3.7-6.36-2.82-22.4,5.87-45.08,9.47-68.33,6.9-15.96-1.76-30.83-6.48-42.63-17.97-15.11-14.71-26.93-31.69-33.8-51.83-.74-2.16-1.51-4.31-2.51-7.16-20.37,26.52-40.23,52.38-60.35,78.57,17.92,11.54,35.49,22.86,53.27,34.3,7.07-13.4,9.32-27.31,7.53-41.9-1.62-13.18-6.9-24.85-15.05-35.31-2.83-3.63-2.37-7.2,.67-9.49,2.92-2.19,6.4-1.69,9.06,1.68,15.06,19.06,21.23,40.71,17.34,64.69-1.5,9.26-4.96,18.19-7.71,27.93,7.86,5.05,16.55,10.61,25.22,16.19,3.25,2.09,6.57,4.07,9.68,6.35,3.01,2.2,3.56,5.96,1.63,8.78-1.77,2.58-5.3,3.26-8.5,1.59-1.1-.57-2.12-1.28-3.17-1.96-31.08-19.99-62.15-39.99-93.23-59.98-1.37-.88-2.78-1.72-4.47-2.76-4.39,5.69-8.66,11.24-13.25,17.2Z"/></g></svg>