<?xml version="1.0" encoding="UTF-8"?><svg id="Layer_1" xmlns="http://www.w3.org/2000/svg" viewBox="0 0 617.18 617.18"><defs><style>.cls-1{fill:#00aeef;}</style></defs><path class="cls-1" d="M308.59,616.48C138.44,616.48,0,478.05,0,307.89S138.44-.71,308.59-.71s308.59,138.44,308.59,308.59-138.44,308.59-308.59,308.59Zm0-609.86C142.48,6.63,7.33,141.77,7.33,307.89s135.15,301.26,301.26,301.26,301.26-135.15,301.26-301.26S474.71,6.63,308.59,6.63Z"/><g id="TzKibW"><g><path class="cls-1" d="M204.46,257.09c-.46,.52-.74,.8-.98,1.1-5.88,7.5-16.85,8.64-24.28,2.51-7.36-6.07-8.38-17.22-2.02-24.31,1.6-1.78,3.73-3.29,5.91-4.28,4.19-1.91,8.6-3.37,12.91-5.01,.59-.22,1.18-.43,2.26-.82-2.46-.82-4.46-1.4-6.38-2.15-3.29-1.29-6.65-2.49-9.79-4.11-6.49-3.35-9.45-8.93-8.99-16.13,.44-6.91,4.07-11.92,10.43-14.56,6.57-2.73,12.74-1.57,18.14,3.11,2.81,2.44,4.11,5.87,5.56,9.17,.25,.57,.47,1.15,1.08,1.64,0-1.46,.06-2.92-.01-4.38-.41-8.1-.89-16.2-1.26-24.3-.06-1.39-.54-2.08-1.81-2.69-8.5-4.05-13.05-13.21-11.25-22.43,1.8-9.19,9.48-15.94,18.9-16.49,1.32-.08,1.78-.44,1.72-1.79-.1-2.46-.04-4.93-.02-7.39,.07-8.12,6.08-14.4,14.17-14.48,12.2-.12,24.4-.12,36.6,0,8.01,.08,14.03,6.32,14.12,14.32,.03,2.52,.05,5.05-.01,7.57-.03,1.17,.24,1.67,1.56,1.76,9.77,.64,17.3,7.25,19.13,16.67,1.78,9.18-2.88,18.24-11.62,22.42-.94,.45-1.37,.97-1.45,1.99-1.79,23.96-2.16,47.89,.67,71.81,3.7,31.24,14.77,59.38,34.55,84.02,5.97,7.44,11.67,15.13,17.1,22.99,7.59,10.98,12.33,23.18,14.22,36.44,.04,.29,.11,.57,.23,1.18,.61-.58,1.08-1,1.51-1.45,5.21-5.42,8.87-11.78,11.38-18.83,3.17-8.88,8.22-16.52,14.98-23.07,5.42-5.25,11.84-9,18.57-12.27,5.67-2.76,11.42-5.37,17.01-8.28,7.93-4.12,14.76-9.56,18.87-17.73,2.72-5.43,3.12-4.04-1.35-8.59-6.41-6.52-14.47-9.61-23.48-10.01-12.3-.55-23.24,3.18-32.48,11.4-6.47,5.76-10.39,12.95-11.41,21.66-.74,6.32-6.27,10.78-12.77,10.48-6.08-.28-11.17-5.36-11.42-11.39-.1-2.31,1.01-3.85,2.91-4.06,1.99-.22,3.38,1.08,3.71,3.48,.47,3.34,2.69,5.43,5.7,5.34,2.99-.09,4.98-2.3,5.42-5.66,1.25-9.49,5.43-17.62,12.52-23.93,15.24-13.56,32.75-17.76,52.2-10.92,9.76,3.44,17,10.12,21.39,19.74,6.59,14.42,10.22,29.43,8.58,45.31-2.22,21.5-10.64,40.02-27.46,54.18-4.83,4.07-10.41,6.89-16.32,9.04-7.32,2.66-13.95,6.43-19.56,11.9-.51,.5-1.12,.9-1.81,1.45,.49,.35,.65,.53,.84,.59,7.67,2.4,15.37,4.7,23,7.22,6.51,2.15,12.97,4.4,19.89,4.87,6.74,.46,13.16-.77,19.24-3.7,1.51-.73,2.96-1.11,4.37,.08,1.48,1.25,1.32,2.8,.78,4.45-7.24,21.96-19.95,39.6-40.56,50.84-11.89,6.49-24.6,10.22-38.25,10.17-8.35-.03-16.35-1.87-23.87-5.49-12.07-5.82-24.67-6.91-37.61-4.12-3.95,.85-7.82,2.39-11.51,4.08-12.91,5.91-26.21,6.95-39.96,3.81-1.33-.3-2.73-.45-4.1-.45-19.05-.03-38.1-.12-57.15,.01-13.13,.09-24.12-4.46-33.08-14.1-23.41-25.17-34.56-54.86-32.93-89.24,.87-18.4,7.48-34.74,18.37-49.43,6.69-9.03,13.64-17.86,20.25-26.95,13.68-18.8,21.98-39.88,26.1-62.67,.05-.28,.04-.58,.08-1.19Zm41.38,236.85c.03-.13,.06-.26,.08-.39-.29-.19-.58-.4-.88-.57-21.01-11.39-33.94-29.24-41.24-51.59-.49-1.5-.39-2.87,.84-3.96,1.23-1.09,2.61-1.05,4.03-.35,9.47,4.7,19.33,5.12,29.3,2.19,7.19-2.11,14.26-4.68,21.33-7.18,13.31-4.71,26.71-5.69,40.29-1.32,1.25,.4,1.57-.26,2.05-1.06,7.15-11.68,17.09-20.01,29.91-24.87,5.23-1.99,10.35-4.2,14.87-7.61,.93-.7,1.28-1.39,1.16-2.55-1.04-10.4-3.77-20.28-8.61-29.57-4.81-9.22-11.05-17.46-17.53-25.51-14.97-18.61-27.46-38.54-34-61.78-.13-.47-.98-1.04-1.49-1.04-7.8-.05-15.4,1.15-22.3,4.9-5,2.72-9.8,5.86-14.46,9.12-15.03,10.5-31.52,12.87-49.16,9.17-1.27-.27-1.78,.06-2.33,1.18-1.61,3.29-3.29,6.55-5.08,9.74-6.37,11.37-14.42,21.56-22.39,31.8-6.28,8.07-12.34,16.29-16.68,25.62-7.68,16.54-8.86,33.94-6.33,51.68,3.49,24.45,14.12,45.47,31.35,63.15,7.03,7.21,15.59,10.81,25.67,10.8,13.28,0,26.56,0,39.84,0,.58,0,1.17,0,1.75,0Zm204.45-47.57c-16,2.29-21.9,1.76-36.89-3.59-4.3-1.53-8.6-3.06-12.9-4.58-9.41-3.34-19.01-4.45-28.91-2.76-5.45,.93-10.47,3.05-15.47,5.27-6.55,2.91-13.4,4.49-20.56,4.88-11.07,.61-21.61-1.23-31.69-5.99-12.64-5.97-25.72-6.48-38.97-2.25-6.75,2.16-13.37,4.68-20.09,6.92-8.17,2.72-16.51,4.31-25.17,3.07-2.28-.33-4.54-.86-6.96-1.33,.15,.51,.22,.86,.36,1.18,5.58,13.49,13.78,25,25.55,33.79,11.53,8.62,24.53,13.62,38.83,15.02,9.53,.93,18.64-.95,27.31-5.05,4.9-2.32,9.99-4.13,15.39-4.93,13.32-1.95,26.22-.76,38.5,5.19,8.47,4.11,17.5,5.84,26.81,4.75,24.67-2.89,44.08-14.55,57.44-35.69,2.8-4.43,4.97-9.25,7.43-13.9Zm-7.68-134.18c-.46,.15-.54,.15-.57,.19-.74,1.16-1.46,2.34-2.22,3.49-5.2,7.85-12.53,13.2-20.77,17.39-5.78,2.94-11.8,5.42-17.48,8.54-4.72,2.58-9.41,5.4-13.55,8.8-7.2,5.91-12.06,13.61-15.2,22.4-1.89,5.28-4.34,10.29-7.73,14.8-8.03,10.67-18.02,18.74-30.77,23.16-7.75,2.69-14.42,7.15-19.99,13.14-2.67,2.87-4.94,6.12-7.63,9.48,2.56,1.04,4.56,2.01,6.66,2.67,14.09,4.41,27.97,3.97,41.46-2.24,8.32-3.83,16.95-6,26.12-6.06,.7,0,1.52-.55,2.08-1.06,3.37-3.07,6.55-6.36,10.04-9.29,5.32-4.47,11.7-7.03,18.11-9.48,8.21-3.14,15.24-8.06,20.67-14.91,16.11-20.34,21.3-43.18,14.87-68.44-1.08-4.26-2.72-8.38-4.1-12.55Zm-163-82.38c-.4-.1-.57-.17-.75-.17-21.03-.01-42.05-.01-63.08-.04-1.04,0-1.32,.42-1.38,1.37-.14,2.4-.36,4.79-.58,7.18-1.68,18.32-5.17,36.24-11.92,53.44-.21,.54-.38,1.11-.68,1.99,2.76,.39,5.35,.87,7.95,1.09,12.07,1.02,23.47-1,33.74-7.8,3.46-2.29,6.87-4.63,10.32-6.94,6.82-4.57,14.2-7.81,22.36-9.03,3.19-.47,6.41-.71,9.78-1.07-3.18-13.24-4.87-26.61-5.77-40.03Zm-.82-6.96c.4-16.33,.8-32.51,1.21-48.71h-65.88c.4,16.29,.8,32.43,1.2,48.71h63.47Zm-31.81-55.57c10.87,0,21.74,.02,32.61,0,8.06-.02,14.26-6.05,14.28-13.83,.02-7.76-6.18-13.9-14.22-13.92-21.68-.04-43.36-.02-65.04-.02-3.08,0-5.94,.77-8.48,2.57-4.94,3.52-7.05,9.73-5.26,15.47,1.79,5.73,7.03,9.68,13.13,9.7,10.99,.05,21.98,.01,32.97,.02Zm.13-34.38c7.93,0,15.86-.05,23.79,.04,1.62,.02,2.08-.48,2-2.04-.12-2.46,.04-4.93-.06-7.39-.18-4.44-3.36-7.51-7.81-7.53-12.02-.03-24.03-.04-36.05,0-4.42,.01-7.59,3.19-7.7,7.61-.06,2.4,.08,4.81-.05,7.21-.08,1.62,.37,2.16,2.08,2.14,7.93-.09,15.86-.04,23.79-.04Zm-40.47,88.44c-2.31-7.82-4.13-15.74-8.42-22.71-1.68-2.73-4.55-3.84-7.7-3.99-4.83-.23-9.25,3.06-10.5,7.7-1.27,4.73,.67,9.46,5.06,11.75,6.58,3.44,13.71,5.41,20.84,7.34,.15,.04,.33-.04,.72-.09Zm.08,9.58c-7.53,2.11-14.59,4.05-21.16,7.36-1.31,.66-2.62,1.57-3.54,2.69-2.7,3.32-3.16,7.1-1.35,10.98,1.78,3.82,4.96,5.89,9.13,6,4.17,.12,7.64-1.59,9.33-5.53,2.13-4.95,3.9-10.06,5.73-15.13,.7-1.95,1.16-3.99,1.84-6.38Z"/><path class="cls-1" d="M268.23,378.67c-.1,13-9.62,22.39-21.19,22.41-11.56,.02-21.3-9.55-21.1-21.07,.05-2.87,.88-5.83,1.87-8.56,4.11-11.27,10.13-21.6,16.31-31.83,1.48-2.45,4.38-2.44,5.86,.01,6.18,10.23,12.16,20.57,16.33,31.82,1.03,2.78,1.54,5.76,1.92,7.21Zm-21.19-30.98c-1.12,1.95-2.03,3.49-2.89,5.06-4.12,7.54-8.31,15.04-10.87,23.3-1.84,5.94-.12,10.99,4.49,14.9,4.63,3.94,9.97,4.56,15.51,2.01,6.75-3.11,9.76-10.36,7.32-17.7-2.91-8.77-7.44-16.78-11.93-24.79-.46-.82-.95-1.63-1.62-2.78Z"/><path class="cls-1" d="M166.64,404.78c0-.9-.03-1.8,0-2.7,.09-2,1.39-3.34,3.25-3.37,1.86-.03,3.25,1.24,3.39,3.25,.18,2.7,.16,5.41,.4,8.1,1.9,20.47,9.75,38.24,24.13,53.03,1.7,1.74,1.85,3.66,.47,5.1-1.41,1.47-3.49,1.33-5.23-.45-13.45-13.72-21.64-30.13-24.95-49-.81-4.6-1.14-9.29-1.68-13.94,.07,0,.14-.02,.21-.03Z"/><path class="cls-1" d="M377.62,443.79c6.89,.19,12.83,1.47,17.83,5.45,1.66,1.32,3.07,3.03,4.33,4.76,1.04,1.42,.49,3.33-.86,4.32-1.42,1.03-3.45,.88-4.5-.63-3.03-4.32-7.41-6.16-12.37-6.88-4.9-.71-9.79-.43-14.22,1.93-2.06,1.09-3.88,2.77-5.54,4.44-1.6,1.61-3.3,2.16-4.9,1.03-1.63-1.16-1.85-3.19-.46-5.09,4-5.43,9.69-7.85,16.12-8.89,1.71-.27,3.46-.34,4.57-.44Z"/><path class="cls-1" d="M284.62,443.06c6.13,.42,11.89,1.69,16.81,5.44,1.74,1.32,3.22,3.05,4.57,4.79,1.18,1.53,.67,3.59-.8,4.62-1.44,1-3.39,.78-4.5-.74-4.31-5.9-10.53-7.17-17.23-7.1-4.2,.04-8.24,1.03-11.72,3.53-1.2,.86-2.21,2.01-3.19,3.14-1.42,1.65-3.4,2.09-4.9,.95-1.51-1.14-1.72-3.18-.44-4.97,3.04-4.25,7.28-6.79,12.22-8.07,3-.78,6.12-1.07,9.18-1.58Z"/><path class="cls-1" d="M379.62,380.8c.41-8.1,4.21-14.39,9.96-19.63,4.98-4.54,10.71-7.51,17.65-7.49,1.07,0,2.16,.14,3.21,.36,1.85,.39,2.94,1.92,2.73,3.66-.21,1.75-1.66,2.92-3.55,2.87-9.88-.27-18.46,5.42-22.12,14.66-.99,2.5-1.39,5.06-1,7.76,.35,2.44-.7,4.01-2.71,4.29-1.98,.28-3.43-.94-3.85-3.36-.19-1.06-.22-2.15-.32-3.13Z"/></g></g></svg>