<?xml version="1.0" encoding="UTF-8"?><svg id="Layer_1" xmlns="http://www.w3.org/2000/svg" viewBox="0 0 617.18 617.18"><defs><style>.cls-1{fill:#00aeef;}</style></defs><path class="cls-1" d="M308.59,617.88C138.44,617.88,0,479.45,0,309.29S138.44,.7,308.59,.7s308.59,138.44,308.59,308.59-138.44,308.59-308.59,308.59Zm0-609.86C142.48,8.03,7.33,143.17,7.33,309.29s135.15,301.26,301.26,301.26,301.26-135.15,301.26-301.26S474.71,8.03,308.59,8.03Z"/><g id="OPXhFW"><g><path class="cls-1" d="M89.62,380.16c7.58-11.74,15.28-23.41,22.64-35.28,1.54-2.48,2.52-5.71,2.59-8.63,.41-16.8,.28-33.61,.73-50.41,.22-8.08,3.61-15.25,8.44-21.67,1.97-2.61,4.16-5.05,6.22-7.6,4.14-5.13,6.47-10.97,6.73-17.58,.18-4.6,0-9.24,.5-13.81,.81-7.43,4.93-12.76,11.9-15.39,6.92-2.62,13.58-1.56,19.15,3.45,7.19,6.46,15.01,11.63,24.57,13.83,10.51,2.41,20.7,1.36,30.55-2.83,4.65-1.98,7.08-5.69,7.19-10.85,.11-5.05-.06-10.15,.59-15.13,.95-7.26,5.09-12.66,11.63-15.9,5.45-2.7,11.03-5.21,16.72-7.35,11.05-4.16,21.97-.12,27.9,10.26,3.76,6.58,7.21,13.33,10.76,20.03,13.23,25.02,31.55,45.41,55.85,59.99,21.66,12.99,43.32,26.09,65.71,37.74,24.26,12.63,50.71,17.39,78.05,17.38,8,0,16.27-.43,23.96,1.33,17.41,3.99,26.86,19.87,24.5,39.06-4.45,36.08-29.41,62.24-65.27,68.11-4.96,.81-10.08,.9-15.13,.91-108.03,.05-216.06-.28-324.09,.25-27.88,.14-48.74-18.11-51.89-41.17-.03-.26-.33-.48-.5-.71,0-2.68,0-5.36,0-8.04Zm170.84-120.11c-.31-.31-.62-.63-.93-.94-18.99,12.44-38.21,24.11-61.31,27.38-23.09,3.27-44.78-2.43-66.41-9.67-4.94,10.93-3.14,21.7-3.33,32.74,3.88,0,7.01-.19,10.11,.03,14.14,.99,24.22,8.2,29.18,21.26,1.81,4.77,3.98,5.6,8.25,5.39,16.92-.83,31.12,5.16,42.71,17.48,1.36,1.45,2.91,2.73,4.76,4.44,4.96-13.14,9.65-25.64,14.41-38.11,1.99-5.21,5.5-7.23,9.45-5.6,3.78,1.56,4.93,5.2,3.07,10.24-2.57,6.97-5.24,13.9-7.85,20.85-2.48,6.61-4.93,13.23-7.41,19.89,8.47,4.29,17.1,5.23,25.95,5.23,44.5-.03,88.99-.02,133.49,0,1.92,0,3.88,.08,5.76,.45,3.43,.69,5.07,3.21,4.97,6.46-.1,3.24-1.85,5.66-5.32,6.2-1.75,.27-3.56,.26-5.34,.26-44.2,.01-88.4-.21-132.59,.1-21.28,.15-39.24-6.74-54.04-22.07-8.15-8.44-18.18-12.57-29.99-12.49-16.37,.1-32.74,.08-49.11-.03-2.71-.02-4.29,.86-5.72,3.16-5.51,8.83-10.95,17.73-17,26.18-3.2,4.46-3.14,8.56-1.56,13.3,5.21,15.59,17.71,24.27,35.52,24.28,109.38,.03,218.76,0,328.14,.03,19.01,0,35.23-6.51,48.21-20.43,7.47-8,12.87-17.24,15.11-28.67-1.2,.57-1.88,.84-2.51,1.21-13.82,8.03-28.64,13.62-44.56,14.5-18.84,1.04-37.76,.63-56.65,.83-.59,0-1.44,.04-1.72-.31-1.59-1.93-4.14-3.94-4.22-5.99-.07-2.05,2.02-4.64,3.86-6.15,1.25-1.03,3.7-.79,5.61-.8,12.65-.06,25.3-.12,37.95-.01,21.59,.19,41.39-5.54,59.36-17.56,4.81-3.22,5.12-4.08,2.14-9.24-4.12-7.12-10.5-10.21-18.58-10.11-17.87,.21-35.73,.09-53.31-3.71-8.22-1.77-16.34-4-24.74-6.08-.18,1.48-.3,2.77-.5,4.06-.6,3.77-2.78,5.93-6.64,5.83-3.83-.1-6-2.32-6.37-6.12-.23-2.37-.13-4.77-.43-7.12-.13-1.04-.61-2.51-1.39-2.92-6.82-3.56-13.74-6.91-21.02-10.53,.26,4.63,.58,8.88,.72,13.14,.16,5.25-2.25,8.35-6.38,8.45-4.11,.1-6.67-2.83-6.99-8.1-.38-6.24-.65-12.48-1.13-18.71-.1-1.36-.48-3.28-1.42-3.91-4.51-3-9.26-5.64-14.4-8.7-.62,8.75-1.1,16.61-1.78,24.46-.34,3.96-3.2,6.55-6.65,6.49-3.46-.06-6.21-2.78-6.54-6.66-.11-1.32,.09-2.67,.17-4,.49-8.32,1.06-16.63,1.42-24.95,.06-1.27-.39-3.16-1.29-3.79-3.75-2.62-7.76-4.86-11.94-7.41-.72,1.96-1.38,3.59-1.94,5.27-2.36,7.04-4.51,14.16-7.14,21.1-.76,2.01-2.53,4.38-4.39,5.04-1.84,.66-5.21,.12-6.4-1.23-1.47-1.67-2.41-5-1.81-7.11,2.7-9.57,6.09-18.94,9.06-28.44,.41-1.31,.44-3.5-.35-4.29-3.55-3.54-7.46-6.71-11.42-10.17-.87,.94-1.6,1.64-2.24,2.42-6.24,7.58-12.41,15.23-18.72,22.74-3,3.58-6.84,4.16-9.81,1.85-3.14-2.44-3.4-6.5-.51-10.3,2.07-2.72,4.33-5.3,6.49-7.95,5.15-6.3,10.3-12.61,15.1-18.49-1.95-5.58-4.98-6.12-9.5-3.9-4.92,2.42-10.28,3.93-15.22,6.3-1.88,.9-3.83,2.8-4.59,4.7-4.46,11.17-8.57,22.48-12.81,33.74-1.68,4.45-3.25,8.94-5.13,13.3-1.61,3.72-5.02,5.19-8.32,3.99-3.56-1.3-5.19-4.72-4.03-8.73,.54-1.85,1.34-3.62,2.01-5.43,3.47-9.27,6.94-18.55,10.41-27.82Zm-120.08,5.29c15.66,5.25,30.76,9.13,46.85,8.69,29.05-.79,51.01-17.48,74.62-32.03-11.96-6.09-23.75-7.68-36.26-4.21-5.84,1.61-11.8,3.32-17.79,3.71-17.63,1.15-33-4.67-46.05-16.57-2.28-2.08-5.03-4.39-7.8-2.29-1.86,1.41-3.32,4.66-3.28,7.06,.24,12.8-1.35,24.95-10.28,35.64Zm154.78-38.47c-6.7-12.19-13.07-24.04-19.72-35.74-2.3-4.05-6.37-5.33-10.82-3.62-5.25,2.02-10.53,4.14-15.38,6.94-2.14,1.24-4.39,4.17-4.59,6.5-.6,7.12-.22,14.33-.22,21.85,10.08,.98,20.18,4.52,29.31,10.74,.76,.52,2.05,.95,2.81,.66,6.19-2.33,12.32-4.84,18.6-7.35Zm-140.04,109.15c-2.92-10.35-15.06-15.89-26.39-12.39v12.39h26.39Z"/><path class="cls-1" d="M165.65,375.73c-.09,3.81-3.07,6.66-6.87,6.57-3.69-.09-6.71-3.25-6.6-6.92,.1-3.63,3.37-6.75,6.95-6.64,3.71,.11,6.61,3.22,6.53,6.99Z"/><path class="cls-1" d="M139.02,375.77c-.11,3.81-3.11,6.64-6.91,6.52-3.66-.12-6.75-3.36-6.62-6.95,.13-3.55,3.51-6.71,7.05-6.59,3.67,.12,6.59,3.29,6.48,7.02Z"/><path class="cls-1" d="M184.47,382.29c-3.81-.03-6.68-2.95-6.66-6.78,.02-3.7,3.13-6.81,6.76-6.78,3.54,.04,6.79,3.34,6.77,6.88-.03,3.62-3.21,6.71-6.87,6.68Z"/></g></g></svg>