<?xml version="1.0" encoding="UTF-8"?><svg id="Layer_1" xmlns="http://www.w3.org/2000/svg" viewBox="0 0 617.18 617.18"><defs><style>.cls-1{fill:#00aeef;}</style></defs><path class="cls-1" d="M308.59,617.19C138.44,617.19,0,478.75,0,308.59S138.44,0,308.59,0s308.59,138.44,308.59,308.59-138.44,308.59-308.59,308.59Zm0-609.86C142.48,7.33,7.33,142.48,7.33,308.59s135.15,301.26,301.26,301.26,301.26-135.15,301.26-301.26S474.71,7.33,308.59,7.33Z"/><g id="yQPX6Y"><path class="cls-1" d="M144.21,497.91c-.97-2.01-2.74-4-2.79-6.02-.6-26.01-1.12-52.02-1.34-78.04-.33-39.74,1.62-79.39,6.44-118.85,4.77-39.07,12.01-77.65,25.76-114.72,1.92-5.19,4.32-10.2,6.41-15.33,2.52-6.16,7.77-9.8,12.73-13.58,17.99-13.7,38.13-23.46,59.11-31.58,1.54-.6,3.97-.78,5.22,.03,9.42,6.13,20.03,8.11,30.87,9.11,17.76,1.64,35.49,1.6,52.81-3.38,4.08-1.17,7.78-3.63,11.8-5.07,2.01-.72,4.71-1.32,6.51-.56,22.99,9.68,45.19,20.8,64.75,36.62,3.38,2.73,5.72,5.89,7.47,9.8,10.7,23.84,17.55,48.85,22.86,74.34,7.35,35.3,11.32,71.03,13.47,107,2.18,36.59,2.33,73.19,.91,109.82-.43,10.96-.32,21.95-.26,32.92,.02,3.03-.63,5.53-2.97,7.5h-46.63c-1.1-1.95-2.69-3.78-3.21-5.88-1.19-4.77-1.71-9.7-2.76-14.51-3.11-14.24-6.35-28.44-9.53-42.66-.96,.81-1.35,1.57-1.53,2.38-2.39,10.93-4.81,21.85-7.1,32.8-1.34,6.39-2,7.04-8.51,7.04-46.97,0-93.93,0-140.9,0-7.4,0-14.79-.04-22.19,.01-3.66,.03-5.78-1.56-6.35-5.25-.69-4.38-1.35-8.77-2.27-13.1-1.7-8.01-3.57-15.99-5.38-23.98-.33,.05-.66,.09-.98,.14-.2,.65-.44,1.28-.59,1.94-3.85,17.8-7.62,35.62-11.63,53.38-.61,2.69-2.36,5.13-3.58,7.69h-46.63Zm74.16-55.58c.43,.02,.85,.04,1.28,.05,.49,.04,.97,.12,1.46,.12,55.01,0,110.02-.01,165.03,.08,2.66,0,3.2-1.26,3.78-3.33,6.71-24.02,9.35-48.62,10.12-73.43,1.14-36.67-1.33-73.21-4.51-109.72-1.49-17.07-2.96-34.15-3.94-51.25-.69-12.14,2-23.63,10.24-33.06,3.49-3.99,7.76-7.31,11.67-10.93-7.27-7.81-46.19-27.82-54.77-29.82-2.63,10.78-8.7,19.47-18.05,25.14-7.42,4.51-13.41,10.27-19.12,16.58-4.05,4.48-8.23,8.85-12.38,13.25-4.17,4.42-6.04,4.41-10.29-.11-6.92-7.37-13.77-14.82-20.75-22.13-1.5-1.57-3.31-2.95-5.21-4.01-11.31-6.34-19.79-14.97-23.24-27.85-.11-.42-.49-.76-.72-1.1-21.5,8.54-50.27,24.79-54.33,30.61,2.53,1.96,5.22,3.74,7.57,5.89,12.1,11.09,15.46,25.34,14.27,41.03-1.87,24.58-4.02,49.15-5.85,73.73-2.95,39.76-4.72,79.57,.34,119.28,1.75,13.75,4.89,27.32,7.4,40.97Zm-30.8-273.77c-1.65,3.85-3.37,7.15-4.51,10.64-4.67,14.26-9.83,28.4-13.6,42.9-11.2,43.1-16.55,87.16-18.33,131.54-1.34,33.48-.66,67.04-.84,100.56-.02,3.31,.27,6.62,.43,10.15,1.33,.07,2.41,.17,3.5,.17,10.73,.01,21.46-.09,32.18,.08,2.63,.04,3.58-.8,4.15-3.3,3.25-14.28,6.57-28.55,10.09-42.77,1.17-4.73,1.65-9.33,1.13-14.2-1.14-10.65-2.21-21.33-2.73-32.03-2.28-47.19,2.19-94.09,6.21-141.01,.93-10.92,1.9-21.91,1.6-32.83-.37-13.23-6.8-23.35-19.28-29.9ZM457.53,464.53c.38-12.5,.95-24.57,1.09-36.64,.5-41.84-.9-83.59-5.66-125.2-4.05-35.45-10.21-70.47-21.05-104.53-3.16-9.91-7.17-19.55-10.89-29.58-6.05,2.69-10.2,6.4-13.51,11.11-6.67,9.5-7.01,20.25-6.18,31.24,2.48,32.95,5.28,65.88,7.35,98.85,1.87,29.69,1.8,59.41-1.55,89.04-.51,4.51-1.69,9.27-.79,13.55,3.5,16.75,7.68,33.36,11.73,49.99,.21,.86,1.48,2.07,2.26,2.08,12.2,.13,24.39,.09,37.21,.09Zm-233.28,2.82h159.8c.87-5.1,1.7-10.03,2.56-15.03H221.57c.66,3.94,1.26,7.58,1.89,11.22,.21,1.21,.49,2.41,.79,3.82Zm123.52-333.63c-43.24,8.93-61.07,5.8-87.77-.19,9.35,17.42,24.6,23.39,42.57,24.19,18.93,.85,38.61-8.27,45.21-24ZM150.96,488.36c11.05,0,21.75,.04,32.45-.08,.72,0,1.91-1.11,2.07-1.87,.86-3.94,1.45-7.94,2.17-12.09h-36.69v14.04Zm269.51-14.12c.71,3.98,1.53,7.69,1.98,11.44,.28,2.28,1.34,2.75,3.4,2.73,8.38-.09,16.77-.04,25.16-.04,2.04,0,4.08,0,6.09,0v-14.13h-36.63Zm-106.8-306.95h-19.21c3.46,3.67,6.51,6.91,9.66,10.26,3.34-3.59,6.3-6.77,9.55-10.26Z"/></g></svg>