<?xml version="1.0" encoding="utf-8"?>
<!-- Generator: Adobe Illustrator 27.0.0, SVG Export Plug-In . SVG Version: 6.00 Build 0)  -->
<svg version="1.1" id="Layer_1" xmlns="http://www.w3.org/2000/svg" xmlns:xlink="http://www.w3.org/1999/xlink" x="0px" y="0px"
	 viewBox="0 0 617.18 617.18" style="enable-background:new 0 0 617.18 617.18;" xml:space="preserve">
<style type="text/css">
	.st0{fill:#00AEEF;}
</style>
<g>
	<g>
		<path class="st0" d="M308.59,617.19C138.44,617.19,0,478.75,0,308.59S138.44,0,308.59,0s308.59,138.44,308.59,308.59
			S478.75,617.19,308.59,617.19z M308.59,7.33C142.48,7.33,7.33,142.48,7.33,308.59c0,166.12,135.15,301.26,301.26,301.26
			s301.26-135.15,301.26-301.26C609.85,142.48,474.71,7.33,308.59,7.33z"/>
	</g>
	<g>
		<g id="HHDQQO_00000106121207161905888420000006263625372471695805_">
			<g>
				<g>
					<path class="st0" d="M304.46,360.42c-1.3,9.35-2.62,18.69-3.89,28.05c-3.67,26.98-7.3,53.97-11.01,80.95
						c-0.81,5.9-3.21,7.64-9.15,6.83c-41.13-5.6-82.25-11.24-123.37-16.86c-11.64-1.59-23.29-3.19-34.94-4.74
						c-5.62-0.75-7.51-3-6.73-8.73c4.92-36.57,9.89-73.14,14.87-109.7c4.62-33.91,9.27-67.82,13.91-101.73
						c0.68-5.01,1.21-10.05,2.03-15.04c1.67-10.11,7.07-17.58,16.43-21.87c2.26-1.04,3.07-2.17,3.01-4.63
						c-0.17-7.15-0.13-14.3-0.04-21.45c0.15-11.84,8.45-20.54,20.27-21.34c1.33-0.09,2.68-0.04,4.02-0.04c76.69,0,153.38,0,230.07,0
						c16.37,0,24.51,8.08,24.52,24.31c0,6.26-0.17,12.52,0.13,18.76c0.07,1.45,1.41,3.48,2.71,4.14
						c10.03,5.04,15.34,13.09,16.82,24.14c5.14,38.34,10.47,76.66,15.69,115c4.96,36.42,9.9,72.84,14.8,109.26
						c0.81,5.99-0.87,8.14-6.94,8.97c-41.41,5.68-82.83,11.33-124.25,16.98c-11.35,1.55-22.7,3.11-34.05,4.62
						c-5.65,0.75-8.14-1-8.91-6.62c-4-29.04-7.92-58.09-11.87-87.14c-1-7.36-2.01-14.71-3.02-22.07
						C305.21,360.44,304.84,360.43,304.46,360.42z M411.96,207.94c-29.89,0-59.26,0-88.96,0c0,6.06,0.08,11.7-0.03,17.34
						c-0.08,4.32-2.34,6.76-6.03,6.82c-3.75,0.07-6.31-2.58-6.4-7.02c-0.13-5.75-0.03-11.51-0.03-17.21c-4,0-7.33,0-11,0
						c0,13.88,0.03,27.41-0.01,40.94c-0.02,5.11-2.43,8.11-6.32,8.11c-3.86,0-6.16-2.96-6.17-8.14
						c-0.03-12.06-0.01-24.13-0.01-36.19c0-1.57,0-3.13,0-4.65c-30.1,0-59.47,0-88.98,0c-1.29,13.28-2.69,26.14-3.77,39.03
						c-1.88,22.36-18.72,40.31-40.91,42.94c-3.32,0.39-4.4,1.3-4.84,4.63c-3.91,29.65-8.06,59.27-12.11,88.9
						c-1.57,11.47-3.08,22.95-4.67,34.86c49.86,6.9,99.42,13.76,149.26,20.66c0.62-4.32,1.16-7.99,1.67-11.66
						c4.41-32.13,8.8-64.27,13.25-96.4c0.82-5.9,4.19-9.02,9.19-8.97c4.98,0.05,8.2,3.16,9.03,9.16
						c4.74,34.19,9.41,68.4,14.12,102.59c0.23,1.69,0.64,3.35,1.03,5.32c49.96-6.92,99.38-13.77,149.06-20.65
						c-5.88-43.04-11.67-85.45-17.43-127.62c-0.76-0.27-1.03-0.43-1.32-0.47c-25.52-2.88-41.55-19.27-43.91-44.8
						C414.52,233.03,413.22,220.61,411.96,207.94z M178.11,194.63c29.76,0,58.98,0,88.21,0c0-10.75,0-21.12,0-32.01
						c-1.97,0-3.72,0-5.47,0c-21.43,0-42.87,0-64.3,0c-3.27,0-6.56-0.13-9.82,0.06c-4.99,0.29-8.43,3.33-8.56,7.98
						C177.95,178.54,178.11,186.42,178.11,194.63z M343.64,162.75c0,10.88,0,21.28,0,31.96c29.43,0,58.68,0,88.3,0
						c0-7.07,0.01-13.9,0-20.73c-0.01-8.63-2.81-11.43-11.59-11.43c-24.12-0.02-48.24-0.01-72.37,0
						C346.68,162.55,345.37,162.67,343.64,162.75z M128.38,442.9c49.86,6.81,99.41,13.57,149.37,20.39c0.53-4.2,1-7.92,1.5-11.91
						c-50-6.93-99.41-13.78-149.18-20.68C129.48,434.9,128.96,438.66,128.38,442.9z M332.23,463.34
						c50.12-6.85,99.67-13.62,149.43-20.43c-0.63-4.38-1.17-8.14-1.75-12.15c-49.85,6.9-99.28,13.74-149.16,20.64
						C331.25,455.37,331.7,458.98,332.23,463.34z M458.76,277.46c0-0.98,0.07-1.56-0.01-2.13c-2.47-18.28-4.83-36.57-7.5-54.82
						c-0.83-5.65-4.13-10.32-9.75-11.71c-5.31-1.32-10.98-1.16-17.21-1.72c1.75,15.84,2.65,30.58,5.18,45.03
						C431.88,265.84,444.54,276.07,458.76,277.46z M185.66,207.59c-4.57,0-8.27-0.18-11.94,0.04c-8.36,0.48-14.09,5.91-15.22,14.18
						c-1.74,12.67-3.51,25.33-5.22,38.01c-0.79,5.83-1.47,11.68-2.21,17.64c14.55-1.4,27.15-11.78,29.56-25.78
						C183.08,237.36,183.99,222.78,185.66,207.59z M287.01,194.72c0-3.57-0.04-6.54,0.01-9.51c0.08-4.5,2.37-7.31,5.97-7.44
						c3.77-0.14,6.37,2.8,6.5,7.47c0.09,3.09,0.02,6.17,0.02,9.49c3.84,0,7.19,0,10.99,0c0-3.5-0.1-6.75,0.03-9.99
						c0.17-4.32,2.9-7.13,6.53-6.98c3.47,0.15,5.82,2.86,5.93,7.03c0.08,3.23,0.02,6.45,0.02,9.8c2.95,0,5.35,0,7.74,0
						c0-10.77,0-21.15,0-31.78c-17.24,0-34.26,0-51.42,0c0,10.77,0,21.25,0,31.9C281.9,194.72,284.21,194.72,287.01,194.72z"/>
				</g>
			</g>
		</g>
	</g>
</g>
</svg>
