<?xml version="1.0" encoding="UTF-8"?><svg id="Layer_1" xmlns="http://www.w3.org/2000/svg" viewBox="0 0 617.18 617.18"><defs><style>.cls-1{fill:#00aeef;}</style></defs><path class="cls-1" d="M308.59,617.19C138.44,617.19,0,478.75,0,308.59S138.44,0,308.59,0s308.59,138.44,308.59,308.59-138.44,308.59-308.59,308.59Zm0-609.86C142.48,7.33,7.33,142.48,7.33,308.59s135.15,301.26,301.26,301.26,301.26-135.15,301.26-301.26S474.71,7.33,308.59,7.33Z"/><g id="jfn0ZI"><g><path class="cls-1" d="M106.63,346.15c1.52-2.91,2.71-6.07,4.63-8.69,3.83-5.2,9.16-7.96,15.7-8.23,1.5-.06,3-.17,4.74-.27-9.28-31.58-.14-55.83,28.03-72.72-11.17-35.73,9.62-62.79,31.18-71.96,23.61-10.04,55.1-4.09,72.5,24.3,8.2-13.47,19.58-22.75,34.69-26.83,15.03-4.06,29.5-2.34,43.16,5.26,23.68,13.19,32.38,36.52,25.86,69.16,27.88,16.98,37.48,41.03,27.66,73.76,6.86-1.19,13.46-1.49,19.44-3.57,8.62-3,17.02-6.85,25.11-11.1,24.01-12.58,49.45-19.82,76.47-21.55,12.61-.81,18.4,4.64,18.4,17.23,0,8.21,.04,16.42-.01,24.63-.06,8.64-4.99,14.33-13.59,14.91-18.35,1.25-36.02,5.15-52.78,12.8-20.79,9.49-38.02,23.22-51.46,41.91-13.53,18.82-32,30.69-54.66,35.57-6.74,1.45-13.77,2.17-20.68,2.2-47.04,.19-94.08,.2-141.11,.07-47.7-.14-86.04-33.92-92.53-81.23-.15-1.06-.5-2.1-.75-3.15,0-4.18,0-8.35,0-12.53Zm413.19-38.19c-1.34,0-2.17-.05-3,0-25.2,1.58-49.05,8.05-71.18,20.26-18.87,10.42-38.54,15.66-60.5,15.48-84.17-.68-168.36-.28-252.54-.27-1.53,0-3.07-.05-4.59,.04-4.08,.26-6.72,2.75-7.08,6.79-.15,1.65-.05,3.34,.06,5,2.84,41.4,36.55,73.36,78.01,73.53,47.72,.2,95.45,.27,143.17-.05,25.99-.17,47.28-10.9,62.62-31.91,23.85-32.67,56.3-50.82,95.4-58.21,6.48-1.23,13.1-1.76,19.62-2.6v-28.08Zm-299.11-21.73c-.08,23.61,18.85,42.67,42.58,42.87,23.22,.2,42.72-18.99,42.89-42.21,.17-23.76-18.88-43.13-42.65-43.34-23.43-.21-42.73,19.03-42.81,42.67Zm121.08,42.94c11.27,0,22.54,.1,33.81-.12,1.51-.03,3.68-1.31,4.39-2.63,8.52-15.75,4.82-36.7-8.52-49.45-13.61-13.01-34.5-15.73-50.19-6.65-2.2,1.27-2.51,2.53-2.04,5,3.47,18.38-1.07,34.68-13.22,48.9-.83,.97-1.31,2.23-1.95,3.35,1.44,.53,2.88,1.51,4.33,1.52,11.13,.13,22.26,.07,33.39,.07Zm-70.78-99.36c18.76,3.16,32.68,12.82,42.27,28.75,12.66-7.09,25.87-9.06,39.98-6.69,5.29-15.88,3.26-30.3-7.39-42.84-11.48-13.52-26.51-18.25-43.56-13.72-17.26,4.59-27.35,16.57-31.29,34.5Zm-85.88,99.36c11.12,0,22.25,.04,33.37-.06,1.36-.01,2.72-.81,4.08-1.24-.62-1.27-1-2.74-1.89-3.78-12.02-14.12-16.5-30.29-13.08-48.51,.52-2.79-.08-4.19-2.6-5.55-15.9-8.62-36.25-5.93-49.48,6.73-13.37,12.79-17.02,32.72-9.17,49.09,1.2,2.49,2.62,3.42,5.39,3.38,11.12-.15,22.25-.06,33.37-.06Zm28.5-70.64c9.65-16.18,23.68-25.5,41.71-28.7-1.04-14.89-13.65-29.38-29.51-34.23-16.76-5.13-35.26,.75-45.99,14.62-9.43,12.19-12.05,31.2-5.62,41.6,13.7-2.41,26.74-.17,39.41,6.71Z"/><path class="cls-1" d="M235.05,284.9c.44-14.53,13.07-26.96,27.51-27.07,4.34-.03,7.49,2.55,7.83,6.42,.37,4.24-2.14,7.09-6.82,7.75-9.31,1.3-13,4.98-14.36,14.31-.67,4.59-3.72,7.44-7.66,7.14-4.19-.32-6.64-3.55-6.49-8.55Z"/><path class="cls-1" d="M183.78,279.31c4.86-.08,7.85,2.24,8.2,6.35,.37,4.37-2.35,7.32-7.24,7.84-8.42,.89-12.97,5.41-13.9,13.77-.55,4.97-3.43,7.76-7.7,7.46-4.21-.29-6.62-3.44-6.49-8.5,.36-14.29,12.87-26.71,27.13-26.93Z"/><path class="cls-1" d="M212.39,208.08c4.74-.1,7.83,2.34,8.13,6.45,.31,4.11-2.31,6.99-7,7.71-9.51,1.46-13.11,5.08-14.25,14.33-.55,4.52-3.62,7.24-7.78,6.9-3.94-.33-6.38-3.28-6.41-7.77-.09-14.53,12.52-27.3,27.3-27.62Z"/></g></g></svg>