<?xml version="1.0" encoding="UTF-8"?><svg id="Layer_1" xmlns="http://www.w3.org/2000/svg" viewBox="0 0 617.18 617.18"><defs><style>.cls-1{fill:#00aeef;}</style></defs><path class="cls-1" d="M308.59,617.04C138.44,617.04,0,478.6,0,308.44S138.44-.15,308.59-.15s308.59,138.44,308.59,308.59-138.44,308.59-308.59,308.59Zm0-609.86C142.48,7.18,7.33,142.33,7.33,308.44s135.15,301.26,301.26,301.26,301.26-135.15,301.26-301.26S474.71,7.18,308.59,7.18Z"/><g id="cYESfb"><path class="cls-1" d="M309.54,118.16c8.72,8.17,17.89,15.93,26.08,24.61,19,20.11,35.35,42.25,48.29,66.78,14.13,26.78,23.45,54.95,23.31,85.59-.11,24.13-6.12,46.83-19.22,67.12-7.13,11.05-15.83,21.09-24.02,31.43-1.55,1.95-1.85,3.2-.66,5.45,11.74,22.17,18.11,45.81,19.2,70.89,.17,3.87-1.05,6.67-4.5,8.57-47.99,26.54-95.72,26.12-142.91-1.81-25.35-15-44.82-36.31-61.76-60.05-17.95-25.14-31.97-52.47-44.08-80.82-2.67-6.24-.31-10.85,6.41-11.96,22.98-3.78,46.1-5.45,69.41-4.38,19.66,.9,39.07,3.45,58.77,7.67-1.69-5.88-3.42-11.34-4.83-16.88-5.56-21.76-5.65-43.78-2.52-65.86,6.19-43.57,23.28-83.22,44-121.53,1.07-1.98,3.5-3.23,5.3-4.82,1.24,0,2.47,0,3.71,0Zm-162.86,219.36c.35,1.11,.48,1.72,.73,2.27,9.68,21.55,20.6,42.43,33.87,62.01,15.01,22.15,32.36,42.14,54.53,57.52,29.02,20.14,60.84,27.53,95.69,20.75,9.52-1.85,18.68-4.82,27.88-9.3-12.11-6.72-23.74-13.22-35.44-19.59-.91-.5-2.37-.31-3.49-.06-8.31,1.86-16.58,3.9-24.9,5.7-5.89,1.27-11.8,2.6-17.78,3.23-3.81,.41-6.84-2.84-7.25-6.5-.39-3.46,1.77-6.8,5.35-7.91,2.47-.77,5.02-1.28,7.54-1.88,6.47-1.54,12.95-3.07,20.25-4.8-8.21-4.74-15.64-8.89-22.9-13.32-2.34-1.43-4.43-1.56-6.96-.95-11.99,2.91-24,5.75-36.04,8.48-2,.46-4.18,.52-6.23,.32-3.54-.33-6.1-3.11-6.47-6.57-.34-3.12,1.66-6.45,4.76-7.6,1.73-.64,3.55-1.04,5.35-1.47,7.49-1.78,14.99-3.52,23.14-5.43-1.76-1.11-2.87-1.84-4.02-2.52-18.32-10.74-36.65-21.47-54.97-32.22-1.38-.81-2.78-1.64-3.96-2.7-2.6-2.34-3.11-6.17-1.39-9.13,1.66-2.85,5.04-4.35,8.26-3.42,1.52,.44,2.96,1.22,4.34,2.02,18.79,10.92,37.56,21.88,56.34,32.82,1.09,.64,2.2,1.24,3.98,2.23-.63-2.51-1.03-4.17-1.47-5.81-1.94-7.27-3.92-14.53-5.81-21.82-1.25-4.84,.75-8.77,4.99-10.06,4.11-1.25,7.85,1.12,9.46,5.99,.23,.7,.43,1.42,.62,2.13,2.87,10.85,6.11,21.63,8.47,32.6,1.26,5.83,3.94,9.52,9.23,12.17,6.53,3.28,12.67,7.31,19.56,11.35-.32-1.45-.45-2.16-.63-2.85-2.19-8.36-4.46-16.69-6.54-25.07-1-4.05,1.37-8.02,5.08-9.09,3.67-1.05,7.49,.81,9.1,4.53,.44,1.01,.69,2.11,.97,3.18,3.28,12.41,6.46,24.84,9.93,37.2,.49,1.76,2.02,3.64,3.6,4.6,9.39,5.71,18.94,11.16,28.43,16.69,1.11,.64,2.23,1.27,3.81,2.16-1.64-13.37-4.7-25.66-9.42-37.5-6.82-17.12-16.82-32.09-30.56-44.48-19.01-17.14-41.61-27.15-66.12-33.34-26.96-6.81-54.42-8.21-82.06-7.1-10.21,.41-20.39,1.64-30.83,2.51Zm163.53-200.06c-.83,1.08-1.19,1.42-1.4,1.84-18.49,36.25-33.77,73.58-38.15,114.54-2.81,26.28-.19,51.76,10.85,76.07,1.11,2.45,2.6,3.88,5.11,4.78,14.63,5.25,28.05,12.79,40.5,22.06,2.21,1.64,4.3,3.45,6.92,5.56-.73-4.98-1.16-9.29-2.08-13.49-.38-1.73-1.43-3.67-2.79-4.77-9.58-7.8-19.33-15.4-29-23.09-1.25-1-2.52-2.03-3.55-3.24-2.3-2.71-2.29-6.47-.14-9.22,2.11-2.7,5.85-3.63,9-2.06,1.42,.71,2.72,1.69,3.98,2.67,6.08,4.77,12.13,9.58,19.01,15.03-1.38-9.48-2.74-17.86-3.74-26.29-.35-2.98-1.63-4.84-3.93-6.62-9.68-7.48-19.22-15.14-28.8-22.74-5.1-4.05-6.27-8.49-3.27-12.29,3.11-3.95,7.52-3.87,12.67,.25,.87,.69,1.74,1.39,2.61,2.08,5.37,4.31,10.73,8.62,16.5,13.25,0-1.3,.09-2.01-.01-2.68-3.25-22.24-6.5-44.47-9.78-66.7-.82-5.54,1.43-9.47,5.94-10.23,4.81-.81,8.33,2.21,9.15,7.89,2.79,19.31,5.55,38.62,8.35,57.93,.57,3.93,1.24,7.84,1.99,12.59,3.31-4.42,6.02-8.07,8.78-11.69,3.14-4.13,6.12-8.4,9.53-12.28,2.64-3,6.69-3.04,9.7-.73,2.89,2.22,3.72,5.84,2.03,9.3-.54,1.1-1.25,2.13-1.98,3.11-6.04,8.13-11.75,16.55-18.27,24.28-5.13,6.07-7.52,12.06-5.37,20.07,1.66,6.2,2.02,12.76,3.08,19.99,3.8-5.08,7.04-9.42,10.3-13.74,2.6-3.45,5.07-7.02,7.91-10.26,2.63-2.99,6.67-3.23,9.72-1.07,3.22,2.28,4.07,6.17,2.09,9.86-.58,1.08-1.33,2.08-2.06,3.07-7.76,10.4-15.56,20.77-23.25,31.21-.8,1.09-1.57,2.69-1.41,3.93,1.53,11.5,3.25,22.98,4.98,34.46,.15,.97,.71,1.88,1.21,3.14,9.41-9.72,17.17-19.91,23.49-31.16,8.65-15.39,13.98-31.88,15.16-49.5,1.52-22.59-3.04-44.21-11.55-65.07-10.4-25.51-25.05-48.44-42.8-69.4-8.75-10.34-18-20.27-27.23-30.61Z"/></g></svg>