<?xml version="1.0" encoding="UTF-8"?><svg id="Layer_1" xmlns="http://www.w3.org/2000/svg" viewBox="0 0 617.18 617.18"><defs><style>.cls-1{fill:#00aeef;}</style></defs><g id="o36NWO"><g><path class="cls-1" d="M201.31,205.37c-2.08-7.11-.9-10.62,5.47-14.25,16.15-9.21,33.61-13.42,52.18-12.91,5.95,.17,11.89,.71,18.28,1.11,0-.84,0-1.88,0-2.91,0-7.18-.02-14.35,0-21.53,.02-10.66,6.3-17.12,16.87-17.33,3.57-.07,7.13-.1,10.7-.05,9.91,.14,15.67,6.89,16.09,16.42,.29,6.52,.05,13.06,.07,19.59,0,1.15,.11,2.29,.16,3.45,5.39-1.14,10.41-2.51,15.52-3.24,13.93-1.98,27.33,.56,40.13,5.95,6.88,2.9,13.4,6.68,20.02,10.18,3.06,1.62,4.66,4.32,5.41,7.74,.3,1.38,1.42,2.88,2.59,3.74,17.33,12.81,32.07,28.01,42.87,46.76,10.05,17.44,16.47,36.08,18.25,56.26,3.94,44.71-10.86,82.55-42.16,114.09-23.24,23.42-51.57,37.72-83.76,44.36-27.07,5.58-54.03,4.74-80.74-2.4-28.09-7.51-52.7-21.24-73.43-41.71-22.49-22.22-36.71-48.86-41.63-80.16-3.29-20.95-1.6-41.69,4.93-61.88,8.83-27.26,24.52-49.98,46.57-68.27,1.54-1.28,3.58-1.95,5.62-3.02Zm45.67,4.97c-.1-.27-.19-.55-.29-.82-1.48,.08-2.99,0-4.44,.27-11.11,2.04-22.21,4.08-33.28,6.31-2.39,.48-5.04,1.26-6.84,2.77-14.23,11.94-25.84,26.15-34.01,42.82-5.38,10.98-9.49,22.51-11.47,34.77-2.04,12.69-2.62,25.38-.81,38.02,4.91,34.4,21.6,62.34,48.16,84.35,25.57,21.18,55.31,32.61,88.29,34.92,42.07,2.95,80.28-7.96,113.02-34.99,29.93-24.71,47.24-56.4,49.06-95.68,1.26-27.1-5.92-52.05-20.59-74.79-9.35-14.49-21.54-26.37-35.41-36.53-1.65-1.21-3.95-2.07-5.98-2.12-9.01-.2-18.02-.1-27.03,.04-2.29,.03-4.56,.59-7.67,1.03,1.95,1.55,3.12,2.5,4.3,3.42,12.22,9.54,20.38,21.57,22.61,37.18,.7,4.92-1.29,8.84-5.37,10.91-4.1,2.08-8.3,1.42-11.94-2.01-7.84-7.39-17.04-12.39-27.39-15.13-4.51-1.2-9.2-1.73-14.43-2.67,0,3.42,.12,5.91-.02,8.39-1.21,22.05-7.25,42.54-19.8,60.89-5.22,7.64-14.4,7.16-18.57-1.12-1.99-3.95-3.58-8.18-4.72-12.45-4.52-16.96-5.13-34.34-5.21-51.77,0-1.48,0-2.96,0-5.23-4.41,.77-8.31,1.09-11.99,2.16-12.78,3.72-23.38,11.35-33.64,19.49-4.51,3.58-9.28,3.92-13.44,.76-3.93-2.98-5.02-7.88-2.75-12.92,5.56-12.32,13.06-23.3,22.93-32.58,2.82-2.65,5.79-5.14,8.69-7.71Zm49.06,92.17c.42,.01,.83,.03,1.25,.04,1.18-2.01,2.41-3.99,3.52-6.04,9.17-17.06,12.8-35.42,12.88-54.63,.03-7.55,4-11.53,11.57-11.21,14.76,.63,28.41,4.88,40.77,13.08,1.58,1.05,3.13,2.13,4.7,3.19-.22-2.16-.83-3.98-1.66-5.7-4.75-9.84-12.42-16.88-21.61-22.47-3.98-2.42-5.95-6.47-5.22-10.36,.89-4.77,3.7-7.95,8.55-8.56,9.79-1.23,19.63-2.1,29.45-3.1,.96-.1,1.93-.14,3.73-.26-9.09-5.35-17.98-8.6-27.29-10.33-11.56-2.15-22.85-.95-33.84,3.69-6.96,2.94-13.63-1.85-13.8-9.38-.12-5.22,0-10.45-.04-15.67-.04-3.8-.08-7.61-.31-11.4-.17-2.73-1.8-3.99-4.59-3.9-2.83,.09-5.66,.02-8.49,.02-5.29,0-6.26,.9-6.3,6.26-.06,8.05-.02,16.1-.02,24.15,0,9.29-4.76,13.55-13.83,11.86-12.68-2.36-25.28-2.34-37.85,.4-4.3,.94-8.5,2.35-12.74,3.54,2.52,.78,4.8,.81,7.07,.78,7.64-.13,15.17,.33,22.55,2.68,4.55,1.45,7.37,4.29,8,8.88,.58,4.24-1.62,7.31-4.9,10-5.62,4.6-11.31,9.19-16.29,14.43-4.09,4.3-7.2,9.53-10.74,14.35,.26,.22,.52,.44,.78,.66,1.95-1.31,3.89-2.64,5.86-3.91,11.64-7.5,23.8-13.58,38.05-13.96,5.05-.13,10.09,.3,12.58,5.52,1.06,2.22,1.25,5.02,1.27,7.56,.11,14.69,.46,29.37,3.06,43.87,.96,5.36,2.58,10.61,3.89,15.9Z"/><path class="cls-1" d="M167.63,327.04c.02-3.58,2.1-5.96,5.26-6.34,3.23-.39,6.15,1.33,6.63,4.41,1.2,7.72,3.77,14.91,7.53,21.74,1.68,3.06,.69,6.28-2.01,8-2.7,1.71-6.27,1.24-8.09-1.59-5.18-8.09-8.05-17.05-9.32-26.22Z"/><path class="cls-1" d="M167.72,299.97c1.77-7.36,3.35-14.78,5.38-22.07,1.12-4.02,4.38-5.59,7.74-4.45,3.67,1.24,4.71,4.07,3.68,8.42-1.52,6.42-2.81,12.89-4,19.38-.69,3.75-2.99,5.92-6.63,5.66-3.37-.24-5.71-3.09-6.16-6.93Z"/></g></g><path class="cls-1" d="M308.59,617.18C138.44,617.18,0,478.75,0,308.59S138.44,0,308.59,0s308.59,138.44,308.59,308.59-138.44,308.59-308.59,308.59Zm0-609.86C142.48,7.33,7.33,142.47,7.33,308.59s135.15,301.26,301.26,301.26,301.26-135.15,301.26-301.26S474.71,7.33,308.59,7.33Z"/></svg>