<?xml version="1.0" encoding="utf-8"?>
<!-- Generator: Adobe Illustrator 27.0.0, SVG Export Plug-In . SVG Version: 6.00 Build 0)  -->
<svg version="1.1" id="Layer_1" xmlns="http://www.w3.org/2000/svg" xmlns:xlink="http://www.w3.org/1999/xlink" x="0px" y="0px"
	 viewBox="0 0 612.84 539.16" style="enable-background:new 0 0 612.84 539.16;" xml:space="preserve">
<style type="text/css">
	.st0{fill:#FFFFFF;stroke:#00B4EC;stroke-width:3;stroke-miterlimit:10;}
	.st1{fill:#003DA5;}
	.st2{fill:#E01837;}
	.st3{fill:#004B97;}
	.st4{fill:#004C99;}
	.st5{fill:#1B459B;}
	.st6{fill:#60D8F4;}
	.st7{fill:#FFFFFF;}
	.st8{fill:none;}
	.st9{fill:#1A459C;}
	.st10{fill:#00B4EC;}
	.st11{fill:#EBF9FC;}
</style>
<g>
	<circle class="st0" cx="334.07" cy="284.87" r="172.67"/>
	<g id="DNLTJt_00000106857892495769505920000006640488667935136444_">
		<g>
			<g>
				<path class="st1" d="M338.3,182.68c21.56,12.65,43.11,25.3,64.67,37.94c11.74,6.89,23.46,13.81,35.24,20.63
					c2.06,1.19,2.87,2.69,2.87,5.06c-0.05,46.21-0.03,92.42-0.04,138.63c0,3.98-1,4.96-5.06,4.97c-4.72,0-9.44,0-14.16,0
					c-3.76,0-4.82-1.05-4.82-4.81c0-29.68,0-59.36,0-89.04c0-0.87,0-1.73,0-2.75c-53.01,0-105.84,0-159.01,0c0,0.85,0,1.7,0,2.54
					c0,29.55,0,59.09,0,88.64c0,4.58-0.85,5.42-5.43,5.42c-4.52,0-9.04-0.09-13.56,0.04c-2.21,0.06-3.94-0.49-5.13-2.4
					c0-48.99,0-97.97,0-146.96c1.02-0.93,1.91-2.09,3.09-2.74c18.67-10.37,37.38-20.66,56.07-30.98
					c14.56-8.04,29.1-16.11,43.65-24.17C337.22,182.68,337.76,182.68,338.3,182.68z M434.2,383.07c0.04-0.8,0.1-1.39,0.1-1.98
					c0-44.19,0-88.38,0.04-132.57c0-1.35-0.47-2.04-1.58-2.69c-31.29-18.31-62.56-36.65-93.82-55.01c-1.05-0.62-1.87-0.64-2.95-0.04
					c-31.13,17.22-62.28,34.41-93.44,51.56c-1.35,0.74-1.88,1.51-1.88,3.11c0.05,45.13,0.04,90.27,0.04,135.4c0,0.71,0,1.43,0,2.18
					c3.64,0,6.98,0,10.59,0c0-1.04,0-1.96,0-2.88c0-38.66,0-77.31,0-115.97c0-0.81-0.05-1.63,0.05-2.43
					c0.2-1.69,1.21-2.66,2.88-2.89c0.66-0.09,1.35-0.04,2.02-0.04c54.16,0,108.33,0,162.49,0c4.23,0,4.99,0.78,4.99,5.11
					c0,38.79,0,77.58,0,116.37c0,0.91,0,1.81,0,2.78C427.38,383.07,430.67,383.07,434.2,383.07z M258.09,272.44
					c53.01,0,105.89,0,158.75,0c0-2.35,0-4.54,0-6.77c-52.98,0-105.8,0-158.85,0c0,1.66-0.01,3.19,0,4.73
					C258,271.05,258.06,271.7,258.09,272.44z M416.91,279.52c-53.05,0-105.92,0-158.75,0c0,2.36,0,4.55,0,6.73
					c53,0,105.83,0,158.75,0C416.91,283.98,416.91,281.84,416.91,279.52z"/>
				<path class="st1" d="M361.8,341.74c0-1.18,0-1.99,0-2.79c0-11.4,0-22.81,0-34.21c0-3.49,1.07-4.54,4.63-4.54
					c12.95-0.01,25.91-0.01,38.86,0c3.54,0,4.62,1.07,4.62,4.55c0,26.85,0,53.71,0,80.56c0,3.5-1.08,4.58-4.59,4.58
					c-26.78,0-53.56,0-80.35,0c-3.59,0-4.67-1.09-4.67-4.75c-0.01-12.89-0.01-25.78,0-38.66c0-3.86,0.92-4.74,4.81-4.74
					c11.33,0,22.67,0,34,0C359.91,341.74,360.7,341.74,361.8,341.74z M361.74,383.02c0-0.9,0-1.69,0-2.48c0-9.04,0-18.07,0-27.11
					c0-5.26,0-5.22-5.3-5.07c-1.28,0.04-1.8,0.39-1.76,1.74c0.08,2.76,0.07,5.53-0.02,8.29c-0.08,2.63-1.28,3.81-3.92,3.85
					c-4.25,0.06-8.5,0.07-12.74,0c-2.64-0.05-3.76-1.25-3.81-3.91c-0.05-2.76,0.04-5.53-0.06-8.29c-0.02-0.55-0.6-1.52-0.97-1.54
					c-1.98-0.16-3.99-0.07-5.98-0.07c0,11.75,0,23.17,0,34.6C338.72,383.02,350.09,383.02,361.74,383.02z M368.68,383
					c11.6,0,22.96,0,34.31,0c0-11.54,0-22.95,0-34.29c-2.37,0-4.56,0-6.87,0c0,3.19,0.01,6.22,0,9.25c-0.01,3.08-1.18,4.26-4.3,4.29
					c-3.91,0.03-7.82,0.02-11.73,0c-3.4-0.02-4.5-1.12-4.51-4.48c-0.01-3.01,0-6.02,0-9.11c-2.45,0-4.63,0-6.91,0
					C368.68,360.16,368.68,371.52,368.68,383z M396.13,307.02c0,3.41,0.03,6.64-0.01,9.86c-0.03,2.6-1.26,3.82-3.86,3.84
					c-4.11,0.03-8.22,0.02-12.33,0.01c-3.27-0.01-4.33-1.08-4.34-4.36c-0.01-3.08,0-6.15,0-9.3c-2.47,0-4.65,0-6.9,0
					c0,11.54,0,22.94,0,34.38c11.52,0,22.88,0,34.33,0c0-11.52,0-22.92,0-34.42C400.74,307.02,398.6,307.02,396.13,307.02z
					 M344.51,348.39c-4.25,0.06-3.68-0.48-3.69,3.59c-0.01,4.17-0.4,3.57,3.48,3.57c4.26,0,3.68,0.6,3.68-3.76
					C347.99,348.05,348.57,348.42,344.51,348.39z M389.26,307.09c-2.4,0-4.58,0-6.8,0c0,2.35,0,4.54,0,6.81c2.31,0,4.5,0,6.8,0
					C389.26,311.6,389.26,309.41,389.26,307.09z M389.27,348.67c-2.36,0-4.55,0-6.79,0c0,2.31,0,4.48,0,6.73c2.33,0,4.51,0,6.79,0
					C389.27,353.13,389.27,351,389.27,348.67z"/>
				<path class="st1" d="M337.57,231.18c5.46,0,10.92-0.02,16.37,0.01c3.06,0.02,4.14,1.12,4.15,4.13c0.01,4.11,0.02,8.22,0,12.33
					c-0.01,2.77-1.12,4.01-3.9,4.02c-11.12,0.05-22.23,0.05-33.35,0c-2.87-0.01-3.94-1.24-3.95-4.18c-0.01-4.11-0.02-8.22,0-12.33
					c0.01-2.79,1.12-3.95,3.9-3.97C326.39,231.15,331.98,231.18,337.57,231.18z M351.26,237.97c-9.2,0-18.32,0-27.46,0
					c0,2.39,0,4.63,0,6.89c9.24,0,18.3,0,27.46,0C351.26,242.51,351.26,240.32,351.26,237.97z"/>
			</g>
		</g>
	</g>
</g>
</svg>
