<?xml version="1.0" encoding="utf-8"?>
<!-- Generator: Adobe Illustrator 27.0.0, SVG Export Plug-In . SVG Version: 6.00 Build 0)  -->
<svg version="1.1" id="Layer_1" xmlns="http://www.w3.org/2000/svg" xmlns:xlink="http://www.w3.org/1999/xlink" x="0px" y="0px"
	 viewBox="0 0 612.84 539.16" style="enable-background:new 0 0 612.84 539.16;" xml:space="preserve">
<style type="text/css">
	.st0{fill:#FFFFFF;stroke:#00B4EC;stroke-width:3;stroke-miterlimit:10;}
	.st1{fill:#003DA5;}
	.st2{fill:#E01837;}
	.st3{fill:#004B97;}
	.st4{fill:#004C99;}
	.st5{fill:#1B459B;}
	.st6{fill:#60D8F4;}
	.st7{fill:#FFFFFF;}
	.st8{fill:none;}
	.st9{fill:#1A459C;}
	.st10{fill:#00B4EC;}
	.st11{fill:#EBF9FC;}
</style>
<g>
	<circle class="st0" cx="306.42" cy="282.89" r="172.67"/>
	<g>
		<g>
			<path class="st2" d="M399.47,302.56v-39.37h-19.78V224h-46.82v39.19h-19.78v39.18h-96.83c-12.6,0-22.84,10.25-22.84,22.84v4.77
				c0,12.59,10.25,22.84,22.84,22.84h180.32c12.6,0,22.84-10.25,22.84-22.84v-4.77C419.42,313.6,410.7,303.98,399.47,302.56z
				 M392.21,302.37h-32.3v-31.92h32.3V302.37z M340.13,231.26h32.3v31.92h-12.52h-7.26h-12.52V231.26z M320.35,270.45h32.3v31.92
				h-32.3V270.45z M412.16,329.98c0,8.59-6.99,15.58-15.58,15.58H216.26c-8.59,0-15.58-6.99-15.58-15.58v-4.77
				c0-8.59,6.99-15.58,15.58-15.58h180.32c8.59,0,15.58,6.99,15.58,15.58V329.98z"/>
			<path class="st2" d="M247.08,313.66c-7.68,0-13.93,6.25-13.93,13.93s6.25,13.93,13.93,13.93s13.93-6.25,13.93-13.93
				S254.76,313.66,247.08,313.66z M247.08,334.27c-3.68,0-6.67-2.99-6.67-6.67c0-3.68,2.99-6.67,6.67-6.67
				c3.68,0,6.67,2.99,6.67,6.67C253.75,331.27,250.76,334.27,247.08,334.27z"/>
			<path class="st2" d="M286.64,313.66c-7.68,0-13.93,6.25-13.93,13.93s6.25,13.93,13.93,13.93c7.68,0,13.93-6.25,13.93-13.93
				S294.32,313.66,286.64,313.66z M286.64,334.27c-3.68,0-6.67-2.99-6.67-6.67c0-3.68,2.99-6.67,6.67-6.67
				c3.68,0,6.67,2.99,6.67,6.67C293.31,331.27,290.32,334.27,286.64,334.27z"/>
			<path class="st2" d="M326.2,313.66c-7.68,0-13.93,6.25-13.93,13.93s6.25,13.93,13.93,13.93c7.68,0,13.93-6.25,13.93-13.93
				S333.88,313.66,326.2,313.66z M326.2,334.27c-3.68,0-6.67-2.99-6.67-6.67c0-3.68,2.99-6.67,6.67-6.67c3.68,0,6.67,2.99,6.67,6.67
				C332.87,331.27,329.88,334.27,326.2,334.27z"/>
			<path class="st2" d="M365.76,313.66c-7.68,0-13.93,6.25-13.93,13.93s6.25,13.93,13.93,13.93c7.68,0,13.93-6.25,13.93-13.93
				S373.44,313.66,365.76,313.66z M365.76,334.27c-3.68,0-6.67-2.99-6.67-6.67c0-3.68,2.99-6.67,6.67-6.67s6.67,2.99,6.67,6.67
				C372.43,331.27,369.43,334.27,365.76,334.27z"/>
			<path class="st2" d="M247.35,268.67c6.18,0,11.22-5.03,11.22-11.22s-5.03-11.22-11.22-11.22c-6.18,0-11.22,5.03-11.22,11.22
				S241.16,268.67,247.35,268.67z M247.35,253.5c2.18,0,3.95,1.77,3.95,3.95c0,2.18-1.77,3.95-3.95,3.95
				c-2.18,0-3.95-1.77-3.95-3.95C243.39,255.27,245.17,253.5,247.35,253.5z"/>
			<path class="st2" d="M247.35,278.26c11.47,0,20.81-9.34,20.81-20.81s-9.33-20.81-20.81-20.81c-11.47,0-20.81,9.34-20.81,20.81
				S235.87,278.26,247.35,278.26z M247.35,243.91c7.47,0,13.55,6.08,13.55,13.55c0,7.47-6.08,13.55-13.55,13.55
				s-13.55-6.08-13.55-13.55C233.8,249.98,239.88,243.91,247.35,243.91z"/>
			<path class="st2" d="M213.25,268.54h6.02c0.12,0.32,0.25,0.63,0.39,0.94l-4.25,4.25c-0.95,0.95-1.47,2.2-1.47,3.54
				c0,1.34,0.52,2.6,1.47,3.54l8.59,8.59c0.95,0.95,2.2,1.47,3.54,1.47c1.34,0,2.6-0.52,3.54-1.47l4.25-4.25
				c0.31,0.13,0.62,0.26,0.94,0.39v6.02c0,2.76,2.25,5.01,5.01,5.01h12.14c2.76,0,5.01-2.25,5.01-5.01v-6.02
				c0.32-0.12,0.63-0.25,0.94-0.39l4.25,4.26c1.95,1.95,5.13,1.95,7.08,0l8.58-8.59c0.95-0.95,1.47-2.2,1.47-3.54
				c0-1.34-0.52-2.6-1.47-3.54l-4.25-4.25c0.14-0.31,0.27-0.63,0.39-0.94h6.02c2.76,0,5.01-2.25,5.01-5.01v-12.14
				c0-2.76-2.25-5.01-5.01-5.01h-6.02c-0.12-0.32-0.25-0.63-0.39-0.94l4.25-4.25c1.95-1.95,1.95-5.13,0-7.09l-8.59-8.59
				c-1.95-1.95-5.13-1.95-7.08,0l-4.25,4.25c-0.31-0.13-0.63-0.26-0.94-0.39v-6.02c0-2.76-2.25-5.01-5.01-5.01h-12.14
				c-2.76,0-5.01,2.25-5.01,5.01v6.02c-0.32,0.12-0.63,0.25-0.94,0.39l-4.25-4.25c-0.95-0.95-2.21-1.47-3.54-1.47
				c-1.34,0-2.6,0.52-3.54,1.47l-8.59,8.59c-1.95,1.95-1.95,5.13,0,7.09l4.25,4.25c-0.14,0.31-0.27,0.62-0.39,0.94h-6.02
				c-2.76,0-5.01,2.25-5.01,5.01v12.14C208.24,266.29,210.48,268.54,213.25,268.54z M215.5,253.63h5.34c2.16,0,4.07-1.38,4.75-3.42
				c0.35-1.04,0.77-2.06,1.25-3.03c0.97-1.93,0.59-4.25-0.94-5.77l-3.78-3.78l5.4-5.4l3.78,3.78c1.53,1.53,3.85,1.9,5.77,0.94
				c0.97-0.49,1.99-0.91,3.03-1.25c2.04-0.68,3.42-2.59,3.42-4.75v-5.35h7.64v5.35c0,2.16,1.37,4.07,3.42,4.75
				c1.04,0.34,2.06,0.77,3.03,1.25c1.92,0.96,4.25,0.59,5.77-0.94l3.78-3.78l5.4,5.4l-3.78,3.78c-1.53,1.53-1.91,3.85-0.94,5.77
				c0.49,0.97,0.91,1.99,1.25,3.03c0.68,2.04,2.59,3.42,4.75,3.42h5.35v7.64h-5.35c-2.16,0-4.07,1.37-4.75,3.42
				c-0.34,1.04-0.76,2.06-1.25,3.03c-0.97,1.93-0.59,4.25,0.94,5.77l3.78,3.78l-5.4,5.4l-3.78-3.78c-1.53-1.53-3.85-1.91-5.77-0.94
				c-0.97,0.49-1.99,0.91-3.03,1.25c-2.04,0.68-3.42,2.59-3.42,4.75v5.34h-7.64v-5.34c0-2.16-1.37-4.07-3.42-4.75
				c-1.04-0.35-2.06-0.77-3.03-1.25c-1.93-0.97-4.25-0.59-5.77,0.94l-3.78,3.78l-5.4-5.4l3.78-3.78c1.53-1.53,1.91-3.85,0.94-5.77
				c-0.49-0.97-0.91-1.99-1.25-3.03c-0.68-2.05-2.59-3.42-4.75-3.42h-5.34V253.63z"/>
		</g>
	</g>
</g>
</svg>
