<?xml version="1.0" encoding="UTF-8"?><svg id="Layer_1" xmlns="http://www.w3.org/2000/svg" viewBox="0 0 617.18 617.18"><defs><style>.cls-1{fill:#00aeef;}</style></defs><path class="cls-1" d="M308.59,617.33C138.44,617.33,0,478.89,0,308.74S138.44,.14,308.59,.14s308.59,138.44,308.59,308.59-138.44,308.59-308.59,308.59Zm0-609.86C142.48,7.47,7.33,142.62,7.33,308.74s135.15,301.26,301.26,301.26,301.26-135.15,301.26-301.26S474.71,7.47,308.59,7.47Z"/><g id="w0boAi"><path class="cls-1" d="M350.43,143.22c5.39,2.17,10.74,4.43,16.17,6.48,17.99,6.79,35.99,13.57,54.03,20.22,11.09,4.09,18.74,11.45,22.49,22.72,10.58,31.77,21.19,63.53,31.72,95.31,3.33,10.04-2.46,19.66-12.35,20.66-5.5,.56-11.03,.92-16.54,1.34-12.47,.95-24.94,1.88-37.4,2.82-.43,.03-.84,.17-1.65,.35v3.89c0,47.5,0,95,0,142.5,0,5.7-.65,6.65-5.89,8.49-35.58,12.47-72.29,16.62-109.78,14.94-25.99-1.16-51.45-5.28-76.19-13.52-1.57-.52-3.13-1.08-4.69-1.65-4.69-1.72-5.37-2.7-5.37-7.83,0-47.61,0-95.22,0-142.84,0-1.3,0-2.6,0-4.13-6.58-.54-12.84-1.08-19.1-1.57-12.03-.93-24.06-1.77-36.08-2.77-5.9-.49-10.06-3.66-12.59-8.98-.47-.98-.88-1.98-1.32-2.97,0-1.99,0-3.99,0-5.98,.31-.68,.69-1.33,.92-2.03,10.72-32.17,21.41-64.36,32.16-96.52,3.51-10.52,10.59-17.72,20.93-21.64,11.98-4.55,24.01-8.96,36-13.48,12.08-4.56,24.14-9.2,36.2-13.8,29.45,0,58.9,0,88.35,0Zm56.46,159.09c18.12-1.42,35.66-2.78,53.19-4.19,4.54-.36,6.05-2.61,4.61-6.93-10.52-31.68-21.08-63.34-31.61-95.02-2.58-7.75-7.63-13.04-15.3-15.89-11.91-4.42-23.8-8.92-35.7-13.38-2.85-1.07-5.7-2.11-8.58-3.18-8.46,33.18-35.21,52.58-62.63,53.6-37.79,1.41-61.29-18.1-72.93-53.57-15.5,5.88-31.15,11.62-46.63,17.79-6.26,2.49-10.2,7.64-12.33,14.04-10.63,31.87-21.25,63.75-31.85,95.64-1.42,4.29,.11,6.54,4.65,6.91,13.46,1.09,26.92,2.13,40.38,3.18,4.15,.32,8.3,.58,12.78,.89,0-1.49,0-2.57,0-3.66,0-10.08,0-20.15,0-30.23,0-5.47,1.61-8,5.17-8.11,3.69-.12,5.46,2.52,5.46,8.14,0,62.11,.03,124.23-.08,186.34,0,2.98,.91,4.08,3.69,4.99,23.29,7.61,47.22,11.53,71.64,12.67,34.79,1.63,68.91-2.02,102.16-12.77,2.57-.83,3.32-1.93,3.31-4.6-.1-36.98-.07-73.96-.07-110.94,0-25.69,0-51.37,0-77.06,0-4.24,1.9-6.68,5.17-6.77,3.39-.09,5.44,2.44,5.45,6.83,.02,10.41,0,20.81,0,31.22,0,1.19,0,2.38,0,4.06Zm-137.32-148.3c-.26,16.62,18.82,32.37,38.25,31.71,17.37-.59,35.48-17.27,34.35-31.71h-72.6Zm-10.96,2.12c-2.56,.94-4.79,1.93-7.12,2.57-2.5,.68-2.85,1.84-2.22,4.32,6.22,24.35,27.96,42.53,52.75,43.92,25.92,1.45,49.38-13.56,58.42-37.46,1.16-3.06,1.97-6.25,3-9.58-3.64-1.36-6.8-2.54-10.23-3.82-2.16,11.43-7.25,20.93-15.79,28.4-8.54,7.48-18.55,11.48-29.91,11.87-10.13,.35-19.48-2.3-27.92-7.94-11.54-7.7-18.3-18.61-20.99-32.29Z"/></g></svg>