<?xml version="1.0" encoding="UTF-8"?><svg id="Layer_1" xmlns="http://www.w3.org/2000/svg" viewBox="0 0 617.18 617.18"><defs><style>.cls-1{fill:#00aeef;}</style></defs><path class="cls-1" d="M308.59,617.19C138.44,617.19,0,478.75,0,308.59S138.44,0,308.59,0s308.59,138.44,308.59,308.59-138.44,308.59-308.59,308.59Zm0-609.86C142.48,7.33,7.33,142.48,7.33,308.59s135.15,301.26,301.26,301.26,301.26-135.15,301.26-301.26S474.71,7.33,308.59,7.33Z"/><g id="_37WUZj"><g><path class="cls-1" d="M288.18,510.85c-4.16-2.07-6.86-5.26-8.88-9.54-19.11-40.53-50.58-66.58-93.43-79.09-10.04-2.93-12.29-5.7-12.29-16.06,0-10.67-.05-21.35,.02-32.02,.06-9.64,5.48-14.34,15.06-13.18,51.17,6.18,102.49,8.43,154,6.22,4.11-.18,8.22-.51,12.33-.64,4.43-.13,7.18,2.11,7.2,5.66,.02,3.4-2.55,5.81-6.74,5.86-27.51,.36-55.05,1.61-82.52,.68-28.36-.96-56.65-4.05-84.97-6.21-.74-.06-1.48-.1-2.76-.18,0,3.38-.24,6.58,.16,9.7,.11,.82,2.18,1.84,3.44,1.98,13.16,1.45,26.32,2.95,39.51,4.03,36.57,3,73.21,4.28,109.85,2.25,26.3-1.46,52.53-4.12,78.8-6.19,2.66-.21,3.94-1.15,3.63-4.05-.26-2.4-.05-4.85-.05-7.83-7.47,.81-14.56,1.6-21.65,2.33-4.86,.5-9.72,1.02-14.59,1.33-3.84,.25-6.25-1.69-6.61-4.93-.38-3.44,1.65-6.04,5.6-6.49,12.13-1.39,24.27-2.76,36.43-3.84,6.88-.61,12.21,4.84,12.36,12.35,.16,7.97,.05,15.95,.05,23.92,0,3.86,.05,7.72-.02,11.57-.14,7.38-2.9,11.15-10.06,13.11-15.61,4.26-30.3,10.53-43.85,19.41-22.61,14.81-39.67,34.49-51.16,58.91-2.2,4.68-4.71,8.71-9.52,10.94h-29.33Zm-103.02-115.59c0,4.42,.09,8.13-.03,11.84-.07,2.14,.63,3.1,2.8,3.75,6.27,1.87,12.57,3.76,18.6,6.25,38.02,15.69,65.92,42.08,83.31,79.43,.94,2.01,2,2.89,4.33,2.81,5.52-.19,11.07-.24,16.59,.01,2.92,.14,4.22-.96,5.41-3.53,11.72-25.28,29.01-45.98,51.87-61.93,14.88-10.38,31.09-17.97,48.6-22.77,1.4-.38,3.58-1.53,3.67-2.49,.4-4.29,.17-8.63,.17-13.34-78.6,9.86-156.67,9.88-235.33-.04Z"/><path class="cls-1" d="M319.25,324.71c-12.68,8.69-20.62,8.7-32.79-.06-2.19,1.76-4.43,3.62-6.73,5.4-16.68,12.89-35.65,19.77-56.6,20.88-32.96,1.76-61.54-27.76-60.44-61.36,.88-26.78,7.62-52.27,15.25-77.65,1.09-3.62,4.3-5.28,7.5-4.22,2.98,.99,4.47,4.02,3.55,7.54-3.56,13.53-7.57,26.96-10.64,40.6-3.02,13.43-4.75,27.14-3.66,40.96,2.08,26.38,25.65,45.29,51.88,42.28,19.65-2.26,36.89-9.59,51.64-22.8,1.7-1.52,2.03-3,2.09-5.28,.1-4.14,.57-8.47,1.98-12.32,.95-2.59,.74-4.08-.69-6.15-17.51-25.31-39.78-45.29-66.76-60.07-8.54-4.68-10.78-9.36-9.22-18.97,.55-3.42,1.21-6.83,1.83-10.24,4.49-24.64,8.97-49.29,13.45-73.93,.09-.5,.06-1.02,.11-1.78h-6.91c-1.22,4.17-2.53,8.55-3.79,12.95-4.43,15.56-8.76,31.15-13.38,46.65-.62,2.09-2.35,4.44-4.22,5.43-3.3,1.73-7.19-1.09-7.37-4.87-.06-1.25,.23-2.56,.58-3.78,5.6-19.76,11.22-39.52,16.86-59.27,1.95-6.83,4.8-8.92,11.98-8.93,2.83,0,5.66-.07,8.49,.02,6.73,.2,10.84,5.25,9.64,11.93-5.29,29.46-10.57,58.92-15.99,88.35-.54,2.91,.18,4.59,2.71,5.95,29.32,15.75,53.31,37.45,72.11,64.9,.14,.21,.35,.37,.78,.83,6.73-2.97,13.7-3.14,20.09-.21,7.81-9.26,15.08-18.59,23.1-27.23,14.28-15.39,30.98-27.78,49.44-37.75,3-1.62,4.28-3.25,3.59-6.95-5.42-29.17-10.62-58.39-15.87-87.59-1.28-7.13,2.83-12.11,10.05-12.23,3.09-.05,6.17-.04,9.26,0,5.74,.08,8.82,2.44,10.5,8.29,8.17,28.51,16.52,56.97,24.35,85.57,4.95,18.06,9.75,36.21,13.4,54.56,2.69,13.56,4.23,27.53,.83,41.35-7.62,30.97-36.79,49.97-68.14,44.52-21.57-3.76-31.34-8.34-53.84-25.29Zm65.48-197.28c0,.79-.06,1.19,0,1.56,5,27.55,9.95,55.1,15.03,82.63,2.11,11.44,0,15.93-10.28,21.63-26.54,14.71-48.39,34.62-65.64,59.6-1.29,1.87-1.3,3.23-.58,5.48,1.29,4.06,1.95,8.43,2.09,12.69,.07,2.29,.46,3.76,2.13,5.26,14.75,13.2,31.98,20.54,51.63,22.79,26.19,3,49.9-15.97,51.85-42.29,1.2-16.29-1.04-32.41-5.19-48.1-7.02-26.55-14.73-52.92-22.2-79.36-3.94-13.95-7.96-27.88-11.96-41.9h-6.89Zm-81.72,192.09c6.17-.08,11.31-5.33,11.19-11.44-.13-6.19-5.31-11.16-11.54-11.08-6.17,.08-11.31,5.33-11.19,11.43,.13,6.17,5.33,11.17,11.54,11.08Z"/></g></g></svg>