<?xml version="1.0" encoding="UTF-8"?><svg id="Layer_1" xmlns="http://www.w3.org/2000/svg" viewBox="0 0 617.18 617.18"><defs><style>.cls-1{fill:#00aeef;}</style></defs><path class="cls-1" d="M308.59,617.19C138.44,617.19,0,478.75,0,308.59S138.44,0,308.59,0s308.59,138.44,308.59,308.59-138.44,308.59-308.59,308.59Zm0-609.86C142.48,7.33,7.33,142.48,7.33,308.59s135.15,301.26,301.26,301.26,301.26-135.15,301.26-301.26S474.71,7.33,308.59,7.33Z"/><g id="dU7eXH"><g><path class="cls-1" d="M250.56,118.16c5.94,2.12,10.88,5.35,12.49,11.91,.54,2.19,.68,4.53,.68,6.8,.05,19.22,.03,38.45,.03,57.67,0,1.42,0,2.83,0,4.7,4.96,0,9.52-.01,14.08,0,4.97,.02,7.49,1.81,7.54,5.3,.05,3.65-2.56,5.57-7.74,5.57-22.49,.01-44.98,0-67.47,0-1.42,0-2.83,0-4.43,0v47.33h154.88v-47.33c-1.42,0-2.71,0-4,0-11.97,0-23.94,.02-35.91-.02-1.43,0-2.92-.09-4.29-.47-2.69-.76-3.9-2.77-3.67-5.5,.21-2.58,1.7-4.23,4.26-4.7,1.18-.22,2.41-.18,3.61-.18,30.11,0,60.21-.01,90.32,0,8.4,0,11.59,3.19,11.59,11.56,0,89.11,0,178.22,0,267.33,0,8.05-3.39,11.47-11.37,11.47-46.43,0-92.86,0-139.29,0-.85,0-1.7,.04-2.54-.03-3.38-.29-5.66-2.55-5.6-5.51,.06-2.84,2.23-4.99,5.44-5.29,1.08-.1,2.17-.05,3.26-.05,28.05,0,56.1,0,84.15,0h4.07v-47.55H205.88v47.55c1.28,0,2.57,0,3.86,0,7.13,0,14.27-.08,21.4,.05,3.41,.06,5.66,2.41,5.65,5.4,0,2.86-2.14,5.3-5.31,5.34-9.55,.13-19.11,.19-28.65-.05-4.28-.1-7.76-4.07-8.1-8.39-.1-1.2-.05-2.42-.05-3.63,0-88.75,0-177.49,0-266.24,0-8.89,3.06-11.97,11.91-11.97,8.45,0,16.9,0,25.67,0v-49.31c-8.1,0-16.16,0-24.23,0-1.69,0-3.4,.08-5.07-.13-4.78-.6-8.11-4.22-8.24-9.05-.12-4.47-.02-8.95-.03-13.42-.01-4.64,3.08-7.04,6.56-9.18h49.33Zm110.16,301.75v-151.02H205.78v151.02h154.95Zm11.66-151.02v150.87h39.13v-150.87h-39.13Zm39.06,209.72v-47.47h-39v47.47h39Zm-38.98-261.77v40.65h38.86v-40.94c-5.06,4.2-9.7,8.06-14.36,11.9-4.41,3.63-6.07,3.63-10.39,.07-4.54-3.75-9.08-7.51-14.11-11.67Zm-166.76-77.79c9.21,0,18.01-.02,26.8,0,7.61,.02,10.93,3.37,10.94,11.06,.02,14.97,0,29.94,0,44.92,0,1.28,0,2.56,0,4.01h9.18c.09-1.12,.24-2.06,.24-2.99,.01-19.92,.02-39.84,0-59.77,0-5.5-1.82-7.23-7.49-7.24-12.19-.02-24.39-.01-36.58,0-1.03,0-2.07,.13-3.1,.2v9.8Zm195.32,71.39h-19.15c3.67,3.05,6.74,5.6,9.88,8.2,3.09-2.58,5.86-4.88,8.6-7.19,.24-.2,.36-.53,.67-1.01Z"/><path class="cls-1" d="M285.16,308.53c0-4.25-.01-8.57,0-12.89,.01-3.18,1.41-5.35,4.68-5.92,3.05-.53,5.72,1.68,6.04,5.24,.24,2.7,.05,5.44,.44,8.29,3.79-6.83,8.88-12.06,15.76-15.48,8.49-4.22,17.15-4.43,25.95-1.14,2.66,.99,4.03,2.91,3.96,5.83-.28,11.9-5.4,21.06-15.51,27.39-1.12,.7-2.3,1.32-3.45,1.99-.2,.12-.34,.34-.5,.51,20.85,22.39,14.92,50.03,3.68,63.91-13.42,16.57-35.86,22.67-55.54,14.73-19.91-8.02-31.62-27.81-29.61-49.88,1.51-16.57,14.56-38.9,44.1-42.58Zm40.4,48.13c.21-19.93-16.29-36.72-36.41-37.04-20.57-.33-37,15.89-37.51,37.03-.48,19.96,16.83,36.93,37.69,36.93,19.47,0,36.02-16.86,36.23-36.92Zm-19.9-45.18c9.55,5.61,23.77-3.32,24.8-15.35-9.01-3.67-22.89,4.41-24.8,15.35Z"/></g></g></svg>