<?xml version="1.0" encoding="UTF-8"?><svg id="Layer_1" xmlns="http://www.w3.org/2000/svg" viewBox="0 0 617.18 617.18"><defs><style>.cls-1{fill:#00aeef;}</style></defs><path class="cls-1" d="M308.59,617.19C138.44,617.19,0,478.75,0,308.59S138.44,0,308.59,0s308.59,138.44,308.59,308.59-138.44,308.59-308.59,308.59Zm0-609.86C142.48,7.33,7.33,142.48,7.33,308.59s135.15,301.26,301.26,301.26,301.26-135.15,301.26-301.26S474.71,7.33,308.59,7.33Z"/><g id="LHb2CO"><g><path class="cls-1" d="M160.18,482.37c-5.53-2.43-11.58-4.11-16.48-7.46-9.47-6.49-14.28-16.17-14.42-27.64-.25-21.37-.1-42.75-.08-64.12,0-4.81,3.12-8.14,7.31-8.06,4.22,.08,7.07,3.33,7.07,8.29,.03,20.41,0,40.83,.02,61.24,.01,14.37,9,23.34,23.4,23.34,84.79,0,169.57,0,254.36,0,14.41,0,23.42-8.97,23.43-23.31,.01-13.45-.02-26.9-.04-40.34,0-.22-.12-.45-.32-1.16-1.25,0-2.64,0-4.04,0-34.95,0-69.89,.04-104.84-.01-30.17-.05-53.93-24.13-53.6-54.19,.31-28.52,23.79-52.15,52.56-52.35,35.19-.24,70.37-.07,105.56-.08,1.42,0,2.84,0,4.51,0,.08-1.27,.21-2.3,.21-3.34,.01-12.85,.03-25.7,0-38.54-.04-13.66-9.19-22.88-22.8-22.88-85.15-.02-170.29-.02-255.44,0-13.83,0-22.94,9.18-22.95,23.09-.02,19.81,0,39.62,0,59.44,0,1.08,.04,2.16-.03,3.24-.28,4.16-3.24,7.07-7.15,7.08-3.92,.01-6.99-2.88-7.18-7.03-.15-3.36-.05-6.72-.05-10.08,0-17.41-.02-34.82,0-52.23,.02-22.27,15.16-37.57,37.35-38.02,1.76-.04,3.88-1.11,5.16-2.39,32.43-32.27,64.77-64.64,97.12-96.99,5.93-5.93,8.79-5.94,14.71,0,6.44,6.46,12.85,12.95,19.46,19.61,.94-.82,1.75-1.46,2.48-2.18,6.13-6.1,12.22-12.23,18.35-18.33,4.73-4.7,8.18-4.71,12.92,.02,19.97,19.94,39.92,39.9,59.87,59.85,14.1,14.09,28.18,28.21,42.3,42.27,2.29,2.28,4.74,4.41,7.19,6.52,8.4,7.21,12.92,16.31,13.06,27.37,.16,13.09,.04,26.18,.04,39.26,0,1.29,0,2.58,0,4.27,6.76,0,13.2-.01,19.65,0,6.62,.02,9.17,2.54,9.17,9.13,0,29.54,.01,59.08,0,88.61,0,6.37-2.55,8.86-9,8.88-6.46,.02-12.92,0-19.82,0v4.11c0,12.49,.02,24.98,0,37.46-.04,19.28-11.24,33.08-30.07,37.09-.33,.07-.61,.37-.91,.56H160.18Zm313.36-171.44c-1.64,0-2.94,0-4.24,0-28.09,0-56.19,0-84.28,0-16.81,0-33.62-.2-50.42,.08-20.67,.36-37.46,16.88-38.18,37.1-.8,22.37,16.49,40.53,39,40.59,45.02,.11,90.04,.04,135.07,.03,1.02,0,2.04-.14,3.05-.22v-77.58Zm-228.42-93.86h170.35c-28.47-28.47-56.95-56.95-85.17-85.18-28.24,28.24-56.72,56.72-85.18,85.18Zm31.43-84.93c-28.43,28.42-56.88,56.86-85.21,85.19,9.18,0,18.87-.08,28.56,.05,2.47,.03,4.23-.67,5.98-2.43,21.5-21.61,43.08-43.15,64.64-64.71,.81-.81,1.54-1.69,1.96-2.15-5.64-5.65-11.05-11.06-15.92-15.95Z"/><path class="cls-1" d="M136.4,357.01c-4,0-7.28-3.35-7.18-7.33,.1-3.81,3.39-7.02,7.18-7.02,3.81,0,7.08,3.2,7.18,7.02,.1,3.99-3.17,7.33-7.18,7.33Z"/><path class="cls-1" d="M356.88,349.94c-.04,11.85-9.73,21.49-21.6,21.5-12.02,0-21.72-9.8-21.61-21.84,.11-11.8,9.94-21.44,21.78-21.36,11.82,.09,21.47,9.86,21.43,21.7Zm-14.43-.23c-.09-3.82-3.34-7.03-7.15-7.04-3.94-.02-7.29,3.4-7.21,7.35,.09,3.99,3.5,7.17,7.51,7,3.85-.17,6.93-3.46,6.85-7.3Z"/></g></g></svg>