<?xml version="1.0" encoding="UTF-8"?><svg id="Layer_1" xmlns="http://www.w3.org/2000/svg" viewBox="0 0 617.18 617.18"><defs><style>.cls-1{fill:#00aeef;}</style></defs><path class="cls-1" d="M308.76,617.89C138.6,617.89,.17,479.46,.17,309.3S138.6,.7,308.76,.7s308.59,138.44,308.59,308.59-138.44,308.59-308.59,308.59Zm0-609.86C142.64,8.03,7.5,143.18,7.5,309.3s135.15,301.26,301.26,301.26,301.26-135.15,301.26-301.26S474.87,8.03,308.76,8.03Z"/><g id="NZZUi2"><g><path class="cls-1" d="M192.32,249.53c-.32-.27-.42-.44-.54-.45q-11.37-1.27-11.37-12.89c0-10.47-.02-20.95,0-31.42,.02-5.83,2.04-7.92,7.83-7.98,6.23-.07,12.47-.02,19.18-.02-.31-10.31,2.21-19.49,9.26-26.97,7.06-7.5,15.86-11.03,26.05-10.99,11.67-37.25,60.42-45.29,83.17-11.17,18.62-11.56,37.99-13.29,57.24-2.18,19.26,11.12,27.5,28.76,26.84,51.32,6.25,0,12.3-.02,18.36,0,6.91,.03,8.71,1.86,8.72,8.85,.01,11.35,0,22.69,0,34.04,0,7.56-1.49,9.03-9.2,9.24-.85,.02-1.69,.12-2.84,.21,.63,9.79,1.23,19.33,1.87,28.86,2.21,32.64,4.44,65.29,6.66,97.93,.72,10.59,1.58,21.18,2.08,31.78,.42,8.9,4.46,15.31,11.87,20.08,10.55,6.8,16.03,16.62,15.95,29.26-.12,18.58-14.94,33.45-33.64,33.61-18.76,.16-37.52,.04-56.28,.04-61.67,0-123.33,.06-185-.05-14-.02-24.73-6.32-30.97-18.93-6.05-12.24-4.86-24.35,3.23-35.36,2.44-3.32,5.76-6.24,9.22-8.5,7.55-4.94,11.35-11.55,11.9-20.57,1.66-27.14,3.61-54.27,5.44-81.4,1.66-24.52,3.31-49.04,4.96-73.56,.07-.97,0-1.96,0-2.75Zm12.48-.42c-.83,11.63-1.67,23.07-2.44,34.5-2.74,40.91-5.62,81.81-8.09,122.73-.85,14-6.32,24.74-18.38,32.17-5.44,3.35-8.68,8.54-9.48,14.98-1.74,14.11,8.16,24.95,22.95,24.96,60.78,.04,121.56,.02,182.33,.02,19.19,0,38.39,.08,57.58-.05,10.13-.07,18.1-6.04,21.04-15.31,2.92-9.2-.15-19.17-8.62-24.49-12.66-7.95-17.76-19.3-18.62-33.88-2.67-45.28-5.9-90.53-8.93-135.79-.44-6.61-1-13.22-1.51-19.85H204.8Zm192.55-52.56c.16-1.38,.34-2.23,.35-3.07,.15-17.44-7.19-30.81-22.79-38.61-15.8-7.91-31.03-5.63-44.85,5.29-6.64,5.24-9.42,4.75-13.14-2.95-7.42-15.36-24.65-22.84-40.66-17.28-11.89,4.13-19.2,12.6-22.04,24.92-1.36,5.89-2.87,6.91-8.76,6.48-2.02-.15-4.08-.25-6.09-.09-12.37,1.01-22.2,14.17-18.82,25.32h176.8Zm-204.52,39.79h231.64v-27.09H192.83v27.09Z"/><path class="cls-1" d="M314.84,366.26c0,9.86,.01,19.01,0,28.16,0,5.58-1.98,8.28-6.02,8.33-4.12,.06-6.18-2.63-6.19-8.15-.02-9.28,0-18.55,0-28.36-6.62,3.18-13.07,4.34-19.8,2.48-7.46-2.05-12.95-6.47-15.84-13.73-4.25-10.65-5.8-21.85-6.36-33.21-.2-4.08,2.44-5.9,6.17-6.74-.48-3.91-.96-7.64-1.4-11.37-.82-6.88,.08-8.34,6.52-10.68-.55-4.87-1.29-9.74-1.62-14.64-.36-5.41,2.16-8.14,7.48-7.49,8.18,1,16.29,2.6,24.61,3.97,.21-3.57,1.44-7.46,6.45-7.38,4.76,.07,6.1,3.71,6.17,7.59,7.53-1.39,14.87-3.05,22.29-4.04,8.14-1.09,10.42,1.24,9.78,9.31-.33,4.18-1.05,8.33-1.59,12.49,6.92,3.07,7.43,3.99,6.48,11.52-.43,3.45-.85,6.89-1.26,10.3,5.99,2.8,6.85,3.57,5.88,10.42-1.32,9.31-2.59,18.77-5.41,27.68-4.58,14.5-19.25,20.53-33.4,14.76-.78-.32-1.56-.66-2.94-1.25Zm-40.45-38.46c-.48,.41-.96,.82-1.45,1.23,1.64,6.82,2.94,13.75,5.03,20.43,1.85,5.9,7.06,8.54,13.39,7.77,5.79-.7,10.56-5.64,11.19-11.59,.61-5.69-2.43-11.13-8.07-12.87-6.59-2.03-13.39-3.35-20.1-4.97Zm70.16,1.35c-.45-.45-.9-.9-1.36-1.36-6.82,1.65-13.75,2.98-20.44,5.05-5.56,1.72-8.52,7.32-7.8,13.04,.74,5.85,5.29,10.56,10.96,11.34,6.31,.86,11.64-1.75,13.5-7.58,2.13-6.7,3.46-13.65,5.13-20.49Zm-66.04-22.97c-.3,9.6-.01,9.96,8.07,11.67,2.11,.45,4.22,.99,6.29,1.61,3.09,.93,6.14,1.97,9.29,2.98,.8-6.6-1.29-10.53-6.9-12.25-5.36-1.64-10.9-2.65-16.75-4.03Zm61.01-.15c-6.66,1.62-12.5,2.7-18.09,4.51-5.22,1.69-7.25,6.31-5.95,11.38,6.98-1.68,13.97-3.31,20.91-5.11,.74-.19,1.6-1.27,1.78-2.08,.56-2.49,.82-5.05,1.36-8.7Zm-38.46-7.09c2.66-5.23,1.59-9.98-3.14-11.75-4.52-1.69-9.35-2.54-15.05-4.02,.82,4.18,1.29,7.28,2.11,10.28,.22,.81,1.41,1.68,2.32,1.94,4.44,1.26,8.94,2.33,13.76,3.55Zm33.56-15.7c-5.57,1.36-10.15,2.12-14.48,3.62-5.26,1.82-6.62,6.94-3.61,12.02,4.74-1.18,9.51-2.3,14.23-3.61,.74-.21,1.6-1.2,1.8-1.98,.74-2.91,1.23-5.88,2.06-10.05Z"/><path class="cls-1" d="M262,437.48c-15.54,0-31.08,.04-46.62-.02-5.62-.02-9.11-4.58-6.45-8.7,1.11-1.73,3.91-3.33,5.96-3.34,31.52-.21,63.03-.17,94.55-.12,4.23,0,6.95,2.68,6.83,6.27-.12,3.57-2.83,5.89-7.21,5.9-15.69,.05-31.37,.02-47.06,.02Z"/><path class="cls-1" d="M347.39,437.47c-3.92,0-7.83,.08-11.75-.02-4.18-.11-6.91-2.74-6.78-6.31,.13-3.4,2.78-5.81,6.78-5.86,8.12-.08,16.24-.1,24.36,0,4.08,.05,6.47,2.46,6.47,6.07,0,3.6-2.39,5.96-6.48,6.08-4.2,.12-8.41,.03-12.62,.03Z"/></g></g></svg>