<?xml version="1.0" encoding="UTF-8"?><svg id="Layer_1" xmlns="http://www.w3.org/2000/svg" viewBox="0 0 617.18 617.18"><defs><style>.cls-1{fill:#00aeef;}</style></defs><path class="cls-1" d="M308.59,617.19C138.44,617.19,0,478.75,0,308.59S138.44,0,308.59,0s308.59,138.44,308.59,308.59-138.44,308.59-308.59,308.59Zm0-609.86C142.48,7.33,7.33,142.48,7.33,308.59s135.15,301.26,301.26,301.26,301.26-135.15,301.26-301.26S474.71,7.33,308.59,7.33Z"/><g><path class="cls-1" d="M162.13,186.13c-11.66-1.75-17.24-8.19-17.25-19.77,0-8.51-.02-17.03,0-25.54,.02-5.3,2.01-7.38,7.19-7.38,100.32-.01,200.64-.01,300.97,0,4.97,0,7.03,2.12,7.05,7.16,.04,8.27,.01,16.54,.01,24.81,0,12.55-4.99,18.58-17.35,20.83V442.67c.96,.07,2,.2,3.03,.21,7.9,.02,15.81,0,23.71,.01,6.27,0,8.11,1.8,8.12,7.94,.01,8.27,.01,16.54,0,24.81,0,6.38-1.79,8.12-8.31,8.12-99.23,0-198.46,0-297.68,0-12.16,0-24.32,0-36.48,0-5.91,0-7.77-1.9-7.78-7.91-.01-8.51-.02-17.03,0-25.54,.02-5.44,2.01-7.4,7.54-7.41,8.99-.02,17.97,0,27.22,0V186.13Zm286.28-40.79H156.56c0,6.79,0,13.34,0,19.89,0,7.64,1.44,9.06,9.18,9.06,91.17,0,182.34,0,273.51,0,1.09,0,2.19,.05,3.28-.02,3.48-.25,5.78-2.32,5.84-5.76,.14-7.64,.04-15.29,.04-23.17Zm-274.09,40.79V442.59H430.73V186.13H174.33Zm-35.11,285.7H465.66v-17.08H139.22v17.08Z"/><path class="cls-1" d="M302.86,191.81c37.94,0,75.89,0,113.83,0,6.7,0,8.39,1.69,8.39,8.4,0,76.15,0,152.29,0,228.44,0,6.69-1.7,8.39-8.4,8.39-76.13,0-152.26,0-228.39,0-6.69,0-8.38-1.69-8.38-8.4,0-76.15,0-152.29,0-228.44,0-6.7,1.68-8.38,8.39-8.39,38.19,0,76.37,0,114.56,0Zm-6.47,233.4v-110.49h-104.62v110.49h104.62Zm12.19-110.61v110.49h104.63v-110.49h-104.63Zm104.66-110.85h-104.62v98.82h104.62v-98.82Zm-221.4-.09v98.81h104.62v-98.81h-104.62Z"/><path class="cls-1" d="M258.03,217.58c2.18,2.22,4.72,4.8,6.94,7.07-17.41,17.42-34.81,34.83-52.34,52.35-2.11-2.26-4.59-4.91-6.77-7.24,17.26-17.27,34.66-34.68,52.16-52.18Z"/><path class="cls-1" d="M205.95,239.89c7.25-7.27,14.78-14.83,22.46-22.53,2.34,2.61,4.82,5.36,7.09,7.88-7.21,7.19-14.84,14.8-22.55,22.5-2.13-2.39-4.6-5.16-6.99-7.85Z"/></g></svg>