<?xml version="1.0" encoding="UTF-8"?><svg id="Layer_1" xmlns="http://www.w3.org/2000/svg" viewBox="0 0 617.18 617.18"><defs><style>.cls-1{fill:#00aeef;}</style></defs><path class="cls-1" d="M308.59,617.19C138.44,617.19,0,478.75,0,308.59S138.44,0,308.59,0s308.59,138.44,308.59,308.59-138.44,308.59-308.59,308.59Zm0-609.86C142.48,7.33,7.33,142.48,7.33,308.59s135.15,301.26,301.26,301.26,301.26-135.15,301.26-301.26S474.71,7.33,308.59,7.33Z"/><g id="Ooy2jh"><g><path class="cls-1" d="M169.07,483.03c-3.31-1.74-4.43-4.44-4.43-8.18,.08-60.36-.02-120.72,.09-181.08,.05-26.88,11.27-47.94,33.94-62.62,1.96-1.27,2.59-2.62,2.59-4.9-.07-33.33-.05-66.67-.05-100,0-7.23,1.8-8.99,9.12-8.99,10.48,0,20.95-.01,31.43,0,6.13,0,8.16,2,8.16,8.1,.02,33.57,.03,67.15-.04,100.72,0,2.43,.74,3.83,2.79,5.16,22.67,14.72,33.78,35.84,33.84,62.68,.12,60.24,.03,120.48,.07,180.72,0,3.76-.86,6.82-4.63,8.38h-112.88Zm44.32-268c0,5.15-.27,10.02,.08,14.86,.34,4.78-1.47,7.68-5.61,10.06-20.82,11.97-30.92,30.28-30.95,54.13-.07,57.63-.02,115.25-.02,172.88v3.66h97.3c.06-1.18,.14-2.13,.14-3.07,0-57.98,.1-115.97-.12-173.95-.02-6.56-1.08-13.33-2.92-19.63-4.48-15.33-14.33-26.66-28.3-34.3-3.82-2.09-5.5-4.83-5.29-9.17,.24-5.08,.06-10.18,.06-15.47h-24.36Zm24.13-12.56v-42.22h-23.83v42.22h23.83Zm-23.93-72.88v17.95h23.9v-17.95h-23.9Z"/><path class="cls-1" d="M339.82,483.03c-3.56-1.76-4.61-4.61-4.3-8.51,1.15-14.51,12.9-26.58,27.45-27.79,2.81-.23,5.67-.03,8.72-.03v-66.46c-7.09-2.84-14.13-4.83-20.34-8.32-14.45-8.11-22.36-21.04-25.89-37.11-2.21-10.05-1.13-19.85,.32-29.77,3.07-21.07,6.1-42.14,9.07-63.22,1.03-7.3,2.56-8.78,9.81-8.78,22.38,0,44.76,0,67.15,0,6.53,0,8.29,1.39,9.21,7.78,3.63,25.19,7.98,50.31,10.56,75.62,3.1,30.3-15.16,57.83-47.2,62.61v67.61c2.71,0,5.53-.18,8.31,.03,14.62,1.09,26.46,12.93,27.82,27.45,.37,3.98-.52,7.03-4.25,8.89h-76.44Zm-3.56-164.87h83.25c0-.77,.06-1.24,0-1.69-3.24-22.82-6.52-45.64-9.71-68.48-.32-2.28-1.29-2.84-3.47-2.83-12.01,.09-24.03,.05-36.04,.05-7.72,0-15.44,0-23.55,0-3.5,24.36-6.97,48.54-10.48,72.95Zm82.34,12.79h-81.1c2.19,20.35,20.15,36.29,40.57,36.27,20.44-.02,38.41-16,40.53-36.27Zm-11.81,139.71c-.24-5.23-8.02-11.7-14.81-11.85-9.27-.2-18.55-.16-27.83-.02-6.16,.09-14.21,5.86-14.93,11.87h57.56Z"/><path class="cls-1" d="M189.05,367.32c0-17.61,0-35.22,0-52.83,0-6.16,1.97-8.21,8.05-8.22,19.04-.04,38.08-.04,57.11,0,5.93,.01,7.9,2.02,7.9,7.98,.02,35.34,.02,70.68,0,106.02,0,5.88-2.03,7.82-8.02,7.83-19.04,.02-38.08,.02-57.11,0-5.88,0-7.93-2.06-7.93-7.95-.02-17.61,0-35.22,0-52.83Zm12.35,48.37h48.34v-97h-48.34v97Z"/></g></g></svg>